<?xml version="1.0" standalone="no"?><!DOCTYPE svg PUBLIC "-//W3C//DTD SVG 1.1//EN" "http://www.w3.org/Graphics/SVG/1.1/DTD/svg11.dtd"><svg t="1678260749060" class="icon" viewBox="0 0 1024 1024" version="1.1" xmlns="http://www.w3.org/2000/svg" p-id="11227" xmlns:xlink="http://www.w3.org/1999/xlink" width="32" height="32"><path d="M0 0m170.663111 0l682.652445 0q170.663111 0 170.663111 170.663111l0 682.652445q0 170.663111-170.663111 170.663111l-682.652445 0q-170.663111 0-170.663111-170.663111l0-682.652445q0-170.663111 170.663111-170.663111Z" fill="#EBF2FF" p-id="11228"></path><path d="M512.351993 787.674257c182.822858 0 330.926439 98.568613 331.033103 231.312514 0 1.674632-0.031999 3.338597-0.106664 5.002563H181.43622c-0.074665-1.663965-0.106664-3.327931-0.106664-5.002563 0-132.743901 148.210246-231.312514 331.022437-231.312514z" fill="#7D99C8" p-id="11229"></path><path d="M592.264994 721.158309v79.817004h-0.810649c-5.546551 30.079373-38.847191 53.204225-79.102352 53.204225-40.244495 0-73.545134-23.114185-79.091686-53.193559h-0.81065V721.158309h159.815337z" fill="#FBDBCB" p-id="11230"></path><path d="M508.213412 765.626716c-44.105748-1.226641-85.363555-19.306264-118.568196-56.916147-22.826191-25.866128-35.199267-53.054895-37.097894-81.576968l-21.610217-1.610633a59.988084 59.988084 0 0 1-55.433511-56.585488l-0.319994-5.72788a34.932606 34.932606 0 0 1 43.124435-35.839254l0.949314-9.098477a608.008666 608.008666 0 0 1 40.031166-159.015354l10.389117-25.866127H655.026354l10.389117 25.866127a608.008666 608.008666 0 0 1 40.031166 159.015354l0.95998 9.098477a34.932606 34.932606 0 0 1 43.103102 35.839254l-0.309327 5.72788a59.988084 59.988084 0 0 1-55.433512 56.585488l-21.610217 1.610633c-1.909294 28.522072-14.271703 55.710839-37.097893 81.576968-34.239287 38.793858-77.054395 56.798817-122.717444 56.980146z" fill="#FFE7DB" p-id="11231"></path><path d="M546.911273 182.822858a10.666444 10.666444 0 0 1 1.429303 4.31991c0.533322 5.055895 0.714652 9.226474 0.533322 12.501073l-0.202662 2.346618 3.221266-0.543989c21.876878-3.733256 38.452532-9.877128 49.705631-18.452949l2.197288-1.73863a10.666444 10.666444 0 0 1 16.682319 3.98925c8.767817 20.650236 11.125102 40.681819 7.039853 60.116081l-0.373325 1.578633c4.746568 1.514635 9.589134 3.199933 14.506364 5.066562 27.882086 10.581113 57.769463 26.367451 76.883732 75.65709 20.212912 52.084248 18.826274 116.562905-4.149247 193.425304l-1.855961 6.101206H701.425387c-0.47999-51.732256-8.319827-90.526114-23.540843-116.392242-15.221016-25.866128-29.716714-46.185704-43.487094-60.969396-41.513802 10.399783-79.85967 15.914335-115.037603 16.564988l-6.997188 0.063998v0.191996c-37.065894 0-77.737047-5.546551-122.024124-16.628986-13.77038 10.954438-28.266078 31.220683-43.487094 60.7774-15.221016 29.556718-23.060853 68.414575-23.540843 116.584238h-11.114435c-24.746151-79.571676-26.740776-146.076957-6.005209-199.52651 8.746484-22.548864 19.732922-38.079207 31.764672-49.321639 18.079623-20.660903 40.180496-36.009916 66.302619-46.068374a424.716485 424.716485 0 0 1 32.319326-11.029103c25.25814-9.034478 44.991063-16.767651 59.209433-23.210183a366.221704 366.221704 0 0 0 29.151393-14.869024l7.359847-4.266578a10.666444 10.666444 0 0 1 14.623695 3.733256z" fill="#7D99C8" p-id="11232"></path></svg>