<svg viewBox="0 0 1200 1200" xmlns="http://www.w3.org/2000/svg"><defs><style>.cls-1{isolation:isolate;}.cls-2{fill:#d6ecf4;}.cls-3{fill:#e6faff;}.cls-4{fill:#b27042;}.cls-5{fill:#de73ea;}.cls-6{fill:#a04be2;}.cls-7{fill:#ffeae1;}.cls-8{fill:#f8d1c7;}.cls-9{fill:#331403;}.cls-10{mix-blend-mode:multiply;}.cls-11{fill:#eab394;}.cls-12{fill:#f9bca5;}.cls-13{opacity:0.67;}.cls-14{fill:#ffb9a4;}.cls-15{fill:#d19369;}.cls-16{fill:#ef8fea;}</style></defs><title>touxiang</title><g class="cls-1"><g id="bg"><rect height="1200" width="1200" class="cls-2"></rect><path d="M301.11,151.67A149.45,149.45,0,1,0,151.66,301.11,149.45,149.45,0,0,0,301.11,151.67ZM151.66,258.93A107.27,107.27,0,1,1,258.93,151.67,107.39,107.39,0,0,1,151.66,258.93Z" class="cls-3"></path><path d="M450.56,301.11A149.45,149.45,0,1,0,301.11,151.67,149.44,149.44,0,0,0,450.56,301.11Zm0-256.72A107.27,107.27,0,1,1,343.29,151.67,107.4,107.4,0,0,1,450.56,44.39Z" class="cls-3"></path><path d="M749.45,301.11A149.45,149.45,0,1,0,600,151.67,149.45,149.45,0,0,0,749.45,301.11Zm0-256.72A107.27,107.27,0,1,1,642.18,151.67,107.41,107.41,0,0,1,749.45,44.39Z" class="cls-3"></path><path d="M1048.33,301.11A149.45,149.45,0,1,0,898.9,151.67,149.44,149.44,0,0,0,1048.33,301.11Zm0-256.72A107.27,107.27,0,1,1,941.07,151.67,107.4,107.4,0,0,1,1048.33,44.39Z" class="cls-3"></path><path d="M301.11,450.56A149.45,149.45,0,1,0,151.66,600,149.45,149.45,0,0,0,301.11,450.56ZM151.66,557.82A107.27,107.27,0,1,1,258.93,450.56,107.39,107.39,0,0,1,151.66,557.82Z" class="cls-3"></path><path d="M600,450.56A149.45,149.45,0,1,0,450.56,600,149.45,149.45,0,0,0,600,450.56ZM450.56,557.82A107.27,107.27,0,1,1,557.82,450.56,107.39,107.39,0,0,1,450.56,557.82Z" class="cls-3"></path><path d="M749.45,301.11A149.45,149.45,0,1,0,898.9,450.56,149.45,149.45,0,0,0,749.45,301.11Zm0,256.71A107.27,107.27,0,1,1,856.72,450.56,107.39,107.39,0,0,1,749.45,557.82Z" class="cls-3"></path><path d="M1197.78,450.56A149.44,149.44,0,1,0,1048.33,600,149.44,149.44,0,0,0,1197.78,450.56ZM1048.33,557.82a107.27,107.27,0,1,1,107.28-107.26A107.39,107.39,0,0,1,1048.33,557.82Z" class="cls-3"></path><path d="M301.11,749.45A149.45,149.45,0,1,0,151.66,898.9,149.45,149.45,0,0,0,301.11,749.45ZM151.66,856.72A107.27,107.27,0,1,1,258.93,749.45,107.4,107.4,0,0,1,151.66,856.72Z" class="cls-3"></path><path d="M450.56,600A149.45,149.45,0,1,0,600,749.45,149.45,149.45,0,0,0,450.56,600Zm0,256.72A107.27,107.27,0,1,1,557.82,749.45,107.4,107.4,0,0,1,450.56,856.72Z" class="cls-3"></path><path d="M600,749.45A149.45,149.45,0,1,0,749.45,600,149.46,149.46,0,0,0,600,749.45ZM749.45,642.18A107.27,107.27,0,1,1,642.18,749.45,107.4,107.4,0,0,1,749.45,642.18Z" class="cls-3"></path><path d="M898.9,749.45A149.44,149.44,0,1,0,1048.33,600,149.44,149.44,0,0,0,898.9,749.45Zm149.43-107.27A107.27,107.27,0,1,1,941.07,749.45,107.39,107.39,0,0,1,1048.33,642.18Z" class="cls-3"></path><path d="M151.66,898.9a149.44,149.44,0,1,0,149.45,149.43A149.44,149.44,0,0,0,151.66,898.9Zm0,256.71a107.27,107.27,0,1,1,107.27-107.28A107.4,107.4,0,0,1,151.66,1155.61Z" class="cls-3"></path><path d="M450.56,898.9A149.44,149.44,0,1,0,600,1048.33,149.44,149.44,0,0,0,450.56,898.9Zm0,256.71a107.27,107.27,0,1,1,107.26-107.28A107.39,107.39,0,0,1,450.56,1155.61Z" class="cls-3"></path><path d="M749.45,898.9A149.44,149.44,0,1,0,898.9,1048.33,149.44,149.44,0,0,0,749.45,898.9Zm0,256.71a107.27,107.27,0,1,1,107.27-107.28A107.39,107.39,0,0,1,749.45,1155.61Z" class="cls-3"></path><path d="M898.9,1048.33A149.44,149.44,0,1,0,1048.33,898.9,149.43,149.43,0,0,0,898.9,1048.33Zm149.43-107.26a107.27,107.27,0,1,1-107.26,107.26A107.39,107.39,0,0,1,1048.33,941.07Z" class="cls-3"></path></g><g id="涂色"><path d="M1109.37,1192.55c-3.26-156.24-45.26-671.34-61.85-735.63-26-100.9-41.08-164.22-130.2-237.61C862,173.74,813.16,154.21,738.3,177l-1.63-1.39c-92.76-63.71-310.85-47.43-411.75,50.22C242,306.1,200.46,398.14,175.19,499.24c-26,104.15-42.32,455.69-42.32,690.05Z" class="cls-4"></path><path d="M940.11,1189.29l-129,.2-376.79.58-123.53.2c33.63-60.15,73.24-107.81,116.43-142.9A364.59,364.59,0,0,1,462.51,1022c99.66-63,213.78-64.19,316-3.09a375.5,375.5,0,0,1,36,24.45C860.49,1078.56,903.23,1127.19,940.11,1189.29Z" class="cls-5"></path><path d="M620.36,737.11c23.65.28,46.17,1.32,66.61,2.79l14.92,1.29,7.15.63,6.91.76,13.1,1.47c4.2.5,8.22,1.1,12.06,1.62s7.49,1,10.94,1.56l9.73,1.63,8.45,1.46c2.59.47,4.95,1,7.07,1.42,8.48,1.78,13.14,2.9,13.08,3.21s-4.82-.24-13.38-1.48c-2.14-.3-4.51-.69-7.11-1l-8.49-1.08-9.74-1.29-10.95-1.23c-3.84-.42-7.85-.92-12.05-1.33l-13.08-1.21-6.89-.64-7.13-.52L686.68,744c-20.37-1.24-42.8-2.15-66.36-2.43s-46,.34-66.4,1.19l-14.89.83-7.14.4-6.9.53-13.1,1-12.06,1.15c-3.84.38-7.51.68-11,1.07l-9.76,1.15-8.5,1-7.12,1c-8.57,1.13-13.34,1.62-13.4,1.31s4.62-1.37,13.12-3c2.13-.41,4.49-.89,7.09-1.34l8.47-1.34,9.75-1.49c3.46-.5,7.12-.91,11-1.39s7.87-1,12.08-1.45l13.13-1.24,6.92-.64,7.15-.52,15-1C574.17,737.58,596.71,736.92,620.36,737.11Z"></path><ellipse ry="161.41" rx="2.25" cy="776.58" cx="617.87"></ellipse><path d="M282.6,652.22c-149.73-550.86,797.47-580.64,673.78-3L936,637.33c64.43-428.46-694.65-409.13-638.32-11.08Z" class="cls-6"></path><path d="M493.13,489.37a69.17,69.17,0,0,0,6.91,15.3c2.26,3.75,3.73,6.16,3.23,6.58s-2.76-1.26-5.8-4.71a43.72,43.72,0,0,1-8.63-15.81,64.08,64.08,0,0,1-2.79-17.62,34.54,34.54,0,0,1,.25-5.39c.18-1.27.43-2,.74-2s.65.65,1,1.87.71,3,1.17,5.17A158,158,0,0,0,493.13,489.37Z"></path><path d="M935.39,664.26c.69-14.37,2-27.82,4.72-39.94l-8-30a442,442,0,0,0-55.68-34.71l0-.07c-8-24-16.25-41.93-21-66.79l-.36-.42c-2.9,13.44-6.83,36.84-9.41,52.5l0,.09c-68.71-29.76-144.73-43.11-227.8-47.08-26.58-1.27-69,3.13-114.6,14.17L487,465.73a126.53,126.53,0,0,0-15,52.35l1,2.14A481.57,481.57,0,0,0,415,541.69c-4.61-9.56-18.37-26-20.51-35.67-6.57,14.29-11.15,35.91-11,51.64-33.83,19.38-62.15,43.83-77.87,73.88L295.62,611.3c5.06,19.31,6.93,40.57,7.51,62.85-1.13-3.52-1.85-5.67-1.85-5.67-22.2-42.86-125-25.55-108.93,66.58,14.53,83.18,74.72,82.17,108.93,60.39,0,0,1-3,2.6-7.72,5.94,96.61,43.57,184.06,251.52,193.73a181.84,181.84,0,0,0-24.22,5.86c11.84,18.54,46.46,31.76,87.23,31.35,41.94-.42,77.16-15.15,87.52-34.83a189.79,189.79,0,0,0-26.82-5.22c190.85-18.3,238.65-101.34,251-188.55,1.62,3.45,2.72,5.38,2.72,5.38,34.21,21.78,94.39,22.79,108.93-60.39C1057.26,646.12,962,626.92,935.39,664.26Z" class="cls-7"></path><ellipse ry="107.17" rx="111.65" cy="849.73" cx="442.24" class="cls-8"></ellipse><ellipse ry="107.17" rx="111.65" cy="846.47" cx="782.1" class="cls-8"></ellipse><path d="M816.78,1081.13c-.2-11.1,2.41-26-1.69-36.56-.17-.42,2.52-7.22,2.33-7.64-4.2-8.79-18.41-8.44-25.58-14.26-1.23-1,.69-3.59-.81-3.81-2.21-2.41-10.59-10.07-13.72-9-2.86,1-3.95,12.42-4,16.32q-1.06,58.5-2.11,117c0,2.89-.49,6.67-.92,10.8-12.82,0-25.68.1-38.5.13-5.21-.16-10.42-.22-15.66-.13-57.9-9.7-117.47-8.46-176.65-4.19q-18.15-1.08-36.26-2.22a6.84,6.84,0,0,0-4.91,1.56c-7.72-.94-15.37-2-23-3.09-.09-3.94-.16-7.74,0-11.29.78-22-4.72-43.9-3.93-65.93.39-10.62.52-45.87-1.51-59.73-.62-4.24-5.34,4.55-10.51,4.19-9.31-.58-17,11.19-22.33,15.19-1.76,1.3-4.25-.25-4.84,1.38-3.29.75-4.7,6.21-4.76,10.54,0,2.34-.07,4.65-.1,7q-.44,30.27-.91,60.58c-.29,20.6,3.38,75.41,2.12,81.34,0,0,387.41.19,388.49,0C816.4,1156.42,817.33,1114,816.78,1081.13Z" class="cls-6"></path></g><g id="五官"><path d="M513.13,666.91c-27.72-.06-28.36,60.66,3.15,60.66C540.22,727.57,542.37,667,513.13,666.91Z" class="cls-9"></path><path d="M513.13,662.41C484.56,663,482.35,706,496.74,723c7.82,9.24,22.73,12.7,32.17,3.88,9.17-8.57,11.25-23.59,9.85-35.46-1.67-14.25-9.71-28.67-25.63-29-5.79-.13-5.79,8.87,0,9,20.22.46,20.1,33.62,12.11,45.89-4.73,7.27-13.68,7.28-20,1.65-7.14-6.39-8.91-17.48-8.13-26.58s5.33-20.75,16-21C518.91,671.3,518.93,662.3,513.13,662.41Z" class="cls-9"></path><path d="M596.5,802c25.76,9.9,52.72-3.45,61-29.58,1.77-5.53-6.92-7.9-8.67-2.39-7,21.81-28.93,31.38-50,23.29-5.41-2.07-7.75,6.62-2.39,8.68Z" class="cls-9"></path><g class="cls-10"><path d="M482.61,643c17-15.49,43.66-14.91,62-2.24,4.78,3.3,9.29-4.5,4.55-7.77-21.77-15-53-14.44-72.92,3.64-4.29,3.91,2.09,10.26,6.37,6.37Z" class="cls-11"></path></g><g class="cls-10"><path d="M746.52,635.88c-20.59-14.89-50.62-17.65-72-2.94-4.74,3.26-.25,11.06,4.54,7.77,19-13.05,44.72-10.21,62.92,2.94,4.7,3.4,9.2-4.4,4.54-7.77Z" class="cls-11"></path></g><path d="M734.93,676.71a66,66,0,0,0-57.27,19.89c-3.26,3.47.07,8.25,4.38,7.52,15.06-2.55,33-2,46.65,5.5,5.09,2.79,9.63-5,4.55-7.77-15.92-8.72-36.06-9.38-53.6-6.41L684,703c12.33-13.13,30.55-20,48.52-17.58,5.66.77,8.11-7.9,2.39-8.68Z" class="cls-9"></path></g><g id="细节"><path d="M243.31,733.93c9.27-7.57,22-5.72,29.6,3.07,3.81,4.38,10.15-2,6.37-6.36-11.11-12.78-29.46-13.59-42.33-3.07-4.49,3.67,1.91,10,6.36,6.36Z" class="cls-12"></path><path d="M255.29,725.41A22.12,22.12,0,0,0,247,741.46c-.44,5.78,8.56,5.75,9,0a13.55,13.55,0,0,1,5.61-9.69c1.92-1.49,1.57-4.8,0-6.36-1.9-1.9-4.44-1.5-6.36,0Z" class="cls-12"></path><path d="M1009,727.57c-12.86-10.52-31.22-9.71-42.32,3.07-3.79,4.35,2.55,10.74,6.36,6.36,7.64-8.79,20.33-10.64,29.6-3.07,4.45,3.64,10.85-2.69,6.36-6.36Z" class="cls-12"></path><path d="M984.33,731.77a13.55,13.55,0,0,1,5.61,9.69c.44,5.74,9.44,5.79,9,0a22.11,22.11,0,0,0-8.24-16.05c-1.92-1.49-4.5-1.87-6.37,0-1.55,1.55-1.93,4.86,0,6.36Z" class="cls-12"></path><g class="cls-13"><g class="cls-10"><path d="M392.58,845.77l-6,20c-1.67,5.56,7,7.94,8.68,2.39l6-20c1.67-5.56-7-7.93-8.68-2.39Z" class="cls-14"></path></g><g class="cls-10"><path d="M430.77,845.77l-6,20c-1.68,5.56,7,7.94,8.67,2.39l6-20c1.67-5.56-7-7.93-8.68-2.39Z" class="cls-14"></path></g><g class="cls-10"><path d="M464.76,845.77l-6,20c-1.67,5.56,7,7.94,8.68,2.39l6-20c1.67-5.56-7-7.93-8.68-2.39Z" class="cls-14"></path></g><g class="cls-10"><path d="M737.42,845.77l-6,20c-1.67,5.56,7,7.94,8.68,2.39l6-20c1.68-5.56-7-7.93-8.68-2.39Z" class="cls-14"></path></g><g class="cls-10"><path d="M775.62,845.77l-6,20c-1.67,5.56,7,7.94,8.68,2.39l6-20c1.67-5.56-7-7.93-8.68-2.39Z" class="cls-14"></path></g><g class="cls-10"><path d="M809.61,845.77l-6,20c-1.67,5.56,7,7.94,8.68,2.39l6-20c1.68-5.56-7-7.93-8.67-2.39Z" class="cls-14"></path></g></g><path d="M197,764.94c-11.13,72.83-15.53,146.3-9.26,219.78,3.65,42.71,12.5,86,9.24,129-1.76,23.15-8,45.65-17.45,66.82-2.34,5.24,5.41,9.82,7.77,4.54,8.8-19.71,15-40.22,17.71-61.67,2.42-19.52,1.76-39.22.06-58.77-2-22.64-5-45.17-7.22-67.78a854,854,0,0,1-4.17-88.75c.36-47.16,4.88-94.2,12-140.79.86-5.67-7.81-8.11-8.68-2.4Z" class="cls-15"></path><path d="M301.79,963.38a597.7,597.7,0,0,0-17.53,135.37c-.08,5.8,8.92,5.8,9,0a585.84,585.84,0,0,1,17.21-133c1.39-5.62-7.28-8-8.68-2.39Z" class="cls-15"></path><path d="M893.51,973.33a283.29,283.29,0,0,0,23.21,141.09c2.34,5.28,10.1.71,7.77-4.55a274.22,274.22,0,0,1-22-136.54c.54-5.77-8.46-5.73-9,0Z" class="cls-15"></path><path d="M1018.94,1011.63a708.92,708.92,0,0,1,9.68,158.22c-.29,5.79,8.71,5.77,9,0a719.58,719.58,0,0,0-10-160.61c-1-5.69-9.68-3.28-8.68,2.39Z" class="cls-15"></path><path d="M1003.38,797.9c5.26,50.31,2.56,100.48-4.06,150.52-6.4,48.39-14.83,96.48-17.65,145.27a698.54,698.54,0,0,0,1.34,98.86c.49,5.73,9.49,5.78,9,0-4.61-54.92-2.07-109.68,5-164.26,6.14-47.12,14.7-94,17.39-141.48a553.45,553.45,0,0,0-2-88.91c-.6-5.71-9.6-5.77-9,0Z" class="cls-15"></path><path d="M513.77,400.39a207.06,207.06,0,0,0,32.77,107.54c3.13,4.86,10.92.35,7.78-4.54a198,198,0,0,1-31.55-103c-.13-5.78-9.13-5.8-9,0Z" class="cls-15"></path><path d="M637.66,409.76a224.94,224.94,0,0,1,7.55,87.09c-.62,5.75,8.38,5.71,9,0a231.79,231.79,0,0,0-7.87-89.48c-1.61-5.55-10.3-3.19-8.68,2.39Z" class="cls-15"></path><path d="M760.91,381.2c33.09,42.12,50.13,95.74,48,149.2-.23,5.79,8.77,5.78,9,0a237.82,237.82,0,0,0-50.65-155.57c-3.57-4.55-9.9,1.86-6.36,6.37Z" class="cls-15"></path><path d="M411.28,392.38a164.15,164.15,0,0,0-5.07,107.78c1.64,5.54,10.33,3.18,8.68-2.39a156.18,156.18,0,0,1,5.07-103c2.17-5.37-6.53-7.7-8.68-2.4Z" class="cls-15"></path><path d="M677.46,349.53c37.52,36.26,56.51,89.12,50.95,141-.62,5.75,8.39,5.71,9,0,5.79-54-14.53-109.58-53.59-147.32-4.17-4-10.54,2.33-6.36,6.36Z" class="cls-15"></path><path d="M328.52,489.3a232.16,232.16,0,0,0-8.33,103.11c.82,5.71,9.49,3.28,8.68-2.39a221.92,221.92,0,0,1,8.33-98.33c1.75-5.53-6.93-7.9-8.68-2.39Z" class="cls-15"></path><path d="M886.9,486.27a201.83,201.83,0,0,1,3.28,77.34c-.87,5.66,7.8,8.1,8.68,2.39a213.43,213.43,0,0,0-3.28-82.12c-1.34-5.63-10-3.25-8.68,2.39Z" class="cls-15"></path><path d="M424.67,203.49c-55.55,2.44-102.27,44-131.43,88.37a233.85,233.85,0,0,0-21.48,41.06c-2.17,5.37,6.53,7.7,8.67,2.39,19-47.08,56-92,103-112.87a114.14,114.14,0,0,1,41.24-9.95c5.77-.26,5.8-9.26,0-9Z" class="cls-15"></path><path d="M229.26,432.09a525.34,525.34,0,0,0-20.81,86c-5,31.61-7.87,63.8-6.33,95.82a257.64,257.64,0,0,0,6.85,49.6c1.39,5.62,10.07,3.24,8.68-2.39-7.19-29-7.92-59.34-6.2-89a545.7,545.7,0,0,1,13.91-93.33c3.53-14.93,7.65-29.72,12.58-44.24,1.86-5.49-6.83-7.85-8.68-2.39Z" class="cls-15"></path><path d="M947,323.84c24.61,27.2,37.92,64.8,48.25,99.34,14.37,48,22.6,98,26.34,148a737.1,737.1,0,0,1,1.32,89.67c-.28,5.79,8.72,5.78,9,0a758.8,758.8,0,0,0-10-161.68c-7.65-45.49-19-91.19-38.28-133.27-7.92-17.28-17.41-34.21-30.23-48.37-3.9-4.31-10.24,2.07-6.36,6.36Z" class="cls-15"></path><path d="M778.43,219.18c24.78-2.74,50.36.13,73.23,10.41,26.35,11.84,46.79,32.47,60.47,57.73,2.76,5.09,10.53.56,7.77-4.54-14.34-26.48-36.08-48.51-63.7-61-24.32-11-51.33-14.56-77.77-11.64-5.69.63-5.76,9.64,0,9Z" class="cls-15"></path><path d="M661.32,179.8C630.5,165.43,594.21,159.41,560.58,166c-5.68,1.11-3.27,9.79,2.39,8.68,31.09-6.08,65.33-.38,93.81,12.9,5.21,2.44,9.79-5.32,4.54-7.77Z" class="cls-15"></path></g><g id="线"><path d="M814.23,1044.43c49.73,39,89.78,88.75,122,142.85,3,5,10.75.45,7.77-4.54-32.57-54.7-73.1-105.25-123.39-144.67-4.51-3.54-10.92,2.79-6.37,6.36Z" class="cls-9"></path><path d="M771.27,1006.74a382.42,382.42,0,0,1,43,28.93c4.52,3.51,10.94-2.81,6.37-6.36A396.56,396.56,0,0,0,775.81,999c-5-2.91-9.56,4.87-4.54,7.77Z" class="cls-9"></path><path d="M689.93,982.4a322.17,322.17,0,0,1,81.34,33.1c5,2.88,9.58-4.89,4.54-7.77a331,331,0,0,0-83.49-34c-5.62-1.41-8,7.26-2.39,8.68Z" class="cls-9"></path><path d="M472,1017.1a316.91,316.91,0,0,1,70.83-31.37c5.53-1.66,3.18-10.35-2.39-8.68a326.41,326.41,0,0,0-73,32.28c-5,2.95-.45,10.74,4.54,7.77Z" class="cls-9"></path><path d="M314.69,1188.25c30.29-54,68.59-103.86,116.91-143,4.51-3.64-1.89-10-6.36-6.36-48.86,39.54-87.69,90.16-118.32,144.78-2.83,5.06,4.94,9.6,7.77,4.54Z" class="cls-9"></path><path d="M469.93,998.52c-8.81,3.23-16.86,9.06-24.49,14.37-7,4.85-15.43,10-20.74,16.75-3.53,4.5,2.79,10.92,6.37,6.36,4.87-6.21,12.53-10.88,18.91-15.34,6.91-4.8,14.37-10.54,22.34-13.46,5.39-2,3.06-10.68-2.39-8.68Z" class="cls-9"></path><path d="M939.4,678.81c.45-17.62,1.31-35.34,5.05-52.62,1.22-5.64-7.45-8.06-8.68-2.39-3.91,18.06-4.9,36.59-5.37,55-.15,5.8,8.85,5.79,9,0Z" class="cls-9"></path><path d="M299,781.75c2,42.39,9.75,86.22,35.69,121,33.47,44.89,88.42,65.44,141.73,75.29,43.9,8.12,88.81,10,133.37,9.4,43.17-.6,86.55-3.75,129-12.19,54.15-10.78,110.07-31.28,148-73.22,27.85-30.8,42.1-70.09,47.76-110.73q1.08-7.65,1.84-15.34c.57-5.76-8.43-5.72-9,0-3.87,38.72-14.2,77.24-37.89,108.76-31,41.28-80,63.75-128.84,76.34-37.85,9.76-76.9,14.26-115.87,16.27-45.73,2.35-92,1.93-137.46-3.62-55.38-6.76-116.18-22-155.53-64.43-28.35-30.55-39.35-71.42-42.73-112-.43-5.15-.75-10.32-1-15.49-.28-5.76-9.28-5.8-9,0Z" class="cls-9"></path><path d="M291.28,613.17c6.24,24.3,7.35,49.48,7.56,74.45,0,5.79,9,5.8,9,0-.21-25.75-1.45-51.79-7.88-76.84-1.44-5.61-10.12-3.23-8.68,2.39Z" class="cls-9"></path><path d="M306,665c-8.92-16.82-28.23-24.37-46.48-24.51-20.74-.15-41.77,8.73-55.3,24.61-18.16,21.3-19.8,49.85-14.16,76.22,5.74,26.88,19.34,54.45,46.16,65.34,22.28,9,48.27,4,68.16-8.54,4.89-3.07.38-10.86-4.54-7.77-15.37,9.68-34.63,14.68-52.59,10.41-23.87-5.68-38.19-26.62-45.15-48.92C194.55,727.62,192,699.2,206.54,677c10-15.36,27.41-25.17,45.55-27.08,17.34-1.83,37.43,3.24,46.16,19.69,2.72,5.12,10.49.58,7.77-4.54Z" class="cls-9"></path><path d="M939.3,666.51c8.88-13.3,26.05-17.73,41.21-16.88,18,1,35.7,9.78,46.6,24.28,15.52,20.65,14.55,47.84,8.33,71.7-5.86,22.46-18.31,45.65-41.56,53.63-19.4,6.65-41,1.84-58-8.86-4.92-3.09-9.44,4.69-4.54,7.77,17.32,10.91,38.93,16.05,59.11,11.42,25.17-5.79,41.65-26.75,50.09-50.08,9.69-26.76,13-59.35-2.15-84.79-10.77-18.15-29.92-30.24-50.68-33.31s-44,2.35-56.21,20.58c-3.22,4.83,4.57,9.34,7.77,4.54Z" class="cls-9"></path><path d="M738.94,170.53c-31.94-21.78-71.17-31.42-109.1-35.87-45.79-5.38-92.62-2.71-137.82,6.11-44.92,8.77-89.39,24.06-128.38,48.33-19.94,12.4-37.48,27.4-53.8,44.23a508.93,508.93,0,0,0-55.55,68.17C222.93,347.66,200,399,183.36,452.14a641.5,641.5,0,0,0-23.31,105.3c-5.54,40.62-9.34,81.47-12.6,122.33-4,50.71-7.14,101.5-9.7,152.31q-4.11,81.57-6.4,163.21-2.26,78.46-2.86,157-.11,17.92-.12,35.85c0,5.79,9,5.8,9,0q0-75.19,1.87-150.38,1.89-80.9,5.44-161.75c2.27-51.51,5.06-103,8.65-154.44,3-43.68,6.61-87.34,11.57-130.84,3.43-30.08,7.08-60.48,14.25-89.94,12.83-52.63,31-104.31,56.91-152a492.82,492.82,0,0,1,46.83-71.13c16.93-21.35,35.47-42.26,56.33-59.86,34-28.73,76-47.45,118.52-59.57a453.92,453.92,0,0,1,136.75-17.09c40,1.14,81.58,7.31,118,24.66A163.07,163.07,0,0,1,734.4,178.3c4.8,3.27,9.31-4.52,4.54-7.77Z" class="cls-9"></path><path d="M739.5,180.15c26.2-7.88,53.89-12.12,81.11-7.43C845.35,177,868,188,888.61,202c42.7,29,81.32,67.42,106.35,112.83,23,41.79,34.45,88.67,46.28,134.54,4.61,17.86,7.25,36,9.63,54.27,3.85,29.43,7,58.95,10.06,88.48q5.91,57.51,11,115.09,5.74,64.34,10.86,128.73,5.16,64.66,9.73,129.38,4.11,58.51,7.55,117.07c1.76,30.57,3.37,61.17,4.36,91.78q.28,8.58.47,17.16c.12,5.79,9.12,5.81,9,0-.6-28.35-2-56.69-3.5-85q-3-57.07-7-114.1-4.38-64.56-9.43-129-5.13-65.9-10.87-131.72-5.25-60.18-11.18-120.28c-3.16-31.68-6.48-63.35-10.39-94.94-2.39-19.31-4.53-38.87-8.7-57.89-4.51-20.54-10.37-41-16.16-61.17-6.38-22.26-13.66-44.3-23.19-65.44-21-46.6-54.25-85.09-93.55-117.34-20.35-16.7-42.14-31.95-66.71-41.78a155.08,155.08,0,0,0-73.57-10,229.27,229.27,0,0,0-42.49,8.8c-5.53,1.67-3.17,10.35,2.4,8.68Z" class="cls-9"></path><path d="M302.05,623.87c-4.84-34.57-3.75-70.13,5.46-103.89a223.24,223.24,0,0,1,42.19-82c19.55-24,43.59-44,70.05-59.95,27.74-16.75,57.95-29.13,89.16-37.75a432.08,432.08,0,0,1,198.44-6.69C739,340.12,770,350.4,798.74,365.23c27.76,14.33,53.35,32.83,74.65,55.74a227.33,227.33,0,0,1,48.24,79.85c11.69,33.58,15.37,69.31,13.18,104.69q-.91,14.78-3.11,29.44c-.85,5.67,7.82,8.11,8.68,2.4,5.67-38.05,5.77-77-3-114.6a236.67,236.67,0,0,0-41.51-88.92c-19.41-25.62-43.74-47.1-71-64.1-28-17.49-58.9-30.28-90.71-39a422.57,422.57,0,0,0-101.83-14.49A443.28,443.28,0,0,0,529.53,326a384.77,384.77,0,0,0-94.81,33.42c-28.57,14.67-55.22,33.54-77.57,56.68A238.16,238.16,0,0,0,305.91,496c-12.42,32.34-17.07,67.35-15.32,101.87.48,9.51,1.47,19,2.79,28.42.8,5.71,9.47,3.28,8.67-2.39Z" class="cls-9"></path><path d="M286.94,649.84c-12.77-47.15-19.11-96.32-14.35-145.12,3.92-40.1,15.79-79.4,35.83-114.4,18.68-32.61,44.11-61.05,73.82-84s63.84-40.64,99.43-52.95a416.27,416.27,0,0,1,113.83-22,423.48,423.48,0,0,1,116,9.67c37.3,8.48,73.43,22.25,106.33,41.85,32.48,19.35,61.65,44.43,84.67,74.49,24.53,32,41.68,69.13,51.14,108.3,11.17,46.24,11.69,94.6,5.35,141.59-1.79,13.28-4.16,26.49-7,39.59-1.2,5.65,7.47,8.07,8.68,2.4,10.76-50.47,14.85-102.58,7.69-153.84-5.87-42-19.71-82.93-42-119.11A300.36,300.36,0,0,0,846.59,291c-31.65-22.91-67.47-39.87-104.79-51.26A422.71,422.71,0,0,0,624,221.8a433.51,433.51,0,0,0-118.54,14.85c-37.59,10.18-73.94,25.73-106.63,47-32.29,21-60.85,47.52-83.25,78.9a286.34,286.34,0,0,0-47.22,110c-9.28,46.5-7.67,94.47,1,140.93,2.44,13,5.45,26,8.92,38.79,1.52,5.59,10.2,3.22,8.68-2.39Z" class="cls-9"></path><path d="M874.13,562.29A454.35,454.35,0,0,1,929.81,597c4.69,3.41,9.19-4.39,4.55-7.77a453.89,453.89,0,0,0-55.68-34.72c-5.12-2.7-9.68,5.07-4.55,7.77Z" class="cls-9"></path><path d="M504.47,515.15C547,504.92,590,499.25,633.71,502c46.67,3,93.25,9.23,138.52,21.19a507.62,507.62,0,0,1,71.17,24.4c5.26,2.27,9.85-5.49,4.54-7.77C805.43,521.51,760.66,509.36,715,502c-23.57-3.83-47.32-6.49-71.14-8.25-20.4-1.51-40.54-2.32-61-.64a533.94,533.94,0,0,0-80.83,13.4c-5.63,1.35-3.25,10,2.39,8.68Z" class="cls-9"></path><path d="M417.3,544.4a483.23,483.23,0,0,1,56.86-21c5.53-1.68,3.17-10.37-2.39-8.68a501.69,501.69,0,0,0-59,21.93c-5.28,2.36-.71,10.11,4.54,7.77Z" class="cls-9"></path><path d="M309.57,632.63c16.82-31.69,45.67-54.63,76.26-72.27,5-2.89.49-10.67-4.54-7.77-31.86,18.36-62,42.51-79.49,75.5-2.71,5.11,5.06,9.67,7.77,4.54Z" class="cls-9"></path><path d="M483.15,462.27a135.37,135.37,0,0,0-15.63,54.63c-.4,5.78,8.61,5.75,9,0a124.38,124.38,0,0,1,14.4-50.08c2.73-5.11-5-9.67-7.77-4.55Z" class="cls-9"></path><path d="M482.54,464.54c1.15,18.49,5.41,34.52,17.55,48.71,3.77,4.41,10.11-2,6.36-6.36-10.49-12.27-13.92-26.42-14.91-42.35-.36-5.75-9.36-5.79-9,0Z" class="cls-9"></path><path d="M390.63,502.56a132.9,132.9,0,0,0-11.57,53.92c0,5.79,9,5.8,9,0a122.11,122.11,0,0,1,10.34-49.37c2.35-5.25-5.4-9.83-7.77-4.55Z" class="cls-9"></path><path d="M390.18,506c3.45,13.73,14.75,24.31,21,36.75,2.59,5.19,10.36.63,7.77-4.54-5.82-11.66-16.83-21.78-20.05-34.6-1.42-5.61-10.1-3.24-8.68,2.39Z" class="cls-9"></path><path d="M850.78,489.93c-3.71,17.38-6.52,35-9.4,52.5-.94,5.66,7.73,8.1,8.67,2.39,2.89-17.53,5.7-35.11,9.4-52.5,1.21-5.64-7.47-8.06-8.67-2.39Z" class="cls-9"></path><path d="M851.14,492.74c4.48,23,13.56,44.6,21,66.79,1.83,5.47,10.52,3.12,8.68-2.39-7.4-22.19-16.48-43.74-21-66.79-1.11-5.68-9.78-3.28-8.68,2.39Z" class="cls-9"></path><path d="M424.47,1028.15q-1.92,77.38-.42,154.81c.11,5.78,9.11,5.8,9,0q-1.5-77.4.42-154.81c.14-5.8-8.86-5.79-9,0Z" class="cls-9"></path><path d="M465.77,1002.86q-.19,90.06,2,180.1c.14,5.78,9.14,5.8,9,0q-2.2-90-2-180.1c0-5.79-9-5.8-9,0Z" class="cls-9"></path><path d="M811.34,1028.15q1.9,77.38.42,154.81c-.12,5.79,8.88,5.79,9,0q1.49-77.4-.42-154.81c-.14-5.78-9.14-5.81-9,0Z" class="cls-9"></path><path d="M770,1002.86q.19,90.06-2,180.1c-.15,5.79,8.85,5.79,9,0q2.21-90,2-180.1c0-5.79-9-5.8-9,0Z" class="cls-9"></path><path d="M471.43,1148.11q117.82,5.58,235.82,6.37,33.64.21,67.31,0c5.79,0,5.8-9,0-9q-118,.6-235.88-3.59-33.64-1.22-67.25-2.81c-5.79-.28-5.78,8.72,0,9Z" class="cls-9"></path><path d="M524.37,987.78c34.36,44.32,104.73,42.84,151.45,21.78,12.58-5.67,24.49-13.38,33.87-23.57,3.92-4.26-2.43-10.64-6.36-6.36-16.39,17.79-40.36,27.41-63.68,32-25.06,5-52.47,4.21-76.3-5.65a79.39,79.39,0,0,1-32.62-24.57c-3.54-4.57-9.87,1.84-6.36,6.36Z" class="cls-9"></path></g><g id="erding"><path d="M279.76,909.24c-80.14-29.49-39.73-130.63,0-63.2" class="cls-16"></path><path d="M281,904.9c-21-7.89-40-24.68-42.59-48.11-.8-7.3-.06-15.32,3.7-21.77,2.78-4.79,7-7.79,11.91-7.16,9.81,1.24,17.23,12.62,21.9,20.45,3,5,10.75.45,7.77-4.54-5.81-9.74-13.76-20.7-25.2-24.1a20.07,20.07,0,0,0-21.24,6.69c-13.43,15.95-8.75,41.56,1.83,57.6,9.4,14.24,23.76,23.7,39.53,29.62,5.43,2,7.77-6.65,2.39-8.68Z" class="cls-9"></path><path d="M279.76,909.24c80.13-29.49,39.72-130.63,0-63.2" class="cls-16"></path><path d="M281,913.58c25.45-9.55,47.26-29.9,49.33-58.29,1.14-15.6-6.73-39.35-26.53-36.2-12.77,2-21.73,14.38-27.88,24.68-3,5,4.8,9.51,7.77,4.54,4.55-7.63,10.79-17.19,19.82-20,5.08-1.56,9.53.36,12.77,4.77,9.93,13.48,4.73,34-3.78,46.68-8,12-20.58,20.11-33.89,25.1-5.37,2-3.05,10.73,2.39,8.68Z" class="cls-9"></path><path d="M275.47,785q-.72,27-.19,54c.11,5.79,9.11,5.81,9,0q-.54-27,.19-54c.16-5.79-8.84-5.79-9,0Z" class="cls-9"></path><path d="M950.4,909.24c-80.13-29.49-39.72-130.63,0-63.2" class="cls-16"></path><path d="M951.6,904.9c-21-7.89-40-24.68-42.59-48.11-.8-7.3-.06-15.32,3.7-21.77,2.78-4.79,7-7.79,11.9-7.16,9.82,1.24,17.24,12.62,21.91,20.45,3,5,10.75.45,7.77-4.54-5.81-9.74-13.76-20.7-25.2-24.1a20.06,20.06,0,0,0-21.24,6.69c-13.43,15.95-8.75,41.56,1.83,57.6,9.39,14.24,23.76,23.7,39.53,29.62,5.42,2,7.77-6.65,2.39-8.68Z" class="cls-9"></path><path d="M950.4,909.24c80.13-29.49,39.72-130.63,0-63.2" class="cls-16"></path><path d="M951.6,913.58c25.45-9.55,47.26-29.9,49.33-58.29,1.13-15.6-6.74-39.35-26.53-36.2-12.78,2-21.74,14.38-27.88,24.68-3,5,4.8,9.51,7.77,4.54,4.55-7.63,10.78-17.19,19.82-20,5.08-1.56,9.53.36,12.77,4.77,9.93,13.48,4.72,34-3.78,46.68-8,12-20.58,20.11-33.89,25.1-5.38,2-3.05,10.73,2.39,8.68Z" class="cls-9"></path><path d="M946.12,785q-.74,27-.2,54c.12,5.79,9.12,5.81,9,0q-.52-27,.2-54c.15-5.79-8.85-5.79-9,0Z" class="cls-9"></path></g></g></svg>