<svg viewBox="0 0 1200 1200" xmlns="http://www.w3.org/2000/svg"><defs><style>.cls-1{isolation:isolate;}.cls-2{fill:#f4ffe1;}.cls-3{fill:#e5f4c6;}.cls-4{fill:#fff;}.cls-5{fill:#a393ba;}.cls-6{fill:#824319;}.cls-7{fill:#d8a482;}.cls-8{fill:#a468dd;}.cls-9{fill:#ba88ea;}.cls-10{fill:#ce8172;}.cls-11{fill:#f2c6af;}.cls-12{fill:#e5ad95;}.cls-13{fill:#331403;}.cls-14{mix-blend-mode:multiply;}.cls-15{fill:#eab394;}.cls-16{fill:#f9bca5;}.cls-17{opacity:0.67;}.cls-18{fill:#ffb9a4;}.cls-19{opacity:0.53;}.cls-20{fill:#c18257;}.cls-21{fill:#e9f1f4;}.cls-22{fill:#5ea520;}</style></defs><title>touxiang</title><g class="cls-1"><g id="bg"><rect height="1200" width="1200" class="cls-2"></rect><path d="M1049,151h149.08c0,82.64-66.7,149.63-149,149.68h149c0,82.66-66.74,149.67-149.08,149.67h149.08c0,82.64-66.7,149.64-149,149.68h149.6V1.28h-.6C1198.11,84,1131.37,151,1049,151Z" class="cls-3"></path><polygon points="1049.03 599.99 1049.11 599.99 1048.95 599.99 1049.03 599.99" class="cls-3"></polygon><path d="M600.59,1.32h-1.18C599.41,84,532.66,151,450.28,151H599.41c0,82.63-66.75,149.63-149,149.71h149c0,82.64-66.75,149.63-149.13,149.63H599.41c0,82.64-66.75,149.63-149,149.72h149c0,82.63-66.75,149.72-149.13,149.72H599.41c0,82.62-66.75,149.63-149,149.63h149c0,82.63-66.75,149.71-149.13,149.71H599.41c0,82.63-66.75,149.63-149,149.63H749.63c-82.29,0-149-67-149-149.63H749.72c-82.38,0-149.13-67.08-149.13-149.71h149c-82.29,0-149-67-149-149.63H749.72c-82.38,0-149.13-67.09-149.13-149.72h149c-82.29-.09-149-67.08-149-149.72H749.72c-82.38,0-149.13-67-149.13-149.63h149c-82.29-.08-149-67.08-149-149.71H749.72C667.34,151,600.59,84,600.59,1.32Z" class="cls-3"></path><polygon points="749.6 599.99 749.68 599.99 749.76 599.99 749.6 599.99" class="cls-3"></polygon><polygon points="1049.03 899.37 1049.11 899.36 1048.95 899.36 1049.03 899.37" class="cls-3"></polygon><path d="M1049,749.69h149.08c0,82.63-66.7,149.63-149,149.67h149C1198.11,982,1131.37,1049,1049,1049h149.08c0,82.64-66.7,149.64-149,149.68h149.6V600h-.6C1198.11,682.67,1131.37,749.69,1049,749.69Z" class="cls-3"></path><path d="M900,1049H1049C966.69,1049,900,982,900,899.37h149c-82.28,0-149-67-149-149.67H1049C966.7,749.7,900,682.67,900,600h149c-82.28,0-149-67-149-149.71H1049c-82.33,0-149.07-67-149.07-149.66h149c-82.28,0-149-67-149-149.67H1049C966.69,151,900,83.94,900,1.27h-1.19C898.76,83.94,832,151,749.69,151H898.76c0,82.63-66.7,149.63-149,149.67h149c0,82.67-66.74,149.66-149.07,149.66H898.76c0,82.67-66.7,149.67-149,149.71h149c0,82.66-66.74,149.69-149.07,149.69H898.76c0,82.63-66.7,149.62-149,149.67h149C898.76,982,832,1049,749.69,1049H898.76c0,82.67-66.7,149.66-149,149.7h299.16C966.65,1198.69,900,1131.7,900,1049Z" class="cls-3"></path><polygon points="450.32 599.99 450.4 599.99 450.24 599.99 450.32 599.99" class="cls-3"></polygon><polygon points="150.89 599.99 150.96 599.99 151.04 599.99 150.89 599.99" class="cls-3"></polygon><path d="M1.89,450.31H151c-82.33,0-149.07-67-149.07-149.67h149c-82.3-.05-149-67-149-149.68H151C68.63,151,1.89,84,1.89,1.28h-.6V600h149.6C68.59,600,1.89,533,1.89,450.31Z" class="cls-3"></path><path d="M301.24,1049H450.31c-82.33,0-149.07-67-149.07-149.66h149c-82.28,0-149-67-149-149.67H450.31c-82.33,0-149.06-67-149.07-149.69h149c-82.28,0-149-67-149-149.71H450.31c-82.33,0-149.07-67-149.07-149.66h149c-82.28,0-149-67-149-149.67H450.31c-82.33,0-149.07-67-149.07-149.7h-1.18C300.06,83.94,233.31,151,151,151H300.06c0,82.63-66.7,149.63-149,149.67h149c0,82.67-66.75,149.66-149.08,149.66H300.06c0,82.67-66.7,149.67-149,149.71h149C300,682.67,233.3,749.7,151,749.7H300.06c0,82.63-66.7,149.62-149,149.67h149C300.06,982,233.31,1049,151,1049H300.06c0,82.67-66.7,149.66-149,149.7H450.22C367.94,1198.69,301.24,1131.7,301.24,1049Z" class="cls-3"></path><polygon points="151.04 899.36 150.89 899.36 150.96 899.37 151.04 899.36" class="cls-3"></polygon><path d="M1.89,1049H151C68.63,1049,1.89,982,1.89,899.36h149c-82.3,0-149-67-149-149.67H151c-82.33,0-149.07-67-149.07-149.68h-.6v598.71h149.6C68.59,1198.68,1.89,1131.68,1.89,1049Z" class="cls-3"></path></g><g id="涂色"><path d="M325.06,1190.26c160.59-287.41,458.13-289.34,629.3-1" class="cls-4"></path><path d="M799.62,1187.16a985.16,985.16,0,0,1,13.85-137.38c1.56-9.06,3.29-18.24,6.6-26.89l-37.93-22.18c-64.77,92.53-230,119.53-299.35,5l-31.37,21a160.7,160.7,0,0,1,5.26,23.09,985.16,985.16,0,0,1,13.85,137.38Z" class="cls-5"></path><path d="M985.58,595c10.15-2.36,20.46-4.79,29.49-10s16.76-13.64,18.53-23.91c2.26-13.18-5.88-26.41-16.84-34.09s-24.31-11-37.32-14.08l7.66-1.14c21.3-3.4,34.48-28.53,29.49-49.52s-24-36.52-44.63-42.71a111.22,111.22,0,0,0-26.4-4.23l9.22-12.09c41.05-36.6-36.61-156.71-93.9-86.08l-5.85,8.3c-.44-30.57-21.2-59.85-49.91-70.37s-63.47-1.6-83.56,21.45l-6.42,27.27C749,201.36,640,182.53,593.4,237.53l7.28-15.22c-8.45-19.4-35.93-41.07-71.86-37.92V205c-7.46-27.25-35.57-46.85-63.8-45.84s-54.33,21.6-63.27,48.41-1,58.1,18.55,78.49l-14.59-17.51c-25.14,9.84-51.59,20.64-67.87,42.19S321,368,343.78,382.5l-17.25-13.73c-34-1.45-68.11,17-85.52,46.2S220.6,480.1,253.49,516.1c0,0-21.32,24-10,48.73,11.61,25.38,36.85,33.44,38.3.17,10.27,31.7,10.85,86,34.61,96.77Z" class="cls-6"></path><path d="M950.23,668.48s-.31.43-.82,1.22c.61-16.42,1.92-31.74,5-45.38,0,0-130-64.73-322.24-64.73-208.23,0-322.24,51.71-322.24,51.71,4.42,16.87,6.4,35.24,7.22,54.46-25.11-39.3-123-20.79-107.3,69.3,14.53,83.15,74.67,82.17,108.88,60.42,7.54,93.58,48.67,176.72,251.55,186-7.85,3.87-19.37,6-27.37,8.51,11.85,18.54,50.1,33.3,90.87,32.89,41.93-.42,77.15-15.15,87.51-34.83a240.06,240.06,0,0,1-26.65-9.56c193.87-18.94,239.41-105,250.47-194a108.41,108.41,0,0,0,5.18,10.94c34.21,21.78,94.39,22.79,108.93-60.39C1075.26,642.93,972.44,625.62,950.23,668.48Z" class="cls-7"></path><path d="M288.77,638.27c158.92-54.86,546.23-46.13,661.73,6.5l13.58,7.38c5.77-31.28,21.35-62.56,21.35-62.56L964.08,581C850,494,449.74,464.14,278.91,554.72" class="cls-8"></path><path d="M972.46,602.61a8.2,8.2,0,0,0-5.05-5.36c-10-3.83-20.1-7.2-30.3-10.2-14.3-6.7-31.61-9.3-46.44-12.83-1.1-.27-2.21-.5-3.32-.76a6.42,6.42,0,0,0-.65-.48c-32.33-18.23-68.9-19.89-105.17-20.09a8.65,8.65,0,0,0-1.17-.2Q655.62,546.77,530.69,547c-80.63.21-161.68-.27-241.06,15.54a7.85,7.85,0,0,0-2.74,1.13c-.6,11.71,1.09,23.16,2.54,34.69a8.38,8.38,0,0,0,2.87-.43c33.25-10.77,67.37-16.81,101.86-20.24q117.91-5.79,236.06-3.82c42,.74,84.08,2,126.07,4.36,71,5.89,141.44,17.36,209.74,39.06C975.23,620.21,979.56,607.19,972.46,602.61Z" class="cls-9"></path><path d="M857.1,446.35c19.43,137.07-121.3,182.12-119,30.08l-14.62,52.32c-35.22,46.89-97,17.29-109.72-29.19-10.17,34.93-27.27,60.08-76,62.27-46.51,2.09-54.58-38-54.06-67.92l-28.07,42.92C382.84,585,356,533.16,375.84,469" class="cls-6"></path><ellipse ry="107.17" rx="111.65" cy="846.47" cx="448.49" class="cls-10"></ellipse><ellipse ry="107.17" rx="111.65" cy="846.47" cx="798.52" class="cls-10"></ellipse><path d="M449.19,771.19c-5.21,2-10.48,3.74-15.85,5.34-8,2.41-16.15,4.46-24.35,6.25-9,2-18,3.67-26.92,5.2-5.43.92-9.89-2.21-10.28-7.87-.59-8.73-2.09-16,3.71-21.52a93.33,93.33,0,0,1,8.07-5.66c3-1.92,7.81-4.82,13.67-8a219.08,219.08,0,0,1,23.6-11.26c22.1-8.86,45.8-12.67,50,8.56C473.8,756.77,461.17,766.66,449.19,771.19Z" class="cls-11"></path><path d="M433.34,776.53c-8,2.41-16.15,4.46-24.35,6.25a33.08,33.08,0,0,1-7-10.65c-3.68-8.66-4.62-17.93-4.72-27.24a219.08,219.08,0,0,1,23.6-11.26C430,742,437.63,763.31,433.34,776.53Z" class="cls-12"></path></g><g id="五官"><path d="M543,686.35c-27.73-.06-28.37,60.66,3.15,60.66C570,747,572.19,686.42,543,686.35Z" class="cls-13"></path><path d="M543,681.85c-28.57.55-30.79,43.59-16.39,60.61,7.82,9.24,22.73,12.7,32.16,3.88,9.18-8.57,11.26-23.59,9.86-35.46-1.68-14.25-9.71-28.67-25.63-29-5.8-.13-5.8,8.87,0,9,20.21.46,20.1,33.62,12.11,45.89-4.73,7.27-13.68,7.28-20,1.65C528,732,526.19,720.9,527,711.81s5.33-20.75,16-21C548.74,690.74,548.76,681.74,543,681.85Z" class="cls-13"></path><path d="M718.88,686.35c27.72-.06,28.37,60.66-3.15,60.66C691.8,747,689.64,686.42,718.88,686.35Z" class="cls-13"></path><path d="M718.88,690.85c9.24.18,13.75,9,15.41,17,1.89,9.12.66,20.29-5.11,27.88-4.63,6.11-14.47,9.79-20.46,3.51-6.36-6.67-7.45-17.86-6.66-26.59.87-9.68,5.54-21.55,16.82-21.81,5.78-.13,5.81-9.13,0-9-28.38.65-32.15,43.13-18.62,61.24,7.85,10.51,22.23,10.67,32,2.43,9.9-8.38,12.91-23.08,11.48-35.44-1.59-13.67-9.48-27.94-24.81-28.23C713.09,681.74,713.09,690.74,718.88,690.85Z" class="cls-13"></path><g class="cls-14"><path d="M510.45,663.55c10.72-4.3,21.64-9.15,33.12-11s21.51,1.13,30.87,7.6c4.78,3.3,9.28-4.5,4.54-7.77-10.06-7-21.53-10.43-33.77-9.07-13,1.45-25.14,6.74-37.16,11.56-5.31,2.12-3,10.83,2.4,8.68Z" class="cls-15"></path></g><g class="cls-14"><path d="M753.78,654.87c-12-4.82-24.17-10.11-37.15-11.56-12.24-1.36-23.71,2.12-33.77,9.07-4.74,3.27-.24,11.07,4.54,7.77,9.35-6.46,19.53-9.42,30.87-7.6s22.4,6.7,33.12,11c5.38,2.15,7.71-6.55,2.39-8.68Z" class="cls-15"></path></g></g><g id="细节"><path d="M260,725.93c9.27-7.57,22-5.72,29.6,3.07,3.81,4.38,10.15-2,6.37-6.36-11.11-12.78-29.46-13.59-42.33-3.07-4.49,3.67,1.91,10,6.36,6.36Z" class="cls-16"></path><path d="M272,717.41a22.12,22.12,0,0,0-8.25,16.05c-.44,5.78,8.56,5.75,9,0a13.55,13.55,0,0,1,5.61-9.69c1.92-1.49,1.57-4.8,0-6.36-1.9-1.9-4.44-1.5-6.36,0Z" class="cls-16"></path><path d="M1025.75,719.57c-12.86-10.52-31.22-9.71-42.32,3.07-3.79,4.35,2.55,10.74,6.36,6.36,7.64-8.79,20.33-10.64,29.6-3.07,4.45,3.64,10.85-2.69,6.36-6.36Z" class="cls-16"></path><path d="M1001.05,723.77a13.55,13.55,0,0,1,5.61,9.69c.44,5.74,9.44,5.79,9,0a22.11,22.11,0,0,0-8.24-16.05c-1.92-1.49-4.5-1.87-6.37,0-1.55,1.55-1.93,4.86,0,6.36Z" class="cls-16"></path><g class="cls-17"><g class="cls-14"><path d="M430.29,846.21l-6,20c-1.67,5.56,7,7.93,8.68,2.39l6-20c1.67-5.56-7-7.94-8.68-2.39Z" class="cls-18"></path></g><g class="cls-14"><path d="M468.48,846.21l-6,20c-1.67,5.56,7,7.93,8.68,2.39l6-20c1.67-5.56-7-7.94-8.68-2.39Z" class="cls-18"></path></g><g class="cls-14"><path d="M502.47,846.21l-6,20c-1.67,5.56,7,7.93,8.68,2.39l6-20c1.67-5.56-7-7.94-8.68-2.39Z" class="cls-18"></path></g><g class="cls-14"><path d="M775.13,846.21l-6,20c-1.67,5.56,7,7.93,8.68,2.39l6-20c1.67-5.56-7-7.94-8.68-2.39Z" class="cls-18"></path></g><g class="cls-14"><path d="M813.33,846.21l-6,20c-1.67,5.56,7,7.93,8.68,2.39l6-20c1.68-5.56-7-7.94-8.67-2.39Z" class="cls-18"></path></g><g class="cls-14"><path d="M847.32,846.21l-6,20c-1.67,5.56,7,7.93,8.68,2.39l6-20c1.68-5.56-7-7.94-8.67-2.39Z" class="cls-18"></path></g></g><g class="cls-19"><path d="M542.38,315.47c-21.77-17.39-50.92,1.09-61.46,22.39-12.76,25.79-5.8,59.08,22.27,70.91,5.32,2.24,7.65-6.47,2.39-8.68-22.51-9.49-26.74-37.62-16.89-57.69,7.48-15.23,30.31-34.16,47.32-20.56,4.49,3.58,10.89-2.75,6.37-6.37Z" class="cls-20"></path><path d="M659.77,368.74a229.2,229.2,0,0,1,59.14,10.71c7.35,2.37,15.72,5.27,20.63,11.63,3.8,4.92,5.12,13.9-.7,17.91-4.74,3.26-.25,11.07,4.54,7.77,7.28-5,9.7-13.72,7.65-22.17-2.26-9.33-10.2-15.76-18.58-19.59-22.25-10.18-48.43-14.07-72.68-15.26-5.78-.29-5.77,8.71,0,9Z" class="cls-20"></path><path d="M565.35,454.84c28.35-8,68.91-18.35,90.19,9.79,3.45,4.56,11.27.08,7.77-4.54-10-13.22-25-20.36-41.28-22.41-20-2.52-40,3.06-59.08,8.49-5.56,1.58-3.19,10.26,2.4,8.67Z" class="cls-20"></path><path d="M840.82,367.81c14.06-7.33,32.41-5.83,44.65,4.53s16.88,27.67,12.33,42.9c-1.67,5.56,7,7.93,8.68,2.39C912.05,399,906,377.38,890.7,365s-37.09-14-54.42-5c-5.14,2.68-.59,10.45,4.54,7.77Z" class="cls-20"></path><path d="M612.32,280.13c24.68-11.13,55.2-7.5,76.56,9.18,4.51,3.53,10.92-2.8,6.36-6.36a85.43,85.43,0,0,0-87.47-10.59c-5.27,2.37-.7,10.13,4.55,7.77Z" class="cls-20"></path><path d="M370.8,402.69C349,417.56,346.05,452.21,366,470c4.31,3.85,10.7-2.49,6.37-6.36-15.33-13.7-14.23-41.41,3-53.18,4.76-3.24.26-11-4.54-7.77Z" class="cls-20"></path><path d="M290.42,461.53c-13.57,32.82,7.75,70.53,42.86,75.79,5.66.85,8.11-7.82,2.39-8.68a46.85,46.85,0,0,1-36.57-64.72c2.21-5.35-6.5-7.68-8.68-2.39Z" class="cls-20"></path><path d="M433.8,442.59c5.51,24.17,30.65,40.07,54.8,35.74,5.69-1,3.28-9.7-2.39-8.68-19.5,3.5-39.38-10.38-43.74-29.45-1.28-5.64-10-3.25-8.67,2.39Z" class="cls-20"></path><path d="M458.44,270.28c3.59-12,15-19.15,26.8-21.53,15.85-3.21,32.32,2.41,47.26,7.16,5.54,1.76,7.91-6.93,2.4-8.68-17.46-5.55-36.46-11.38-54.79-6.52-13.84,3.67-26.14,13.14-30.35,27.18-1.67,5.56,7,7.93,8.68,2.39Z" class="cls-20"></path><path d="M618.66,332c-23,2.39-39.91,28.16-31,50.1,2.15,5.3,10.86,3,8.68-2.39-6.5-16,4.56-36.86,22.31-38.71,5.7-.59,5.76-9.59,0-9Z" class="cls-20"></path><path d="M799.22,458.76c-8.66,11.88-4.88,28.88,5.12,38.76,11.86,11.71,29.88,12.8,45.43,10.36,5.71-.9,3.29-9.57-2.39-8.68-11.92,1.87-26.17,1.27-35.69-7.12-8.09-7.12-11.32-19.7-4.7-28.78,3.42-4.68-4.39-9.18-7.77-4.54Z" class="cls-20"></path><path d="M927.94,494c23.55-1.9,46.65,13.17,53.79,35.83,1.74,5.51,10.43,3.16,8.68-2.39-8.27-26.25-34.89-44.66-62.47-42.44-5.73.46-5.78,9.46,0,9Z" class="cls-20"></path><path d="M768.9,347.06c12.26-1.37,23.45,5.6,30,15.71,7.27,11.19,9.35,24.79,10.63,37.82.56,5.71,9.57,5.77,9,0-1.53-15.55-4-32-13.62-44.88-8.34-11.23-21.69-19.25-36-17.65-5.69.63-5.76,9.64,0,9Z" class="cls-20"></path><path d="M699,467.22c2.85,19.22-7.68,38.71-24.69,47.68-5.12,2.7-.58,10.47,4.54,7.77,20.88-11,32.26-34.69,28.83-57.84-.85-5.71-9.52-3.29-8.68,2.39Z" class="cls-20"></path><path d="M428.85,332.85c-17.83-5-36.84,5.22-43.18,22.44-2,5.44,6.69,7.79,8.68,2.39C399,345,413.62,338,426.45,341.53c5.59,1.55,8-7.13,2.4-8.68Z" class="cls-20"></path></g></g><g id="线"><path d="M815,1034.39c56,39.93,100.48,94.08,135.5,152.89,3,5,10.74.45,7.77-4.54-28.64-48.1-63.39-93-105.64-130q-15.87-13.89-33.09-26.14c-4.72-3.36-9.22,4.44-4.54,7.77Z" class="cls-13"></path><path d="M778.91,1002.75a373.2,373.2,0,0,1,41.43,25.47c4.74,3.34,9.24-4.46,4.54-7.77A374,374,0,0,0,783.46,995c-5.12-2.7-9.68,5.06-4.55,7.77Z" class="cls-13"></path><path d="M694.24,980.11a315.59,315.59,0,0,1,79.31,28.81c5.14,2.67,9.69-5.09,4.55-7.77a324.79,324.79,0,0,0-81.47-29.72c-5.65-1.21-8.06,7.46-2.39,8.68Z" class="cls-13"></path><path d="M489.46,1015.22a312.82,312.82,0,0,1,76.84-32.05c5.59-1.48,3.22-10.17-2.4-8.68a321.76,321.76,0,0,0-79,33c-5,2.9-.48,10.68,4.54,7.77Z" class="cls-13"></path><path d="M453.69,1031.15a374,374,0,0,1,33.51-22.23c5-2.93.47-10.71-4.54-7.77a372.6,372.6,0,0,0-33.51,22.23c-4.6,3.42-.11,11.23,4.54,7.77Z" class="cls-13"></path><path d="M329,1188.25c32.3-57.62,73.88-111,127-150.8,4.58-3.43.1-11.25-4.54-7.77-54.41,40.81-97.12,95-130.24,154-2.83,5.06,4.94,9.6,7.78,4.54Z" class="cls-13"></path><path d="M953.57,682.72c.26-13,.78-26.07,2.23-39,.64-5.75-8.36-5.7-9,0-1.45,13-2,26-2.23,39-.12,5.8,8.88,5.8,9,0Z" class="cls-13"></path><path d="M312.9,772c1.28,43.36,7.34,88.62,32.19,125.36,31.78,47,86.78,69.15,140.53,79.76,44.29,8.74,89.74,10.88,134.78,10.42,44.33-.46,88.9-3.55,132.44-12.21,55.1-10.95,112.12-32,150-75.36,28.22-32.28,41.55-73.07,46.73-115,.61-4.93,1.11-9.88,1.53-14.84.5-5.77-8.51-5.74-9,0-3.37,39.57-12.88,79.16-36.37,111.87-30.66,42.69-80.31,66-129.91,78.88C736.59,971,696,975.58,655.55,977.49c-46.23,2.19-93,1.67-139-4.41-55.89-7.39-117-24-154.89-68.67C334.17,872,325.1,829.33,322.6,787.91c-.32-5.32-.54-10.64-.7-16-.17-5.77-9.17-5.8-9,0Z" class="cls-13"></path><path d="M309.05,629.67c2.76,16.74,3.64,33.71,3.95,50.66.11,5.79,9.11,5.81,9,0-.32-17.77-1.38-35.5-4.27-53.06-.94-5.7-9.62-3.28-8.68,2.4Z" class="cls-13"></path><path d="M320.28,665c-8.93-16.82-28.23-24.37-46.48-24.51-20.74-.15-41.77,8.73-55.3,24.61-18.17,21.3-19.8,49.85-14.17,76.22,5.74,26.88,19.35,54.45,46.17,65.34,22.27,9,48.26,4,68.15-8.54,4.89-3.07.38-10.86-4.54-7.77-15.37,9.68-34.62,14.68-52.59,10.41-23.86-5.68-38.19-26.62-45.15-48.92-7.57-24.25-10.11-52.67,4.42-74.91,10-15.36,27.41-25.17,45.55-27.08,17.34-1.83,37.44,3.24,46.16,19.69,2.72,5.12,10.49.58,7.78-4.54Z" class="cls-13"></path><path d="M951.77,669.57c7.59-14.31,24.05-20.11,39.49-20.05,18.28.08,36.26,8,48.16,22,16.29,19.12,16.73,45.62,11.52,69-5.27,23.57-17.08,49-41.18,58.18-19.76,7.5-42.12,2.73-59.6-8.27-4.91-3.09-9.43,4.69-4.54,7.77,17.65,11.11,39.88,16.3,60.36,11.11,26.52-6.72,42.82-30,50.6-55,8.34-26.71,10.51-58.34-5.82-82.59-12-17.77-31.67-28.63-52.83-30.79-20.42-2.09-43.77,5-53.93,24.15-2.71,5.11,5,9.66,7.77,4.54Z" class="cls-13"></path><path d="M533.16,202.59c-9.81-34.09-47-55.39-81.37-47.36-34.91,8.15-59.52,41.56-58.14,77.1A86.59,86.59,0,0,0,417.12,288c4,4.23,10.33-2.15,6.36-6.37-21.88-23.26-28.2-60.26-10.77-87.9,16.38-26,49.84-39.08,78.56-26.06,15.78,7.16,28.39,20.52,33.21,37.29,1.6,5.55,10.29,3.19,8.68-2.4Z" class="cls-13"></path><path d="M404.52,263c-28,10.95-61.06,23.94-75.62,52.36-11.67,22.76-10.37,54.67,12.61,69.84,4.85,3.21,9.36-4.58,4.54-7.77-19.86-13.12-18.59-42.46-7.52-60.89,14.42-24,43.61-35.16,68.38-44.86,5.33-2.09,3-10.8-2.39-8.68Z" class="cls-13"></path><path d="M528.82,187.71c26.63-2.05,56.49,10.18,68,35.69,2.37,5.27,10.13.7,7.77-4.54-12.68-28.14-46.31-42.42-75.75-40.15-5.73.44-5.78,9.45,0,9Z" class="cls-13"></path><path d="M596.58,239.52a83,83,0,0,1,67-28.79c23.36,1.3,44.63,14.75,51.15,38,4.87,17.41,1.55,35.94-3.93,52.77-1.8,5.52,6.89,7.89,8.68,2.4,9.46-29.07,11-65.44-14.7-86.84-20.48-17-50-18.95-74.52-10.66a91.23,91.23,0,0,0-40,26.78c-3.75,4.38,2.59,10.77,6.37,6.36Z" class="cls-13"></path><path d="M276,559.49c4.39,21,5.88,42.67,11.05,63.56,4.13,16.68,11.68,32.53,27.08,41.42,5,2.9,9.56-4.87,4.54-7.77-14.67-8.48-20.42-24.35-23.89-40.1-4.32-19.66-6-39.8-10.1-59.51-1.19-5.66-9.86-3.27-8.68,2.4Z" class="cls-13"></path><path d="M371.5,466.58c-6.53,21.4-10.38,46.8-1.38,68.11,7.76,18.34,25.09,26.52,44.42,23.66,15.71-2.33,30.31-10.23,43.42-18.82,4.83-3.16.32-10.95-4.54-7.77-16,10.51-40.32,24.62-60.09,15.74C378,540.64,374.08,521.85,374,506.73c-.07-12.85,2.44-25.51,6.18-37.76,1.69-5.55-7-7.93-8.68-2.39Z" class="cls-13"></path><path d="M479.26,492.73c-.35,24.93,5.22,55.64,30.32,67.36,15.22,7.12,33.28,5.94,49.3,2.4,14.19-3.13,27.59-9.8,37.55-20.53,11-11.85,17.2-27.08,21.71-42.39h-8.68c6.9,24.37,26,44.92,50.11,52.94a59.81,59.81,0,0,0,35.21,1.07c13.47-3.89,24.21-12.76,32.62-23.74,3.53-4.59-4.29-9.08-7.77-4.54-14.24,18.57-36.56,26-58.77,18.15-20.61-7.26-36.81-25.4-42.72-46.27a4.54,4.54,0,0,0-8.68,0c-3.53,12-8,24-15.66,34A60,60,0,0,1,563.48,552c-14.2,4.4-31.41,6.52-45.75,1.74-11.11-3.69-19.1-12.43-23.55-23.06-5-11.9-6.1-25.16-5.92-37.93.08-5.79-8.92-5.79-9,0Z" class="cls-13"></path><path d="M733.64,475.25c-.3,23.57,2.15,48.65,13.46,69.78,7.26,13.56,19.13,25.34,34.53,28.77,33.76,7.53,61-22.65,72.4-50.94,10-24.95,11.05-52.52,7.41-78.89-.79-5.71-9.47-3.28-8.68,2.39,5.1,36.87-.45,81.53-30.46,107.16-9.48,8.09-21.9,13.54-34.55,12.22-12.87-1.33-23.36-9.92-30.13-20.54-13-20.42-15.28-46.36-15-70,.07-5.79-8.93-5.8-9,0Z" class="cls-13"></path><path d="M724.74,278.59c19.25-21.61,51.08-30.26,78.5-20.53s46.57,37.48,47.29,66.27c.14,5.78,9.14,5.8,9,0-.63-25.33-13.48-49.13-33.73-64.22-20.47-15.25-47.66-18.77-71.77-10.93a81.16,81.16,0,0,0-35.65,23.05c-3.84,4.31,2.5,10.7,6.36,6.36Z" class="cls-13"></path><path d="M303.74,636.38c36.05-12.93,74.51-19.16,112.42-23.6,48.15-5.65,96.69-7.9,145.15-8.34q77-.69,153.83,4.91c46.44,3.37,92.86,8.31,138.76,16.26,33.7,5.83,68.18,12.67,99.94,25.71,2.69,1.1,5.35,2.29,8,3.54,5.2,2.47,9.78-5.28,4.54-7.77-29.62-14.09-62.62-21.25-94.65-27.36-45-8.58-90.62-14-136.24-17.79q-77.07-6.47-154.5-6.57c-49.63-.09-99.35,1.67-148.74,6.66-40.06,4.05-80.6,9.74-119.14,21.75q-5.91,1.83-11.73,3.92c-5.41,1.95-3.08,10.65,2.39,8.68Z" class="cls-13"></path><path d="M845.71,537.38c27.16,6.32,54.12,13.86,80.12,24,19.76,7.71,39.69,17,56.42,30.21,4.49,3.56,10.9-2.77,6.36-6.36-17.24-13.63-37.18-23.28-57.5-31.39-26.88-10.73-54.85-18.58-83-25.14-5.64-1.32-8,7.36-2.4,8.68Z" class="cls-13"></path><path d="M282.6,562.17c28.16-15.49,59.14-25.17,90.3-32.52,5.64-1.33,3.25-10-2.39-8.68-31.91,7.53-63.63,17.58-92.45,33.43-5.08,2.8-.54,10.57,4.54,7.77Z" class="cls-13"></path><path d="M326.53,363.09c-35.56-1.22-71.2,17.67-89.4,48.43-13,22-16.92,52.86-7.54,76.89,5.66,14.53,16.22,25.46,30.93,30.85,5.44,2,7.79-6.7,2.39-8.68C239,501.83,232.16,475.39,234,452.32c2.19-27.64,17.07-51.59,40.66-66.24a92.31,92.31,0,0,1,51.89-14c5.8.2,5.79-8.8,0-9Z" class="cls-13"></path><path d="M945.56,418.7c25.4,1.43,54,11.35,64.53,36.85,8.15,19.78-1.63,46.68-24.18,50.77-5.69,1-3.28,9.71,2.39,8.68,26.54-4.82,39.81-36.6,31-60.52C1008,424,975.67,411.39,945.56,409.7c-5.79-.33-5.77,8.67,0,9Z" class="cls-13"></path><path d="M978.25,516.14c19.68,4.73,46.66,11.67,50.86,35.22,4.48,25.08-26.45,33.9-44.73,38.16-5.64,1.31-3.25,10,2.39,8.67,13.27-3.09,26.92-6.51,37.65-15.37,9.19-7.59,15.24-18.9,13.8-31-3.39-28.67-33.68-38.6-57.58-44.34-5.63-1.35-8,7.32-2.39,8.68Z" class="cls-13"></path><path d="M981.09,587.22c-5.22,20.72-12.11,42-20.89,61.48-2.37,5.24,5.39,9.82,7.77,4.54a386.23,386.23,0,0,0,21.8-63.63c1.41-5.62-7.26-8-8.68-2.39Z" class="cls-13"></path><path d="M864.06,319.21c8.27-10,19.08-19.08,32.52-20.36,10.94-1.05,21.39,3.07,30.21,9.27,18.76,13.18,32.88,37.12,34.78,60,.94,11.31-1.3,22.85-10,30.77-4.29,3.91,2.09,10.26,6.36,6.36,19.76-18,13.47-49.15,2.75-70.24-11.45-22.55-33.7-45.52-60.79-45.36-17.18.1-31.67,10.33-42.23,23.16-3.65,4.44,2.68,10.84,6.37,6.36Z" class="cls-13"></path><path d="M250.31,511.74c-15.84,15.55-17.83,39.92-8.6,59.48,3.54,7.51,9.33,14.93,17.32,17.94,8.18,3.08,16.21-.15,22-6.21,4-4.19-2.35-10.56-6.37-6.36-10.68,11.17-21.58-.93-26-11.68-6.43-15.75-4.45-34.6,8-46.81,4.14-4.06-2.23-10.43-6.36-6.36Z" class="cls-13"></path><path d="M645,830.3c23.75,2.85,45.44-10.82,53.78-33.07,2-5.43-6.66-7.77-8.68-2.39-7,18.75-25.56,28.8-45.1,26.46-5.74-.69-5.69,8.31,0,9Z" class="cls-13"></path><path d="M539.68,992c34.36,44.32,104.73,42.84,151.45,21.78,12.58-5.68,24.49-13.38,33.88-23.58,3.92-4.25-2.43-10.63-6.37-6.36-16.39,17.79-40.36,27.42-63.67,32-25.07,4.94-52.48,4.21-76.31-5.66a79.27,79.27,0,0,1-32.61-24.56c-3.55-4.57-9.87,1.84-6.37,6.36Z" class="cls-13"></path><path d="M478.91,1006.76a160.87,160.87,0,0,0,116.16,76.06c46.31,6.4,94.68-4.75,134.53-28.93A188.15,188.15,0,0,0,786,1001.8c3.35-4.74-4.45-9.25-7.77-4.54-25.31,35.89-64.86,60.52-107,71.69-42.49,11.27-89.55,8.94-128.57-12.44-23.28-12.76-42.24-31.69-56-54.29-3-4.94-10.8-.42-7.77,4.54Z" class="cls-13"></path><path d="M475,1186q-1.29-41.42-6-82.62-2.27-19.74-5.31-39.37c-2.06-13.3-3.9-26.82-8-39.68-1.74-5.5-10.43-3.15-8.68,2.39,3.88,12.24,5.69,25.08,7.67,37.73q3.19,20.38,5.51,40.89,4.55,40.2,5.77,80.66c.18,5.78,9.19,5.8,9,0Z" class="cls-13"></path><path d="M804.12,1186q1.29-41.42,6-82.62,2.35-20.5,5.6-40.88c2.11-13.32,4-26.87,8.7-39.57,2-5.44-6.69-7.79-8.68-2.39-4.69,12.7-6.58,26.25-8.7,39.56q-3.27,20.6-5.69,41.32-4.94,42.13-6.22,84.58c-.18,5.8,8.82,5.79,9,0Z" class="cls-13"></path></g><g id="erding"><circle r="12.94" cy="774" cx="981.6" class="cls-21"></circle><path d="M990.05,774c-.55,10.79-16.89,11-16.89,0s16.34-10.79,16.89,0c.29,5.77,9.29,5.8,9,0-.48-9.46-7.62-17.44-17.45-17.44a17.45,17.45,0,0,0,0,34.89c9.83,0,17-8,17.45-17.45C999.34,768.21,990.34,768.23,990.05,774Z" class="cls-22"></path><circle r="12.94" cy="774" cx="280.33" class="cls-21"></circle><path d="M288.77,774c-.54,10.79-16.89,11-16.89,0s16.35-10.79,16.89,0c.29,5.77,9.3,5.8,9,0-.48-9.46-7.62-17.44-17.44-17.44a17.45,17.45,0,1,0,0,34.89c9.82,0,17-8,17.44-17.45C298.06,768.21,289.06,768.23,288.77,774Z" class="cls-22"></path></g></g></svg>