<svg viewBox="0 0 1200 1200" xmlns="http://www.w3.org/2000/svg"><defs><style>.cls-1{isolation:isolate;}.cls-2{fill:#d6ecf4;}.cls-3{fill:#e6faff;}.cls-4{fill:#b27042;}.cls-5{fill:#d23f3d;}.cls-6{fill:#ffeae1;}.cls-7{fill:#ffb9a4;}.cls-8{fill:#fff;}.cls-9{fill:#331403;}.cls-10,.cls-14{mix-blend-mode:multiply;}.cls-11{fill:#eab394;}.cls-12{fill:#f9bca5;}.cls-13{opacity:0.67;}.cls-14{opacity:0.48;}.cls-15{fill:#a36133;}.cls-16{fill:#ffa4c2;stroke:#331403;stroke-miterlimit:10;stroke-width:3px;}.cls-17{fill:#50c8d8;}</style></defs><title>touxiang</title><g class="cls-1"><g id="bg"><rect height="1200" width="1200" class="cls-2"></rect><path d="M301.11,151.67A149.45,149.45,0,1,0,151.66,301.11,149.45,149.45,0,0,0,301.11,151.67ZM151.66,258.93A107.27,107.27,0,1,1,258.93,151.67,107.39,107.39,0,0,1,151.66,258.93Z" class="cls-3"></path><path d="M450.56,301.11A149.45,149.45,0,1,0,301.11,151.67,149.44,149.44,0,0,0,450.56,301.11Zm0-256.72A107.27,107.27,0,1,1,343.29,151.67,107.4,107.4,0,0,1,450.56,44.39Z" class="cls-3"></path><path d="M749.45,301.11A149.45,149.45,0,1,0,600,151.67,149.45,149.45,0,0,0,749.45,301.11Zm0-256.72A107.27,107.27,0,1,1,642.18,151.67,107.41,107.41,0,0,1,749.45,44.39Z" class="cls-3"></path><path d="M1048.33,301.11A149.45,149.45,0,1,0,898.9,151.67,149.44,149.44,0,0,0,1048.33,301.11Zm0-256.72A107.27,107.27,0,1,1,941.07,151.67,107.4,107.4,0,0,1,1048.33,44.39Z" class="cls-3"></path><path d="M301.11,450.56A149.45,149.45,0,1,0,151.66,600,149.45,149.45,0,0,0,301.11,450.56ZM151.66,557.82A107.27,107.27,0,1,1,258.93,450.56,107.39,107.39,0,0,1,151.66,557.82Z" class="cls-3"></path><path d="M600,450.56A149.45,149.45,0,1,0,450.56,600,149.45,149.45,0,0,0,600,450.56ZM450.56,557.82A107.27,107.27,0,1,1,557.82,450.56,107.39,107.39,0,0,1,450.56,557.82Z" class="cls-3"></path><path d="M749.45,301.11A149.45,149.45,0,1,0,898.9,450.56,149.45,149.45,0,0,0,749.45,301.11Zm0,256.71A107.27,107.27,0,1,1,856.72,450.56,107.39,107.39,0,0,1,749.45,557.82Z" class="cls-3"></path><path d="M1197.78,450.56A149.44,149.44,0,1,0,1048.33,600,149.44,149.44,0,0,0,1197.78,450.56ZM1048.33,557.82a107.27,107.27,0,1,1,107.28-107.26A107.39,107.39,0,0,1,1048.33,557.82Z" class="cls-3"></path><path d="M301.11,749.45A149.45,149.45,0,1,0,151.66,898.9,149.45,149.45,0,0,0,301.11,749.45ZM151.66,856.72A107.27,107.27,0,1,1,258.93,749.45,107.4,107.4,0,0,1,151.66,856.72Z" class="cls-3"></path><path d="M450.56,600A149.45,149.45,0,1,0,600,749.45,149.45,149.45,0,0,0,450.56,600Zm0,256.72A107.27,107.27,0,1,1,557.82,749.45,107.4,107.4,0,0,1,450.56,856.72Z" class="cls-3"></path><path d="M600,749.45A149.45,149.45,0,1,0,749.45,600,149.46,149.46,0,0,0,600,749.45ZM749.45,642.18A107.27,107.27,0,1,1,642.18,749.45,107.4,107.4,0,0,1,749.45,642.18Z" class="cls-3"></path><path d="M898.9,749.45A149.44,149.44,0,1,0,1048.33,600,149.44,149.44,0,0,0,898.9,749.45Zm149.43-107.27A107.27,107.27,0,1,1,941.07,749.45,107.39,107.39,0,0,1,1048.33,642.18Z" class="cls-3"></path><path d="M151.66,898.9a149.44,149.44,0,1,0,149.45,149.43A149.44,149.44,0,0,0,151.66,898.9Zm0,256.71a107.27,107.27,0,1,1,107.27-107.28A107.4,107.4,0,0,1,151.66,1155.61Z" class="cls-3"></path><path d="M450.56,898.9A149.44,149.44,0,1,0,600,1048.33,149.44,149.44,0,0,0,450.56,898.9Zm0,256.71a107.27,107.27,0,1,1,107.26-107.28A107.39,107.39,0,0,1,450.56,1155.61Z" class="cls-3"></path><path d="M749.45,898.9A149.44,149.44,0,1,0,898.9,1048.33,149.44,149.44,0,0,0,749.45,898.9Zm0,256.71a107.27,107.27,0,1,1,107.27-107.28A107.39,107.39,0,0,1,749.45,1155.61Z" class="cls-3"></path><path d="M898.9,1048.33A149.44,149.44,0,1,0,1048.33,898.9,149.43,149.43,0,0,0,898.9,1048.33Zm149.43-107.26a107.27,107.27,0,1,1-107.26,107.26A107.39,107.39,0,0,1,1048.33,941.07Z" class="cls-3"></path></g><g id="涂色"><path d="M1071.54,726.47c-19.43-111.34-3.25-143.22-29.29-273.42-20.79-103.92-58.59-188.79-136.71-234.36-40-23.31-113.93-19.53-143.22-3.25l-1.63-1.4c-89.51-112.53-333.63-80-434.54,17.67-83,80.29-113.92,130.2-136.71,214.83-17.69,65.73-33.76,143.8-16.27,260.4,19.53,130.2-182.28,276.67-42.32,354.79l12.36-.09c13.1,3.42,27,4.73,40.16,6.43,10,1.28,19.32.35,28.6-3.62,2.31-1,4.55-2.12,6.73-3.33l14.45-.11c4.95,2.7,11.14,3.42,16.72,3.69A55,55,0,0,0,266,1063a87.15,87.15,0,0,0,37.82,2.6c10.72,7.43,24.9,5.16,37.22-.2a67,67,0,0,0,35.61,3.09c12.57,3.16,25.41,3.37,36.1-5.91a7.75,7.75,0,0,0,2.13-2.87l412.45-2.88c16.87,7.7,36.22,8.3,52.26-.37l4.75,0a69.29,69.29,0,0,0,46.84,2.85,20.12,20.12,0,0,0,12.07,5.42,61.92,61.92,0,0,0,27.28-3.92,9.83,9.83,0,0,0,2.56-1.42,9.11,9.11,0,0,0,1.89.32,42.13,42.13,0,0,0,17.16-2.73c7.54,9,21.83,11.56,33.12,10.2a52,52,0,0,0,27.5-11.9l9-.06C1250.56,947.81,1091.91,843.2,1071.54,726.47Z" class="cls-4"></path><path d="M934.83,1195.18l-629.32,1c61.85-110.64,143.94-179,231.3-204.7A282.29,282.29,0,0,1,692.53,990C782.11,1014.44,868.07,1082.72,934.83,1195.18Z" class="cls-5"></path><path d="M932.69,667.94a227.16,227.16,0,0,1,4.51-35.87L903,606.51c-87.78-38.6-154-122.71-171-217.1l-29.63-8.35c-10.44-22-23.62-43.4-42.88-58.31s-45.55-22.39-68.6-14.5c-36,12.31-50.52,53.9-65.53,88.83-35.17,81.87-98.8,152.35-179.55,190l-53.1,32c5.3,20.24,7.1,42.62,7.58,66.06-2-6.44-3.45-10.74-3.45-10.74-22.2-42.86-125-25.54-108.94,66.58,14.54,83.19,74.73,82.17,108.94,60.39,0,0,1.61-4.62,3.82-11.44,4.86,98.7,39.8,189.28,251.21,199.29-8.41,2.18-16.77,4.6-25,7.23,11.84,18.54,46.46,31.77,87.23,31.36,41.94-.42,77.16-15.15,87.52-34.83q-13.22-3.63-26.33-6.48C866.17,968.41,914.46,885.81,927,798.82c.81,1.61,1.32,2.52,1.32,2.52,34.21,21.78,94.4,22.8,108.93-60.39C1052.49,653.84,961.43,633.65,932.69,667.94Z" class="cls-6"></path><ellipse ry="107.17" rx="111.65" cy="851.85" cx="436.95" class="cls-7"></ellipse><ellipse ry="107.17" rx="111.65" cy="848.6" cx="776.81" class="cls-7"></ellipse><path d="M700.65,993.11c51.68,52.07-34.88,102.65-88.3,36.05h-.11c-52.07,67.66-139.63,18.82-89-34.27,0,0,30.75,33.49,89,34.27C661.38,1029.82,700.65,993.11,700.65,993.11Z" class="cls-8"></path></g><g id="五官"><path d="M513.13,666.91c-27.72-.06-28.36,60.66,3.15,60.66C540.22,727.57,542.37,667,513.13,666.91Z" class="cls-9"></path><path d="M513.13,662.41C484.56,663,482.35,706,496.74,723c7.82,9.24,22.73,12.7,32.17,3.88,9.17-8.57,11.25-23.59,9.85-35.46-1.67-14.25-9.71-28.67-25.63-29-5.79-.13-5.79,8.87,0,9,20.22.46,20.1,33.62,12.11,45.89-4.73,7.27-13.68,7.28-20,1.65-7.14-6.39-8.91-17.48-8.13-26.58s5.33-20.75,16-21C518.91,671.3,518.93,662.3,513.13,662.41Z" class="cls-9"></path><path d="M710.55,666.91c27.72-.06,28.36,60.66-3.15,60.66C683.46,727.57,681.31,667,710.55,666.91Z" class="cls-9"></path><path d="M710.55,671.41c9.24.18,13.75,9,15.41,17,1.89,9.12.65,20.29-5.11,27.88-4.64,6.11-14.47,9.79-20.46,3.51-6.36-6.67-7.45-17.86-6.66-26.59.87-9.68,5.53-21.55,16.82-21.81,5.78-.13,5.8-9.13,0-9-28.38.65-32.15,43.13-18.62,61.24,7.85,10.51,22.22,10.67,32,2.43,9.89-8.38,12.91-23.08,11.47-35.44-1.58-13.67-9.48-27.94-24.8-28.23C704.75,662.3,704.75,671.3,710.55,671.41Z" class="cls-9"></path><g class="cls-10"><path d="M482.61,601.62a52.47,52.47,0,0,1,62-2.25c4.78,3.3,9.29-4.5,4.55-7.77-22.36-15.41-51.94-12.86-72.92,3.65-4.55,3.58,1.86,9.91,6.37,6.37Z" class="cls-11"></path></g><g class="cls-10"><path d="M741.07,602.2a52.4,52.4,0,0,1-62,2.24c-4.78-3.3-9.28,4.5-4.54,7.77,22.27,15.35,52.07,13,72.92-3.65,4.52-3.61-1.88-9.94-6.37-6.36Z" class="cls-11"></path></g><path d="M586,791.09c1.45,18,18.31,32.91,36.64,30.55,5.66-.73,5.74-9.74,0-9-13.15,1.69-26.54-7.95-27.64-21.55-.46-5.74-9.47-5.78-9,0Z" class="cls-9"></path></g><g id="细节"><path d="M232.11,732.26c9.26-7.57,22-5.72,29.6,3.07,3.81,4.38,10.15-2,6.36-6.36-11.1-12.78-29.46-13.58-42.32-3.07-4.49,3.67,1.91,10,6.36,6.36Z" class="cls-12"></path><path d="M244.08,723.74a22.11,22.11,0,0,0-8.24,16.06c-.44,5.77,8.56,5.74,9,0a13.55,13.55,0,0,1,5.61-9.7c1.92-1.49,1.57-4.8,0-6.36-1.9-1.9-4.44-1.5-6.37,0Z" class="cls-12"></path><path d="M997.83,725.9C985,715.39,966.61,716.19,955.5,729c-3.78,4.35,2.56,10.74,6.37,6.36,7.64-8.79,20.33-10.64,29.6-3.07,4.44,3.64,10.85-2.69,6.36-6.36Z" class="cls-12"></path><path d="M973.13,730.1a13.55,13.55,0,0,1,5.61,9.7c.44,5.73,9.44,5.78,9,0a22.12,22.12,0,0,0-8.25-16.06c-1.91-1.49-4.49-1.87-6.36,0-1.55,1.55-1.93,4.86,0,6.36Z" class="cls-12"></path><g class="cls-13"><g class="cls-10"><path d="M415.71,827.75l-6,20c-1.68,5.55,7,7.93,8.67,2.39l6-20c1.67-5.55-7-7.93-8.68-2.39Z" class="cls-7"></path></g><g class="cls-10"><path d="M453.9,827.75l-6,20c-1.67,5.55,7,7.93,8.68,2.39l6-20c1.67-5.55-7-7.93-8.68-2.39Z" class="cls-7"></path></g><g class="cls-10"><path d="M487.89,827.75l-6,20c-1.68,5.55,7,7.93,8.68,2.39l6-20c1.67-5.55-7-7.93-8.68-2.39Z" class="cls-7"></path></g><g class="cls-10"><path d="M760.56,827.75l-6,20c-1.67,5.55,7,7.93,8.68,2.39l6-20c1.67-5.55-7-7.93-8.68-2.39Z" class="cls-7"></path></g><g class="cls-10"><path d="M798.75,827.75l-6,20c-1.67,5.55,7,7.93,8.68,2.39l6-20c1.67-5.55-7-7.93-8.68-2.39Z" class="cls-7"></path></g><g class="cls-10"><path d="M832.74,827.75l-6,20c-1.67,5.55,7,7.93,8.68,2.39l6-20c1.67-5.55-7-7.93-8.68-2.39Z" class="cls-7"></path></g></g><g class="cls-14"><path d="M544.75,205.31c-43-13.72-90.19-6.59-130.57,12.08-42,19.4-74.29,52.77-98.86,91.41C301.25,331,289.58,354.49,278,378c-2.54,5.19,5.22,9.75,7.77,4.55,19.7-40.17,40.15-80.81,71.46-113.37,30.24-31.45,69.81-52.81,113-59.86,24-3.93,48.85-2.78,72.11,4.65,5.53,1.76,7.9-6.92,2.39-8.68Z" class="cls-15"></path></g><g class="cls-14"><path d="M800.09,338.61a175.89,175.89,0,0,0,72,126.53c4.71,3.4,9.21-4.41,4.55-7.77a166.13,166.13,0,0,1-67.55-118.76c-.51-5.72-9.51-5.77-9,0Z" class="cls-15"></path></g><g class="cls-14"><path d="M790.47,264.41c27.25-17.72,62.82-20.78,92.5-7.28,5.24,2.38,9.82-5.37,4.55-7.77-32.59-14.82-71.49-12.29-101.6,7.28-4.83,3.14-.33,10.94,4.55,7.77Z" class="cls-15"></path></g><g class="cls-14"><path d="M996.65,894.26c-11.4,44.67-2,93.61,25.63,130.6,3.42,4.59,11.24.11,7.77-4.54-26.2-35.13-35.57-81.14-24.72-123.66,1.44-5.62-7.24-8-8.68-2.4Z" class="cls-15"></path></g><g class="cls-14"><path d="M1051.1,850.9c34.62,32.75,49.6,83.67,38,129.93-1.41,5.61,7.27,8,8.68,2.39,12.38-49.29-3.36-103.74-40.3-138.69-4.2-4-10.58,2.38-6.36,6.37Z" class="cls-15"></path></g><g class="cls-14"><path d="M890.46,945.5c-10,27.1-1.05,59.5,21.45,77.61,4.47,3.6,10.88-2.73,6.37-6.36a61.8,61.8,0,0,1-19.14-68.86c2-5.44-6.7-7.79-8.68-2.39Z" class="cls-15"></path></g><g class="cls-14"><path d="M179.68,921.53A130.36,130.36,0,0,0,152.36,1036c1.37,5.63,10,3.25,8.68-2.39-8.94-36.74.48-76.92,25-105.74,3.73-4.39-2.6-10.78-6.37-6.36Z" class="cls-15"></path></g><g class="cls-14"><path d="M272.29,916.25a105.87,105.87,0,0,1-23.71,84.12c-3.73,4.39,2.6,10.78,6.36,6.36a115.62,115.62,0,0,0,26-92.88c-.9-5.7-9.58-3.28-8.68,2.4Z" class="cls-15"></path></g><path d="M717,1094.8l7.49,15.17a7,7,0,0,0,5.29,3.85l16.75,2.43a7,7,0,0,1,3.89,12l-12.12,11.81a7,7,0,0,0-2,6.22l2.86,16.68a7,7,0,0,1-10.19,7.4l-15-7.87a7,7,0,0,0-6.54,0l-15,7.87a7,7,0,0,1-10.19-7.4l2.86-16.68a7,7,0,0,0-2-6.22L671,1128.24a7,7,0,0,1,3.89-12l16.75-2.43a7,7,0,0,0,5.29-3.85l7.49-15.17A7,7,0,0,1,717,1094.8Z" class="cls-16"></path></g><g id="线"><path d="M674.71,989.1c83.3,17.81,153.67,71,206.8,136A586.48,586.48,0,0,1,931,1196.27c3,5,10.74.45,7.77-4.54-47.35-79.51-113.1-152.34-198.87-190.66a314.4,314.4,0,0,0-62.75-20.64c-5.65-1.21-8.06,7.46-2.39,8.67Z" class="cls-9"></path><path d="M309.42,1197.24c42.15-75.19,101-144,179.14-183.11a301.7,301.7,0,0,1,58.21-22c5.59-1.48,3.22-10.16-2.4-8.68-80,21.11-146.88,74.58-196.79,139.28a574,574,0,0,0-45.94,69.94c-2.83,5.06,4.94,9.6,7.78,4.54Z" class="cls-9"></path><path d="M934.29,678.88c.54-15.69,1.55-31.41,4.88-46.79,1.22-5.65-7.45-8.06-8.68-2.4-3.49,16.16-4.64,32.7-5.2,49.19-.2,5.79,8.8,5.78,9,0Z" class="cls-9"></path><path d="M293.58,784c1.77,43.61,9.18,89,35.94,124.76,35.17,47.07,93.76,67.3,149.68,76.58,46,7.64,93,9,139.51,7.7,42.79-1.21,85.82-5.08,127.61-14.64,53.47-12.22,107.8-35.13,142.59-79.3,26.43-33.56,37.9-74.85,42.1-116.76.5-4.93.9-9.87,1.23-14.81.38-5.78-8.62-5.76-9,0-2.64,39.55-10.49,79.54-32.27,113.32C863.2,923.91,816.71,949,768.68,963.26c-37.21,11-75.94,16.41-114.58,19.08-47.31,3.27-95.27,3.29-142.46-1.65-58.09-6.08-122.92-20.57-164.53-64.84-29.48-31.37-40.41-73.66-43.6-115.56-.41-5.42-.71-10.86-.93-16.29-.23-5.77-9.23-5.8-9,0Z" class="cls-9"></path><path d="M286,619.07c5.47,21.33,7,43.34,7.43,65.29.12,5.79,9.12,5.81,9,0-.49-22.72-2.09-45.6-7.75-67.69-1.44-5.6-10.12-3.23-8.68,2.4Z" class="cls-9"></path><path d="M300.75,670.92c-8.93-16.82-28.23-24.37-46.48-24.5-20.74-.15-41.77,8.72-55.3,24.6-18.17,21.31-19.8,49.86-14.17,76.22,5.74,26.88,19.35,54.45,46.17,65.34,22.27,9,48.26,4,68.16-8.53,4.88-3.08.37-10.87-4.55-7.77C279.21,806,260,811,242,806.68c-23.86-5.68-38.19-26.62-45.15-48.92-7.57-24.24-10.11-52.67,4.42-74.9,10-15.37,27.41-25.18,45.55-27.09C264.15,654,284.25,659,293,675.46c2.72,5.12,10.49.58,7.78-4.54Z" class="cls-9"></path><path d="M763.87,209.68C738,177.36,700,157.55,660.4,147.25,616,135.71,569,134.91,523.75,140.84c-46,6-91.36,18.93-132.9,39.72a292.92,292.92,0,0,0-53.57,34.13c-22.07,17.9-41.87,39.39-60.76,60.56-34.1,38.2-61.67,80.4-79,128.77a642.31,642.31,0,0,0-32.8,141.84,562.25,562.25,0,0,0-3.15,86.45c.66,16.79,2,33.56,4,50.25,1.56,13.29,4.27,26.54,4.44,39.94.53,41.77-18.09,81.71-36.48,118.21S93,913.2,81.83,952.82c-4.56,16.2-6.87,33.31-3.77,50,3.12,16.86,12.36,31.8,24.86,43.35a134.93,134.93,0,0,0,25.66,18.26c5,2.85,9.6-4.92,4.54-7.77-16.41-9.24-31.83-21.33-40.49-38.45-7-13.78-8.22-29.6-6.08-44.73,5.36-38.05,26.29-73.27,43.74-106.82,19.08-36.71,39.33-74.77,46.33-116A155.81,155.81,0,0,0,179,722c-.22-13.23-2.89-26.3-4.43-39.42a614.91,614.91,0,0,1-4.09-93.3c1.71-48.51,10.69-95.94,23.31-142.71,6.5-24.08,14.29-47.88,24.85-70.52a348.63,348.63,0,0,1,37.07-61.45c17.35-23.19,37.14-44.52,57.55-65,16.47-16.54,33.15-32,52.85-44.62,37.38-24,79.91-39.68,123.19-49.06,44.46-9.63,91.07-12.77,136.23-6.39,40.14,5.67,80.89,19.14,112.06,45.92A155.54,155.54,0,0,1,757.51,216c3.62,4.52,10-1.89,6.36-6.36Z" class="cls-9"></path><path d="M764.59,218.14c13.33-7.26,29.28-10.06,44.22-11.54a205,205,0,0,1,56.72,1.9,126.71,126.71,0,0,1,48.24,19.42,221.07,221.07,0,0,1,41.79,36c55.43,61,76,146.32,89,225.46,5.89,36,8.9,72.17,10.44,108.58,1.43,33.82,3.21,67.48,7.9,101,2.42,17.38,5,34.8,10.37,51.54a316.69,316.69,0,0,0,17.54,42.11c13.34,27.19,29.15,53.15,41.6,80.79,11,24.49,19.92,52.05,15.07,79.17-6,33.48-30.94,59.07-57.58,78.26a347,347,0,0,1-30.37,19.32c-5,2.88-.49,10.66,4.55,7.77,33.48-19.15,69-44.18,85.13-80.67,11.62-26.36,10.1-54.9,1.39-81.88-18.88-58.46-62.16-107.11-74.11-168.13-13.94-71.21-9.93-144-19.58-215.7-6.07-45.05-14.83-90.23-29-133.49C1015.68,340.62,999,304.24,974.81,273a235.51,235.51,0,0,0-39.16-40.16c-14.24-11.39-29.65-21.83-47-27.71-17.87-6.05-37.11-8.35-55.91-8.54-17.75-.18-35.9,1.48-53.05,6.19a90.7,90.7,0,0,0-19.62,7.63c-5.09,2.77-.55,10.54,4.54,7.77Z" class="cls-9"></path><path d="M449,504.86c-30.13,32-65.61,58.45-105.43,77.14-5.24,2.46-.68,10.22,4.54,7.77,40.45-19,76.65-46.06,107.25-78.55,4-4.21-2.38-10.59-6.36-6.36Z" class="cls-9"></path><path d="M706.26,377.61c-18.82-39.41-52.56-82.49-101.54-78-42.11,3.89-62,44-76.7,78.53-10.81,25.44-22.45,50.08-37.43,73.38-3.14,4.89,4.65,9.41,7.77,4.54a409.19,409.19,0,0,0,32.51-61.73c7.25-17.07,14.12-34.49,24-50.26,9.37-14.92,22.15-28.27,39.48-33.41,20.69-6.14,43.22.56,60.31,12.87,20.13,14.49,33.32,36.6,43.81,58.59,2.5,5.23,10.26.67,7.78-4.54Z" class="cls-9"></path><path d="M727.66,389.42c13.59,74.52,57,142.19,117.55,187.36a288.38,288.38,0,0,0,55.49,32.44c5.25,2.32,9.84-5.43,4.55-7.77-67.78-30-122.49-86.68-151.25-154.92A284.45,284.45,0,0,1,736.34,387c-1-5.69-9.72-3.28-8.68,2.39Z" class="cls-9"></path><path d="M383.11,387.88c15.33,41,49,93.61,74.91,128.12,0,0,22.27-8.28,36.66-27.5,13.28-17.74,13.75-45.83,13.75-45.83C471.77,419.76,383.11,387.88,383.11,387.88Zm97.18,88.24c-7.45,10.44-20,16.7-20,16.7-13.26-17.68-39.43-56.64-49.37-78,0,0,58.83,24.75,79.48,35.37C490.43,450.19,488.27,465,480.29,476.12Z" class="cls-17"></path><path d="M378.77,389.08c8.81,23.35,20.71,45.49,33.52,66.86a735.09,735.09,0,0,0,41.84,62.33c1.12,1.49,3.1,2.81,5.08,2.07a88.85,88.85,0,0,0,39.36-29.57c6.44-8.76,10.09-19.46,12.19-30,1.11-5.58,2.67-12.16,2.17-17.9-.34-3.85-4.16-5.26-7.14-7-3.7-2.14-7.46-4.16-11.25-6.12-8.66-4.46-17.49-8.59-26.38-12.56-17.5-7.83-35.26-15.08-53.12-22-10.2-4-20.43-7.88-30.73-11.59-5.46-2-7.81,6.73-2.39,8.68,31.89,11.48,63.61,24,94.26,38.47a298,298,0,0,1,30,15.87l-2.23-3.89c-.28,14.24-3.85,30-11.91,41.83s-22.61,22.42-35.2,27.16l5.08,2.07a733.55,733.55,0,0,1-41-60.89c-12.74-21.13-24.75-43-33.48-66.15C385.43,381.32,376.72,383.64,378.77,389.08Z" class="cls-9"></path><path d="M476.41,473.85a53,53,0,0,1-18.36,15.08l6.15,1.62c-9.11-12.2-17.66-24.83-25.92-37.62-8.42-13-16.82-26.31-23.44-40.38l-5.08,6.61,1.92.81,7.26,3.09q11.15,4.76,22.28,9.58c15.75,6.86,31.64,13.61,46.94,21.43L486.09,449a60.28,60.28,0,0,1-9.68,24.86c-3.29,4.79,4.51,9.3,7.77,4.55a66.31,66.31,0,0,0,10.59-27c.29-1.9-.17-4.11-2.07-5.08-26.11-13.36-53.53-24.45-80.55-35.82-4-1.69-6.54,3.53-5.08,6.61,6.62,14.07,15,27.34,23.44,40.38,8.25,12.79,16.81,25.43,25.92,37.62a4.65,4.65,0,0,0,6.16,1.61,62.63,62.63,0,0,0,21.59-18.3C487.64,473.75,479.83,469.26,476.41,473.85Z" class="cls-9"></path><path d="M841.51,471.85l-48.7,41.73c-4.41,3.77,2,10.11,6.36,6.36l48.7-41.73c4.4-3.77-2-10.11-6.36-6.36Z" class="cls-9"></path><path d="M860.19,488.46,807.36,536c-4.32,3.88,2.06,10.23,6.36,6.37l52.84-47.5c4.31-3.88-2.07-10.23-6.37-6.36Z" class="cls-9"></path><path d="M595.57,695.05c-.4,28.18-31.09,44.09-54.91,49.68-30.52,7.16-67.43,3.51-93-15.9-9.47-7.17-17.61-17.39-19.16-29.49-1.51-11.86,3.73-23.1,11.81-31.51,21.73-22.62,58-28.39,87.81-24.72,27.19,3.35,67,19.16,67.46,51.94.08,5.79,9.08,5.81,9,0-.45-32.16-33-51.45-60.78-58.17-34.25-8.28-75.47-3.79-103.58,18.86-10.7,8.63-19,20.61-20.65,34.5-1.59,13.62,3.84,26.6,12.79,36.68,23.39,26.38,64.61,33.25,97.93,28.8,31.73-4.24,73.76-23.26,74.29-60.67C604.65,689.26,595.65,689.26,595.57,695.05Z" class="cls-9"></path><path d="M791.9,695.05c-.4,28.18-31.09,44.09-54.91,49.68-30.52,7.16-67.43,3.51-93-15.9-9.46-7.17-17.61-17.39-19.16-29.49-1.51-11.86,3.73-23.1,11.82-31.51,21.72-22.62,58-28.39,87.8-24.72,27.19,3.35,67,19.16,67.46,51.94.08,5.79,9.08,5.81,9,0-.45-32.16-33-51.45-60.78-58.17-34.24-8.28-75.47-3.79-103.58,18.86-10.7,8.63-19,20.61-20.65,34.5-1.59,13.62,3.84,26.6,12.79,36.68,23.39,26.38,64.61,33.25,97.93,28.8,31.73-4.24,73.76-23.26,74.29-60.67C801,689.26,792,689.26,791.9,695.05Z" class="cls-9"></path><path d="M520.05,996.89c34.36,44.32,104.73,42.84,151.45,21.78,12.58-5.67,24.49-13.38,33.88-23.57,3.91-4.26-2.43-10.64-6.37-6.37-16.39,17.8-40.36,27.42-63.67,32-25.07,5-52.48,4.21-76.31-5.66a79.37,79.37,0,0,1-32.62-24.56c-3.54-4.57-9.87,1.84-6.36,6.36Z" class="cls-9"></path><path d="M520.05,990.53c-15.36,16.36-23.72,40.48-7.15,59.14,15.2,17.12,41.91,19.12,62.35,11.77,16.17-5.81,29.68-16.83,40.18-30.28,3.52-4.51-2.81-10.92-6.37-6.36-14.88,19.06-36.88,33.67-61.95,31.51-15.75-1.36-33.64-11.48-34.56-29-.61-11.75,6.13-22.19,13.86-30.44,4-4.22-2.39-10.6-6.36-6.36Z" class="cls-9"></path><path d="M697.47,995.11c12.55,12.85,21.21,32.61,7,47.64-13.48,14.23-35.84,15-53.29,8.84-14.31-5.09-26.14-15.14-35.62-26.79-3.66-4.5-10,1.9-6.37,6.36,17.6,21.62,44.31,36.8,72.85,32.33,19.61-3.08,38.63-17.45,39-38.71.25-14-7.76-26.39-17.18-36-4.05-4.15-10.41,2.21-6.36,6.36Z" class="cls-9"></path><path d="M817.92,1107a231.74,231.74,0,0,0-5,87.57c.75,5.66,9.76,5.74,9,0a225.08,225.08,0,0,1,4.64-85.18c1.41-5.62-7.27-8-8.68-2.39Z" class="cls-9"></path><path d="M423.06,1109.36c4.5,28.28,2.26,57-1.47,85.18-.76,5.73,8.24,5.67,9,0,3.85-29.13,5.79-58.4,1.15-87.57-.91-5.7-9.58-3.28-8.68,2.39Z" class="cls-9"></path><path d="M150.9,1064.59c29.19,20.16,65.78,8.58,91.16-11.89,4.51-3.63-1.89-10-6.36-6.36-22.41,18.06-54.58,28.21-80.26,10.48-4.78-3.3-9.28,4.49-4.54,7.77Z" class="cls-9"></path><path d="M257.48,1049.21a65.11,65.11,0,0,1,.72,18.8c-.59,5.75,8.42,5.71,9,0a73.13,73.13,0,0,0-1-21.19c-1.08-5.69-9.75-3.28-8.68,2.39Z" class="cls-9"></path><path d="M298.76,1052.27c-.17,8.57,5.59,15.85,13.43,18.91,9.47,3.7,19.63.51,28.24-3.93,5.15-2.65.6-10.42-4.54-7.77-5.65,2.91-12.32,5.48-18.75,3.88-5.21-1.29-9.49-5.55-9.38-11.09.11-5.79-8.89-5.79-9,0Z" class="cls-9"></path><path d="M357,1062a36.77,36.77,0,0,0,21,9.46c5.74.68,5.69-8.33,0-9a26.43,26.43,0,0,1-14.66-6.82c-4.28-3.89-10.66,2.46-6.37,6.36Z" class="cls-9"></path><path d="M830.2,1051.76c1.51,10.45,11.26,17.31,21.22,18.65,12.82,1.72,24.43-5.71,34.25-13,4.59-3.42.11-11.24-4.55-7.77-7.47,5.57-16,11.88-25.76,12.09-7.65.17-15.34-4.44-16.48-12.34-.82-5.71-9.49-3.28-8.68,2.4Z" class="cls-9"></path><path d="M901.4,1058.4l2.84,2.84a4.5,4.5,0,0,0,6.37-6.36l-2.85-2.85a4.5,4.5,0,0,0-6.36,6.37Z" class="cls-9"></path><path d="M928.4,1049.07c-4.42,9,2.07,18.46,11.38,20.35,11.48,2.34,25.27-2.51,35.94-6.41,5.39-2,3.06-10.68-2.39-8.68a124.19,124.19,0,0,1-21.84,5.94c-3.58.61-7.62,1.24-11.14,0-2.45-.87-5.64-3.65-4.18-6.64,2.54-5.18-5.22-9.74-7.77-4.54Z" class="cls-9"></path><path d="M983.4,1040.89c3.16,16.89,17.77,30.48,34.91,32.2,17.41,1.75,33.7-9.35,40.31-25.1,2.24-5.33-6.47-7.66-8.68-2.39-5,12-18.64,20.14-31.63,18.49-13.34-1.69-23.81-12.65-26.23-25.6-1.06-5.68-9.74-3.27-8.68,2.4Z" class="cls-9"></path></g></g></svg>