<svg viewBox="0 0 1200 1200" xmlns="http://www.w3.org/2000/svg"><defs><style>.cls-1{isolation:isolate;}.cls-2{fill:#e1f9e6;}.cls-3{opacity:0.45;}.cls-4{fill:#c4f2ce;}.cls-5{fill:#d9678d;}.cls-6{fill:#6248a0;}.cls-7{fill:#261560;}.cls-8{fill:#ffdfca;}.cls-9{fill:#ffb9a4;}.cls-10{fill:#ef907b;}.cls-11{fill:#331403;}.cls-12{fill:#e8a685;}.cls-13{fill:#ffac33;}.cls-14{mix-blend-mode:multiply;}.cls-15{fill:#eab394;}.cls-16{fill:#f9bca5;}.cls-17{fill:#7c66bf;}.cls-18{opacity:0.5;}.cls-19{fill:#c94b7e;}</style></defs><title>touxiang</title><g class="cls-1"><g id="bg"><rect height="1200" width="1200" class="cls-2"></rect><g class="cls-3"><path d="M1200,0h-55.2L1050,94.91,955.16,0H844.85L750,94.91,655.12,0H544.88L450,94.91,355.16,0H244.84L150,94.91,55.2,0H0V55.2L94.91,150,0,244.84V355.16L94.91,450,0,544.88V655.12L94.91,750,0,844.85V955.16L94.91,1050,0,1144.8V1200H55.2L150,1105.09,244.84,1200H355.16L450,1105.09l94.9,94.91H655.12L750,1105.09,844.85,1200H955.16l94.82-94.91L1144.8,1200H1200v-55.2L1105.09,1050,1200,955.16V844.85L1105.09,750,1200,655.12V544.88L1105.09,450,1200,355.16V244.84L1105.09,150,1200,55.2ZM900,55.2,994.79,150,900,244.84,805.14,150Zm0,599.92L994.79,750,900,844.85,805.14,750ZM750,694.82,655.12,600,750,505.18,844.85,600ZM394.87,750,300,844.85,205.22,750,300,655.12ZM205.22,450,300,355.16,394.87,450,300,544.88ZM355.16,600,450,505.18,544.88,600,450,694.82Zm150-150L600,355.16,694.82,450,600,544.88ZM600,655.12,694.82,750,600,844.85,505.18,750ZM805.14,450,900,355.16,994.79,450,900,544.88ZM844.85,300,750,394.87,655.12,300,750,205.22ZM600,55.2,694.82,150,600,244.84,505.18,150ZM544.88,300,450,394.87,355.16,300,450,205.22ZM300,55.2,394.87,150,300,244.84,205.22,150ZM55.2,300,150,205.22,244.84,300,150,394.87Zm0,300L150,505.18,244.84,600,150,694.82Zm0,300L150,805.14,244.84,900,150,994.79ZM300,1144.8,205.22,1050,300,955.16,394.87,1050ZM355.16,900,450,805.14,544.88,900,450,994.79ZM600,1144.8,505.18,1050,600,955.16,694.82,1050ZM655.12,900,750,805.14,844.85,900,750,994.79ZM900,1144.8,805.14,1050,900,955.16,994.79,1050ZM1144.8,900,1050,994.79,955.16,900,1050,805.14Zm0-300L1050,694.82,955.16,600,1050,505.18Zm0-300L1050,394.87,955.16,300,1050,205.22Z" class="cls-4"></path></g></g><g id="涂色"><path d="M1007.52,557.47c-.46-8,1.16-15.82,1.87-23.79.65-7.19-.15-14.31-1.32-21.41a249.71,249.71,0,0,0-11.52-42.9c-4.94-13.85-11.25-26.38-18.48-39.16-2.89-5.11-4.69-11.8-8.49-16.29-3.92-4.64-10.23-6.88-14.31-11.55a12.31,12.31,0,0,1-1.53-2.17c-.78-.16-1.54-.33-2.23-.53a8.86,8.86,0,0,1-6.73-8.16c-15.71,6.42-30.81,14.8-45.22,22.84-46.47,25.92-91.14,54.82-136.89,81.88,6.73,24.66,27,42.5,48.54,55.29a330.35,330.35,0,0,0,78.41,33.22c.5-7.61-7.45-16.3-11.27-22.26l-27.66-43.12a16.09,16.09,0,0,1-2.42-2.15,9.14,9.14,0,0,1-1.85-4.5l-3.55-5.54a12.91,12.91,0,0,1-3.13-2.86,2.1,2.1,0,0,1-.26-2.46,1,1,0,0,1,.58-1.33,4.09,4.09,0,0,0,.15-.76c0-.63,1-.64,1,0a4.78,4.78,0,0,1-.15.77,1.42,1.42,0,0,1,.46.37,616.48,616.48,0,0,0,70.39,77.36c23,21.31,71.68,66.7,72.27,67,.19,0,6.72-11.85,6.85-11.65.57.2,5.14-10.17,5.73-10.06,1.93-17.61,5.12-28,8.79-45.53a1.16,1.16,0,0,1,.25-1.69l.12-.08q1.47-6.83,3.23-13.57A10.94,10.94,0,0,1,1007.52,557.47Z" class="cls-5"></path><path d="M334.06,683.82c.38-5.28,2.64-11.55,4.18-16.64,1-3.41,9-19.86,11.89-21.3,21.47-10.58,28.74-20,46.6-36,.3-.26-57.12,11.47-86.07,10.54.54,19.45-5.49,27.5-5.37,46.95.07,10.41,8.45,40.88,8.65,51.3C323.9,713.65,333.24,695.12,334.06,683.82Z" class="cls-5"></path><path d="M940.11,904.11a46.71,46.71,0,0,0-14.37-.81c-16.42,1.72-30.34,12.51-41.17,24.28-14.48,15.74-25.32,34.73-34.44,54A453.45,453.45,0,0,0,824,1052.82c-13,46.18-21.71,95.23-19.62,143.38h67a112.58,112.58,0,0,1,.7-17.12c6-50.19,40.87-92.34,69.48-131.87,8.2-11.33,16.63-22.85,23.94-35a1.31,1.31,0,0,1,.54-.88,172.3,172.3,0,0,0,12-23.75c8.54-21.13,9.26-46.36-6.21-64.66a58.06,58.06,0,0,0-31.12-18.71A1.26,1.26,0,0,1,940.11,904.11Z" class="cls-6"></path><path d="M413.48,1196.2h67q.31-7.38.28-14.77a448,448,0,0,0-9.21-85.1,1.15,1.15,0,0,1-.26-1.29,574,574,0,0,0-15.85-60.29c-7.52-23.46-16.62-46.56-28.37-68.24-9.5-17.54-20.87-34.88-36.12-48-11.22-9.62-25.34-16.64-40.35-15.28a1.16,1.16,0,0,1-1,.11c-.47,0-.94.09-1.41.16-19.53,2.92-37.55,16.3-44.25,35.09-7.79,21.86-.82,44,9.69,63.47,11.51,21.38,26.46,40.78,40.7,60.37C382.65,1101.33,415.14,1145.76,413.48,1196.2Z" class="cls-6"></path><path d="M938.93,1054.62c-30.18,41.44-67.62,88.47-65.3,142.7a1.13,1.13,0,0,1-1.12,1.13H803.25a1,1,0,0,1-.93-.56,1.14,1.14,0,0,1-.19-.57q-.39-8.21-.31-16.44a451,451,0,0,1,9-84.18,621.8,621.8,0,0,1-71.79,15.55c-87.6,13.67-180,11.27-265.05-15.06,6.66,33,10.25,66.82,8.68,100.13a1.14,1.14,0,0,1-.19.57,1,1,0,0,1-.93.56H412.33a1.13,1.13,0,0,1-1.12-1.13,112.2,112.2,0,0,0-.82-19.3c-3.44-26.29-15.61-50.64-29.45-72.92-14.3-23-31-44.45-46.62-66.56-5.21-7.36-10.92-15.65-16.24-24.49a216.26,216.26,0,0,0-27.25,33.17c-30.78,45.64-48.64,99.44-62,152.46h0c3.57-.65,7.89,0,11.51,0l22.19,0,71.08-.11,98.81-.15,116.91-.18,125.36-.19,124.18-.2,113.37-.17,92.9-.15,62.81-.09,21.58,0a436.35,436.35,0,0,0-17.79-49.51c-12.14-28.31-27.18-55.61-45.72-80.26-16.12-21.43-35.36-41.55-59-54.72C958.55,1028,948.58,1041.37,938.93,1054.62Z" class="cls-6"></path><path d="M374.89,467.87c77.72-12.15,155.35-31.69,228.35-61.83,68-28.08,131.15-62.37,193.9-100.34,16.76-10.14,33-24.63,50.11-34.21a293.23,293.23,0,0,0-144.68-77.4c-52.15-11-106.55-7.71-157.56,7.29-42.82,12.59-84.34,31-120.74,57-33.22,23.73-62,54.17-80.72,90.67-19.22,37.46-24.67,86.8-21.49,128.62C339.91,475.3,357.08,470.65,374.89,467.87Z" class="cls-6"></path><path d="M1115.05,350.53c-1-22.87-4.39-46.26-14.5-67a96.3,96.3,0,0,0-56.31-49.32c-21.74-7.41-45.17-8.51-67.92-7-23.84,1.59-46.45,7.69-68.52,16.73-26.73,10.95-52.11,25.06-77,39.6-28.45,16.61-56.41,34.06-84.71,50.93-62.33,37.15-126.78,71.72-196.33,93.34-38.15,11.86-77.67,19.63-116.9,27-33,6.22-63.7,17.2-97,21.81-25.51,3.53-50,15.39-75.53,19.06-19.09,2.74-37.36,15.54-56,20.68-14.27,3.94-28.33,9.31-40.48,17.9-11.71,8.28-28.5,18.3-35.22,30.92-8.69,16.35-15.64,38.89-18.32,57.2-3.85,26.38-3.87,60.44,11.65,81.88,17.57,24.27,52.91,45.4,80.12,57.19,33.68,14.59,76.94,12.34,113.65,8.29-.46-4.56-4.59-28.78-5.79-37.29-12.57-.89-42.38-8.41-49.65-11.38-38.21-15.63-35.56-44-35.72-45.13-2.1-15.34,11.08-40.05,27-44.21,8.06-2.12,21.25-7.75,29.54-7.77,12.36,0,23.67-3.92,36-3.51,37.57,1.23,76.54-7.21,114-10.56,52.79-4.72,106.76-18.71,157.47-34.38,44.37-13.71,86.7-33.4,127.56-55.33,14.82-8,29.47-16.26,44-24.75-.45-1.83-.84-3.7-1.15-5.61-.22-1.42,1.94-2,2.17-.6.27,1.7.61,3.38,1,5,23.41-13.73,46.54-27.95,69.66-42.17,31.27-19.22,62.53-39,95.65-54.91,20.85-10,45.71-21.32,69.49-18.06,21.47,2.94,33.13,20.57,38.62,40.12,2.18,8.17,2.32,16.91,2.33,25.31,0,10.81-7.44,16.36-8.36,27.13-.76,8.93-10.2,22.63-11.62,31.48-.17,1-6.32,16.63-7,19.13,13.32-5.8,47.08-25.45,57.82-35.28C1106.27,452.71,1117.13,399.4,1115.05,350.53Z" class="cls-6"></path><path d="M271.83,625.47c-7.09.44-35.18,9.41-37.77,20.24-5.48,22.9-13.18,35.53-7.53,45.41,27.39,47.93,84.14,38.27,84.53,39.41-1.11-50.53-.92-56.7-1.95-107l-3.7-.17C294.69,622.89,282.55,624.8,271.83,625.47Z" class="cls-7"></path><path d="M1032.19,413.62A45.12,45.12,0,0,0,1004.47,385c-15.72-5.63-32.73-1.41-48.09,3.67a5.5,5.5,0,0,0-4.44,1.67c-4.26,2.71-2.05,10.25,3.09,9.26A126.19,126.19,0,0,1,986.62,446c8.35,20.74,16.24,41.55,17.09,64.14.18,4.79,6.82,7,9.31,2.53a171.72,171.72,0,0,0,17.91-47.44C1034.38,449,1037.31,429.77,1032.19,413.62Z" class="cls-7"></path><path d="M1077.39,635.36c-6.87-14.7-20.39-26.52-36.24-33.29-6.6,1.35-13.53,1.26-20.19,1.45-2.34.07-4.72.13-7,.35-4.48,3.72-9.17,7.16-13.62,10.9a12.4,12.4,0,0,1-4.32,2.38c-.74,5-1,10.1-2.22,14.92l-.42-.08a7.55,7.55,0,0,1-.29,2.51c0,.07,0,.14-.07.21a10.43,10.43,0,0,1-9.63,7c-5.27,0-8.81-3.86-9.77-8.63l-.08-.12v0c-.27-.28-.54-.55-.83-.81-1.37-1.31-2.91-2.43-4.38-3.63a27.12,27.12,0,0,1-7.19-8.56c-18.23-10.27-34.38-25-49.44-38.84a615.9,615.9,0,0,1-56.27-59.32.51.51,0,0,1-.35.2q7.77,12.13,15.56,24.27l14,21.83c3.6,5.62,8.35,11.36,7,18.43a1.13,1.13,0,0,1-1.38.78c-29-8.11-57.44-19.78-83.13-35.58-20.71-12.74-39.81-30.5-46.49-54.27-25.38,15-51.11,29.37-77.67,42.35-39.5,19.29-80.6,35.87-123.45,46.06a885.74,885.74,0,0,1-153.12,22.92c-2.26.13-4.51.23-6.77.34-.36.39-.74.76-1.13,1.12a1,1,0,0,1-.18,1.31,268.45,268.45,0,0,1-52.24,36.55,9.94,9.94,0,0,1-1.41,4.68c-4.86,8.33-7.24,17.62-10.05,26.79a10.56,10.56,0,0,1-1.73,3.38,11.1,11.1,0,0,1-1.16,6.3c-2.86,5.58-4.14,11.82-6.52,17.61-1.87,4.53-5.72,7.84-10.68,7.27-1.37-6.69-2.82-13.37-4.17-20.05-4.62-22.93-5.38-45.41-4.83-68.73.08-3.65-3.1-5.23-5.9-4.73a5.72,5.72,0,0,0-.71,0,207.17,207.17,0,0,0-29.67,5.18c-8.46,2.16-14.71,4.38-19.73,11.89-4.48,6.71-8.31,13.72-8.87,21.91-.61,8.85,1.45,18.26,4,26.69a200.7,200.7,0,0,0,22.87,49.05c4.4,6.89,10.35,11.5,17.62,15,9.13,4.46,18.52,8.46,27.78,12.67a5.91,5.91,0,0,0,2.56.53c.69,8.2,1.51,16.38,2.53,24.55C322.82,827,331.54,866.45,350.65,901a46.75,46.75,0,0,1,8.45,0C375.2,902.69,389,912.62,400,924c14.78,15.35,25.86,34.17,35.14,53.23l.05.1a1.19,1.19,0,0,1,1.53-.5,63,63,0,0,1,12.72,7.88q-6.8-2.72-13.47-5.76a449.38,449.38,0,0,1,26.23,70.15c4.31,14.93,8.16,30.17,11.35,45.6a494.76,494.76,0,0,0,72.12,16.57c87.78,13.49,179.68,7.17,265.11-16.85a1,1,0,0,1,.58,0,569.68,569.68,0,0,1,17.28-64.54,420.31,420.31,0,0,1,20.48-51.38,332.65,332.65,0,0,1-34.84,12.83c11.46-4.92,22.86-10,34.26-15a1.2,1.2,0,0,1,1.46.39q3.67-7.48,7.74-14.77c9.74-17.36,21.48-34.62,37.2-47.13,11.71-9.32,26.14-15.59,41.34-13.56,1.29.18,2.57.41,3.85.67,16.11-25.13,26.42-53.39,33.51-82.27A581.23,581.23,0,0,0,985.24,755c13,4,27,5.18,40.32,2.19,22.83-5.13,38.69-22.08,47.5-41.82C1083.94,691,1089,660.32,1077.39,635.36Z" class="cls-8"></path><path d="M600.09,813.23a127.8,127.8,0,0,1-84.54,120.25q-14.52-2.21-28.88-5.27a.9.9,0,0,0-.57-.13q-4.12-.89-8.25-1.86c-39.83-9.47-79.79-25.37-110-53.62a1.29,1.29,0,0,0-.17-.16q-4.12-3.86-8-8-4.26-4.6-8.09-9.52a127.74,127.74,0,1,1,248.49-41.67Z" class="cls-9"></path><path d="M971.86,796.41h0C967,808,962,818.11,957.31,825.47c-21.07,33.2-52.62,57.65-87.92,74.31-26.27,12.4-54.19,21-82.72,27A127.74,127.74,0,1,1,971.86,796.41Z" class="cls-9"></path><path d="M419.58,775.53,412,795.76c-2,5.43,6.67,7.78,8.68,2.39l7.54-20.23c2-5.44-6.68-7.78-8.68-2.39Z" class="cls-10"></path><path d="M465.18,783.79a54.06,54.06,0,0,1-3.75,13.84c-.92,2.27,1,4.93,3.14,5.54,2.57.73,4.63-.9,5.54-3.15a62.54,62.54,0,0,0,4.07-16.23c.3-2.41-2.28-4.5-4.5-4.5-2.67,0-4.2,2.08-4.5,4.5Z" class="cls-10"></path><path d="M512.48,781.13q-4.55,10.68-8.36,21.63c-1.9,5.49,6.79,7.84,8.68,2.39,2.27-6.57,4.73-13.07,7.45-19.48,2.24-5.27-5.51-9.86-7.77-4.54Z" class="cls-10"></path><path d="M797.89,775.53l-7.54,20.23c-2,5.43,6.67,7.78,8.68,2.39l7.53-20.23c2-5.44-6.67-7.78-8.67-2.39Z" class="cls-10"></path><path d="M843.49,783.79a54.06,54.06,0,0,1-3.75,13.84c-.92,2.27,1,4.93,3.14,5.54,2.57.73,4.63-.9,5.54-3.15a62.54,62.54,0,0,0,4.07-16.23c.3-2.41-2.28-4.5-4.5-4.5-2.68,0-4.2,2.08-4.5,4.5Z" class="cls-10"></path><path d="M890.79,781.13q-4.54,10.68-8.36,21.63c-1.9,5.49,6.79,7.84,8.67,2.39,2.28-6.57,4.74-13.07,7.46-19.48,2.24-5.27-5.51-9.86-7.77-4.54Z" class="cls-10"></path></g><g id="五官"><path d="M560,631.13c-21.58,0-22.08,47.22,2.46,47.22C581.05,678.35,582.73,631.18,560,631.13Z" class="cls-11"></path><path d="M560,626.63c-23.17.59-25.43,35.23-13.27,49.11,6.48,7.39,18.55,10,26.2,2.86,7.36-6.85,9.12-18.78,8-28.3-1.33-11.72-7.95-23.3-21-23.67-5.79-.17-5.78,8.83,0,9,14.72.42,14.38,25,8.77,33.9-3.39,5.42-9.68,5.45-14.32,1.28-5.21-4.69-6.47-13-5.92-19.62s3.67-15.36,11.47-15.56C565.74,635.48,565.77,626.48,560,626.63Z" class="cls-11"></path><path d="M735.58,631.13c21.58,0,22.08,47.22-2.46,47.22C714.49,678.35,712.81,631.18,735.58,631.13Z" class="cls-11"></path><path d="M735.58,635.63c14.52.37,13.45,25.08,7.3,33.25-3.4,4.52-10.6,7.26-14.84,2.37-4.41-5.08-5.18-13.22-4.57-19.62.67-7,3.9-15.77,12.11-16,5.78-.17,5.8-9.17,0-9-23,.66-26.41,34.62-15.16,49.43,6.37,8.39,17.94,8.64,25.88,2.14s10.69-18.34,9.62-28.32c-1.22-11.33-7.72-22.93-20.34-23.25C729.78,626.48,729.79,635.48,735.58,635.63Z" class="cls-11"></path><path d="M661.26,768.67c11.43,2.7,22.84,1,32.56-5.79,8.51-5.91,14.84-14.07,20.95-22.31,3.45-4.66-4.36-9.16-7.77-4.55-10.64,14.37-23.71,28.61-43.35,24-5.63-1.33-8,7.35-2.39,8.68Z" class="cls-11"></path><path d="M476.65,930.56c89.63,23.14,184.61,26.27,275.72,10.19A607.15,607.15,0,0,0,832.11,921c5.5-1.76,3.15-10.45-2.39-8.67-88.83,28.46-184.19,35.91-276.59,23.88A613.68,613.68,0,0,1,479,921.88c-5.61-1.45-8,7.23-2.39,8.68Z" class="cls-12"></path><path d="M488.39,1013.56c31.54,34,72.59,59.72,118.19,69.51a199.37,199.37,0,0,0,133.1-17.91c26.21-13.47,49.34-32.53,69-54.4,6.43-7.16-4.14-17.81-10.61-10.61-31.49,35.07-71.95,61.56-118.84,69.88-41.3,7.32-84.33-1-121.07-20.78A229.28,229.28,0,0,1,499,1003c-6.58-7.1-17.17,3.53-10.61,10.6Z" class="cls-13"></path><g class="cls-14"><path d="M534.92,614.33c8.2-3.28,16.55-7,25.33-8.47s16.48.76,23.72,5.73c4.79,3.28,9.3-4.52,4.55-7.77-7.95-5.45-17-8.24-26.65-7.21-10.27,1.09-19.85,5.24-29.34,9-5.31,2.12-3,10.83,2.39,8.67Z" class="cls-15"></path></g><g class="cls-14"><path d="M763,605.66c-9.49-3.81-19.07-7.95-29.34-9-9.65-1-18.7,1.76-26.65,7.21-4.75,3.25-.25,11,4.55,7.77,7.25-5,15-7.21,23.73-5.73s17.12,5.19,25.32,8.47c5.38,2.16,7.71-6.54,2.39-8.67Z" class="cls-15"></path></g><path d="M610.65,990.49c35.29,9,70.82,6.91,106.19-.52,5.67-1.19,3.27-9.87-2.39-8.68-33.79,7.1-67.7,9.1-101.41.52-5.61-1.42-8,7.25-2.39,8.68Z" class="cls-12"></path></g><g id="细节"><path d="M268.57,693c6-7.05,12.94-5.42,17.49,2.15,3,5,10.76.45,7.77-4.54-7.33-12.21-21.78-15.52-31.62-4-3.74,4.38,2.6,10.78,6.36,6.36Z" class="cls-16"></path><path d="M274.73,684.43c-4,4.52-5.73,10.13-6.05,16.06s8.69,5.77,9,0c.19-3.41,1.11-7.06,3.41-9.69,3.8-4.35-2.54-10.74-6.36-6.37Z" class="cls-16"></path><path d="M1052.17,686.6c-12.87-10.52-31.23-9.71-42.33,3.06-3.79,4.35,2.55,10.75,6.36,6.37,7.65-8.8,20.34-10.64,29.6-3.07,4.45,3.63,10.85-2.7,6.37-6.36Z" class="cls-16"></path><path d="M1027.47,690.8a13.54,13.54,0,0,1,5.6,9.69c.44,5.74,9.45,5.79,9,0a22.15,22.15,0,0,0-8.24-16.06c-1.92-1.49-4.5-1.87-6.36,0-1.56,1.55-1.94,4.87,0,6.37Z" class="cls-16"></path><path d="M400.17,360.62A135,135,0,0,0,385,413.57c-.44,5.78,8.57,5.75,9,0a123.9,123.9,0,0,1,13.94-48.41c2.69-5.12-5.07-9.68-7.77-4.54Z" class="cls-17"></path><path d="M416.83,332.45l1.87,8.94a4.5,4.5,0,0,0,8.68-2.39l-1.87-8.95a4.5,4.5,0,1,0-8.68,2.4Z" class="cls-17"></path><path d="M493,298.3a28.94,28.94,0,0,0,3.83,17.82c2.9,5,10.68.48,7.77-4.55A20.82,20.82,0,0,1,502,298.3c.28-2.44-2.27-4.48-4.5-4.5-2.66,0-4.22,2.1-4.5,4.5Z" class="cls-17"></path><path d="M467.57,372.75c.24.08.47.16.7.26l-1.08-.46a9.93,9.93,0,0,1,1.54.83l.31.21-.42-.32a5.29,5.29,0,0,0,.73.68,4.5,4.5,0,0,0,6.36-6.37,14.47,14.47,0,0,0-5.75-3.51,4.52,4.52,0,0,0-5.53,3.14,4.61,4.61,0,0,0,3.14,5.54Z" class="cls-17"></path><path d="M555.15,279.73c3.49,16.11,15.27,32.61,31,38.49,5.44,2,7.78-6.66,2.4-8.68-12.71-4.75-21.94-19.44-24.7-32.2-1.23-5.66-9.91-3.27-8.68,2.39Z" class="cls-17"></path><path d="M635.7,259.65,639,296.44c.51,5.73,9.51,5.78,9,0l-3.27-36.79c-.51-5.72-9.51-5.78-9,0Z" class="cls-17"></path><path d="M576.06,378.56c5.79,0,5.8-9,0-9s-5.8,9,0,9Z" class="cls-17"></path><path d="M554.5,218.77a46.28,46.28,0,0,0,5,19.18c2.61,5.17,10.38.62,7.77-4.54a35.41,35.41,0,0,1-3.79-14.64c-.24-5.77-9.24-5.8-9,0Z" class="cls-17"></path><path d="M485.25,251.71l9.88,8.47a4.63,4.63,0,0,0,6.37,0c1.61-1.62,1.85-4.78,0-6.37l-9.89-8.46a4.59,4.59,0,0,0-6.36,0c-1.62,1.61-1.85,4.77,0,6.36Z" class="cls-17"></path><path d="M738.15,276.65v7.06a4.5,4.5,0,0,0,9,0v-7.06a4.5,4.5,0,0,0-9,0Z" class="cls-17"></path><path d="M691.53,307.85l-11.26,28.24c-2.15,5.38,6.55,7.72,8.68,2.4l11.26-28.25c2.14-5.38-6.56-7.72-8.68-2.39Z" class="cls-17"></path><path d="M698.65,224.41a6.05,6.05,0,0,1-2.07,4.54c-1.94,1.46-2.94,3.89-1.62,6.16,1.12,1.91,4.2,3.08,6.16,1.61a15.36,15.36,0,0,0,6.53-12.31c.1-5.79-8.9-5.79-9,0Z" class="cls-17"></path><path d="M461.76,418.38a269.43,269.43,0,0,0,45.37,12c5.67,1,8.1-7.69,2.4-8.68a269.54,269.54,0,0,1-45.38-12c-5.46-2-7.81,6.72-2.39,8.68Z" class="cls-17"></path><path d="M206.19,556.78A28,28,0,0,0,186.73,579c-.84,5.67,7.83,8.11,8.68,2.39,1.11-7.44,5.88-13.66,13.17-16,5.51-1.73,3.16-10.42-2.39-8.68Z" class="cls-17"></path><path d="M149.1,633.85a50.3,50.3,0,0,0-.75,30.77c1.61,5.55,10.29,3.19,8.67-2.39a41.67,41.67,0,0,1,.76-26c1.92-5.48-6.78-7.84-8.68-2.4Z" class="cls-17"></path><path d="M176.53,603c5.79,0,5.8-9,0-9s-5.8,9,0,9Z" class="cls-17"></path><path d="M183.24,688.73a54.59,54.59,0,0,0,9.21,19.33c3.44,4.58,11.25.1,7.77-4.54a48.29,48.29,0,0,1-8.3-17.19c-1.43-5.6-10.12-3.23-8.68,2.4Z" class="cls-17"></path><path d="M255.78,585.58a77,77,0,0,0-54.89,44.57c-2.25,5.26,5.5,9.85,7.78,4.54a68.73,68.73,0,0,1,49.5-40.43c5.67-1.15,3.27-9.83-2.39-8.68Z" class="cls-17"></path><path d="M290.88,590.32a100.19,100.19,0,0,1,29.86,4.08c5.57,1.63,7.95-7,2.4-8.68a109,109,0,0,0-32.26-4.4c-5.78.09-5.8,9.09,0,9Z" class="cls-17"></path><path d="M360.06,587.5h4.23a4.5,4.5,0,0,0,0-9h-4.23a4.5,4.5,0,1,0,0,9Z" class="cls-17"></path><path d="M279.72,546.44a47.65,47.65,0,0,1,42.39-13.93c5.66,1,8.09-7.65,2.39-8.67a56.93,56.93,0,0,0-51.14,16.24c-4,4.16,2.32,10.53,6.36,6.36Z" class="cls-17"></path><path d="M372.63,522.7l15.5-4.36c5.56-1.57,3.2-10.26-2.39-8.68L370.24,514c-5.57,1.57-3.2,10.25,2.39,8.68Z" class="cls-17"></path><path d="M547,462a324.22,324.22,0,0,1-41,21.16c-5.31,2.28-.73,10,4.54,7.77a325,325,0,0,0,41-21.16c4.93-3,.42-10.79-4.55-7.77Z" class="cls-17"></path><path d="M454.49,557.89a377.84,377.84,0,0,0,49-17.67c5.29-2.33.72-10.08-4.54-7.77a361.66,361.66,0,0,1-46.84,16.76c-5.56,1.58-3.19,10.27,2.4,8.68Z" class="cls-17"></path><path d="M485.35,489.47l-1.41,1.41a4.49,4.49,0,0,0,0,6.36,4.51,4.51,0,0,0,3.18,1.32,4.68,4.68,0,0,0,3.18-1.32l1.41-1.41a4.64,4.64,0,0,0,1.32-3.18,4.54,4.54,0,0,0-1.32-3.18,4.49,4.49,0,0,0-3.18-1.32,4.64,4.64,0,0,0-3.18,1.32Z" class="cls-17"></path><path d="M524.19,524.56l5.64,8.47a4.61,4.61,0,0,0,6.16,1.61,4.53,4.53,0,0,0,1.61-6.15L532,520a4.61,4.61,0,0,0-6.16-1.61,4.54,4.54,0,0,0-1.61,6.16Z" class="cls-17"></path><path d="M416.53,587.5a137,137,0,0,0,26.61-1.57c5.7-.88,3.28-9.55-2.4-8.68a124.91,124.91,0,0,1-24.21,1.25c-5.79-.24-5.78,8.76,0,9Z" class="cls-17"></path><path d="M606.76,453.23l-4.1,9.94c-.93,2.25,1,4.94,3.14,5.53,2.59.71,4.61-.88,5.54-3.14l4.09-9.94c.93-2.25-1-4.95-3.14-5.54-2.58-.71-4.61.89-5.53,3.15Z" class="cls-17"></path><path d="M588.66,519.69a19.5,19.5,0,0,1-5.9,9.3c-4.32,3.88,2.06,10.23,6.36,6.37a28.19,28.19,0,0,0,8.22-13.28c1.6-5.58-7.09-8-8.68-2.39Z" class="cls-17"></path><path d="M543,570l12.7-5.65c2.22-1,2.75-4.22,1.62-6.16-1.34-2.28-3.93-2.6-6.16-1.61l-12.7,5.65c-2.22,1-2.75,4.22-1.62,6.16,1.34,2.28,3.93,2.6,6.16,1.61Z" class="cls-17"></path><path d="M675,420.4l1.39,7.06a4.53,4.53,0,0,0,5.54,3.14,4.61,4.61,0,0,0,3.14-5.53L683.64,418a4.53,4.53,0,0,0-5.54-3.14A4.62,4.62,0,0,0,675,420.4Z" class="cls-17"></path><path d="M656.17,495.11l-11.29,12.71c-3.84,4.31,2.5,10.7,6.36,6.36l11.29-12.7c3.84-4.32-2.5-10.71-6.36-6.37Z" class="cls-17"></path><path d="M656.31,481.43l24.09-8.2c5.45-1.85,3.11-10.55-2.39-8.67l-24.1,8.19c-5.45,1.86-3.11,10.56,2.4,8.68Z" class="cls-17"></path><path d="M752.26,430.53V439c0,5.79,9,5.8,9,0v-8.47c0-5.79-9-5.8-9,0Z" class="cls-17"></path><path d="M784,375.91l14.2-15.46c3.91-4.26-2.43-10.64-6.36-6.36l-14.2,15.46c-3.91,4.25,2.44,10.64,6.36,6.36Z" class="cls-17"></path><path d="M725.44,403.71v2.82a4.5,4.5,0,0,0,9,0v-2.82a4.5,4.5,0,0,0-9,0Z" class="cls-17"></path><path d="M756.21,485.24l2.83-1.41a4.52,4.52,0,0,0,1.61-6.16,4.61,4.61,0,0,0-6.16-1.61l-2.82,1.41a4.55,4.55,0,0,0-2.07,2.69,4.51,4.51,0,0,0,6.61,5.08Z" class="cls-17"></path><path d="M723.25,478.61a58.18,58.18,0,0,0-12,10.91c-1.54,1.88-1.84,4.53,0,6.36,1.59,1.59,4.82,1.89,6.36,0a50.17,50.17,0,0,1,10.13-9.5,4.63,4.63,0,0,0,1.62-6.16c-1.16-2-4.16-3-6.16-1.61Z" class="cls-17"></path><path d="M864.24,327.46a32.37,32.37,0,0,1,7.27-16.54c3.68-4.42-2.65-10.82-6.36-6.37a43.3,43.3,0,0,0-9.91,22.91c-.73,5.73,8.27,5.68,9,0Z" class="cls-17"></path><path d="M842.68,399.2a9.78,9.78,0,0,1,8.48-7.9c2.41-.36,3.74-3.38,3.15-5.53-.71-2.57-3.13-3.51-5.54-3.14A18.37,18.37,0,0,0,834,396.81a4.6,4.6,0,0,0,3.14,5.53,4.54,4.54,0,0,0,5.54-3.14Z" class="cls-17"></path><path d="M927.32,271a26.41,26.41,0,0,1-1.25,10.1c-1.78,5.52,6.9,7.89,8.68,2.39A33.67,33.67,0,0,0,936.32,271a4.59,4.59,0,0,0-4.5-4.5,4.55,4.55,0,0,0-4.5,4.5Z" class="cls-17"></path><path d="M903.21,377.72a64.2,64.2,0,0,1,28.4-23.32c5.27-2.19,3-10.9-2.39-8.68a74.88,74.88,0,0,0-33.78,27.46c-3.25,4.81,4.54,9.32,7.77,4.54Z" class="cls-17"></path><path d="M928.59,321.44a33.88,33.88,0,0,1,15.92-2.05c5.76.6,5.72-8.4,0-9a40,40,0,0,0-18.31,2.37c-5.37,2-3,10.74,2.39,8.68Z" class="cls-17"></path><path d="M1011.43,282a182.56,182.56,0,0,1,32.48,18.35c4.73,3.35,9.23-4.45,4.54-7.78A183.45,183.45,0,0,0,1016,274.17c-5.26-2.29-9.85,5.46-4.55,7.78Z" class="cls-17"></path><path d="M988.87,339.78a9,9,0,0,1,4.88,5.85c1.56,5.57,10.24,3.2,8.68-2.39a18.11,18.11,0,0,0-9-11.23,4.61,4.61,0,0,0-6.16,1.62,4.54,4.54,0,0,0,1.62,6.15Z" class="cls-17"></path><path d="M1060,350.36a65.27,65.27,0,0,1,14.37,47.72c-.53,5.77,8.47,5.73,9,0a74.24,74.24,0,0,0-17-54.09c-3.69-4.47-10,1.93-6.36,6.37Z" class="cls-17"></path><path d="M1060.08,440.41a53,53,0,0,1-4,18.63c-2.17,5.37,6.53,7.7,8.68,2.39a60.07,60.07,0,0,0,4.3-21c.15-5.79-8.85-5.79-9,0Z" class="cls-17"></path><path d="M1073.28,290.25l15.54,28.23c2.79,5.07,10.57.54,7.77-4.54l-15.54-28.23c-2.79-5.08-10.56-.54-7.77,4.54Z" class="cls-17"></path><path d="M819.49,432.42a92,92,0,0,0-19.35,11.83c-4.55,3.58,1.86,9.91,6.37,6.37A83.19,83.19,0,0,1,824,440.19c5.28-2.36.71-10.12-4.54-7.77Z" class="cls-17"></path><path d="M217.47,747A228.17,228.17,0,0,1,253,749.69c5.67.89,8.11-7.78,2.39-8.68a242.9,242.9,0,0,0-37.9-3c-5.79,0-5.8,9,0,9Z" class="cls-17"></path><path d="M909.94,957.85a95.88,95.88,0,0,0-20.45,34.82c-1.82,5.51,6.87,7.87,8.68,2.39a84.94,84.94,0,0,1,18.14-30.85c3.91-4.26-2.44-10.64-6.37-6.36Z" class="cls-17"></path><path d="M959.46,946.69a21.72,21.72,0,0,1,3.32,8.8c.38,2.4,3.39,3.73,5.54,3.14,2.56-.7,3.52-3.12,3.14-5.53a28.1,28.1,0,0,0-4.23-11c-3.15-4.84-10.94-.33-7.77,4.54Z" class="cls-17"></path><path d="M932.32,1011.41a169.75,169.75,0,0,1-16.47,21c-3.91,4.26,2.44,10.64,6.37,6.36A186,186,0,0,0,940.09,1016c3.21-4.84-4.58-9.36-7.77-4.55Z" class="cls-17"></path><path d="M849.17,1027.2a47.68,47.68,0,0,0-7.41,23.57c-.29,5.79,8.71,5.77,9,0a38.25,38.25,0,0,1,6.19-19c3.12-4.89-4.66-9.41-7.78-4.54Z" class="cls-17"></path><path d="M886.18,1049.15c5.79,0,5.8-9,0-9s-5.8,9,0,9Z" class="cls-17"></path><path d="M865.84,1083.45a147.07,147.07,0,0,1-7.08,22.58c-2.17,5.37,6.53,7.7,8.68,2.39a148.18,148.18,0,0,0,7.08-22.58c1.28-5.63-7.39-8-8.68-2.39Z" class="cls-17"></path><path d="M847.59,1099.5c5.79,0,5.8-9,0-9s-5.8,9,0,9Z" class="cls-17"></path><path d="M825.06,1121.61c-3.33,11.56-6.47,23.38-4.86,35.5.75,5.65,9.76,5.73,9,0-1.51-11.4,1.41-22.24,4.54-33.11,1.6-5.58-7.08-8-8.68-2.39Z" class="cls-17"></path><path d="M900.17,1068.73l-.94,1.41a4.51,4.51,0,0,0,1.62,6.16,4.51,4.51,0,0,0,3.46.45,4.87,4.87,0,0,0,2.69-2.07l.94-1.41a4.58,4.58,0,0,0,.46-3.47,4.65,4.65,0,0,0-2.07-2.69,4.57,4.57,0,0,0-3.47-.45,4.94,4.94,0,0,0-2.69,2.07Z" class="cls-17"></path><path d="M861.22,1147a82.86,82.86,0,0,1-4.36,15.5c-2.1,5.4,6.6,7.74,8.68,2.39a82.65,82.65,0,0,0,4.36-15.5c1-5.67-7.66-8.1-8.68-2.39Z" class="cls-17"></path><path d="M849,1141.38c5.79,0,5.8-9,0-9s-5.8,9,0,9Z" class="cls-17"></path><path d="M837.06,1175.2l-1.95,12.23c-.38,2.4.62,4.84,3.14,5.53,2.15.59,5.15-.72,5.54-3.14l2-12.22c.39-2.4-.61-4.84-3.14-5.54-2.14-.59-5.15.73-5.54,3.14Z" class="cls-17"></path><path d="M873.26,986.31l-4.3,13.75c-1.73,5.54,6.95,7.91,8.68,2.39l4.3-13.74c1.73-5.54-7-7.91-8.68-2.4Z" class="cls-17"></path><path d="M942.22,968.48a32.86,32.86,0,0,1,.55,11.57c-.28,2.42,2.28,4.5,4.5,4.5,2.67,0,4.22-2.08,4.5-4.5a40,40,0,0,0-.87-14c-1.33-5.64-10-3.25-8.68,2.39Z" class="cls-17"></path><path d="M935.9,926.68a57.38,57.38,0,0,0-38.49,7.09c-5,2.93-.47,10.71,4.54,7.77a47.55,47.55,0,0,1,31.56-6.18c5.66.89,8.11-7.78,2.39-8.68Z" class="cls-17"></path><path d="M356.49,929.74c7.65-.47,13.18,5.7,17.92,10.91,3.91,4.29,10.26-2.09,6.37-6.37-6.38-7-14.14-14.16-24.29-13.54-5.75.36-5.79,9.36,0,9Z" class="cls-17"></path><path d="M331.59,957.83a40.86,40.86,0,0,0,2.93,19.55c.93,2.27,3,3.82,5.53,3.15,2.13-.56,4.07-3.3,3.15-5.54a35.15,35.15,0,0,1-2.61-17.16c.54-5.77-8.47-5.73-9,0Z" class="cls-17"></path><path d="M368.17,973.51l7.06,14.82c2.49,5.23,10.25.67,7.77-4.54L375.94,969c-2.48-5.22-10.25-.66-7.77,4.55Z" class="cls-17"></path><path d="M338.4,1010a98.69,98.69,0,0,0,36.5,44.63c4.82,3.23,9.34-4.56,4.54-7.77a88.09,88.09,0,0,1-32.36-39.26c-2.19-5.27-10.9-3-8.68,2.4Z" class="cls-17"></path><path d="M416.71,1003.23a194.41,194.41,0,0,1,12.48,35.54c1.39,5.62,10.07,3.24,8.68-2.39a206.31,206.31,0,0,0-13.38-37.69c-2.45-5.25-10.21-.68-7.78,4.54Z" class="cls-17"></path><path d="M393.68,1036.18v1.41a4.67,4.67,0,0,0,1.31,3.18,4.5,4.5,0,0,0,6.37,0,4.66,4.66,0,0,0,1.32-3.18v-1.41a4.69,4.69,0,0,0-1.32-3.19,4.53,4.53,0,0,0-6.37,0,4.72,4.72,0,0,0-1.31,3.19Z" class="cls-17"></path><path d="M395.09,972.65v1.41a4.64,4.64,0,0,0,1.32,3.18,4.49,4.49,0,0,0,6.36,0,4.66,4.66,0,0,0,1.32-3.18v-1.41a4.6,4.6,0,0,0-1.32-3.18,4.49,4.49,0,0,0-6.36,0,4.66,4.66,0,0,0-1.32,3.18Z" class="cls-17"></path><path d="M371.7,1010.21l2.12,3.53a4.5,4.5,0,1,0,7.77-4.54l-2.12-3.53a4.5,4.5,0,0,0-7.77,4.54Z" class="cls-17"></path><path d="M424.54,1072a62.2,62.2,0,0,1,7.06,31.92c-.25,5.79,8.75,5.78,9,0a71.54,71.54,0,0,0-8.29-36.47c-2.7-5.13-10.47-.58-7.77,4.55Z" class="cls-17"></path><path d="M388.64,1094.42l4.24,4.23a4.5,4.5,0,0,0,6.36-6.36l-4.23-4.24a4.5,4.5,0,0,0-6.37,6.37Z" class="cls-17"></path><path d="M403.58,1055.24a156.79,156.79,0,0,0,1.53,28.72c.81,5.72,9.48,3.29,8.68-2.39a144,144,0,0,1-1.21-26.33c.24-5.8-8.76-5.78-9,0Z" class="cls-17"></path><path d="M451.65,1089.11l2.07,19.77c.6,5.7,9.6,5.76,9,0l-2.07-19.77c-.59-5.7-9.6-5.77-9,0Z" class="cls-17"></path><path d="M413.35,1134.45l7.06,16.23c1,2.25,4.22,2.72,6.16,1.62,2.31-1.32,2.57-3.94,1.61-6.16l-7.06-16.23c-1-2.25-4.22-2.72-6.16-1.62-2.31,1.32-2.57,3.94-1.61,6.16Z" class="cls-17"></path><path d="M444.06,1065.38c5.79,0,5.8-9,0-9s-5.8,9,0,9Z" class="cls-17"></path><path d="M446.59,1131.47a216.82,216.82,0,0,1-.62,26.12c-.48,5.77,8.52,5.74,9,0a216.82,216.82,0,0,0,.62-26.12c-.21-5.77-9.21-5.8-9,0Z" class="cls-17"></path><path d="M465.24,1156.44c5.79,0,5.8-9,0-9s-5.81,9,0,9Z" class="cls-17"></path><path d="M429.83,1173.61a40.7,40.7,0,0,0,6.12,14.48c3.22,4.77,11,.27,7.77-4.54a34,34,0,0,1-5.21-12.33c-1.19-5.67-9.86-3.27-8.68,2.39Z" class="cls-17"></path><path d="M464.25,1181.85c.13.11.91.69.88.86-.37-.51-.42-.57-.14-.17a5.69,5.69,0,0,1,.33.52c.1.18.19.36.28.55-.24-.6-.28-.67-.11-.21.07.29.35,1.67.17.31a4.94,4.94,0,0,0,1.31,3.18,4.6,4.6,0,0,0,3.19,1.32c2.17-.1,4.83-2,4.5-4.5a12.52,12.52,0,0,0-4.05-8.22c-1.78-1.54-4.63-1.88-6.36,0-1.55,1.68-1.9,4.72,0,6.36Z" class="cls-17"></path><g class="cls-18"><path d="M961.28,1058.21A228.43,228.43,0,0,1,1001.7,1102c3.31,4.7,11.12.21,7.77-4.54a237.58,237.58,0,0,0-41.82-45.59c-4.42-3.69-10.82,2.64-6.37,6.36Z" class="cls-17"></path><path d="M1021.4,1149.6a156.27,156.27,0,0,1,7.16,44.34c.1,5.79,9.1,5.8,9,0a165.86,165.86,0,0,0-7.48-46.74c-1.72-5.51-10.41-3.15-8.68,2.4Z" class="cls-17"></path><path d="M934.54,1121l2.12,10.59c.48,2.38,3.31,3.75,5.54,3.14a4.58,4.58,0,0,0,3.14-5.53l-2.12-10.59c-.48-2.39-3.31-3.76-5.53-3.15a4.6,4.6,0,0,0-3.15,5.54Z" class="cls-17"></path><path d="M963.82,1135a208.06,208.06,0,0,1-3.5,61c-1.18,5.65,7.49,8.07,8.68,2.39a216.43,216.43,0,0,0,3.82-63.37c-.5-5.73-9.51-5.78-9,0Z" class="cls-17"></path><path d="M917.62,1160.43l-1.43,11.3c-.3,2.41,2.29,4.5,4.5,4.5,2.69,0,4.2-2.08,4.5-4.5l1.43-11.3c.3-2.41-2.29-4.5-4.5-4.5-2.69,0-4.2,2.08-4.5,4.5Z" class="cls-17"></path><path d="M310.63,1058.7a193.18,193.18,0,0,0-33.93,58.18c-2,5.44,6.69,7.79,8.68,2.39A180.73,180.73,0,0,1,317,1065.06c3.73-4.39-2.61-10.79-6.36-6.36Z" class="cls-17"></path><path d="M302.16,1142.08a305.55,305.55,0,0,0-.88,48c.34,5.75,9.34,5.79,9,0a305.55,305.55,0,0,1,.88-48c.56-5.76-8.45-5.72-9,0Z" class="cls-17"></path><path d="M348.66,1112.2l5.65,15.53c2,5.4,10.66,3.06,8.68-2.4l-5.65-15.53c-2-5.4-10.67-3.07-8.68,2.4Z" class="cls-17"></path><path d="M348.5,1167.47v26.82c0,5.8,9,5.8,9,0v-26.82c0-5.79-9-5.8-9,0Z" class="cls-17"></path><path d="M520.88,1131.84a186.06,186.06,0,0,1,15.83,63.84c.38,5.75,9.39,5.79,9,0a198.64,198.64,0,0,0-17.06-68.38c-2.37-5.28-10.13-.71-7.77,4.54Z" class="cls-17"></path><path d="M602.69,1143.48a116,116,0,0,0,7.08,52c2,5.36,10.74,3,8.68-2.39a109.87,109.87,0,0,1-6.76-49.65c.54-5.77-8.47-5.73-9,0Z" class="cls-17"></path><path d="M676.64,1148.57a189.52,189.52,0,0,1,16.58,46.9c1.2,5.66,9.88,3.27,8.68-2.39A198.57,198.57,0,0,0,684.41,1144c-2.64-5.15-10.4-.6-7.77,4.55Z" class="cls-17"></path><path d="M763.67,1130.77a315.38,315.38,0,0,0,4,71.24c1,5.7,9.64,3.28,8.68-2.4a304.58,304.58,0,0,1-3.69-68.84c.33-5.78-8.67-5.77-9,0Z" class="cls-17"></path></g><path d="M878.55,454.21a135.3,135.3,0,0,1,60.1,83c1.36,5.63,10.05,3.25,8.68-2.39a144.47,144.47,0,0,0-64.24-88.42c-4.94-3.06-9.47,4.73-4.54,7.77Z" class="cls-19"></path><path d="M803,489.84a55.56,55.56,0,0,0,15.36,47.46c4.08,4.12,10.44-2.24,6.36-6.37a46.07,46.07,0,0,1-13-38.7c.82-5.66-7.85-8.11-8.68-2.39Z" class="cls-19"></path><path d="M971.89,512.54a154.2,154.2,0,0,1-2.32,75.92c-1.59,5.58,7.09,8,8.68,2.4a164,164,0,0,0,2.32-80.71c-1.26-5.65-9.94-3.26-8.68,2.39Z" class="cls-19"></path><path d="M930.81,433l14.54,16.26c3.87,4.32,10.22-2.06,6.37-6.37l-14.54-16.25c-3.87-4.33-10.22,2.06-6.37,6.36Z" class="cls-19"></path></g><g id="线"><path d="M281.15,1071.39c11.34-20.36,24.65-39.59,41.38-55.91,4.16-4.05-2.21-10.42-6.36-6.37-17.25,16.83-31.1,36.74-42.79,57.74-2.82,5.07,4.95,9.61,7.77,4.54Z" class="cls-11"></path><path d="M232.86,1202c9.12-36.48,20.47-72.55,36.22-106.75,2.41-5.22-5.35-9.8-7.77-4.54-16.09,34.92-27.81,71.64-37.13,108.89-1.41,5.62,7.27,8,8.68,2.4Z" class="cls-11"></path><path d="M1042.83,1097.75a427.08,427.08,0,0,1,45,102.92c1.61,5.56,10.3,3.2,8.68-2.39a436.49,436.49,0,0,0-45.92-105.07c-3-4.94-10.79-.43-7.77,4.54Z" class="cls-11"></path><path d="M965.44,1016.18c24,13.13,43.36,33.5,59.64,55.21,3.43,4.58,11.25.1,7.77-4.54-17.21-22.95-37.46-44.54-62.87-58.44-5.09-2.78-9.63,5-4.54,7.77Z" class="cls-11"></path><path d="M232.8,639.9c-10.32,12.53-14.35,30-12.07,46,2.43,17.06,16.58,29,31.17,36.36,5.15,2.6,9.72-5.17,4.54-7.78-12.11-6.09-24.78-15.58-26.88-29.93-1.89-12.88,1.25-28.11,9.6-38.27,3.66-4.44-2.68-10.84-6.36-6.36Z" class="cls-11"></path><path d="M317.25,718a318,318,0,0,1-4-97.35c.63-5.75-8.37-5.7-9,0a325.73,325.73,0,0,0,4.31,99.74c1.13,5.68,9.81,3.27,8.68-2.39Z" class="cls-11"></path><path d="M355.08,900c-26.48-47.48-33.44-104.71-36.64-158.12-.35-5.75-9.35-5.79-9,0,3.3,55,10.59,113.75,37.87,162.66,2.82,5.06,10.6.53,7.77-4.54Z" class="cls-11"></path><path d="M847.92,973.37c-42,31.67-94.58,46.76-146.15,53-62.31,7.6-128.19,5.42-188.16-14.4-26.53-8.77-51.72-21.33-74.11-38.11-4.63-3.48-9.12,4.33-4.54,7.77,44,33,98.18,49.11,152.34,54.89a507.65,507.65,0,0,0,103.63,0c29.62-2.93,59.1-8.4,87.39-17.78,26.4-8.76,51.88-20.89,74.14-37.69,4.57-3.44.09-11.26-4.54-7.77Z" class="cls-11"></path><path d="M986.53,746.68c-4.79,50.55-16.43,100-42.39,144.09-2.94,5,4.84,9.54,7.77,4.55,26.79-45.52,38.68-96.49,43.62-148.64.54-5.76-8.46-5.72-9,0Z" class="cls-11"></path><path d="M1003,577.28c-1,12-6.15,24.78-10,36.22-3.57,10.61-6.69,22.82-12.69,32.41-3.08,4.92,4.7,9.44,7.77,4.54,2.55-4.08,4.19-8.85,5.94-13.3,2.74-7,5.26-14.12,7.66-21.26,4.14-12.34,9.23-25.53,10.31-38.61.48-5.77-8.52-5.74-9,0Z" class="cls-11"></path><path d="M999,622.32c11.64-10,27.48-15.18,42.75-12.14,15.49,3.07,27.83,13.59,34.44,27.8,9.55,20.56,6.48,45.35.08,66.32-5.59,18.31-15.9,35.94-33.3,45.11-15.67,8.25-34.13,7.77-50.73,2.82-5.56-1.66-7.93,7-2.39,8.68,16.85,5,35.39,5.72,51.87-1.06,19.83-8.15,32.89-25.5,40.45-45.07,8.92-23.13,13-51.55,4.29-75.35-6.38-17.32-19.68-31.38-37.58-36.76-19.81-5.94-40.83,0-56.25,13.29-4.4,3.78,2,10.12,6.37,6.36Z" class="cls-11"></path><path d="M373.35,1097.75c19.44,29.73,37.08,63,35.59,99.57a4.55,4.55,0,0,0,4.5,4.5H482.7a4.59,4.59,0,0,0,4.5-4.5c2.54-55.06-8.52-111.58-25.14-163.85-1.75-5.5-10.44-3.15-8.68,2.4,16.41,51.58,27.33,107.11,24.82,161.45l4.5-4.5H413.44l4.5,4.5c1.55-38.07-16.54-73.1-36.82-104.11-3.15-4.83-10.95-.32-7.77,4.54Z" class="cls-11"></path><path d="M303,929.45c-11.29,22.48-7.05,46.86,3.46,68.67,12.67,26.31,31.41,49.49,48.43,73.05,3.36,4.65,11.17.16,7.77-4.54-15.82-21.91-32.86-43.4-45.55-67.36-10.68-20.17-17.19-43.67-6.33-65.28,2.59-5.16-5.17-9.73-7.78-4.54Z" class="cls-11"></path><path d="M454.31,1011.1c-10.12-26.9-22.35-53.65-39.88-76.59C402,918.19,385.24,901.7,364.12,898.2c-13.68-2.27-27.18,1.49-39.06,8.33-5,2.89-.49,10.67,4.54,7.77,59.81-34.45,100.12,56.92,116,99.19,2,5.37,10.73,3,8.68-2.39Z" class="cls-11"></path><path d="M896.73,1107.89c-16.08,27.15-28.91,57.29-27.61,89.43l4.5-4.5H804.36l4.5,4.5c-2.22-48.21,6.44-97.11,19.39-143.39,1.56-5.58-7.12-8-8.68-2.39-13.15,47-22,96.84-19.71,145.78a4.58,4.58,0,0,0,4.5,4.5h69.26a4.55,4.55,0,0,0,4.5-4.5c-1.24-30.61,11.08-59,26.38-84.89,3-5-4.82-9.53-7.77-4.54Z" class="cls-11"></path><path d="M952,911.41c22.5,10.8,33.71,34.24,28.91,58.81-5.35,27.45-24.15,51.71-40.15,73.86-11.13,15.41-22.5,30.65-33.07,46.46-3.22,4.82,4.57,9.33,7.78,4.54,19.3-28.88,42-55.65,59.27-85.88,13.7-24.06,22.88-52.59,9.66-79-5.88-11.78-16.08-20.88-27.86-26.53-5.19-2.5-9.76,5.26-4.54,7.77Z" class="cls-11"></path><path d="M839.17,1019.64c9.32-25.84,20.65-51.43,36.44-74,11.31-16.2,26.24-32.85,46.08-38,5.6-1.45,3.22-10.13-2.4-8.68-21.23,5.49-37.34,22.5-49.75,39.71-17.14,23.78-29.15,51.13-39,78.59-2,5.46,6.73,7.81,8.68,2.39Z" class="cls-11"></path><path d="M454.68,243.59c50.63-29.13,109-48.86,167.47-52.17,53.16-3,106.91,7.56,154.3,32a287.81,287.81,0,0,1,70.62,51.48c4.11,4.08,10.48-2.28,6.36-6.37a298.23,298.23,0,0,0-138.36-77.64c-55.45-13.67-114-11.3-168.77,4.53a436.25,436.25,0,0,0-96.16,40.35c-5,2.89-.49,10.67,4.54,7.78Z" class="cls-11"></path><path d="M325,471.69C320.16,412.13,337.38,354,376,308.11a274.69,274.69,0,0,1,35.42-34.8c4.47-3.69-1.93-10-6.37-6.37-46.35,38.28-79.49,90.6-87.76,150.71a249.14,249.14,0,0,0-1.35,54c.46,5.73,9.46,5.78,9,0Z" class="cls-11"></path><path d="M451.49,601.09c-41.76,6.19-83.74,9.9-125.78,13.52-14.11,1.21-28.24,2.46-42.26,4.5-10.27,1.49-20.67,3.36-30.37,7.16-8.63,3.38-16.33,8.26-21.75,15.92-3.35,4.73,4.45,9.23,7.77,4.54,9.49-13.39,30.07-16.45,45.36-18.74,31.27-4.69,63.06-6,94.51-9.07q37.56-3.67,74.91-9.15c5.71-.85,3.29-9.52-2.39-8.68Z" class="cls-11"></path><path d="M690.26,530.41c-33.45,16.78-67.91,31.7-103.76,42.58-34.25,10.4-69.78,17.15-105,23.27-5.69,1-3.28,9.66,2.39,8.68,35.85-6.23,72-13.1,106.8-23.82,35.93-11.06,70.55-26.1,104.12-42.94,5.18-2.6.63-10.36-4.54-7.77Z" class="cls-11"></path><path d="M1076.4,469.42c-17.93,23.28-42.61,39.9-70.12,49.83a4.5,4.5,0,0,0,2.39,8.68c2.86-.57,4.52-4.43,5.74-6.71,2.6-4.84,4.86-9.87,7-14.91a300.8,300.8,0,0,0,15.61-44.58c3.44-13.49,6.63-28.81,3.11-42.62-3-11.81-8.92-24.12-18.17-32.3-18.67-16.52-45.2-12-66.78-4.55-35.2,12.16-67.63,32.4-99.3,51.63-46.62,28.31-92.63,57.64-140.68,83.51-5.11,2.75-.57,10.52,4.54,7.78,41-22.09,80.6-46.63,120.26-71,31.88-19.61,63.85-39.86,98-55.34,19.72-8.94,47-20.55,68.63-11.3,9.48,4.05,15.92,12.25,20.23,21.36,5.64,11.91,6.57,23.55,4.45,36.47-2.78,16.84-8.32,33.27-14.64,49.08-2.44,6.1-5.05,12.14-7.94,18-.95,1.94-1.91,3.88-3,5.75a14.56,14.56,0,0,0-1.18,2c0,.05-.31.36-.31.45,0-.45,1.33-1.25,2-1.38l2.39,8.68c30-10.82,56-28.66,75.5-54,3.53-4.58-4.28-9.07-7.77-4.54Z" class="cls-11"></path><path d="M1045.89,238A93.05,93.05,0,0,1,1099,285.65c12.28,25.47,14.53,54.82,12.67,82.65a213.5,213.5,0,0,1-13.37,62c-2.07,5.41,6.63,7.76,8.68,2.39a224.55,224.55,0,0,0,13.09-103c-3.16-29.19-13.63-58.88-35.71-79.15a105.74,105.74,0,0,0-36-21.27c-5.46-2-7.81,6.73-2.39,8.68Z" class="cls-11"></path><path d="M780.05,318.62c28.81-17.48,57.53-35.22,87.29-51.08C892,254.39,917.71,242.23,945,235.47c15.52-3.85,31.39-5.25,47.35-5.44,5.79-.07,5.81-9.07,0-9a225.34,225.34,0,0,0-81.88,16.29c-28.83,11.47-56.09,26.58-82.83,42.22-17.49,10.24-34.78,20.8-52.11,31.31-4.94,3-.42,10.79,4.55,7.77Z" class="cls-11"></path><path d="M217.9,512.92c56.58-20,116.19-31.53,174.7-44.33,40.46-8.85,80.93-17.68,121.24-27.17,39.74-9.35,78.22-23.28,115.4-40.07,40.25-18.18,78.85-39.71,116.8-62.25,5-3,.45-10.74-4.55-7.77C672.92,372.06,601.6,409.48,524,429.65c-40.2,10.45-81.05,18.72-121.62,27.6-33.26,7.28-66.54,14.44-99.65,22.36-29.37,7-58.72,14.55-87.2,24.63-5.42,1.92-3.09,10.62,2.39,8.68Z" class="cls-11"></path><path d="M133.41,710.3c-19.79-26.41-24.08-58.63-20.18-90.74,3-24.67,12.77-47.68,30.63-65.22,10.47-10.29,22.83-18.29,35.77-25.1,5.13-2.7.59-10.47-4.54-7.77-23.62,12.43-45.21,29.47-57.77,53.5-13.55,25.92-17,58.14-13.17,86.87a113.18,113.18,0,0,0,21.49,53c3.43,4.58,11.25.1,7.77-4.54Z" class="cls-11"></path><path d="M313.94,766.37C260,769.92,198.14,765,153.79,730.62c-4.52-3.51-10.93,2.82-6.36,6.37,46.43,36,109.78,42.12,166.51,38.38,5.75-.37,5.79-9.38,0-9Z" class="cls-11"></path><path d="M250.17,628.29c-31.83,37.69-6.15,98.4,29,124.24,10.17,7.47,22.06,12.37,34.73,13.05,5.79.3,5.77-8.7,0-9-20.4-1.09-37.86-15.6-49.35-31.54-12.31-17.1-20.57-38.42-19.5-59.72.56-11.14,4.2-22.08,11.44-30.67,3.72-4.4-2.62-10.79-6.36-6.36Z" class="cls-11"></path><path d="M472.21,1099.82c86.25,27.12,180,29.56,268.87,15.68a618.45,618.45,0,0,0,72.27-15.68c5.57-1.56,3.21-10.25-2.39-8.68C726.15,1115,634.81,1121.39,547.65,1108a492.5,492.5,0,0,1-73-16.85c-5.54-1.74-7.91,6.95-2.4,8.68Z" class="cls-11"></path><path d="M758.14,497.15c7.25,26.68,28.31,45.57,51.34,59.23a337.39,337.39,0,0,0,81,34.15c2.19.61,5.1-.75,5.54-3.15,1.51-8.22-3.16-14.42-7.4-21l-14-21.82q-14.54-22.66-29.08-45.34l-7.77,4.55A624.59,624.59,0,0,0,911,584.08C922.78,594.85,935.1,605,946.6,616c11.86,11.39,23.12,23.39,34.39,35.36,4,4.22,10.34-2.15,6.37-6.37-11.11-11.79-22.22-23.62-33.89-34.87-11.22-10.8-23.23-20.69-34.73-31.19a611,611,0,0,1-73.2-79.74c-3.41-4.45-11-.47-7.77,4.55q12.91,20.14,25.85,40.29l12.92,20.15,5.92,9.23c2.09,3.26,5.64,7.44,4.88,11.58l5.53-3.14A332.6,332.6,0,0,1,817,550.34c-22.15-12.71-43.21-30-50.17-55.58-1.52-5.58-10.2-3.21-8.68,2.39Z" class="cls-11"></path><path d="M393.32,609.44c-19.08,16.45-48.93,25.28-57.83,51.13-6.16,17.9-4.81,45.57-24.86,54.73-5.26,2.4-.69,10.16,4.55,7.77,21-9.61,22.42-36,27.61-55.5,7-26.44,38-35.44,56.89-51.77,4.4-3.79-2-10.13-6.36-6.36Z" class="cls-11"></path><path d="M940,396c21.73,15.15,36.6,38,46.33,62.34,7.87,19.65,14.56,41.55,16.67,62.58,2,20.36.81,40.86-.44,61.22-.35,5.78,8.65,5.76,9,0,1.17-19.15,2.31-38.39.77-57.54-1.12-13.78-4.15-26.92-7.89-40.17-6-21.43-13.86-42.54-26.21-61.22a128.9,128.9,0,0,0-33.68-35c-4.76-3.32-9.27,4.47-4.55,7.77Z" class="cls-11"></path><path d="M700.84,527.27a16.75,16.75,0,0,0,1.94,4.81,4.5,4.5,0,1,0,7.77-4.54,14.69,14.69,0,0,1-.85-1.68l.45,1.07a14.43,14.43,0,0,1-.63-2.06,4.54,4.54,0,0,0-5.54-3.14,4.6,4.6,0,0,0-3.14,5.54Z" class="cls-11"></path><path d="M1004.36,219.5a46.53,46.53,0,0,0,4.46,13.57c2.6,5.17,10.36.62,7.77-4.55a39,39,0,0,1-3.55-11.41c-.38-2.41-3.38-3.74-5.54-3.15-2.56.71-3.52,3.13-3.14,5.54Z" class="cls-11"></path><path d="M1026.73,219.92a51.46,51.46,0,0,1-3.25,12.24c-.91,2.25,1,4.94,3.14,5.53,2.57.71,4.63-.88,5.54-3.14a51.46,51.46,0,0,0,3.25-12.24c.33-2.41-.58-4.83-3.14-5.54-2.1-.57-5.21.72-5.54,3.15Z" class="cls-11"></path><path d="M1094.89,447.05a44.37,44.37,0,0,1,8.66,1.12c5.64,1.31,8-7.36,2.39-8.67a56.33,56.33,0,0,0-11-1.45c-5.8-.18-5.79,8.82,0,9Z" class="cls-11"></path><path d="M1087.72,460.63l.5.35c.81.58-.51-.45-.08-.06s.69.59,1,.9.58.57.85.86l.5.57c.17.19.66.82,0-.09a5,5,0,0,0,2.69,2.07,4.59,4.59,0,0,0,3.46-.45,4.53,4.53,0,0,0,2.07-2.69,4.33,4.33,0,0,0-.45-3.47,26.49,26.49,0,0,0-6-5.76,4.53,4.53,0,0,0-6.16,1.61,4.62,4.62,0,0,0,1.61,6.16Z" class="cls-11"></path><path d="M411.87,261.37c3.48,2.71,7.35,4.92,11.07,7.29,4.9,3.12,9.42-4.67,4.54-7.77-3-1.93-6.42-3.68-9.25-5.88-1.91-1.49-4.49-1.87-6.36,0-1.56,1.55-1.93,4.86,0,6.36Z" class="cls-11"></path><path d="M433.56,244.88v10.77c0,5.79,9,5.8,9,0V244.88c0-5.79-9-5.8-9,0Z" class="cls-11"></path><path d="M137.82,714.69a42.26,42.26,0,0,0-7,12.55c-.8,2.29.92,4.92,3.15,5.53a4.58,4.58,0,0,0,5.53-3.14,29.47,29.47,0,0,1,4.67-8.58c1.51-1.9,1.85-4.5,0-6.36-1.57-1.57-4.85-1.91-6.37,0Z" class="cls-11"></path><path d="M760.43,328.86l5.35-2.73a4.53,4.53,0,0,0,1.61-6.16,4.61,4.61,0,0,0-6.16-1.61l-5.34,2.72a4.53,4.53,0,0,0-1.61,6.16,4.6,4.6,0,0,0,6.15,1.62Z" class="cls-11"></path><path d="M184.46,514.69a31.38,31.38,0,0,0,4.46,9.49,4.62,4.62,0,0,0,6.16,1.62c2-1.15,3-4.16,1.61-6.16a23.77,23.77,0,0,1-3.55-7.34,4.5,4.5,0,1,0-8.68,2.39Z" class="cls-11"></path><path d="M198.85,513.82v.71a4.51,4.51,0,0,0,4.5,4.5,4.54,4.54,0,0,0,3.18-1.32,4.66,4.66,0,0,0,1.32-3.18v-.71a4.64,4.64,0,0,0-1.32-3.18,4.49,4.49,0,0,0-6.36,0,4.66,4.66,0,0,0-1.32,3.18Z" class="cls-11"></path><path d="M829.71,1033.65c.31-.1.62-.19.94-.27l.63-.12c-.6.08-.73.1-.39.07.72,0,1.39,0,2.11.08a4.46,4.46,0,0,0,3.18-1.32,4.49,4.49,0,0,0,0-6.36,5.37,5.37,0,0,0-3.18-1.32,13.48,13.48,0,0,0-5.68.56,4.5,4.5,0,1,0,2.39,8.68Z" class="cls-11"></path><path d="M825.46,1045.43l1.88.48a4.72,4.72,0,0,0,3.47-.46,4.51,4.51,0,0,0,1.61-6.15,4.61,4.61,0,0,0-2.69-2.07l-1.88-.47a4.71,4.71,0,0,0-3.47.45,4.65,4.65,0,0,0-2.07,2.69,4.5,4.5,0,0,0,3.15,5.53Z" class="cls-11"></path><path d="M905.71,1105.38c5.79,0,5.8-9,0-9s-5.8,9,0,9Z" class="cls-11"></path><path d="M1036.55,1069.86a49.49,49.49,0,0,1-4.37,4.56,4.55,4.55,0,0,0,0,6.36,4.6,4.6,0,0,0,6.37,0,47,47,0,0,0,4.36-4.56c1.52-1.8,1.9-4.62,0-6.36-1.66-1.53-4.74-1.93-6.36,0Z" class="cls-11"></path><path d="M1040.53,1091.26c5.79,0,5.8-9,0-9s-5.8,9,0,9Z" class="cls-11"></path><path d="M268,1077.33l-1.17,2.83a4.46,4.46,0,0,0,.45,3.46,4.51,4.51,0,0,0,6.16,1.62l.91-.71a4.52,4.52,0,0,0,1.16-2l1.17-2.83a4.47,4.47,0,0,0-.45-3.46,4.51,4.51,0,0,0-6.16-1.62l-.91.71a4.52,4.52,0,0,0-1.16,2Z" class="cls-11"></path><path d="M363.67,1072.53l-3.76,2.82a4.87,4.87,0,0,0-2.07,2.69,4.57,4.57,0,0,0,.45,3.47,4.52,4.52,0,0,0,2.69,2.06,4.34,4.34,0,0,0,3.47-.45l3.76-2.82a4.92,4.92,0,0,0,2.07-2.69,4.62,4.62,0,0,0-.45-3.47,4.57,4.57,0,0,0-2.69-2.07,4.39,4.39,0,0,0-3.47.46Z" class="cls-11"></path><path d="M368.19,1081.25l-2.35,1.88a4.49,4.49,0,0,0-1.32,3.19,4.57,4.57,0,0,0,1.32,3.18,4.51,4.51,0,0,0,3.18,1.32l1.19-.16a4.5,4.5,0,0,0,2-1.16l2.35-1.89a4.5,4.5,0,0,0,1.32-3.18,4.51,4.51,0,0,0-4.5-4.5l-1.2.16a4.52,4.52,0,0,0-2,1.16Z" class="cls-11"></path><path d="M453.71,1027.74c5.79,0,5.8-9,0-9s-5.8,9,0,9Z" class="cls-11"></path><path d="M304.7,922.83a35.66,35.66,0,0,1,3.47,2.15l.78.56c.63.48-.39-.32.22.18s1.1.93,1.63,1.42a4.5,4.5,0,1,0,6.37-6.36,41,41,0,0,0-7.93-5.72,4.5,4.5,0,0,0-4.54,7.77Z" class="cls-11"></path><path d="M317.53,919.26c5.79,0,5.8-9,0-9s-5.8,9,0,9Z" class="cls-11"></path><path d="M933.55,901.29l3.52,6.59a4.54,4.54,0,0,0,6.16,1.62,4.6,4.6,0,0,0,1.61-6.16l-3.52-6.59a4.54,4.54,0,0,0-6.15-1.62,4.59,4.59,0,0,0-1.62,6.16Z" class="cls-11"></path></g><g id="erding"><circle r="17.18" cy="743.36" cx="281.33" class="cls-5"></circle><path d="M294,743.36c-.64,16.39-25.36,16.32-25.36,0s24.72-16.4,25.36,0c.22,5.78,9.22,5.81,9,0-.46-11.8-9.55-21.63-21.68-21.67a21.68,21.68,0,1,0,0,43.35c12.13,0,21.22-9.9,21.68-21.68C303.23,737.57,294.23,737.58,294,743.36Z"></path><ellipse ry="47.95" rx="17.18" cy="813.23" cx="281.33" class="cls-5"></ellipse><path d="M294,813.23a113.38,113.38,0,0,1-2.57,24.71c-1.26,5.46-2.9,11.63-6.46,16.11-6.71,8.44-11.83-8.7-13.06-13.29-4.23-15.73-4.46-33.34-1.34-49.28.72-3.68,5.21-25.12,12.33-21.1,4.6,2.59,6.59,10.71,7.83,15.32A109.1,109.1,0,0,1,294,813.23c0,5.79,9,5.8,9,0-.07-10.26-1-20.7-3.78-30.61-1.84-6.6-4.56-14.08-10-18.64-11.87-10.06-21.53,5.43-24.86,15.39-6.44,19.22-6.43,42.09-1.72,61.68,2.31,9.6,9.71,30.06,23.5,23.47,6.36-3,9.65-10.53,11.83-16.8,3.81-11,4.9-23,5-34.49C303,807.44,294,807.43,294,813.23Z"></path><circle r="17.18" cy="743.36" cx="1022.97" class="cls-5"></circle><path d="M1035.65,743.36c-.63,16.39-25.35,16.32-25.35,0s24.72-16.4,25.35,0c.22,5.78,9.23,5.81,9,0-.45-11.8-9.55-21.63-21.68-21.67a21.68,21.68,0,0,0,0,43.35c12.13,0,21.23-9.9,21.68-21.68C1044.88,737.57,1035.87,737.58,1035.65,743.36Z"></path><ellipse ry="47.95" rx="17.18" cy="813.23" cx="1022.97" class="cls-5"></ellipse><path d="M1035.65,813.23a112.76,112.76,0,0,1-2.56,24.71c-1.26,5.46-2.9,11.63-6.47,16.11-6.7,8.44-11.82-8.7-13.06-13.29-4.23-15.73-4.45-33.34-1.33-49.28.72-3.68,5.21-25.12,12.32-21.1,4.61,2.59,6.6,10.71,7.84,15.32a108.64,108.64,0,0,1,3.26,27.53c0,5.79,9,5.8,9,0-.07-10.26-1-20.7-3.77-30.61-1.84-6.6-4.57-14.08-10-18.64-11.87-10.06-21.52,5.43-24.85,15.39-6.44,19.22-6.43,42.09-1.72,61.68,2.31,9.6,9.71,30.06,23.49,23.47,6.36-3,9.66-10.53,11.84-16.8,3.8-11,4.89-23,5-34.49C1044.69,807.44,1035.69,807.43,1035.65,813.23Z"></path></g></g></svg>