<svg viewBox="0 0 1200 1200" xmlns="http://www.w3.org/2000/svg"><defs><style>.cls-1{fill:#f4ffe1;}.cls-2{fill:#e5f4c6;}.cls-3{fill:#fff;}.cls-4{fill:#172345;}.cls-5{fill:#5aacba;}.cls-6{fill:#486a9b;}.cls-7{fill:#a7485a;}.cls-8{fill:#a83c2b;}.cls-9{fill:#f8d1c7;}.cls-10{fill:#331403;}.cls-11{fill:#293a60;}</style></defs><title>touxiang</title><g id="bg"><rect height="1200" width="1200" class="cls-1"></rect><path d="M1049,151h149.08c0,82.64-66.7,149.63-149,149.68h149c0,82.66-66.74,149.67-149.08,149.67h149.08c0,82.64-66.7,149.64-149,149.68h149.6V1.28h-.6C1198.11,84,1131.37,151,1049,151Z" class="cls-2"></path><polygon points="1049.03 599.99 1049.11 599.99 1048.95 599.99 1049.03 599.99" class="cls-2"></polygon><path d="M600.59,1.32h-1.18C599.41,84,532.66,151,450.28,151H599.41c0,82.63-66.75,149.63-149,149.71h149c0,82.64-66.75,149.63-149.13,149.63H599.41c0,82.64-66.75,149.63-149,149.72h149c0,82.63-66.75,149.72-149.13,149.72H599.41c0,82.62-66.75,149.63-149,149.63h149c0,82.63-66.75,149.71-149.13,149.71H599.41c0,82.63-66.75,149.63-149,149.63H749.63c-82.29,0-149-67-149-149.63H749.72c-82.38,0-149.13-67.08-149.13-149.71h149c-82.29,0-149-67-149-149.63H749.72c-82.38,0-149.13-67.09-149.13-149.72h149c-82.29-.09-149-67.08-149-149.72H749.72c-82.38,0-149.13-67-149.13-149.63h149c-82.29-.08-149-67.08-149-149.71H749.72C667.34,151,600.59,84,600.59,1.32Z" class="cls-2"></path><polygon points="749.6 599.99 749.68 599.99 749.76 599.99 749.6 599.99" class="cls-2"></polygon><polygon points="1049.03 899.37 1049.11 899.36 1048.95 899.36 1049.03 899.37" class="cls-2"></polygon><path d="M1049,749.69h149.08c0,82.63-66.7,149.63-149,149.67h149C1198.11,982,1131.37,1049,1049,1049h149.08c0,82.64-66.7,149.64-149,149.68h149.6V600h-.6C1198.11,682.67,1131.37,749.69,1049,749.69Z" class="cls-2"></path><path d="M900,1049H1049C966.69,1049,900,982,900,899.37h149c-82.28,0-149-67-149-149.67H1049C966.7,749.7,900,682.67,900,600h149c-82.28,0-149-67-149-149.71H1049c-82.33,0-149.07-67-149.07-149.66h149c-82.28,0-149-67-149-149.67H1049C966.69,151,900,83.94,900,1.27h-1.19C898.76,83.94,832,151,749.69,151H898.76c0,82.63-66.7,149.63-149,149.67h149c0,82.67-66.74,149.66-149.07,149.66H898.76c0,82.67-66.7,149.67-149,149.71h149c0,82.66-66.74,149.69-149.07,149.69H898.76c0,82.63-66.7,149.62-149,149.67h149C898.76,982,832,1049,749.69,1049H898.76c0,82.67-66.7,149.66-149,149.7h299.16C966.65,1198.69,900,1131.7,900,1049Z" class="cls-2"></path><polygon points="450.32 599.99 450.4 599.99 450.24 599.99 450.32 599.99" class="cls-2"></polygon><polygon points="150.89 599.99 150.96 599.99 151.04 599.99 150.89 599.99" class="cls-2"></polygon><path d="M1.89,450.31H151c-82.33,0-149.07-67-149.07-149.67h149c-82.3-.05-149-67-149-149.68H151C68.63,151,1.89,84,1.89,1.28h-.6V600h149.6C68.59,600,1.89,533,1.89,450.31Z" class="cls-2"></path><path d="M301.24,1049H450.31c-82.33,0-149.07-67-149.07-149.66h149c-82.28,0-149-67-149-149.67H450.31c-82.33,0-149.06-67-149.07-149.69h149c-82.28,0-149-67-149-149.71H450.31c-82.33,0-149.07-67-149.07-149.66h149c-82.28,0-149-67-149-149.67H450.31c-82.33,0-149.07-67-149.07-149.7h-1.18C300.06,83.94,233.31,151,151,151H300.06c0,82.63-66.7,149.63-149,149.67h149c0,82.67-66.75,149.66-149.08,149.66H300.06c0,82.67-66.7,149.67-149,149.71h149C300,682.67,233.3,749.7,151,749.7H300.06c0,82.63-66.7,149.62-149,149.67h149C300.06,982,233.31,1049,151,1049H300.06c0,82.67-66.7,149.66-149,149.7H450.22C367.94,1198.69,301.24,1131.7,301.24,1049Z" class="cls-2"></path><polygon points="151.04 899.36 150.89 899.36 150.96 899.37 151.04 899.36" class="cls-2"></polygon><path d="M1.89,1049H151C68.63,1049,1.89,982,1.89,899.36h149c-82.3,0-149-67-149-149.67H151c-82.33,0-149.07-67-149.07-149.68h-.6v598.71h149.6C68.59,1198.68,1.89,1131.68,1.89,1049Z" class="cls-2"></path></g><g id="涂色"><path d="M722.37,831.37q24.46-1.36,48.94-2.27a113.37,113.37,0,0,0,12.47-26.74q-36.64-1.89-73.32-2.54a2259.49,2259.49,0,0,0-264.4,10.45c5.43,30.6,27.45,56.17,51.72,74.28a184,184,0,0,0,53.91,27.88A288.3,288.3,0,0,1,539.25,808c.1-1.38,2.26-1.39,2.17,0a286.76,286.76,0,0,0,12.77,105.23,158.93,158.93,0,0,0,26.9,5.68c27.73,3.34,56.22-2,82.41-11.09,27.48-9.5,53.73-23.78,75.89-42.68a162.63,162.63,0,0,0,30.49-33.81q-23.76.91-47.51,2.22C721,833.61,721,831.45,722.37,831.37ZM652.81,909.3c-.13,1.38-2.3,1.39-2.17,0,3.27-35.23,5.51-70.85.41-106-.2-1.36,1.88-1.95,2.08-.57C658.27,838.08,656.1,873.85,652.81,909.3Z" class="cls-3"></path><path d="M992.37,191.86c26.65-14,38.88-41.6,41.75-70.41-11.12,5.37-23.3,8-35.48,9.65-47.78,6.53-111.92-.92-135.67,51.55a225.08,225.08,0,0,0,48.73,16.2C938.17,204.25,967.86,204.75,992.37,191.86Z" class="cls-4"></path><path d="M1037.66,428.66a230.94,230.94,0,0,0-54.35-29.33c-33.41-12.3-68.84-14.48-104.1-12.41-36.94,2.17-73.59,7.77-110.59,9.18-43.32,1.65-86.13-2.88-127.92-14.56-81.15-22.68-164.27-42.25-248.82-44.93-43.93-1.39-88.5,1.88-130.84,14.24-36.71,10.71-73.66,28.54-100,56.94-18.25,19.68-30.87,45.66-27.85,73,2.93,26.54,20.26,48.6,42.09,62.9,30.28,19.84,67.76,26.5,103.41,26.81,3,0,5,.06,7.54-1.5,1.57-.95,3-2.15,4.53-3.19,1.86-1.28,3.75-2.51,5.64-3.73a.92.92,0,0,1,.21-.13l2-1.27c6.24-3.9,12.68-7.5,19.25-10.82A314.57,314.57,0,0,1,358.32,533c64.9-22.12,135.21-27.76,203.37-26.75A940.32,940.32,0,0,1,772.9,533.11c29.21,7.22,58.16,16,86,27.49,18.07,7.47,36,16.06,52.15,27.19a.84.84,0,0,1,.49.34q3.75,2.6,7.37,5.38a230.62,230.62,0,0,0,59-12.08c30.44-10.77,59.55-29.44,77.8-56.6,12.53-18.64,20.68-43.47,11.74-65.32C1061.75,445.68,1049.42,437.09,1037.66,428.66Z" class="cls-4"></path><path d="M610.26,1027.83c-6.62-5.77-16.38-7.23-23.94-2.38-10.11,6.47-11.35,19.77-10,30.62,1.87,12.15,8.43,28.93,22.32,31.36a13.07,13.07,0,0,0,8.73-1.31h0c7.22-3.92,10.75-14.5,12-22.23,1.93-11.92,1-26.15-8.12-35.05A1.13,1.13,0,0,1,610.26,1027.83Z" class="cls-5"></path><path d="M541.74,963c16.73,18.39,30.65,39.32,43.59,60.49a22.59,22.59,0,0,1,3.37-1.7c7.78-3.1,16.3-1,22.55,4.07,13.12-21.69,27.26-43.16,44.27-62A320.78,320.78,0,0,1,541.74,963Z" class="cls-3"></path><path d="M717.54,1105.79a1.08,1.08,0,0,1-.17-1.31c6.74-9.43,11.92-20.58,12.65-32.28,1-16.66-8.41-30.58-21.72-39.83a68.16,68.16,0,0,0-5.88-3.65l-.2-.11c-26-14.33-58.66-10.44-84.18,3.61a1,1,0,0,1-1.28-.2h0c7.45,11.4,6.95,27.32,3.11,39.84-1.86,6.07-5.45,12.07-10.47,15.36,11.1,18,20.61,37,32.26,54.77,10.58,16.11,23.13,31.41,39.51,41.94,12.69,8.14,29.25,14.79,43,5.18,11.36-7.93,15.52-22.9,15.15-36.11C738.82,1135,730.25,1118.3,717.54,1105.79Z" class="cls-5"></path><path d="M811.81,951.13c-4.47-5.06-9-12.26-15.42-15.11-1.54-.69-3-.36-4.9-.2l-12,1-49,4.06A311.87,311.87,0,0,1,687.1,956.7q-13.9,3.94-28.11,6.56c-17.85,19.36-32.5,41.65-46.08,64.14a23.76,23.76,0,0,1,1.93,2.08q.72.88,1.38,1.83a.46.46,0,0,1,.21-.14h0a1,1,0,0,1,.53-.76c25.54-14.09,60-18.08,86-4.16l13-8.91,21-14.41c3.59-2.46,7.29-5.79,11.22-7.68,3.31-1.59,7.78-2.11,11.33-3q6-1.39,12-2.59c8.53-1.71,17.12-3.13,25.73-4.41,9.51-1.41,19-2.66,28.59-3.94a.85.85,0,0,1,.36-.05q9.51-1.27,19-2.66C833.09,970.73,821.41,962,811.81,951.13Z" class="cls-6"></path><path d="M464.6,1072.2c.73,11.7,5.91,22.85,12.65,32.28a1.11,1.11,0,0,1-.17,1.31c-13.94,13.72-22.91,32.6-21.7,52.43.8,13.17,6.69,27.63,19.41,33.38,15.92,7.19,33.7-3.24,46.06-12.89,30.56-23.87,45.65-61.48,65.65-93.51a1.06,1.06,0,0,1,1.46-.36l.18-.16c-8.15-6.66-12.39-18.28-13.88-28.16a.33.33,0,0,1,0-.1,1.06,1.06,0,0,1,0-.19c-1-7.81-.47-16.82,3.15-23.91a1,1,0,0,1-.8-.1c-24.87-13.7-56.53-17.74-82.2-4.67a.93.93,0,0,1-.37.19,68.05,68.05,0,0,0-7.68,4.63C473,1041.62,463.56,1055.54,464.6,1072.2Z" class="cls-5"></path><path d="M986,1139.45c-27.81-38.53-59.42-74.59-94.94-106.19-9.37,5.84-17.36,13.67-24.43,22.09-16.29,19.37-28.49,42.4-37.26,66.05-9,24.22-14.57,50.13-13.47,76.06.06,1.39-2.11,1.38-2.17,0a176.26,176.26,0,0,1,4-44,244,244,0,0,1,29.65-74.65c10.73-17.81,24.16-35.77,42-47a527.89,527.89,0,0,0-63.47-48.2c-11.5,1.54-23,3-34.48,4.83-8.31,1.31-16.6,2.79-24.82,4.56-5.55,1.19-12.6,1.94-17.68,4.46-4.91,2.43-9.52,6.51-14,9.6L705,1027.42a63.25,63.25,0,0,1,17.61,15.2c9.83,12.28,11.78,27.83,7,42.62a72.5,72.5,0,0,1-7.89,16.61c-.72,1.13-1.91,2.43-1.71,3.38.26,1.2,2.82,3,3.69,4a75.74,75.74,0,0,1,6.42,8.5c12.81,19.66,17.62,50.89-.21,69.32-20.31,21-50.66,1-67-14.9-24.2-23.66-38-55.36-55.48-83.81a15.09,15.09,0,0,1-11.76.6,23.45,23.45,0,0,1-6.82-3.61l-.37.33a1,1,0,0,1-.16.68c-19.9,31.86-34.93,69-64.94,93.11-10.47,8.42-23.87,16.95-37.83,16.72-10.26-.17-19.22-5.61-24.89-14-14.82-22-6.62-52.91,9.3-71.89.69-.82,4.66-4.22,4.74-5.1.07-.68-1.15-2.08-1.65-2.87a77,77,0,0,1-4.29-7.56,61.76,61.76,0,0,1-6-18.86c-2.3-16.86,5.35-31.76,18.34-42.24a70.21,70.21,0,0,1,10.56-7l-11.56-7.9-20.48-14c-3.49-2.38-7.12-5.67-11-7.49C445,995.4,440,994.89,436.05,994s-8-1.75-12-2.53c-8.24-1.6-16.52-2.94-24.82-4.16q-6-.88-12-1.69a498,498,0,0,0-46.56,35.24q-5.82,5-11.5,10.11h0c9.82,6,18.18,14.1,25.55,22.86,16.22,19.3,28.42,42.09,37.29,65.62,9.34,24.78,15.2,51.42,14.07,78-.06,1.39-2.22,1.39-2.16,0A173.62,173.62,0,0,0,400,1154a242.54,242.54,0,0,0-28.72-72.93c-10.9-18.35-24.65-37-43.18-48.29a1,1,0,0,1-.44-.49c-52.48,47.8-95.26,105.59-130,167.33,3.32-.52,7.28,0,10.58,0l21.35,0,68.37-.11,95.05-.15,112.46-.17,120.59-.19,119.46-.18,109-.17,89.37-.14,60.42-.09,20.29,0C1012.57,1178.26,999.72,1158.53,986,1139.45Z" class="cls-4"></path><path d="M387.36,983.44c6.62.91,13.24,1.84,19.84,2.88,8.31,1.31,16.6,2.78,24.82,4.55,5.57,1.2,12.81,1.94,17.92,4.49,4.53,2.27,8.76,6,12.93,8.84l31,21.2c26.09-13,58.39-9,83.79,4.95a1,1,0,0,1,.48.56,21.91,21.91,0,0,1,5.4-6.17c-13.3-21.77-27.61-43.31-45-62a1.16,1.16,0,0,1-.22-.34,315,315,0,0,1-66.47-21.05l-.23-.1-21.43-1.77-33.05-2.71c-4.86-.4-12.49-2.69-16.66,0-6.39,4.16-10.71,10.53-15.78,16.09-9.27,10.16-20.43,18.36-31.9,25.86,11.33,1.68,22.7,3.12,34,4.66A.91.91,0,0,1,387.36,983.44Z" class="cls-6"></path><path d="M890.77,578c-24.6-13.37-51.06-23.23-77.75-31.52A802.26,802.26,0,0,0,714.58,523c-73.37-12.94-148.73-18-223.11-12.73-65.24,4.65-134.52,16.81-191,51.76-.82.51-1.63,1-2.45,1.56A315.08,315.08,0,0,0,860.69,829.35q-44.1.23-88.16,1.87c-10.3,16-24.13,29.92-39.12,41.53a243.72,243.72,0,0,1-79.8,40.5c-27.71,8.2-57,11.58-85.48,5.7-4.76-1-9.47-2.2-14.14-3.59a1.1,1.1,0,0,1-1.52-.45,184.83,184.83,0,0,1-65.93-36.62C466,860.54,448.18,837,443.75,809.6a1.11,1.11,0,0,1,.23-.89,1.1,1.1,0,0,1,.81-.48q37.21-3.74,74.55-6.14a2285.33,2285.33,0,0,1,265.88-1.83,1.07,1.07,0,0,1,.52.17,1,1,0,0,1,.53,1.2A114.49,114.49,0,0,1,773.92,829q44.12-1.62,88.27-1.82,3.64-5.43,7.09-11c41.46-67.43,55.65-149.09,40.4-226.7A217.59,217.59,0,0,0,890.77,578Z" class="cls-3"></path><path d="M866.51,203.08a69.61,69.61,0,0,0-19.72-26.43c-18.85-15.85-43.83-23.11-67.55-27.78-26.78-5.28-54.11-7.22-81.3-9.05-24.15-1.62-48.1-3.19-71.92-7.68-28.47-5.37-56.64-12.2-85.24-16.94-28.27-4.69-58.2-8.37-86.64-2.94-27.4,5.23-49.92,22.37-62.67,47.3-13.43,26.27-13.63,57-11.38,85.7,1.11,14.25,2.92,28.45,4.61,42.65,8.39-3.35,17.65-1.44,26.32-3.11,4.43-.85,8.79-2.15,13.31-2.51,5.28-.43,10.68,0,16,.2,10.65.4,21.26,0,31.91-.06a75.68,75.68,0,0,1,14.17,1.36c5.06.9,10.17,1.51,15.26,2.27a.49.49,0,0,1,.56-.23c13.6,3.31,27.49,5.29,41,8.81,13.28,3.45,27,5.09,40.13,9a.53.53,0,0,1,.78-.06c1.63,1.5,3.88,1.94,6,2.5a64.7,64.7,0,0,1,6.2,2.12,115.6,115.6,0,0,0,14.21,4.87c7.67,2.19,15.65,3.11,23.47,4.58,8.17,1.53,16.4,2.7,24.57,4.16s16.1,3,24.1,4.8c6.57,1.44,13.91,2.36,20,5.36h.1c6.39,1.12,12.84,2.29,19.3,2.93,5.75.57,11.54.3,17.28,1,6.11.77,12,2.79,18.13,3.39,4.9.47,9.88-.13,14.73.86a.49.49,0,0,1,.25-.07c8.11.06,16.14,1.33,24.23,1.78,3.64.2,7.22.14,10.83.7a63.69,63.69,0,0,0,11.87.62c8.12-.22,16.24.5,24.36.28A75.87,75.87,0,0,0,861.38,341c.57-11,1.24-21.94,2.6-32.81,2.29-18.28,6.15-36.34,7.8-54.7C873.29,236.64,873.08,218.94,866.51,203.08Z" class="cls-4"></path><path d="M845.09,344.53c-8.26.37-16.52-.41-24.77-.25A62.61,62.61,0,0,1,809,344a116.43,116.43,0,0,0-12.38-1c-8-.44-15.92-1.68-23.94-1.77a.51.51,0,0,1-.44.09c-5.65-1.26-11.57-.38-17.3-1.18s-11.41-2.68-17.24-3.27-11.88-.31-17.78-1.08-11.68-1.71-17.49-2.73a.56.56,0,0,1-.25-.05,43.58,43.58,0,0,0-10.5-3.16c-3.63-.79-7.24-1.7-10.88-2.48-7.84-1.68-15.72-3.26-23.62-4.65-8.18-1.44-16.4-2.62-24.57-4.17-7.48-1.42-15.09-2.29-22.43-4.39-5.45-1.33-10.67-3.56-15.92-5.52-3.38-1.25-7.78-1.64-10.62-4a.46.46,0,0,1-.5.14c-13.18-4-26.92-5.61-40.23-9.07S516,290.24,502.63,287a.54.54,0,0,1-.49.18c-5-.77-10.07-1.34-15.07-2.21a83.69,83.69,0,0,0-15.39-1.49c-10.13.11-20.22.46-30.35.09-5-.18-10.07-.48-15.1-.34s-10,1.62-14.93,2.58c-8.69,1.67-18.1-.37-26.47,3.16,1.78,15,3.42,30,3.95,45.17a732.55,732.55,0,0,1,78.57,6.94c43.12,6,85.73,15.17,127.88,26,19.36,5,38.53,10.68,57.91,15.58A380.7,380.7,0,0,0,722,393.44C761.67,396,801.12,392,840.55,388c6.12-.62,12.26-1.22,18.4-1.76q.76-14.88,1.61-29.76c.27-4.78.51-9.58.76-14.39A77.4,77.4,0,0,1,845.09,344.53Z" class="cls-7"></path><path d="M914.85,874.27c.6,2.63,1,5.62,2.16,8.08s2,2.16,5.35,2.58c1.77.21,3.53.4,5.3.57a187.65,187.65,0,0,0,21.73.77c6.6-.14,13.19-.63,19.76-1.27,3.38-.33,6.75-.7,10.12-1.07.74-.08,4.13,0,4.69-.4s.34-.71.62-1.49c1.11-3.08,1.15-7,1.52-10.25.52-4.4.93-8.81,1.29-13.22.85-10.46,1.41-20.94,1.76-31.43.34-10.19.51-20.4.2-30.59-.12-3.82-.29-7.64-.68-11.44-.13-1.32,0-3.5-.92-4.21-1.56-1.24-6.36-1.24-8.27-1.47-23.63-2.89-48.85.39-72,5.36.5,14.06.7,28.34,1.47,42.57C909.67,835,911.49,859.65,914.85,874.27Z" class="cls-8"></path><ellipse ry="31.24" rx="71.03" cy="728.14" cx="423.82" class="cls-9"></ellipse><ellipse ry="31.24" rx="71.03" cy="728.14" cx="767.89" class="cls-9"></ellipse></g><g id="五官"><circle r="27.16" cy="657.32" cx="497.3" class="cls-10"></circle><path d="M520,657.32C519.65,669.7,509.9,680,497.3,680a22.66,22.66,0,0,1,0-45.32c12.6,0,22.35,10.31,22.66,22.66.15,5.78,9.15,5.81,9,0-.33-13.14-8.1-24.88-20.51-29.61a31.65,31.65,0,1,0-5.15,60.68c15-2.74,25.28-16.17,25.66-31.07C529.11,651.53,520.11,651.53,520,657.32Z" class="cls-10"></path><circle r="27.16" cy="657.32" cx="711.19" class="cls-10"></circle><path d="M733.85,657.32C733.54,669.7,723.79,680,711.19,680a22.66,22.66,0,0,1,0-45.32c12.6,0,22.35,10.31,22.66,22.66.15,5.78,9.15,5.81,9,0-.33-13.14-8.1-24.88-20.51-29.61a31.65,31.65,0,1,0-5.15,60.68c15-2.74,25.29-16.17,25.66-31.07C743,651.53,734,651.53,733.85,657.32Z" class="cls-10"></path></g><g id="细节"><path d="M184.13,469.67c29.83-61.3,106.92-83.21,170.15-80.56a243.68,243.68,0,0,1,63.4,11.31c5.53,1.76,7.9-6.93,2.39-8.67-68.22-21.67-152.75-15.47-209.79,31.09a126.37,126.37,0,0,0-33.92,42.28c-2.52,5.19,5.23,9.76,7.77,4.55Z" class="cls-11"></path><path d="M532.68,410.13A536.91,536.91,0,0,0,720,450.92a535,535,0,0,0,55.2-1c5.75-.4,5.79-9.4,0-9a529.62,529.62,0,0,1-189-21.16,535.1,535.1,0,0,1-51.11-18.33c-5.34-2.22-7.67,6.48-2.39,8.68Z" class="cls-11"></path><path d="M935.68,443.67c21.37-3.37,44,4,59.48,19.07,8.08,7.85,15,18.3,16.34,29.71,1.3,11.06-3.47,22.35-13.82,27.2-5.24,2.46-.67,10.22,4.55,7.77,11.49-5.39,18.1-17.69,18.47-30.11.42-14.11-6.87-27.56-16.1-37.75-17.83-19.66-45.29-28.68-71.31-24.57-5.71.9-3.29,9.58,2.39,8.68Z" class="cls-11"></path><path d="M370.91,456.09a422.52,422.52,0,0,1,53.85-6.94c5.76-.37,5.8-9.37,0-9a441.82,441.82,0,0,0-56.24,7.26c-5.68,1.11-3.28,9.79,2.39,8.68Z" class="cls-11"></path><path d="M250.31,545.5a103.3,103.3,0,0,1,49.83-45.76c5.3-2.31.72-10.07-4.54-7.77a111,111,0,0,0-53.06,49c-2.75,5.1,5,9.65,7.77,4.54Z" class="cls-11"></path><path d="M549,480.12l42.36,1.42c5.79.2,5.78-8.8,0-9L549,471.12c-5.79-.2-5.78,8.8,0,9Z" class="cls-11"></path><path d="M824.29,492.91A139.69,139.69,0,0,1,859.8,497c5.63,1.39,8-7.29,2.4-8.68a149.89,149.89,0,0,0-37.91-4.4c-5.78.08-5.8,9.08,0,9Z" class="cls-11"></path><path d="M940.28,556.25a92.43,92.43,0,0,1,39,20c4.36,3.77,10.75-2.57,6.37-6.37a102.09,102.09,0,0,0-43-22.26c-5.62-1.37-8,7.31-2.39,8.67Z" class="cls-11"></path><path d="M431.81,174.27a1045.56,1045.56,0,0,1,230.07,24.09q32,7,63.48,16c5.58,1.59,8-7.09,2.39-8.68a1057.7,1057.7,0,0,0-229.54-38.77Q465,165,431.81,165.27c-5.79,0-5.81,9,0,9Z" class="cls-11"></path><path d="M767.81,230.48,870.9,241.42c5.76.61,5.71-8.39,0-9L767.81,221.48c-5.76-.61-5.71,8.39,0,9Z" class="cls-11"></path><path d="M399.65,253.73c.41-1.44,16.49-.63,18.38-.66q10.37-.15,20.74-.21,21.24-.12,42.47.13c5.79.06,5.8-8.94,0-9q-26.17-.3-52.35-.05c-8.56.08-17.12.12-25.68.39-5.22.16-10.64,1.36-12.24,7s7.1,8,8.68,2.39Z" class="cls-11"></path><path d="M540.83,260.84q89.7,20.22,180.53,34.83c5.67.91,8.11-7.76,2.39-8.68Q633,272.38,543.22,252.17c-5.64-1.28-8.05,7.4-2.39,8.67Z" class="cls-11"></path><path d="M793.24,300.91H861c5.79,0,5.8-9,0-9H793.24c-5.8,0-5.81,9,0,9Z" class="cls-11"></path><path d="M751.12,280.83l8.47,1.43c2.4.4,4.85-.64,5.54-3.15.59-2.16-.74-5.12-3.15-5.53l-8.46-1.43c-2.4-.41-4.85.63-5.54,3.14-.59,2.16.73,5.13,3.14,5.54Z" class="cls-11"></path><path d="M517.63,224.17a72.27,72.27,0,0,1,34.37-.92c5.65,1.23,8.06-7.45,2.4-8.67a82.21,82.21,0,0,0-39.16.92c-5.59,1.5-3.22,10.19,2.39,8.67Z" class="cls-11"></path></g><g id="线"><path d="M200.7,1203.08c37.63-67.16,84.66-129.63,143.41-179.76a489.14,489.14,0,0,1,46.21-35c4.79-3.2.29-11-4.55-7.77-61.66,41.15-113,95.92-154.93,156.81-13.6,19.76-26.18,40.21-37.91,61.14-2.83,5.06,4.94,9.6,7.77,4.54Z" class="cls-10"></path><path d="M825,986.35c62.93,40.48,116,94.95,159.59,155.48,14,19.39,27,39.44,39.2,60,3,5,10.74.45,7.77-4.54-40.94-68.81-91.49-132.79-153.74-183.56a528.88,528.88,0,0,0-48.28-35.12c-4.89-3.14-9.4,4.64-4.54,7.77Z" class="cls-10"></path><path d="M590,1022.76c-13.69-22.45-28.46-44.69-46.4-64-3.95-4.26-10.31,2.12-6.37,6.36,17.44,18.76,31.7,40.37,45,62.18,3,4.94,10.8.43,7.77-4.54Z" class="cls-10"></path><path d="M473,935.65l-51.58-4.25c-5.73-.47-12.3-2-18.05-1.48-7.08.59-13.68,9.9-17.9,14.87-10.49,12.34-23.23,21.94-36.8,30.69-2.91,1.87-3,7.6,1.07,8.22,16.24,2.46,32.54,4.38,48.79,6.75,8.3,1.2,16.58,2.53,24.81,4.12,7.87,1.51,16.88,2.54,24.33,5.47,3.93,1.56,7.72,5,11.23,7.43l20.3,13.88,13.43,9.18c4.79,3.28,9.3-4.52,4.54-7.77l-31.51-21.54c-4.19-2.87-8.37-6.41-12.86-8.8-5.51-2.93-13.35-3.69-19.43-5-8.22-1.75-16.51-3.21-24.82-4.51-18.76-2.94-37.64-5.06-56.42-7.9l1.08,8.23c12.52-8.07,24.86-16.87,34.95-27.91,4.84-5.29,9-11.59,15.06-15.57,1.55-1,2.2-.71.17-.85a1.29,1.29,0,0,1,.44,0,10.1,10.1,0,0,0,2.92.24l11.66,1,32.91,2.7L473,944.65c5.77.47,5.74-8.53,0-9Z" class="cls-10"></path><path d="M616.31,1030.05c13.66-22.66,28.35-45.14,46.36-64.62,3.93-4.25-2.42-10.63-6.36-6.36-18.53,20-33.72,43.13-47.77,66.44-3,5,4.78,9.5,7.77,4.54Z" class="cls-10"></path><path d="M731.38,944.3l49.36-4.06,11.78-1c1-.08,2.09-.08,3.1-.25.29,0,.6,0,.9-.08.48,0-1.73-1.17-.71.09.84,1.05,2.73,1.79,3.82,2.69a39.78,39.78,0,0,1,3.62,3.49c2.43,2.61,4.63,5.42,7,8.11,10.48,12,23.46,21.36,36.76,29.93l1.08-8.23c-16.87,2.55-33.82,4.53-50.7,7-8.62,1.27-17.22,2.69-25.77,4.4-4.16.83-8.3,1.72-12.42,2.7-3.68.88-8.26,1.41-11.61,3.16-3.92,2-7.56,5.17-11.2,7.65l-21,14.38-13.8,9.43c-4.76,3.25-.26,11,4.54,7.77L737.56,1010c4.51-3.09,9.16-7.24,14.09-9.64s11.36-2.94,16.61-4.08c8.23-1.77,16.51-3.25,24.82-4.56,19.08-3,38.28-5.16,57.38-8,4.1-.62,4-6.34,1.07-8.22-12.26-7.9-24.15-16.48-33.93-27.39-5-5.54-9.29-11.48-15.53-15.72-5.36-3.66-11-2-17.19-1.47l-31.5,2.59-22,1.81c-5.73.48-5.78,9.48,0,9Z" class="cls-10"></path><path d="M907.39,590c15.11,76.47,1.17,157-39.45,223.54-36.21,59.33-92.37,105.9-157.6,130A311.76,311.76,0,0,1,294.49,599.09a321.36,321.36,0,0,1,8-35c1.6-5.58-7.08-8-8.68-2.39C271,641.15,279.51,727.79,318.08,800.92A320.77,320.77,0,0,0,688.53,960.13c69.3-19.43,130.67-62.58,173-120.73,44.88-61.72,66.22-139,59.78-215a337.47,337.47,0,0,0-5.21-36.77c-1.12-5.68-9.8-3.28-8.68,2.39Z" class="cls-10"></path><path d="M890,1028c-19.09,11.62-33.39,30.6-44.71,49.49a247.11,247.11,0,0,0-29.81,75.32,179.7,179.7,0,0,0-4.09,44.65c.25,5.77,9.25,5.8,9,0-1.08-25.56,4.44-51,13.26-74.88,8.5-23,20.4-45.59,36.2-64.48,7.13-8.53,15.15-16.52,24.69-22.32,4.94-3,.42-10.8-4.54-7.78Z" class="cls-10"></path><path d="M327.46,1035.78c18,10.93,31.27,29.09,41.85,46.88a239.63,239.63,0,0,1,28.37,71.8,170.26,170.26,0,0,1,3.93,43c-.25,5.79,8.75,5.78,9,0,1.14-27.06-4.83-54.26-14.4-79.45-9.1-24-21.52-47.1-38.11-66.77-7.52-8.92-16.09-17.15-26.1-23.24-5-3-9.49,4.77-4.54,7.78Z" class="cls-10"></path><path d="M393.31,335.23c-1-30.1-6.37-59.81-8.72-89.8-2.21-28.06-2.27-58.24,10.8-84,12.36-24.3,34-40.82,60.69-45.92,28.15-5.38,57.93-1.58,85.9,3.1,28.6,4.79,56.8,11.66,85.3,17,24.12,4.51,48.42,6,72.87,7.68,26.89,1.81,53.92,3.75,80.38,9.07,22.86,4.59,47.18,11.59,65.29,27a66.05,66.05,0,0,1,18.95,25.84c6.19,15.72,6.12,33.07,4.53,49.65-1.75,18.3-5.62,36.32-7.83,54.57-1.89,15.65-2.38,31.54-3.27,47.28q-.87,15.27-1.65,30.55c-.3,5.79,8.7,5.77,9,0q1.49-29.13,3.3-58.24c1.1-17.42,3.85-34.46,6.52-51.69,4.71-30.47,8.42-65.16-11.19-91.46-14.45-19.39-37-30.2-59.72-36.9-26.36-7.79-54-10.78-81.32-13-25.75-2.09-51.85-2.5-77.42-6.3-28.66-4.26-56.82-11.42-85.27-16.82-29.44-5.59-59.9-10.51-90-8.19-13,1-26,3.44-38,8.64-12.73,5.5-23.83,14.59-32.66,25.22-40.36,48.52-22.17,117.45-17,174.21.68,7.48,1.19,15,1.43,22.48.19,5.78,9.19,5.81,9,0Z" class="cls-10"></path><path d="M922.83,591.44c-18.68-14.54-40.09-25.09-61.88-34.1-27.82-11.5-56.74-20.27-85.94-27.49a944.92,944.92,0,0,0-212-27c-68.43-1-139.07,4.62-204.23,26.77a319.57,319.57,0,0,0-41.94,17.48q-9.36,4.74-18.3,10.27-4.35,2.68-8.56,5.59c-1.43,1-2.82,2.21-4.32,3-2.2,1.22-3.42,1.12-6.15,1.09-34.9-.33-71.47-6.82-101.16-26.16-21-13.64-37.91-34.86-40.71-60.33-2.89-26.33,9.19-51.28,26.72-70.25,26-28.16,62.6-45.74,99-56.31,42.2-12.27,86.57-15.44,130.34-14,84,2.77,166.49,22.24,247.09,44.76a417.14,417.14,0,0,0,128.16,14.73c37.07-1.35,73.78-7,110.78-9.17,35.26-2.1,70.56,0,103.95,12.33a226.8,226.8,0,0,1,52.67,28.43c11.18,8,23.34,16.19,28.85,29.29,8.78,20.88.61,44.76-11.31,62.55-17.55,26.2-45.73,44.36-75,54.86a226.86,226.86,0,0,1-59.2,12.29c-5.74.44-5.78,9.45,0,9,38.48-3,77.22-14,108.55-37.24,22.06-16.35,41.64-39.27,47.75-66.67,4.94-22.16-.72-44.62-18.62-59.26-31.64-25.88-68.27-45.08-108.83-51.88-35.15-5.89-70.72-3.08-106,.46-39.7,4-79.41,8.07-119.36,5.5a375.3,375.3,0,0,1-69.33-11c-19.14-4.91-38.1-10.51-57.25-15.4-41.81-10.69-84.09-19.81-126.86-25.76-86.16-12-181-13.4-260.14,27.95-29.27,15.3-57.71,37.47-72.18,67.94-11.16,23.47-12.35,50.11-1.17,73.8,12.18,25.82,36.6,43.41,62.43,53.94,17,7,35.15,10.89,53.4,13a219.6,219.6,0,0,0,32,1.65c4.07-.14,6.4-2.58,9.65-4.83q4.59-3.19,9.35-6.14c55.79-34.61,124.26-46.7,188.78-51.36,73.92-5.34,148.85-.41,221.8,12.37a805,805,0,0,1,99.16,23.53c26.46,8.2,52.69,18,77.09,31.18a193.09,193.09,0,0,1,26.54,16.94C921,601.32,927.4,595,922.83,591.44Z" class="cls-10"></path><path d="M866.5,185.46c22.86-52.51,87.07-44.59,134.12-51.07,13.16-1.81,26.21-4.76,38.09-10.89l-6.77-3.88c-2.42,28.17-14,55.36-39.94,69.14-23.79,12.63-52.91,12-78.62,6.73a221.73,221.73,0,0,1-48.5-16.19c-5.22-2.42-9.8,5.34-4.54,7.77,49.63,23,126.75,37.81,163.62-14.91,10.77-15.4,15.39-34.06,17-52.54.31-3.62-4-5.32-6.77-3.89-22.19,11.45-49,11.41-73.37,13.3-25.22,1.95-52.51,4.39-74.28,18.54a74.93,74.93,0,0,0-27.79,33.35C856.44,186.17,864.19,190.76,866.5,185.46Z" class="cls-10"></path><path d="M445.86,813.81a2256.23,2256.23,0,0,1,266.5-10.55q37,.66,73.93,2.58c5.79.3,5.77-8.7,0-9a2288.53,2288.53,0,0,0-266.71,1.88q-36.92,2.4-73.72,6.09c-5.71.57-5.77,9.58,0,9Z" class="cls-10"></path><path d="M441.52,810.51c4.49,27.7,22.5,51.8,43.26,69.83,23.54,20.46,52.52,35.41,83.11,41.82,29,6.08,58.86,2.85,87.14-5.45A246.83,246.83,0,0,0,735.84,876c24.45-18.83,45.89-43.36,54.79-73.44,1.65-5.57-7-7.94-8.68-2.39-7.4,25-24.36,45.9-44,62.6-21.72,18.5-47.53,32.51-74.46,41.8-26.14,9-54.55,14.38-82.2,10.82-29.44-3.79-57.85-16.46-81.44-34.29s-44.82-43-49.69-73c-.93-5.7-9.6-3.28-8.68,2.4Z" class="cls-10"></path><path d="M723.44,837q92.7-5.15,185.6-4c5.79.07,5.79-8.93,0-9q-92.85-1.12-185.6,4c-5.76.32-5.8,9.32,0,9Z" class="cls-10"></path><path d="M902.9,783.92c.66,18.07,1.09,36.16,2.5,54.2,1.26,16.17,2.84,32.92,8.18,48.34.47,1.36,1.57,2.92,3.14,3.14,23.44,3.38,46.11,1.81,69.52-.73a4.68,4.68,0,0,0,4.34-3.31c4.07-16.85,4.27-35.18,5-52.41.75-17.75,2.09-36.62-1.09-54.22a4.43,4.43,0,0,0-3.15-3.14c-13.93-3.59-28.86-3.19-43.09-2.15a303.86,303.86,0,0,0-42,5.94c-5.65,1.23-3.26,9.9,2.4,8.68a284.63,284.63,0,0,1,39.64-5.62c13.42-1,27.56-1.56,40.7,1.83l-3.14-3.15c3,16.72,1.48,35,.77,51.83-.69,16.44-.79,33.94-4.67,50l4.34-3.3c-22.5,2.45-44.58,4.3-67.13,1l3.14,3.15c-5.26-15.2-6.79-31.6-8-47.54-1.3-17.51-1.73-35.07-2.37-52.61-.21-5.77-9.21-5.8-9,0Z" class="cls-10"></path><path d="M536.9,808a291.41,291.41,0,0,0,13.27,107.67c1.74,5.5,10.43,3.15,8.68-2.39A284.3,284.3,0,0,1,545.9,808c.39-5.78-8.61-5.76-9,0Z" class="cls-10"></path><path d="M648.82,804.18c5,34.84,2.71,70.23-.53,105.12-.53,5.76,8.47,5.73,9,0,3.32-35.8,5.39-71.79.21-107.51-.83-5.71-9.51-3.28-8.68,2.39Z" class="cls-10"></path><path d="M584.62,1083.47c-19.81,31.72-34.73,69.24-65.07,92.78-11.11,8.61-27.42,18.62-41.88,12.43-11.72-5-17.09-18.54-17.81-30.49-1.14-19,7.37-36.85,20.7-50a4.56,4.56,0,0,0,.71-5.46c-6.17-8.63-11.13-18.75-12.1-29.44-1.43-15.78,7.11-29,19.73-37.84,25.87-18.13,60.38-15,87-.3,5.07,2.8,9.62-5,4.54-7.77-23.83-13.12-53.27-18.12-79.27-8.41-24.31,9.08-44.62,30.56-40.58,58,1.61,10.94,6.49,21.36,12.89,30.32l.7-5.46c-13.58,13.38-22.6,31.14-23.39,50.36-.6,14.71,4,30.87,15.95,40.29,13.16,10.38,29.71,7.67,43.61.35,18.68-9.84,33.14-25.7,45-42.85,13.73-19.8,24.25-41.56,37-62,3.08-4.93-4.7-9.45-7.77-4.55Z" class="cls-10"></path><path d="M620.83,1035.17c26.64-14.66,61.15-17.83,87,.3,12.42,8.7,21,21.67,19.78,37.21-.83,10.93-5.86,21.27-12.14,30.07a4.53,4.53,0,0,0,.7,5.46c12,11.81,20.23,27.5,20.78,44.55.39,12.2-3.2,26.4-13.85,33.67-12.35,8.44-27.11,2.16-38.43-5-16.28-10.24-28.69-25.41-39.13-41.32-11.77-17.94-21.37-37.17-32.64-55.41-3-4.92-10.83-.41-7.77,4.54,21.93,35.5,39,78.08,76.21,100.71,13.66,8.31,30.88,13.9,45.58,4.69,12.37-7.76,18.11-22.44,18.95-36.49,1.28-21.23-8.43-41.67-23.34-56.35l.71,5.46c12.5-17.52,18.85-41.22,7.24-60.86-13.78-23.31-43.13-33.8-69.09-32.37a105.79,105.79,0,0,0-45.12,13.33c-5.07,2.79-.54,10.57,4.54,7.77Z" class="cls-10"></path><path d="M580.87,1056.23c-1.25-9.56-.79-21.84,8.16-27.78,6.23-4.14,14.33-2.92,19.89,1.79,8.81,7.46,9.93,20.5,8.52,31.19-1.13,8.48-5.16,24.39-16.79,22.71-12.72-1.84-18.33-18.44-19.94-29.1-.87-5.71-9.54-3.29-8.68,2.39,2.11,13.9,9.56,30.28,24.09,34.84,14.12,4.44,24.34-7.26,28.11-19.61,4.48-14.74,4.33-33.35-6-45.71-7.12-8.54-19.13-12.54-29.68-8.32-14.94,6-18.6,23.17-16.71,37.6C572.61,1061.89,581.61,1062,580.87,1056.23Z" class="cls-10"></path><path d="M386,292.18c31.66-4.09,63.62-8.13,95.56-5,31.43,3.06,62,12,92.49,19.93,60.41,15.66,121.22,30.94,183.41,37.5,35.08,3.69,70.45,4.4,105.56.77,5.71-.59,5.77-9.6,0-9-63.14,6.52-126.47-1.26-188.31-14.24-30.45-6.39-60.63-14-90.75-21.76-30.32-7.84-60.62-16.72-91.71-20.94-35.56-4.83-70.89-.82-106.25,3.75-5.67.73-5.74,9.74,0,9Z" class="cls-10"></path></g></svg>