<svg viewBox="0 0 1200 1200" xmlns="http://www.w3.org/2000/svg"><defs><style>.cls-1{isolation:isolate;}.cls-2{fill:#fbe7d4;}.cls-3{opacity:0.66;}.cls-4{fill:#f4d0b8;}.cls-5{fill:#c4233d;}.cls-6{fill:#fdecd8;}.cls-7{fill:#ffd9ca;}.cls-8{fill:#f4ada2;}.cls-9{fill:#e5847a;}.cls-10{fill:#331403;}.cls-11{mix-blend-mode:multiply;}.cls-12{fill:#eab394;}.cls-13{fill:#eaa27d;}.cls-14{fill:#f9ad95;}.cls-15{fill:#ffc17d;}.cls-16{fill:#fff;}.cls-17{fill:#040000;}.cls-18{fill:#d85977;}</style></defs><title>touxiang</title><g class="cls-1"><g id="bg"><rect height="1194.32" width="1194.32" y="2.84" x="2.84" class="cls-2"></rect><g class="cls-3"><rect height="124.53" width="124.54" y="387.74" x="387.73" class="cls-4"></rect><rect height="124.53" width="124.53" y="87.75" x="87.73" class="cls-4"></rect><path d="M300,0V300H600V0ZM512.27,212.28H387.74V87.75H512.27Z" class="cls-4"></path><path d="M0,600H300V300H0ZM87.73,387.74H212.28V512.27H87.73Z" class="cls-4"></path><rect height="124.53" width="124.54" y="387.74" x="987.73" class="cls-4"></rect><rect height="124.53" width="124.53" y="87.75" x="687.73" class="cls-4"></rect><path d="M900,0V300h300V0Zm212.26,212.26H987.74V87.75h124.53Z" class="cls-4"></path><path d="M600,600H900V300H600Zm87.73-212.26H812.28V512.27H687.73Z" class="cls-4"></path><rect height="124.53" width="124.54" y="987.73" x="387.73" class="cls-4"></rect><rect height="124.53" width="124.53" y="687.73" x="87.73" class="cls-4"></rect><path d="M300,900H600V600H300Zm87.73-212.27H512.27V812.26H387.74Z" class="cls-4"></path><path d="M0,1200H300V900H0ZM87.73,987.73H212.28v124.53H87.73Z" class="cls-4"></path><rect height="124.53" width="124.54" y="987.73" x="987.73" class="cls-4"></rect><rect height="124.53" width="124.53" y="687.73" x="687.73" class="cls-4"></rect><path d="M900,900h300V600H900Zm87.73-212.27h124.53V812.26H987.74Z" class="cls-4"></path><path d="M900,1200V900H600v300ZM687.73,987.73H812.28v124.53H687.73Z" class="cls-4"></path></g></g><g id="涂色"><path d="M301.22,1023.43c10.21,6.2,18.9,14.66,26.55,23.77,16.87,20.06,29.55,43.75,38.77,68.21,9.71,25.76,15.8,53.46,14.63,81.1-.06,1.45-2.31,1.45-2.25,0a180.64,180.64,0,0,0-4.1-45.13A252,252,0,0,0,345,1075.56c-11.33-19.07-25.63-38.48-44.89-50.19a1.08,1.08,0,0,1-.45-.51c-2.55,2.32-5.09,4.65-7.6,7-51.16,48.35-93.1,105.71-127.57,166.92,3.45-.53,7.56.06,11,.06l22.19,0,71.08-.11,98.81-.15,116.91-.18,125.36-.2L734,1198l113.36-.17,92.9-.15,62.82-.09,21.09,0q-16.26-27.19-34.44-53.2c-30.32-43.15-65.05-83.45-104.46-118.53-9.74,6.07-18,14.22-25.41,23-16.93,20.13-29.62,44.07-38.73,68.66-9.32,25.18-15.15,52.11-14,79.06.06,1.45-2.19,1.45-2.25,0a182.63,182.63,0,0,1,4.18-45.73,253.88,253.88,0,0,1,30.82-77.6C851,1054.67,865,1036,883.51,1024.27q-17.89-15.81-37.08-30.11-8.2,1.05-16.36,2.46c-97.8,17-183.5,72.58-252.26,142.44a1.14,1.14,0,0,1-1.59,0,603.76,603.76,0,0,0-64.93-57.51c-38.74-29.42-81.6-53.69-127.67-69.53a383.71,383.71,0,0,0-52.27-13.95q-15.53,12.13-30.15,25.35Z" class="cls-5"></path><path d="M928.16,772.55a1,1,0,0,1-.51-.78c-.7-.44-1.37-.9-2-1.36-1.15,7.7-2.55,15.37-4.28,23-6.77,29.8-18.94,58.23-37.69,82.35,19.87-9.23,39.8-18.92,57.15-32.44C960,828.37,974.1,809,981.64,785.86,963.06,787.92,943.87,782.45,928.16,772.55Z" class="cls-6"></path><path d="M278,881.63c-19.65-29-28.5-63.46-32.18-97.91q-.66-6.18-1.12-12.37l-.12.08a1.07,1.07,0,0,1-.5,1.12c-19.25,12.12-43.92,17.62-65.95,10.73a184.84,184.84,0,0,0,14.66,35.25,128.39,128.39,0,0,0,39.39,42.85c16.09,11.16,33.86,19.72,51.53,28.1Q280.71,885.67,278,881.63Z" class="cls-6"></path><path d="M130.74,648A68.31,68.31,0,0,1,140,634c14-16.43,35.61-25.63,57.11-25.53,17.73.09,36.49,6.91,46.06,22.46-.87-19.2-3-38.32-7.81-56.89a1.13,1.13,0,0,1,2.17-.6A219.21,219.21,0,0,1,242,595.89a369.15,369.15,0,0,1,3.63,42.92c1.82-5.55,3.83-11,6.09-16.42,20.71-49.46,59.41-89,103.61-118.32,46.26-30.7,99.13-51.53,153.19-63.6,27.29-6.09,55.59-10.59,83.6-10.4,37.09.25,73.49,8.88,108.42,20.84,52.39,17.95,104.09,39.85,149.75,71.53,21.36,14.82,42,31.64,58.3,52.07,10,12.55,18.61,27.12,21.67,42.92a231.85,231.85,0,0,1,4.38-29.83c.32-1.42,2.49-.82,2.17.59-1.36,6.19-2.37,12.44-3.13,18.73-.86,7.17-1.46,14.37-1.88,21.58,11.31-16.3,32.93-22,52.11-20,20.57,2.19,39.85,12.83,51.94,29.65,6.64-28.48,12.67-57.23,15.83-86.33a362.69,362.69,0,0,0,.37-71.5c-6.83-76-37.45-147.9-90.94-202.8S837.28,188,764.2,167.84A162.39,162.39,0,0,1,780,222.13c9.52-4.55,21.07-4.64,30.25.9,14.73,8.87,19.43,37.1-.38,42.88-9.34,2.72-19.8-.1-28.36-4a74.43,74.43,0,0,1-26.71-21.18c-.28,20.92-12.27,41.17-34,45.77-10.6,2.25-20.56-.33-29.88-5.53-13.8-7.69-25.7-18.69-36.84-29.8-3.44,10.78-7.82,21.54-15.26,30.21-8.09,9.42-19.06,14.38-31.25,15.84-26.63,3.2-49-9.84-64.33-30.75-9.56,18.21-27.58,31.88-48.08,35-18.72,2.82-36.38-4.58-46.23-20.48-2.15,14.86-12.75,28.75-26.51,34.68-7.05,3-15,3.65-22.15.54-8.26-3.59-13.68-11.14-17.43-19.06-8.9,10.57-20.25,20-34,23.06-14.4,3.18-34.09-2.57-36.78-19.26-3.49-21.59,24.61-30.48,41.15-33.38a54,54,0,0,1-5.52-10.68c-7.91-20.68-4.48-44.65,2-65.2.6-1.89,1.25-3.76,1.91-5.63-37,15.24-72.26,34.89-103.89,59.46-54.88,42.62-97.37,99.89-119.37,166-11.81,35.5-17.72,72.77-18.51,110.14-.47,22.22.93,44.07,5.42,65.87C119.46,607.89,125.48,627.83,130.74,648Z" class="cls-6"></path><path d="M923.88,766.74c4.43-31.88,4.49-64.13,4.75-96.24.1-12.16.12-24.44.63-36.68a1,1,0,0,1-.14-.58,60.73,60.73,0,0,0-1.06-15.75c-4.59-22.84-20.2-42.34-36.36-58.34-18.46-18.29-39.71-33.71-61.76-47.37a411.77,411.77,0,0,0-55.49-29.33c-33.42-14.24-67.17-28.28-102.22-38s-71.16-14.36-107.48-10.79a472.82,472.82,0,0,0-76.19,14.05c-52.35,14.05-103.23,36.42-146.95,68.73-42.8,31.62-78.27,73.86-94.49,125.13a1.1,1.1,0,0,1-1.37.74c.48,18.63.06,37.31-.17,55.88-.46,35.68-.81,71.76,5.46,107,5.58,31.41,17.08,61.7,37.24,86.48a1,1,0,0,1,.3.38c1.9,2.31,3.86,4.58,5.91,6.79a168.78,168.78,0,0,0,28.07,24.19l.48,0a1,1,0,0,1,1.09,1.09c26.49,17.93,57.54,29.18,88.53,36.55,29.84,7.09,60.42,10.87,91,12.85a.89.89,0,0,1,.51,0q3.52.23,7.07.42A968.75,968.75,0,0,0,631,973q8.4-.59,16.86-1.32a.87.87,0,0,1,.63-.05c53.24-4.7,107.25-14.56,155.7-37.43,35.29-16.66,66.84-41.11,87.91-74.31C909.94,831.82,919.33,799.48,923.88,766.74Z" class="cls-7"></path><path d="M1036,642.29a1.09,1.09,0,0,1-.79-1.19,66.19,66.19,0,0,0-4.09-5.49c-13.23-15.91-33.6-25.09-54.22-25.27-17.68-.15-36.39,6.72-45.31,22.81-1,21-15.29,40.67-15.6,61.61-.36,24.43,13.32,50.36,9.8,74.55.72.5,1.45,1,2.19,1.48a1,1,0,0,1,1.33-.18c19.59,12.34,44.83,17.7,67.06,9.53,27.47-10.09,41.45-38.17,47.61-65.07C1049.56,690.71,1049.66,663.69,1036,642.29Z" class="cls-7"></path><path d="M242.89,770.61a1,1,0,0,1,1.11,0l.56-.4c-2.32-31.64,10.52-62.8,10.79-94.49.12-13.31-11.58-27.39-12.07-40.79a1,1,0,0,1-.79-.55c-10.06-19-33.2-25.28-53.3-23.23-21.12,2.15-41.14,13.45-52.78,31.37-16.32,25.1-13.58,57.29-4.93,84.61,8,25.33,24.64,48.94,51.79,55.24C203.63,787.08,225.46,781.59,242.89,770.61Z" class="cls-7"></path><path d="M506.63,976.2a389.77,389.77,0,0,1,24.08,31.88,466.92,466.92,0,0,1,46.23,83.28,355.83,355.83,0,0,1,17.54-40.1c13.87-27.11,30.71-53.94,50.94-76.91-24,2-48.18,2.89-72.06,3.14C551.33,977.72,529,977.47,506.63,976.2Z" class="cls-7"></path><path d="M754.56,236.8c8.35,11.3,19.89,20.6,33.25,25.23,8.72,3,21.26,5,28.48-2.35,8.25-8.43,4.65-24.51-3.3-31.8-9-8.26-22.87-8.7-33.33-3.09l-.18.09a1.29,1.29,0,0,1-.45.09h-.13l-.18,0a877.88,877.88,0,0,0-99.33-16.29c-56.9-5.89-114.8-5.81-171.31,3.76-53.78,9.11-106.1,27.2-152.16,56.71a1,1,0,0,1-.37.23,1.06,1.06,0,0,1-.58.13c-12.31,2-26.24,5.48-35.1,14.88-10.73,11.4-4.89,27.07,8.86,32.44,20.63,8.05,41.22-7.44,53.59-22.59a1.14,1.14,0,0,1,1.77.23c3.71,8.33,9.19,16.7,18.09,20.08,6.74,2.55,14.14,1.55,20.54-1.51,13.4-6.4,23.57-20.78,24.32-35.69.06-1.05,1.56-1.61,2.1-.57,9.32,17.85,28.05,25.82,47.6,22.12,19.7-3.73,36.58-17.26,45.36-35.14a1.13,1.13,0,0,1,1.94,0c14.65,20.76,36.19,34,62.18,31.36,12.34-1.26,23.37-6.19,31.41-15.81,7.34-8.79,11.5-19.74,14.85-30.55a1.13,1.13,0,0,1,1.88-.49C665,259,676.29,269.52,689.28,277.38c9.22,5.58,19,9.09,29.88,7.12,22.45-4.07,34.29-25.67,33.31-47.13C752.41,236.15,754,236,754.56,236.8Z" class="cls-5"></path><path d="M355.38,266.8a377.7,377.7,0,0,1,81.85-39c53.43-18.11,110.17-25.28,166.44-25.36,58.54-.09,117,7.46,174.07,20-.51-4.79-1.19-9.56-2.11-14.29A153.92,153.92,0,0,0,761.34,167a1,1,0,0,1-.59-1.13,166.15,166.15,0,0,0-43.64-52.44c-30.76-24.54-68.77-39.11-107.33-45.63A287.73,287.73,0,0,0,487.23,73.6C447,84.52,406.05,105,380.07,138.55a169.86,169.86,0,0,0-31.76,67C343.88,225.74,343.38,249,355.38,266.8Z" class="cls-5"></path><path d="M240.79,989.32A384,384,0,0,1,323,994.21c2.62.44,5.23.92,7.83,1.42l.21-.17A1.26,1.26,0,0,1,333,996c94.25,18.67,177.13,72.92,244,140.64a608.57,608.57,0,0,1,63.33-56.09c38.82-29.67,81.8-54.13,128-70.22a386,386,0,0,1,76.71-18.17,1,1,0,0,1,1.57-.66l.52.39a385.7,385.7,0,0,1,66.08-2.6c-6.7-18.75-20.31-34.44-36.35-46-13.12-9.43-29.38-17.89-45.91-18.08a1.1,1.1,0,0,1-1-1.43l-.84-.47a292.43,292.43,0,0,1-57.85,26.47c-39.47,13.39-80.9,20.57-122.6,24.24-9.44,10.53-17.82,22.13-25.76,33.8-18.37,27-33.85,56-44.8,86.83a1.14,1.14,0,0,1-2.17,0,462.72,462.72,0,0,0-47.16-85.5A369.64,369.64,0,0,0,503.51,976c-43.88-2.66-87.65-9.35-128.72-24.19a233.23,233.23,0,0,1-52.65-26.52c-16.21.48-32.13,8.78-45,18C261.11,954.91,247.49,970.57,240.79,989.32Z" class="cls-5"></path><path d="M536.14,847.86A127.8,127.8,0,0,1,451.6,968.11q-14.52-2.21-28.88-5.27a.9.9,0,0,0-.57-.13q-4.12-.88-8.25-1.86c-39.83-9.47-79.79-25.37-110-53.62a1.29,1.29,0,0,0-.17-.16q-4.12-3.86-8-8-4.26-4.6-8.09-9.52a127.74,127.74,0,1,1,248.49-41.67Z" class="cls-8"></path><path d="M907.91,831h0C903,842.6,898,852.74,893.36,860.1c-21.07,33.2-52.62,57.65-87.92,74.31-26.27,12.4-54.19,21-82.72,27A127.74,127.74,0,1,1,907.91,831Z" class="cls-8"></path><path d="M355.63,810.16l-7.53,20.23c-2,5.44,6.67,7.78,8.68,2.39l7.53-20.23c2-5.43-6.67-7.78-8.68-2.39Z" class="cls-9"></path><path d="M401.24,818.43a54.17,54.17,0,0,1-3.75,13.84c-.92,2.26,1,4.92,3.14,5.53,2.57.74,4.63-.9,5.54-3.14a62.75,62.75,0,0,0,4.07-16.23c.3-2.42-2.28-4.5-4.5-4.5-2.68,0-4.2,2.07-4.5,4.5Z" class="cls-9"></path><path d="M448.54,815.76c-3,7.13-5.84,14.32-8.37,21.64-1.89,5.48,6.8,7.84,8.68,2.39,2.28-6.58,4.74-13.08,7.46-19.48,2.24-5.27-5.51-9.87-7.77-4.55Z" class="cls-9"></path><path d="M733.94,810.16l-7.53,20.23c-2,5.44,6.67,7.78,8.67,2.39l7.54-20.23c2-5.43-6.67-7.78-8.68-2.39Z" class="cls-9"></path><path d="M779.55,818.43a54.58,54.58,0,0,1-3.75,13.84c-.92,2.26,1,4.92,3.14,5.53,2.57.74,4.63-.9,5.54-3.14a62.75,62.75,0,0,0,4.07-16.23c.3-2.42-2.28-4.5-4.5-4.5-2.68,0-4.2,2.07-4.5,4.5Z" class="cls-9"></path><path d="M826.85,815.76c-3,7.13-5.84,14.32-8.37,21.64-1.89,5.48,6.8,7.84,8.68,2.39,2.28-6.58,4.74-13.08,7.46-19.48,2.24-5.27-5.51-9.87-7.77-4.55Z" class="cls-9"></path></g><g id="五官"><path d="M488.29,666.91c-27.72-.06-28.36,60.66,3.15,60.66C515.38,727.57,517.53,667,488.29,666.91Z" class="cls-10"></path><path d="M488.29,662.41C459.73,663,457.51,706,471.9,723c7.82,9.24,22.73,12.7,32.17,3.88,9.17-8.57,11.25-23.59,9.86-35.46-1.68-14.25-9.72-28.67-25.64-29-5.79-.13-5.79,8.87,0,9,20.22.46,20.1,33.62,12.12,45.89-4.74,7.27-13.69,7.28-20,1.65-7.15-6.39-8.92-17.48-8.13-26.58s5.32-20.75,16-21C494.08,671.3,494.1,662.3,488.29,662.41Z" class="cls-10"></path><path d="M685.71,666.91c27.72-.06,28.36,60.66-3.15,60.66C658.62,727.57,656.47,667,685.71,666.91Z" class="cls-10"></path><path d="M685.71,671.41c9.24.18,13.75,9,15.41,17,1.89,9.12.65,20.29-5.11,27.88-4.64,6.11-14.47,9.79-20.46,3.51-6.36-6.67-7.45-17.86-6.66-26.59.87-9.68,5.54-21.55,16.82-21.81,5.78-.13,5.8-9.13,0-9-28.38.65-32.15,43.13-18.62,61.24,7.85,10.51,22.22,10.67,31.95,2.43,9.89-8.38,12.91-23.08,11.48-35.44C708.93,677,701,662.7,685.71,662.41,679.92,662.3,679.92,671.3,685.71,671.41Z" class="cls-10"></path><path d="M574.91,783c1.8,7.26,7.89,13.66,15.78,13.37s14.41-6.09,16.58-13.37c1.66-5.56-7-7.94-8.68-2.39-2.53,8.5-12.83,8.73-15,0-1.39-5.62-10.07-3.24-8.68,2.39Z" class="cls-10"></path><g class="cls-11"><path d="M455.78,644.11c10.73-4.3,21.64-9.15,33.13-11,11.33-1.82,21.51,1.13,30.87,7.6,4.77,3.3,9.28-4.5,4.54-7.77-10.06-7-21.53-10.43-33.78-9.07-13,1.45-25.14,6.74-37.15,11.56-5.31,2.13-3,10.83,2.39,8.68Z" class="cls-12"></path></g><g class="cls-11"><path d="M720.61,635.43c-12-4.82-24.17-10.11-37.15-11.56-12.24-1.36-23.71,2.12-33.78,9.07-4.73,3.27-.24,11.07,4.55,7.77,9.35-6.46,19.53-9.42,30.87-7.6s22.4,6.7,33.12,11c5.37,2.15,7.71-6.55,2.39-8.68Z" class="cls-12"></path></g></g><g id="细节"><path d="M188.67,457.14c-1.75,21.4,3.78,43.34,11.52,63.13,8,20.48,19,40.3,34.11,56.38,4,4.22,10.34-2.15,6.36-6.36C226.28,555,215.78,536,208.32,516.45c-7.17-18.72-12.3-39.13-10.65-59.31.47-5.77-8.53-5.74-9,0Z" class="cls-13"></path><path d="M284.46,340.45C260.57,399.12,267,468.5,301,521.91c3.1,4.87,10.89.36,7.77-4.55-32.86-51.61-38.68-117.89-15.62-174.52,2.18-5.36-6.52-7.69-8.68-2.39Z" class="cls-13"></path><path d="M868.32,340.34c24.85,60.66,13.26,129.6-14.06,187.38-2.46,5.21,5.3,9.78,7.78,4.54,28.27-59.79,40.72-131.43,15-194.32-2.17-5.28-10.88-3-8.68,2.4Z" class="cls-13"></path><path d="M504.52,308.67c-19.66,40.42-13.68,90.26,14.87,125,3.68,4.47,10-1.92,6.36-6.36-25.81-31.36-31.21-77.55-13.46-114,2.53-5.19-5.23-9.76-7.77-4.54Z" class="cls-13"></path><path d="M662.37,303.12c8.72,19.11,10.36,41.76,8.55,62.44-2,22.35-9.13,45.71-25.57,61.7-4.16,4,2.2,10.4,6.36,6.36,17.9-17.4,25.75-42.45,28.09-66.74,2.2-22.79-.07-47.3-9.66-68.3-2.4-5.27-10.16-.7-7.77,4.54Z" class="cls-13"></path><path d="M581.21,330.53a403.84,403.84,0,0,1-2.83,64.94c-.71,5.73,8.3,5.68,9,0a403.84,403.84,0,0,0,2.83-64.94c-.22-5.77-9.22-5.8-9,0Z" class="cls-13"></path><path d="M929.83,801.93a162.11,162.11,0,0,0,17.58,34.91c3.2,4.79,11,.29,7.77-4.54a152.91,152.91,0,0,1-16.67-32.76c-2-5.41-10.66-3.07-8.68,2.39Z" class="cls-13"></path><path d="M244.34,806.81a371.53,371.53,0,0,1-21,36.79c-3.17,4.87,4.62,9.39,7.77,4.54a370.39,370.39,0,0,0,21-36.79c2.57-5.16-5.19-9.73-7.77-4.54Z" class="cls-13"></path><path d="M959.74,319.09c10.48,47.73,8.17,99.38-5.87,146.13-1.67,5.55,7,7.93,8.68,2.39a304.79,304.79,0,0,0,5.87-150.91c-1.24-5.66-9.92-3.26-8.68,2.39Z" class="cls-13"></path><path d="M866.26,238.93a194.77,194.77,0,0,1,14,40.5c1.28,5.65,10,3.26,8.68-2.39A204.41,204.41,0,0,0,874,234.39c-2.48-5.23-10.24-.67-7.77,4.54Z" class="cls-13"></path><path d="M254.28,277.22a99,99,0,0,0-19.74,29.16c-2.31,5.25,5.44,9.84,7.77,4.55a92.23,92.23,0,0,1,18.33-27.35c4-4.15-2.32-10.53-6.36-6.36Z" class="cls-13"></path><path d="M365.34,411a69.85,69.85,0,0,0,3.88,32.38c2,5.39,10.69,3.06,8.68-2.39a64,64,0,0,1-3.56-30c.67-5.74-8.34-5.7-9,0Z" class="cls-13"></path><path d="M781.17,353.11a117.84,117.84,0,0,1,4.92,35.31c-.08,5.79,8.92,5.79,9,0a126.23,126.23,0,0,0-5.25-37.7c-1.64-5.54-10.33-3.19-8.67,2.39Z" class="cls-13"></path><path d="M992.62,567.33a42.94,42.94,0,0,0-9.75,26.49c-.11,5.8,8.89,5.8,9,0A33,33,0,0,1,999,573.69c3.58-4.48-2.75-10.89-6.36-6.36Z" class="cls-13"></path><path d="M187.32,702.45c9.26-7.57,22-5.73,29.6,3.06,3.8,4.38,10.15-2,6.36-6.36-11.1-12.78-29.46-13.58-42.33-3.07-4.48,3.67,1.92,10,6.37,6.37Z" class="cls-14"></path><path d="M199.29,693.92A22.15,22.15,0,0,0,191.05,710c-.45,5.77,8.56,5.75,9,0a13.54,13.54,0,0,1,5.6-9.7c1.93-1.49,1.57-4.79,0-6.36-1.89-1.9-4.43-1.5-6.36,0Z" class="cls-14"></path><path d="M1008,696.08c-12.87-10.51-31.23-9.71-42.33,3.07-3.78,4.35,2.56,10.74,6.36,6.36,7.65-8.79,20.34-10.64,29.6-3.06,4.45,3.63,10.86-2.7,6.37-6.37Z" class="cls-14"></path><path d="M983.34,700.28a13.54,13.54,0,0,1,5.6,9.7c.44,5.74,9.45,5.78,9,0a22.15,22.15,0,0,0-8.24-16.06c-1.92-1.49-4.49-1.87-6.36,0-1.56,1.55-1.93,4.86,0,6.36Z" class="cls-14"></path><path d="M874.16,1018.38c-20,12.65-34.87,32.76-46.53,53a261.79,261.79,0,0,0-29.76,77.89,197.08,197.08,0,0,0-4.28,47.27c.29,7.29,6,13.5,13.5,13.5,7.08,0,13.79-6.18,13.5-13.5-1-25.34,3.8-48.42,12.49-72.9a224.29,224.29,0,0,1,15-33.53c2.85-5.25,5.91-10.4,9.17-15.4,1.5-2.3,3-4.57,4.64-6.8.78-1.09,1.57-2.16,2.36-3.24.4-.52.79-1.05,1.2-1.57-.87,1.11-.22.28.29-.34a147.62,147.62,0,0,1,11.88-13c1.88-1.78,3.84-3.45,5.82-5.1,1.18-1-.54.41-.65.49.55-.41,1.1-.82,1.66-1.22,1.09-.77,2.2-1.5,3.33-2.21,6.15-3.89,8.61-12,4.84-18.47-3.59-6.13-12.29-8.75-18.47-4.84Z" class="cls-15"></path><path d="M298.06,1041.69c1.75,1.08,3.42,2.24,5.11,3.4,2.1,1.43-1.31-1.16.68.51,1.14,1,2.29,1.9,3.41,2.89a123.18,123.18,0,0,1,10.55,10.64q2.55,2.89,5,5.9c.41.52.83,1,1.23,1.55-.18-.23-1-1.32-.08-.08s1.88,2.54,2.8,3.83q5.34,7.49,10,15.42A227.74,227.74,0,0,1,364.13,1156a154.63,154.63,0,0,1,3.53,40.51c-.31,7.29,6.42,13.5,13.5,13.5,7.57,0,13.19-6.18,13.5-13.5,1.16-27.72-4.8-55.82-14.48-81.69s-22.72-50.23-40.37-71.4c-8.05-9.65-17.38-18.46-28.12-25-6.22-3.81-14.85-1.36-18.47,4.84a13.69,13.69,0,0,0,4.84,18.47Z" class="cls-15"></path><path d="M827.14,944.15c13.35,4.08,22.74,7.06,34.18,13.8,2.72,1.6,5.33,3.35,7.9,5.18,3.43,2.45-1.61-1.53,1.61,1.27,1.42,1.23,2.85,2.44,4.22,3.72A87.62,87.62,0,0,1,887.74,983c4.11,6,11.85,8.71,18.47,4.85,5.95-3.49,9-12.43,4.84-18.47-9.36-13.66-20.73-25.4-34.95-34-12.9-7.83-27.42-12.81-41.78-17.21-7-2.13-14.71,2.55-16.61,9.43a13.73,13.73,0,0,0,9.43,16.61Z" class="cls-15"></path><path d="M904,975.05c-97.85-12.66-195.4,32.17-271.26,90.64A556.37,556.37,0,0,0,571.84,1120c-8.05,8.34,4.66,21.08,12.73,12.73a527.6,527.6,0,0,1,109.74-87.28c40.9-24.33,85.58-43,132.68-50.88a262.2,262.2,0,0,1,77-1.53c4.83.62,9-4.59,9-9,0-5.38-4.16-8.38-9-9Z" class="cls-15"></path><path d="M320.9,918.11c-14.36,4.4-28.88,9.38-41.78,17.21-14.21,8.63-25.59,20.37-35,34-4.12,6-1.13,15,4.85,18.47,6.68,3.91,14.33,1.18,18.47-4.85,14.94-21.81,35.55-31.15,60.59-38.82a13.78,13.78,0,0,0,9.43-16.61c-1.9-6.89-9.61-11.57-16.61-9.43Z" class="cls-15"></path><path d="M251.23,993.05c94.67-12.25,188.35,31,261.65,87.77a541.69,541.69,0,0,1,57.78,51.92c8.06,8.35,20.77-4.39,12.72-12.73a546.1,546.1,0,0,0-114.09-90.52c-41.91-24.83-88.06-44.17-136.27-52.27-27.06-4.54-54.54-5.7-81.79-2.17-4.82.62-9,3.69-9,9,0,4.38,4.15,9.63,9,9Z" class="cls-15"></path><circle r="13.06" cy="1173.7" cx="578.13" class="cls-16"></circle><path d="M586.69,1173.7c-.56,10.93-17.12,11.11-17.12,0s16.56-10.93,17.12,0c.29,5.76,9.29,5.8,9,0-.48-9.52-7.67-17.56-17.56-17.56a17.56,17.56,0,1,0,0,35.12c9.89,0,17.08-8,17.56-17.56C596,1167.91,587,1167.93,586.69,1173.7Z" class="cls-17"></path><path d="M468.7,140.38a96.37,96.37,0,0,0-9.15,80c1.82,5.47,10.52,3.13,8.68-2.39a87.5,87.5,0,0,1,8.24-73c3-5-4.77-9.49-7.77-4.54Z" class="cls-18"></path><path d="M652.13,155.86a125.6,125.6,0,0,1,18.43,48c1,5.7,9.63,3.28,8.68-2.4a131.85,131.85,0,0,0-19.34-50.13c-3.14-4.84-10.94-.34-7.77,4.54Z" class="cls-18"></path><path d="M406.82,240.75l-5.55,12.75c-1,2.23-.65,4.83,1.62,6.16,1.9,1.11,5.18.63,6.15-1.61l5.55-12.75c1-2.23.66-4.83-1.61-6.16-1.91-1.11-5.19-.63-6.16,1.61Z" class="cls-18"></path><path d="M536,211.94v11.3c0,5.79,9,5.8,9,0v-11.3c0-5.79-9-5.8-9,0Z" class="cls-18"></path><path d="M625.72,208.5a65.49,65.49,0,0,1,6.34,18.78c1,5.69,9.7,3.28,8.68-2.4A73.47,73.47,0,0,0,633.49,204c-2.68-5.13-10.45-.59-7.77,4.55Z" class="cls-18"></path><path d="M728.33,213.06a17,17,0,0,0,4.22,15.62c4,4.24,10.32-2.13,6.36-6.36a7.55,7.55,0,0,1-1.9-6.87c1.28-5.64-7.4-8-8.68-2.39Z" class="cls-18"></path><path d="M472.77,217.62l-1.39,11.3c-.3,2.41,2.28,4.5,4.5,4.5,2.68,0,4.2-2.08,4.5-4.5l1.39-11.3c.3-2.41-2.28-4.5-4.5-4.5-2.68,0-4.2,2.08-4.5,4.5Z" class="cls-18"></path></g><g id="线"><path d="M167.47,1202.27c34.53-61.64,76.59-119.37,128.06-168q19.47-18.39,40.63-34.84c4.57-3.55-1.84-9.88-6.36-6.37-53.58,41.62-98.76,93.2-136.38,149.49q-18,26.9-33.72,55.18c-2.83,5.06,4.94,9.6,7.77,4.54Z" class="cls-10"></path><path d="M844.92,996.38c55.72,41.27,103.21,93.05,143,149.66q18.8,26.74,35.45,54.9c3,5,10.74.45,7.77-4.54-37.81-63.55-83.42-123-138.51-172.55q-20.73-18.65-43.17-35.24c-4.66-3.45-9.15,4.36-4.54,7.77Z" class="cls-10"></path><path d="M980,783.33c-7.22,23.23-21.34,42.73-40.53,57.59-18.42,14.25-39.78,24.2-60.81,33.92-5.25,2.42-.69,10.18,4.54,7.77,22.2-10.26,44.46-20.87,63.7-36.17a124.05,124.05,0,0,0,41.78-60.71c1.72-5.55-7-7.92-8.68-2.4Z" class="cls-10"></path><path d="M761.74,170.35c73.5,19.93,144.48,54.52,198.11,109.56,52.83,54.22,83.21,125.29,89.95,200.41a361.16,361.16,0,0,1-.37,71.5c-3.22,29.75-9.53,59.14-16.36,88.24-1.32,5.63,7.35,8,8.68,2.39,11.42-48.65,20.8-97.8,18.07-148-2.18-39.94-10.14-79.67-25.28-116.75-28.54-69.89-81-126.1-145.59-164.44-38.84-23.08-81.27-39.8-124.82-51.61-5.59-1.52-8,7.16-2.39,8.68Z" class="cls-10"></path><path d="M199.56,296.27C241.71,248.59,295.73,213,354.4,188.92c5.29-2.17,3-10.88-2.39-8.67C291.89,204.93,236.42,241,193.2,289.91c-3.82,4.32,2.52,10.71,6.36,6.36Z" class="cls-10"></path><path d="M135.86,650c-5.43-21.13-11.83-42-16.24-63.36-4.8-23.31-6-46.73-5.14-70.48,1.48-43.33,10.09-86.44,26.73-126.55a338.91,338.91,0,0,1,32.66-60.21c3.26-4.81-4.53-9.32-7.77-4.54a348.4,348.4,0,0,0-50.61,115.28c-10.46,44.28-14.3,92.54-6.68,137.56,4.29,25.34,12,49.85,18.37,74.69,1.44,5.6,10.12,3.23,8.68-2.39Z" class="cls-10"></path><path d="M290.89,888.66c-19.11-9.06-38.52-18.1-55.95-30.19a124.68,124.68,0,0,1-38.17-41.64c-6.45-11.54-11.13-23.89-15-36.5-1.68-5.53-10.37-3.17-8.68,2.39,6.55,21.54,15.77,42.35,30.43,59.64,12.9,15.22,29.53,26.6,46.9,36.14,11.72,6.45,23.82,12.2,35.9,17.93,5.21,2.47,9.78-5.28,4.54-7.77Z" class="cls-10"></path><path d="M248.46,631.53c-9.64-18.2-30.57-26.31-50.29-26.4-22.32-.11-44.91,9.44-59.49,26.51-19.91,23.31-21.45,54.63-15.12,83.42,6.38,29,21.26,58.35,50.26,69.88,23.88,9.5,51.77,3.91,73-9.48,4.89-3.08.38-10.87-4.54-7.77-16.66,10.5-37.53,15.94-57,11.41-26-6-41.75-28.63-49.42-52.88-8.39-26.5-11.26-57.64,4.58-82,11-16.85,30-27.64,49.87-29.7,18.93-2,40.87,3.58,50.39,21.56,2.71,5.12,10.48.58,7.77-4.54Z" class="cls-10"></path><path d="M935.24,635.51c8.22-15.53,26-21.94,42.76-21.79A68.56,68.56,0,0,1,1029.83,638c17.66,21.28,17.89,50.49,12,76.18s-19,53.07-45.26,62.72c-21.44,7.87-45.55,2.72-64.46-9.2-4.91-3.09-9.44,4.69-4.54,7.77,18.94,11.94,42.77,17.55,64.79,12.12,28.4-7,46.08-31.68,54.67-58.3,9.37-29,12-63.65-5.38-90.3-12.63-19.37-33.78-31.43-56.61-33.86-21.87-2.32-46.73,5.36-57.57,25.84-2.71,5.12,5,9.67,7.77,4.55Z" class="cls-10"></path><path d="M250.28,648c-.46-25.31-2.11-50.81-8.43-75.41-1.44-5.6-10.13-3.23-8.68,2.39,6.12,23.85,7.67,48.49,8.11,73,.11,5.78,9.11,5.8,9,0Z" class="cls-10"></path><path d="M687.74,963.78c-57.36,8.41-116.18,10-174,6.9-45-2.41-90.49-8.27-133.19-23.16-29.13-10.17-57.09-25.16-78.92-47.27-17.71-17.92-30.43-40-38.26-63.86S252.16,787.17,250.78,762c-.18-3.24-.32-6.48-.44-9.73-.22-5.77-9.22-5.8-9,0,1,26.33,3.62,52.86,10.82,78.28,7.11,25.11,18.92,48.71,36.07,68.48,20.27,23.38,47,40,75.4,51.65,40.65,16.72,84.89,23.91,128.48,27.51a891.3,891.3,0,0,0,178.44-3.14q9.81-1.17,19.59-2.62c5.71-.83,3.28-9.51-2.4-8.67Z" class="cls-10"></path><path d="M923.67,748.79c-3.23,34.61-10.77,69.35-27.76,100C876,884.6,844.46,911.19,808,929.18c-28.33,14-58.92,22.92-89.79,29.27-5.67,1.16-3.27,9.84,2.39,8.67,50.8-10.44,102-28.4,141.73-62.87,29-25.21,48.92-58.56,59.58-95.32,5.69-19.6,8.85-39.85,10.75-60.14.53-5.77-8.47-5.73-9,0Z" class="cls-10"></path><path d="M932.52,586.7c-4.07,18.75-5.21,38-5.75,57.12-.17,5.8,8.83,5.79,9,0,.52-18.33,1.53-36.75,5.43-54.73,1.22-5.64-7.45-8.06-8.68-2.39Z" class="cls-10"></path><path d="M773.16,485.06c25.31,10.72,49.51,24.59,72.21,40,26,17.7,52.34,38.73,69.12,65.81,7.92,12.78,13.28,27.11,12.36,42.33-.35,5.78,8.65,5.76,9,0,1.81-29.93-17.68-56.54-37.72-76.73-23.58-23.76-51.85-43-80.9-59.46a386.45,386.45,0,0,0-39.53-19.76c-5.27-2.23-9.87,5.52-4.54,7.77Z" class="cls-10"></path><path d="M251.48,642.45c21.11-66.71,74.65-116.54,134.48-149.7a461.07,461.07,0,0,1,98.17-40c33.45-9.46,68.67-16.46,103.53-17,53.45-.83,104.71,16.38,153.68,36.14,5.37,2.17,7.7-6.54,2.39-8.68-44.71-18-91.11-33.8-139.66-36.18-37.28-1.83-75.38,4.78-111.38,14.09C423.59,459,355.25,491.29,304.15,542c-27.72,27.51-49.53,60.71-61.35,98.06-1.75,5.54,6.94,7.91,8.68,2.39Z" class="cls-10"></path><path d="M646.24,969.59c-21.37,23.7-39.09,51.67-53.57,80a361.86,361.86,0,0,0-18.88,43.66h8.68a469.22,469.22,0,0,0-47.73-86.84,378.76,378.76,0,0,0-26.63-34.91c-3.83-4.35-10.18,2-6.36,6.37A359.86,359.86,0,0,1,527,1010.92c18.36,26.55,34.43,54.85,46.82,84.69,1.69,4.07,7.1,4.43,8.68,0,10.85-30.51,26.25-59.29,44.45-86C634.83,998,643.17,986.41,652.6,976c3.87-4.29-2.48-10.68-6.36-6.37Z" class="cls-10"></path><path d="M324.15,919.65c-17.93.21-35.68,9.22-49.82,19.63-17.23,12.67-31.54,29.55-38.39,50a4.52,4.52,0,0,0,4.34,5.69,381.34,381.34,0,0,1,143.55,20.27c45.79,15.75,88.37,40,126.86,69.19a599.21,599.21,0,0,1,64.26,57,4.56,4.56,0,0,0,6.36,0C649.7,1072,734.8,1016.8,832.07,999.88A377.33,377.33,0,0,1,916,995a4.52,4.52,0,0,0,4.34-5.69c-6.85-20.48-21.17-37.36-38.4-50-14.14-10.4-31.88-19.42-49.82-19.63-5.79-.07-5.8,8.93,0,9,15.93.19,31.59,8.55,44.2,17.62,15.71,11.29,29.14,26.91,35.34,45.43L916,986a388.46,388.46,0,0,0-147.4,21.1c-46.5,16.19-89.76,40.71-128.82,70.56A614.29,614.29,0,0,0,575,1135.08h6.36c-69.73-70.85-157-127.29-256.27-144.14A387.46,387.46,0,0,0,240.28,986l4.34,5.7c6.19-18.53,19.62-34.13,35.33-45.43,12.61-9.08,28.29-17.43,44.2-17.62,5.79-.07,5.81-9.07,0-9Z" class="cls-10"></path><path d="M360.06,266.06c-12.17-17.18-11.71-39.88-7.39-59.64a166.84,166.84,0,0,1,31.16-65.83c25.55-32.94,65.85-53,105.4-63.74A283.62,283.62,0,0,1,610,71.08c37.94,6.41,75.54,20.59,105.83,44.76,29.53,23.56,50.43,55.94,57.66,93.19,1,4.91,1.65,9.85,2.14,14.83.57,5.71,9.57,5.76,9,0a165.14,165.14,0,0,0-51.57-105C703.48,91.17,665.28,73.72,626,65.05a294.77,294.77,0,0,0-127.15.16c-41,9.15-84.14,28-113.1,59.27a177,177,0,0,0-38.17,66.25c-6.68,21.07-10.15,45.8-2.05,67a58,58,0,0,0,6.78,12.87c3.32,4.69,11.13.2,7.77-4.54Z" class="cls-10"></path><path d="M358.45,272.22c45.9-29.49,98-47.47,151.64-56.55,56.19-9.52,113.83-9.5,170.41-3.65a871.59,871.59,0,0,1,98.44,16.17c5.64,1.25,8-7.42,2.39-8.67C723.42,206.71,664.15,199,604.78,199.05c-56.55.08-113.64,7.28-167.34,25.49a380.94,380.94,0,0,0-83.54,39.9c-4.85,3.12-.35,10.92,4.55,7.78Z" class="cls-10"></path><path d="M355,264c-18.45,2.95-49.39,13.28-45.1,37.8,3.24,18.53,24.71,25.19,40.94,21.62,14.86-3.27,27.19-13.72,36.59-25.22l-7.07-.91c4.14,9.29,10.47,18.12,20.14,22.13,7.91,3.28,16.58,2.62,24.35-.72,16.15-6.93,28.06-23.82,28.95-41.37l-8.39,2.27c10.13,19.4,30.47,28.34,51.77,25.07,21.87-3.35,41.22-18.37,50.9-38.09h-7.77c16.06,22.75,39.88,37.36,68.39,34,13-1.54,25-6.71,33.63-16.82,8.26-9.62,13-21.54,16.7-33.51l-7.52,2c18.14,18.21,43,43.52,71.32,37.51,24.24-5.13,37.47-28.87,36.39-52.35l-8.38,2.27c12.78,17.29,37.95,36.25,61,29.52,22.69-6.62,18.44-38.65,1.19-49-10.72-6.46-24.34-6-35.17-.15-5.09,2.75-.56,10.53,4.54,7.77,9.14-4.93,21.36-4.66,29.31,2.53,6.64,6,10.22,19.89,3.3,27-6.27,6.46-17.75,4.06-25.2,1.47-12.46-4.31-23.43-13.13-31.22-23.67-2.42-3.28-8.61-2.62-8.39,2.27.92,20-9.77,40.18-30.83,43.88-9.94,1.75-18.87-1.69-27.27-6.78-12.75-7.72-23.77-18.11-34.25-28.62a4.54,4.54,0,0,0-7.52,2c-3.16,10.22-7.05,20.71-14,29-7.43,8.95-17.55,13.63-29,14.83-24.76,2.58-45.27-9.87-59.27-29.7-1.78-2.53-6.16-3.28-7.77,0-8.43,17.18-24.41,30-43.34,33.6-18.12,3.42-35.2-4.13-43.78-20.57-2.18-4.17-8.18-1.94-8.39,2.27-.7,13.7-10.33,27-22.65,32.78-5.59,2.62-12.1,3.49-17.95,1.16-8-3.18-12.73-11-16.07-18.52-1.11-2.51-5.35-3-7.06-.91-11.5,14.06-30.94,29.57-50.31,21.71-11.48-4.65-16.31-17.3-7.37-26.79,8.54-9.07,22.19-12.19,34-14.08,5.71-.91,3.29-9.59-2.39-8.68Z" class="cls-10"></path><path d="M700.44,967.2a6.71,6.71,0,0,1,.79.81l-.7-.91a6.9,6.9,0,0,1,.75,1.25l-.46-1.07c.07.15.12.3.18.45a4.76,4.76,0,0,0,2.07,2.69,4.59,4.59,0,0,0,3.46.45,4.53,4.53,0,0,0,2.69-2.06,4.45,4.45,0,0,0,.46-3.47,10.3,10.3,0,0,0-2.88-4.5,4.78,4.78,0,0,0-3.18-1.32,4.57,4.57,0,0,0-3.18,1.32,4.51,4.51,0,0,0-1.32,3.18,4.45,4.45,0,0,0,1.32,3.18Z" class="cls-10"></path><path d="M754.93,467.19c-.74,2.66-1.41,5.34-2,8a4.6,4.6,0,0,0,3.14,5.54,4.55,4.55,0,0,0,5.54-3.14c.58-2.7,1.25-5.38,2-8,1.56-5.58-7.12-8-8.68-2.39Z" class="cls-10"></path><path d="M177.36,310.21a11,11,0,0,1,7.39,4.1c1.58,1.85,4.74,1.62,6.36,0a4.59,4.59,0,0,0,0-6.36,20,20,0,0,0-13.75-6.74c-2.43-.2-4.5,2.22-4.5,4.5a4.59,4.59,0,0,0,4.5,4.5Z" class="cls-10"></path></g><g id="erding"><path d="M944,748.09a70.44,70.44,0,0,0-6.08,23,102.47,102.47,0,0,0,0,15c.68,12.51,10.55,24.6,24,24,12.42-.56,24.73-10.57,24-24-.21-3.82-.41-7.65-.26-11.47,0-.88.07-1.76.15-2.63q-.76,4.78-.28,2.06c.38-1.42,2.38-7.53-.1-1.71,2.63-6.19,4.28-11.7,2.42-18.49-1.54-5.57-5.84-11.6-11-14.34-10.3-5.44-27.59-3.73-32.84,8.61Z" class="cls-15"></path><path d="M939.62,746.89c-8.35,20-13.45,56.23,12.37,66,10.26,3.89,22.16.5,30-6.84a26.48,26.48,0,0,0,7.78-13.29c1.52-6.77,0-13.94.5-20.82.36-5-8-6.23-8.84-1.2-.22,1.41-.44,2.82-.63,4.24-.67,5.06,7.67,6,8.84,1.2.58-2.41,1.8-5.05,1.28-7.55-.86-4.09-6.2-4-8.23-1.08a14.75,14.75,0,0,0-1.19,2.47l8.23,3.47c3.49-8.45,4.68-16.94.65-25.47a27.24,27.24,0,0,0-16.56-14.6c-12.33-3.79-28,0-33.77,12.37-2.44,5.22,5.32,9.79,7.78,4.55,3.95-8.45,13.95-10.78,22.48-8.56a18.25,18.25,0,0,1,12,10.09c3.14,6.55,1.4,12.87-1.23,19.23-1.94,4.66,6.18,8.13,8.22,3.46a14.75,14.75,0,0,1,1.19-2.47L982.26,771c-.61-2.89-.26-1.19-.71.5-.2.76-.38,1.5-.57,2.26l8.84,1.2a16.6,16.6,0,0,0,.31-1.85L981.29,772c-.68,9.32,2.39,19.29-4.69,26.81-5.8,6.15-15.86,9-23.53,4.78-8.32-4.6-10.59-13.35-10.89-22.17a74.65,74.65,0,0,1,6.12-32.1C950.53,744,941.83,741.62,939.62,746.89Z"></path><path d="M196,748.09a70.44,70.44,0,0,0-6.08,23,102.47,102.47,0,0,0,0,15c.68,12.51,10.55,24.6,24,24,12.42-.56,24.73-10.57,24-24-.21-3.82-.41-7.65-.26-11.47,0-.88.08-1.76.15-2.63q-.76,4.78-.27,2.06c.38-1.42,2.37-7.53-.11-1.71,2.64-6.19,4.29-11.7,2.42-18.49-1.54-5.57-5.84-11.6-11-14.34-10.3-5.44-27.58-3.73-32.84,8.61Z" class="cls-15"></path><path d="M191.65,746.89c-8.35,20-13.45,56.23,12.37,66,10.26,3.89,22.16.5,30-6.84a26.48,26.48,0,0,0,7.78-13.29c1.52-6.77,0-13.94.5-20.82.37-5-8-6.23-8.84-1.2-.22,1.41-.44,2.82-.63,4.24-.67,5.06,7.67,6,8.84,1.2.59-2.41,1.8-5.05,1.28-7.55-.86-4.09-6.19-4-8.23-1.08a14.75,14.75,0,0,0-1.19,2.47l8.23,3.47c3.5-8.45,4.69-16.94.65-25.47a27.22,27.22,0,0,0-16.56-14.6c-12.33-3.79-28,0-33.76,12.37-2.45,5.22,5.31,9.79,7.77,4.55,4-8.45,14-10.78,22.49-8.56a18.23,18.23,0,0,1,12,10.09c3.14,6.55,1.4,12.87-1.23,19.23-1.94,4.66,6.18,8.13,8.22,3.46a14.75,14.75,0,0,1,1.19-2.47L234.29,771c-.6-2.89-.26-1.19-.71.5-.2.76-.38,1.5-.57,2.26l8.84,1.2a16.6,16.6,0,0,0,.31-1.85L233.32,772c-.68,9.32,2.39,19.29-4.69,26.81-5.8,6.15-15.86,9-23.52,4.78-8.33-4.6-10.6-13.35-10.89-22.17a74.5,74.5,0,0,1,6.11-32.1C202.56,744,193.86,741.62,191.65,746.89Z"></path></g></g></svg>