<svg viewBox="0 0 1200 1200" xmlns="http://www.w3.org/2000/svg"><defs><style>.cls-1{isolation:isolate;}.cls-2{fill:#ededf4;}.cls-3{fill:#dcdcf7;}.cls-4{fill:#95bc2a;}.cls-5{fill:#b27042;}.cls-6{fill:#86af45;}.cls-7{fill:#c0dd7a;}.cls-8{fill:#ffeae1;}.cls-9{fill:#ffb9a4;}.cls-10{fill:#331403;}.cls-11{mix-blend-mode:multiply;}.cls-12{fill:#eab394;}.cls-13{fill:#f9bca5;}.cls-14{opacity:0.67;}.cls-15{fill:#d3946a;}.cls-16{fill:#f3fdff;}.cls-17{fill:#5ea520;}</style></defs><title>touxiang</title><g class="cls-1"><g id="bg"><rect transform="translate(-1.22 1.22) rotate(-0.12)" height="1197.57" width="1197.57" y="1.21" x="1.21" class="cls-2"></rect><rect transform="translate(-0.61 0.15) rotate(-0.12)" height="598.5" width="149.7" y="2.57" x="0.61" class="cls-3"></rect><rect transform="translate(-1.83 0.46) rotate(-0.12)" height="598.5" width="149.69" y="600.76" x="151.52" class="cls-3"></rect><rect transform="translate(-0.61 0.76) rotate(-0.12)" height="598.5" width="149.7" y="1.96" x="300" class="cls-3"></rect><rect transform="translate(-1.82 1.07) rotate(-0.12)" height="598.5" width="149.69" y="600.15" x="450.91" class="cls-3"></rect><rect transform="translate(-0.61 1.37) rotate(-0.12)" height="598.5" width="149.7" y="1.35" x="599.39" class="cls-3"></rect><rect transform="translate(-1.82 1.68) rotate(-0.12)" height="598.5" width="149.7" y="599.54" x="750.31" class="cls-3"></rect><rect transform="translate(-0.61 1.98) rotate(-0.12)" height="598.5" width="149.69" y="0.74" x="898.79" class="cls-3"></rect><rect transform="translate(-1.82 2.29) rotate(-0.12)" height="598.5" width="149.7" y="598.94" x="1049.69" class="cls-3"></rect></g><g id="涂色"><path d="M242.27,683.06C75.34,55.82,1114.61-20.17,1016.87,662.49" class="cls-4"></path><path d="M647.23,724c23.89.48,46.6,2.25,67.16,4.65l15,2.12c2.43.36,4.82.68,7.17,1.05l6.91,1.25,13.1,2.39c4.18.87,8.17,1.8,12,2.64s7.47,1.63,10.88,2.52l9.61,2.61,8.34,2.29c2.55.77,4.85,1.57,6.93,2.25,8.31,2.75,12.84,4.41,12.75,4.71s-4.81-.8-13.24-3c-2.1-.55-4.43-1.21-7-1.86l-8.4-1.93-9.65-2.25c-3.41-.78-7.07-1.41-10.88-2.19s-7.81-1.58-12-2.35l-13.07-2.12-6.88-1.13c-2.34-.33-4.72-.61-7.14-.93l-14.9-1.92c-20.45-2.16-43-3.79-66.75-4.27-23.73-.31-46.33.62-66.84,2.15l-14.95,1.47c-2.42.26-4.82.43-7.16.74l-6.91.93-13.12,1.74-12,2-5.61.95c-1.83.32-3.61.58-5.32,1l-9.69,2-8.44,1.74L490,745c-8.47,2.06-13.2,3.06-13.29,2.77s4.48-1.87,12.83-4.46c2.1-.64,4.42-1.37,7-2.11l8.4-2.1,9.67-2.38c1.7-.45,3.49-.77,5.31-1.13l5.62-1.11,12.06-2.35,13.17-2,6.94-1c2.35-.35,4.76-.56,7.2-.85l15-1.67C600.57,724.78,623.33,723.72,647.23,724Z"></path><ellipse ry="161.41" rx="2.25" cy="782.47" cx="644.52"></ellipse><path d="M280.32,818.27c-31.22,2.47-34.84,45.74-24.2,73.8-18.4,9.24-38.16,31.83-15,100.84-18.86,6-29.15,36.73-10.23,79l.21,4c-1,.89-46.73,51.57-46.73,51.57s77.26,30.13,102.18,31.47c-.31-26.12-1.7-38.08-10.74-62.58,65.79-22.66,54.66-77,48.6-99.85,22.13-2.45,38.45-48.17,35.84-66.92,16.84-9.36,29.49-39.55,24.77-56.2l513.19-3.25c-4.72,16.65,7.93,46.84,24.77,56.19-2.61,18.76,13.71,64.47,35.84,66.92-6.06,22.89-17.19,77.2,48.6,99.85-9,24.51-10.43,36.47-10.74,62.58,24.92-1.33,102.18-31.47,102.18-31.47s-45.69-50.67-46.73-51.56l.21-4.06c18.92-42.27,8.63-73-10.23-79,23.12-69,3.36-91.59-15-100.83,10.63-28.06,7-71.34-24.2-73.8l-26.3-156.91c19.14-57.2,5.62-203.12-22.78-250.63C942,387.8,915.64,355.76,904.58,334c-10.42-20.46-3.15-48.45-12.65-68.22C869.3,218.69,817,218.69,784.49,235c-35.81-94.4-169.26-123.69-249-81.25-26.41,14.07-32.7,35.84-50.13,53.48-52.39,53-118.82-21.73-160.68,61.56C308,302,314.17,334.43,291.51,367.64c-15.31,22.45-43.33,45.61-56.82,73.54-28.24,58.45,2.46,162.18,33.42,217.26Z" class="cls-5"></path><path d="M758.92,1001.67a10.75,10.75,0,0,0,0-3.58c-1-5.93-1-14-8.56-15.15-2.85-.43-5.72.68-8.57.83a33.15,33.15,0,0,1-9.37-.84c-5.3-1.23-9,2.43-9.91,6.55a282.73,282.73,0,0,0-164.18,5.28c-.83-3.54-4.12-6.73-7.93-6.45a50.92,50.92,0,0,0-7,.93,8.71,8.71,0,0,0-6.48-3.25c-4.74,0-7.74,3.74-8.14,8.13a29,29,0,0,1-2.12,8,6.46,6.46,0,0,0,.17,5.24c-71.48,33.14-137.56,96.1-189.38,188.84l629.31-1C908.63,1097.24,835.9,1032.82,758.92,1001.67Z" class="cls-6"></path><path d="M712.86,994.88a1433.41,1433.41,0,0,0-31,201.28l-65.33-.44c-11.53-60-29.73-134.7-40.88-198Z" class="cls-7"></path><path d="M810,350.8l2.49,28.49A46.49,46.49,0,0,0,810,350.8Z" class="cls-8"></path><path d="M967,665.44l-.69,10.67a205.89,205.89,0,0,1-39.47-1.64c-3-.42-6.27-1.06-8.15-3.43-3.57-4.49.48-11,4.86-14.72s9.83-8,9.1-13.7c-.46-3.53-3.25-6.24-5.87-8.64l-24-22c-3.4-3.12-6.88-6.34-8.85-10.51-6.58-14,6.62-30.15,4-45.41-3.37-20-30.72-27.43-37.09-46.66-5.34-16.12,5.15-37.39-7.24-49-6.14-5.76-15.45-6.15-23.12-9.62-14.29-6.47-21.49-25.27-15.18-39.63l-2.79-31.86c-5.27,24.67-28.07,46.61-53.89,45-7.66-.46-15.37-2.59-22.89-1.1-12.59,2.49-20.89,14-30.24,22.83a83.57,83.57,0,0,1-67.72,21.53c-4.83-.68-10-1.74-14.4.33-6.65,3.12-8.39,11.51-10.93,18.4-8.23,22.31-34.33,36.35-57.47,30.91-7.27-1.71-14.23-5.08-21.7-5.33-6-.2-11.81,1.62-17.51,3.42L474,528.54c-17.08,5.4-34.52,11-48.83,21.75-11.25,8.47-20.27,19.94-32.64,26.66a52,52,0,0,1-50.67-1.16l-17.21,43.26c5.3,20.24,7.11,42.62,7.59,66.06-2-6.44-3.46-10.74-3.46-10.74-22.2-42.86-125-25.54-108.93,66.58,14.53,83.19,74.72,82.17,108.93,60.39,0,0,1.61-4.62,3.82-11.44,4.81,97.54,39,187.16,243.87,198.91-2.37.25-4.74.6-7.1,1,4.06,1.58,6.52,5.56,7,10.13.57,5.29,2.3,13.42,3.11,18.66,17.28,9.43,39.87,12.26,65.88,12,24.22-.25,46.26-5.63,63-14.28a125.61,125.61,0,0,0,4-18.83c.63-5.48,3.64-9.72,9.25-10.65.21-.08.43-.12.64-.19-2.61-.38-5.22-.7-7.83-.9,185-19.42,232.19-101,244.59-186.94.81,1.61,1.33,2.52,1.33,2.52,34.21,21.78,94.39,22.8,108.93-60.39C1084,656.08,998,634.76,967,665.44Z" class="cls-8"></path><path d="M964.62,667.94c.74-.88,1.54-1.7,2.36-2.5l2.15-33.37A228.33,228.33,0,0,0,964.62,667.94Z" class="cls-8"></path><ellipse ry="107.17" rx="111.65" cy="851.85" cx="465.61" class="cls-9"></ellipse><ellipse ry="107.17" rx="111.65" cy="848.6" cx="805.47" class="cls-9"></ellipse></g><g id="五官"><path d="M540.13,666.91c-27.72-.06-28.36,60.66,3.15,60.66C567.22,727.57,569.37,667,540.13,666.91Z" class="cls-10"></path><path d="M540.13,662.41C511.56,663,509.35,706,523.74,723c7.82,9.24,22.73,12.7,32.17,3.88,9.17-8.57,11.25-23.59,9.85-35.46-1.67-14.25-9.71-28.67-25.63-29-5.79-.13-5.79,8.87,0,9,20.22.46,20.1,33.62,12.11,45.89-4.73,7.27-13.68,7.28-20,1.65-7.14-6.39-8.91-17.48-8.13-26.58s5.33-20.75,16-21C545.91,671.3,545.93,662.3,540.13,662.41Z" class="cls-10"></path><path d="M737.55,666.91c27.72-.06,28.36,60.66-3.15,60.66C710.46,727.57,708.31,667,737.55,666.91Z" class="cls-10"></path><path d="M737.55,671.41c9.24.18,13.75,9,15.41,17,1.89,9.12.65,20.29-5.11,27.88-4.64,6.11-14.47,9.79-20.46,3.51-6.36-6.67-7.45-17.86-6.66-26.59.87-9.68,5.53-21.55,16.82-21.81,5.78-.13,5.8-9.13,0-9-28.38.65-32.15,43.13-18.62,61.24,7.85,10.51,22.22,10.67,32,2.43,9.89-8.38,12.91-23.08,11.47-35.44-1.58-13.67-9.48-27.94-24.8-28.23C731.75,662.3,731.75,671.3,737.55,671.41Z" class="cls-10"></path><path d="M606.73,786.75c18.77,20.06,48.84,20.42,67.84.48,4-4.19-2.35-10.57-6.36-6.36-15.73,16.51-39.61,16.09-55.12-.48-4-4.24-10.32,2.14-6.36,6.36Z" class="cls-10"></path><g class="cls-11"><path d="M507.62,644.11c10.72-4.3,21.64-9.15,33.12-11s21.52,1.13,30.87,7.6c4.78,3.3,9.29-4.5,4.55-7.77-10.06-7-21.54-10.43-33.78-9.07-13,1.45-25.14,6.74-37.15,11.56-5.31,2.13-3,10.83,2.39,8.68Z" class="cls-12"></path></g><g class="cls-11"><path d="M772.45,635.43c-12-4.82-24.17-10.11-37.15-11.56-12.24-1.36-23.72,2.12-33.78,9.07-4.73,3.27-.24,11.07,4.54,7.77,9.36-6.46,19.54-9.42,30.87-7.6,11.49,1.85,22.4,6.7,33.13,11,5.37,2.15,7.71-6.55,2.39-8.68Z" class="cls-12"></path></g></g><g id="细节"><path d="M264.8,732.26c9.26-7.57,22-5.72,29.6,3.07,3.81,4.38,10.15-2,6.36-6.36-11.1-12.78-29.46-13.58-42.32-3.07-4.49,3.67,1.91,10,6.36,6.36Z" class="cls-13"></path><path d="M276.77,723.74a22.11,22.11,0,0,0-8.24,16.06c-.44,5.77,8.56,5.74,9,0a13.55,13.55,0,0,1,5.61-9.7c1.92-1.49,1.56-4.8,0-6.36-1.9-1.9-4.44-1.5-6.37,0Z" class="cls-13"></path><path d="M1030.52,725.9c-12.87-10.51-31.22-9.71-42.33,3.07-3.78,4.35,2.56,10.74,6.37,6.36,7.64-8.79,20.33-10.64,29.6-3.07,4.44,3.64,10.85-2.69,6.36-6.36Z" class="cls-13"></path><path d="M1005.82,730.1a13.55,13.55,0,0,1,5.61,9.7c.44,5.73,9.44,5.78,9,0a22.12,22.12,0,0,0-8.25-16.06c-1.91-1.49-4.49-1.87-6.36,0-1.55,1.55-1.93,4.86,0,6.36Z" class="cls-13"></path><g class="cls-14"><g class="cls-11"><path d="M432.81,827.75l-6,20c-1.68,5.55,7,7.93,8.67,2.39l6-20c1.67-5.55-7-7.93-8.68-2.39Z" class="cls-9"></path></g><g class="cls-11"><path d="M471,827.75l-6,20c-1.67,5.55,7,7.93,8.68,2.39l6-20c1.67-5.55-7-7.93-8.68-2.39Z" class="cls-9"></path></g><g class="cls-11"><path d="M505,827.75l-6,20c-1.67,5.55,7,7.93,8.68,2.39l6-20c1.67-5.55-7-7.93-8.68-2.39Z" class="cls-9"></path></g><g class="cls-11"><path d="M777.66,827.75l-6,20c-1.67,5.55,7,7.93,8.68,2.39l6-20c1.67-5.55-7-7.93-8.68-2.39Z" class="cls-9"></path></g><g class="cls-11"><path d="M815.85,827.75l-6,20c-1.67,5.55,7,7.93,8.68,2.39l6-20c1.67-5.55-7-7.93-8.68-2.39Z" class="cls-9"></path></g><g class="cls-11"><path d="M849.84,827.75l-6,20c-1.67,5.55,7,7.93,8.68,2.39l6-20c1.67-5.55-7-7.93-8.68-2.39Z" class="cls-9"></path></g></g><path d="M574.32,253.48c-31-6.74-65.83-13.39-94.61,4.36-12,7.43-19.89,18.18-25.18,31.14s-8.33,27.69-18.12,38.37c-3.91,4.26,2.44,10.64,6.36,6.36,17.93-19.56,16-50.66,39-66.45,26.77-18.43,60.71-11.51,90.2-5.1,5.65,1.22,8.06-7.45,2.39-8.68Z" class="cls-15"></path><path d="M373.44,404.38c-31.48,17-28.2,60.41-55.09,81.41-4.56,3.56,1.85,9.89,6.37,6.36,13.21-10.31,19.66-26.19,25.92-41.21,6.12-14.69,12.6-30.83,27.34-38.79,5.1-2.75.56-10.52-4.54-7.77Z" class="cls-15"></path><path d="M495.17,418.15a65.12,65.12,0,0,1-31.79,29.09c-5.29,2.3-.72,10.06,4.55,7.77a72.87,72.87,0,0,0,35-32.32c2.75-5.1-5-9.65-7.77-4.54Z" class="cls-15"></path><path d="M647.71,282.7c-21.94-1.61-35.83,19.3-44,36.78-7.85,16.72-18,44-40.85,42.27-5.78-.45-5.75,8.55,0,9,21.93,1.71,35.9-19.2,44.1-36.65,7.86-16.72,18-44.07,40.78-42.4,5.78.42,5.75-8.58,0-9Z" class="cls-15"></path><path d="M754.51,307.4c-13.43,24.73-39,41.8-67.14,44.17-5.73.48-5.78,9.48,0,9,31.28-2.64,59.89-21,74.91-48.62,2.77-5.1-5-9.64-7.77-4.55Z" class="cls-15"></path><path d="M692.29,179.14c-18-9.92-40.19-10.71-58.56-1.27a62.5,62.5,0,0,0-32.07,42.85c-1.13,5.66,7.54,8.08,8.68,2.39A53.86,53.86,0,0,1,637,186.33c15.7-8.61,35.23-8,50.77.58,5.07,2.8,9.62-5,4.54-7.77Z" class="cls-15"></path><path d="M731.18,238a93.67,93.67,0,0,1-43.06,50c-5.07,2.78-.54,10.56,4.55,7.77a103.13,103.13,0,0,0,47.19-55.43c2-5.45-6.72-7.8-8.68-2.39Z" class="cls-15"></path><path d="M385.11,284.06c-31.43,18-48.69,55.12-42.87,90.71.94,5.7,9.61,3.29,8.68-2.39-5.17-31.59,11.06-64.73,38.73-80.55,5-2.88.5-10.65-4.54-7.77Z" class="cls-15"></path><path d="M485.92,341.24a126.27,126.27,0,0,0-46.27,50.81c-2.57,5.17,5.2,9.74,7.78,4.54a117.56,117.56,0,0,1,43-47.58c4.91-3.06.39-10.85-4.54-7.77Z" class="cls-15"></path><path d="M396.76,477.63c1.27,27.2-21.59,52.56-48.95,53.55-5.78.2-5.8,9.2,0,9,32.06-1.15,59.45-30.36,57.95-62.55-.27-5.77-9.27-5.8-9,0Z" class="cls-15"></path><path d="M278.71,491.52a140.65,140.65,0,0,0-5,108c2,5.39,10.68,3.06,8.68-2.39a131.62,131.62,0,0,1,4.13-101.08c2.46-5.21-5.3-9.79-7.77-4.55Z" class="cls-15"></path><path d="M293.1,401.18A112.72,112.72,0,0,1,258,443.39c-4.64,3.37-.15,11.19,4.54,7.77a121.89,121.89,0,0,0,38.29-45.43c2.51-5.19-5.24-9.76-7.77-4.55Z" class="cls-15"></path><path d="M637.25,393.63c-22,27.16-70.81,33.7-76.42,73.6-.8,5.67,7.87,8.11,8.68,2.39,2.5-17.78,17-29.75,31.49-38.6,15-9.2,31.31-17.06,42.61-31,3.62-4.46-2.71-10.87-6.36-6.36Z" class="cls-15"></path><path d="M868.72,317.22a166.45,166.45,0,0,1-2.43,88c-1.69,5.56,7,7.93,8.68,2.39a175.77,175.77,0,0,0,2.43-92.82c-1.38-5.62-10.06-3.24-8.68,2.39Z" class="cls-15"></path><path d="M892.25,442.93a89.1,89.1,0,0,0,23.45,78.75c4,4.16,10.41-2.21,6.37-6.36a79.68,79.68,0,0,1-21.14-70c1.08-5.66-7.59-8.08-8.68-2.39Z" class="cls-15"></path><path d="M941.94,490.2a83.48,83.48,0,0,1,1.84,64.25c-2,5.42,6.65,7.77,8.68,2.39a92.43,92.43,0,0,0-2.75-71.18c-2.4-5.26-10.16-.69-7.77,4.54Z" class="cls-15"></path><path d="M292,837.36c-25.52,15.32-33.67,52.59-16.15,76.89,3.36,4.65,11.17.16,7.78-4.55-14.65-20.3-8.73-51.58,12.91-64.57,5-3,.44-10.76-4.54-7.77Z" class="cls-15"></path><path d="M262.46,947.09a89.84,89.84,0,0,0,14,77.67c3.41,4.59,11.23.11,7.77-4.54a81.25,81.25,0,0,1-13.1-70.74c1.59-5.58-7.09-8-8.68-2.39Z" class="cls-15"></path><path d="M325.17,928.15A48.82,48.82,0,0,1,298.92,969c-5.14,2.69-.6,10.46,4.54,7.77a57.93,57.93,0,0,0,30.71-48.58c.27-5.79-8.73-5.77-9,0Z" class="cls-15"></path><path d="M948.62,894.58A91.59,91.59,0,0,0,952,929.42c1.63,5.54,10.32,3.18,8.68-2.39a84.94,84.94,0,0,1-3-32.45c.56-5.77-8.45-5.73-9,0Z" class="cls-15"></path><path d="M1003.2,841.66A98.71,98.71,0,0,1,994.84,911c-2.68,5.12,5.08,9.68,7.77,4.54a108.37,108.37,0,0,0,9.27-76.29c-1.38-5.62-10.06-3.24-8.68,2.39Z" class="cls-15"></path><path d="M1021.75,953.26a64.2,64.2,0,0,1-22.09,50.79c-4.37,3.82,2,10.16,6.37,6.37a72.91,72.91,0,0,0,24.72-57.16c-.2-5.77-9.2-5.8-9,0Z" class="cls-15"></path><path d="M955.44,962.48c12.35,12.16,27.46,31.23,47.2,25.15,5.52-1.69,3.16-10.38-2.4-8.68-15.58,4.8-28.81-13.36-38.43-22.83-4.13-4.07-10.5,2.29-6.37,6.36Z" class="cls-15"></path></g><g id="线"><path d="M369.39,913.93a39.72,39.72,0,0,1-11.45,10.66,4.4,4.4,0,0,0-2.23,3.89c1.52,12.25-2.76,25.73-7.78,36.75-4.7,10.33-12.28,24.12-24.76,25.83-2.43.33-3.7,3.43-3.14,5.53,4,15.16,6.4,31.22,2.85,46.72-5.61,24.51-25.5,39.58-48.31,47.6-2.15.75-4,3.12-3.14,5.53,3.58,9.79,6.8,19.72,8.53,30s1.91,20.9,2.05,31.37l4.5-4.5c-8.82-.55-17.6-3.15-26.06-5.54-11.35-3.21-22.56-6.89-33.71-10.72-13.83-4.76-27.59-9.74-41.21-15l2,7.52q17.31-19.2,34.65-38.35,4.35-4.8,8.7-9.57c1.27-1.39,3.18-2.88,4.09-4.56s.69-4.35.4-6.21c-.73-4.86-3.72-9.76-5.26-14.48a88.79,88.79,0,0,1-4.79-27.29c0-12.34,3.77-28.53,17-33,2.21-.76,3.94-3.12,3.14-5.54-9.8-29.56-22.27-77.84,13-95.75a4.54,4.54,0,0,0,2.07-5.08c-7.58-20.46-11-65.15,19.86-68.11,5.71-.55,5.77-9.55,0-9-37.57,3.61-38.61,52.31-28.54,79.5l2.06-5.08c-39.39,20-28.28,72.17-17.1,105.91l3.15-5.53c-13.86,4.7-21,18.25-22.91,32a81.86,81.86,0,0,0,1.52,28.63,114,114,0,0,0,5.05,16.74c1.57,4.11,2.8,5.89,3,10l1.32-3.18c-8.54,7.92-16,17.49-23.76,26.11l-23,25.45c-2.42,2.68-1.21,6.28,2,7.52q21,8.18,42.28,15.42c11.13,3.82,22.34,7.48,33.67,10.65,8.93,2.49,18.13,5,27.42,5.57a4.55,4.55,0,0,0,4.5-4.5c-.14-10.85-.47-21.7-2.15-32.43s-5-21.14-8.75-31.35l-3.15,5.54c20.07-7,39.2-18.92,49-38.47,7.22-14.35,8.73-30.68,6.77-46.46a156.49,156.49,0,0,0-4.05-20.46l-3.15,5.53c14.38-2,24-16.87,29.64-28.86,5.94-12.62,11.26-28.23,9.51-42.39l-2.23,3.88c6-3.52,10.56-8.38,14.68-13.89,3.47-4.64-4.34-9.13-7.77-4.54Z" class="cls-10"></path><path d="M903,910.62c4.56,7.36,10.19,14,17.72,18.49l-2.23-3.89C916.69,939.38,922,955,928,967.61c5.65,12,15.26,26.91,29.64,28.87l-3.15-5.54c-7.91,30-7.36,63.44,17.2,85.87,9.91,9,22,15.1,34.54,19.52l-3.14-5.54c-3.74,10.22-7.06,20.59-8.75,31.36s-2,21.57-2.15,32.42a4.54,4.54,0,0,0,4.5,4.5c9.29-.57,18.49-3.07,27.41-5.57,11.34-3.17,22.54-6.83,33.68-10.64q21.29-7.29,42.28-15.42c3.19-1.24,4.41-4.84,2-7.52q-11.48-12.74-23-25.45c-7.8-8.63-15.22-18.2-23.76-26.12l1.32,3.19c.2-3.86,1.17-5.29,2.67-9.12a116.36,116.36,0,0,0,5.39-17.62,81.61,81.61,0,0,0,1.51-28.63c-1.93-13.79-9.05-27.33-22.9-32l3.15,5.54c11.18-33.75,22.29-85.9-17.11-105.92l2.07,5.08c10.06-27.18,9-75.89-28.54-79.49-5.76-.56-5.72,8.45,0,9,30.82,2.95,27.43,47.64,19.86,68.1a4.51,4.51,0,0,0,2.07,5.08c35.24,17.91,22.76,66.2,13,95.76-.8,2.4.93,4.78,3.14,5.53,11.31,3.84,15.93,16.82,16.78,27.72a78.14,78.14,0,0,1-2.43,25.1,119.54,119.54,0,0,1-4.64,14.4c-1.42,3.62-2.88,6.43-2.93,10.31-.07,5.49,7.32,11,10.74,14.73q11.27,12.42,22.5,24.87l14.74,16.34,2-7.52q-20.43,8-41.21,15c-11.15,3.84-22.36,7.52-33.71,10.72-8.46,2.39-17.24,5-26.06,5.54l4.5,4.5c.14-10.46.31-21,2.05-31.36s4.95-20.24,8.53-30c.88-2.4-1-4.79-3.14-5.54-22.82-8-42.71-23.09-48.32-47.6-3.54-15.5-1.13-31.56,2.86-46.71.56-2.12-.7-5.21-3.14-5.54-12.48-1.7-20.06-15.5-24.76-25.83-5-11-9.3-24.49-7.78-36.75a4.39,4.39,0,0,0-2.23-3.88c-6.22-3.67-10.73-9.19-14.49-15.26-3-4.91-10.83-.4-7.77,4.54Z" class="cls-10"></path><path d="M766.69,1008.59c63.38,28.34,116.32,75.88,158,130.81a613.11,613.11,0,0,1,38.15,56.87c3,5,10.74.45,7.77-4.54-38.3-64.32-87.92-123.37-151-164.51a351.66,351.66,0,0,0-48.36-26.4c-5.25-2.34-9.83,5.41-4.55,7.77Z" class="cls-10"></path><path d="M341.35,1197.24c35.11-62.63,81.38-120.54,141.34-161a340.68,340.68,0,0,1,45.92-26c5.24-2.46.68-10.22-4.54-7.77-62.48,29.25-113.93,77.65-154.13,133.12a582.56,582.56,0,0,0-36.36,57.14c-2.84,5.06,4.93,9.6,7.77,4.54Z" class="cls-10"></path><path d="M965.82,699c.26-22.33.54-45,5.28-66.88,1.23-5.65-7.45-8.06-8.67-2.4-4.92,22.71-5.35,46.14-5.61,69.28-.07,5.79,8.93,5.79,9,0Z" class="cls-10"></path><path d="M325.27,776.45c1.17,43.34,7,88.62,31.44,125.57,31.12,47,85.44,69.57,138.81,80.44,43.87,8.94,89,11.26,133.63,10.95,44.91-.31,90.07-3.27,134.21-11.86,55.52-10.81,113.12-31.7,151.48-75.24,28.37-32.2,41.85-73,47.1-115,.62-4.94,1.12-9.89,1.55-14.85.5-5.77-8.5-5.73-9,0-3.44,39.74-13.13,79.46-36.92,112.17C886.39,931.5,836,954.56,786,967.29c-39.1,9.94-79.45,14.35-119.67,16.18-46.68,2.11-94,1.56-140.31-4.9C470.67,970.86,410.62,954,373.4,909.48c-27.33-32.7-36.1-75.57-38.48-117.08q-.45-8-.65-15.95c-.16-5.78-9.16-5.81-9,0Z" class="cls-10"></path><path d="M317.94,619.07c6.34,24.7,7.39,50.32,7.56,75.72,0,5.78,9,5.8,9,0-.17-26.18-1.35-52.65-7.88-78.12-1.44-5.6-10.12-3.23-8.68,2.4Z" class="cls-10"></path><path d="M332.68,670.92c-8.93-16.82-28.23-24.37-46.48-24.5-20.74-.15-41.77,8.72-55.3,24.6-18.16,21.31-19.8,49.86-14.17,76.22,5.75,26.88,19.35,54.45,46.17,65.34,22.27,9,48.27,4,68.16-8.53,4.89-3.08.38-10.87-4.54-7.77-15.38,9.67-34.63,14.68-52.6,10.4-23.86-5.68-38.19-26.62-45.15-48.92-7.57-24.24-10.11-52.67,4.43-74.9,10-15.37,27.41-25.18,45.55-27.09,17.33-1.82,37.43,3.25,46.16,19.69,2.71,5.12,10.48.58,7.77-4.54Z" class="cls-10"></path><path d="M964.18,675.46c7.59-14.3,24.05-20.11,39.48-20,18.29.08,36.26,8,48.16,22,16.29,19.12,16.74,45.62,11.52,69-5.27,23.58-17.08,49-41.17,58.18-19.77,7.5-42.13,2.74-59.6-8.26-4.92-3.1-9.44,4.69-4.55,7.77,17.65,11.11,39.88,16.3,60.37,11.11,26.51-6.72,42.81-30.06,50.6-55,8.34-26.72,10.5-58.35-5.83-82.6-12-17.77-31.67-28.63-52.82-30.79-20.42-2.08-43.78,5-53.94,24.15-2.71,5.11,5.06,9.67,7.78,4.54Z" class="cls-10"></path><path d="M805.67,350.82c11.94,28.53-10.62,66.06-42,67.85-10.27.58-20.36-3.22-30.58-.62-8.42,2.13-15.24,8-21.24,14-6.75,6.75-13.09,13.54-21.29,18.61a81.21,81.21,0,0,1-27,10.56c-10.09,2-19.76,1.28-29.87.09-8.82-1-16.27,1.77-20.63,9.77-4,7.37-5.21,15.63-10.28,22.55a47.48,47.48,0,0,1-19.44,15.26,44.76,44.76,0,0,1-24.49,3.34c-9.9-1.58-18.85-6.78-29.14-5.93-11,.9-21.82,5.59-32.23,8.88-11,3.48-22,6.87-33,10.45s-22.1,7.65-32.24,13.43c-9.84,5.61-17.88,13.23-26.19,20.82S389,574,377.81,576.35a47.91,47.91,0,0,1-33.68-5.62c-5-2.92-9.56,4.86-4.55,7.77,17.27,10,39.26,10.46,56.62.36,8.79-5.11,16-12.45,23.43-19.23a101.51,101.51,0,0,1,27.2-17.82c10.38-4.63,21.33-7.9,32.15-11.32l36.07-11.4c5.61-1.77,11.37-3.88,17.32-3.87,5.68,0,11,2.16,16.4,3.79a55,55,0,0,0,26.32,1.76c16.61-3,32.28-14.24,39.62-29.57,3.21-6.7,4.33-19.77,13.27-21.11,4.93-.73,10.39,1.06,15.34,1.39a83,83,0,0,0,15.12-.39A89.15,89.15,0,0,0,710.8,446c6.65-6.56,13-14.86,21.92-18.4,10.28-4.06,21.57.89,32.2,0,36-3.1,63.63-45.22,49.43-79.16-2.2-5.26-10.92-2.95-8.68,2.4Z" class="cls-10"></path><path d="M811,408.77c-4.18,10.2-2.77,22.13,2.89,31.5A34.51,34.51,0,0,0,825.33,452c5.16,3.15,11.12,4.32,16.79,6.16,6.3,2.05,11.14,5.56,12.67,12.29,1.28,5.64.58,11.68.22,17.4-.71,11.51-.21,22.42,7,31.91,6.32,8.32,15.2,14,22.58,21.24,3.55,3.5,6.83,7.44,8.3,12.29,1.79,5.92.36,12-1.22,17.83-3.23,11.88-7.37,24.43.71,35.38,4.11,5.57,9.84,10,14.92,14.65,6,5.46,12.28,10.7,17.94,16.47,3.45,3.52,3.45,6.37.08,9.92-2.4,2.52-5.34,4.46-7.61,7.11-4.1,4.81-6.93,11.79-3,17.53,3.85,5.56,11.71,5.7,17.76,6.37a212.74,212.74,0,0,0,28.78,1.14c5.78-.15,5.8-9.15,0-9a213.36,213.36,0,0,1-23-.59c-3.85-.32-7.76-.62-11.56-1.3-4.43-.79-6-2.76-3.3-6.88,3-4.56,8.32-7,11.31-11.71,3.42-5.35,3-11.34-.82-16.34s-9.26-9.05-13.87-13.26c-5.83-5.34-11.95-10.49-17.5-16.12-10.1-10.23-4.33-21.84-1.41-33.88,2.53-10.42,2.06-20.48-4.4-29.36-5.76-7.9-13.9-13.41-21-20-3.52-3.23-6.88-6.72-9.13-11-2.62-4.94-3-10.47-2.88-16,.21-10.61,2.68-22.24-2.36-32.17-6.65-13.1-21.24-11.28-32-18.3s-14.41-21.18-9.69-32.68c2.2-5.36-6.5-7.69-8.68-2.4Z" class="cls-10"></path><path d="M886.67,270.37a344.77,344.77,0,0,1,90,111.59c25,49.44,37.87,104.38,41.24,159.53,2.26,37,.4,74.23-4.33,111-.74,5.73,8.27,5.67,9,0,8.12-63.07,7.64-127.75-7.13-189.84-12-50.62-33.86-98.93-65.62-140.26A351.56,351.56,0,0,0,893,264c-4.45-3.62-10.86,2.71-6.36,6.37Z" class="cls-10"></path><path d="M765.28,205.37a408.37,408.37,0,0,1,51,20.47c5.19,2.51,9.76-5.25,4.54-7.77a426.78,426.78,0,0,0-53.15-21.38c-5.52-1.8-7.89,6.89-2.39,8.68Z" class="cls-10"></path><path d="M252.62,416.84a336.23,336.23,0,0,1,60.95-99.94c3.82-4.34-2.52-10.73-6.36-6.37a348.56,348.56,0,0,0-63.27,103.92c-2.1,5.4,6.6,7.74,8.68,2.39Z" class="cls-10"></path><path d="M244.29,671.71c-11.71-47.88-17.74-97.12-15-146.44.32-5.79-8.68-5.77-9,0-2.74,50.07,3.47,100.22,15.36,148.84,1.38,5.62,10.06,3.24,8.68-2.4Z" class="cls-10"></path><path d="M788.83,232.59C767.05,176,711.5,141.6,653.39,132c-28.7-4.73-58.52-4.06-86.68,3.53-14,3.78-28.47,9.18-40.56,17.36-14.59,9.87-23.72,24.19-34,38.1-9.4,12.74-21.15,23.61-36.57,28.3-12.63,3.84-25.92,3.53-39,2.69-26.41-1.69-53.34-4.11-74.75,14.61-14,12.24-23.22,30.11-28.62,47.65-6.05,19.7-7.56,40.55-15,59.84-14.36,37.13-51.67,59.19-68.19,95.24-13.86,30.24-12.64,65.57-7.67,97.71,5.46,35.38,16.55,70.15,31.69,102.57q4.72,10.13,10.17,19.9c2.82,5.06,10.6.52,7.77-4.54-16.09-28.78-27.63-60.3-35.37-92.3-7.86-32.51-12.74-68.25-4.73-101.22,8.65-35.62,37.57-58.62,59-86.54,12.4-16.17,19.12-34.53,23.3-54.3,4.27-20.18,7.78-40.1,18.4-58.14,7.39-12.55,17.64-23.94,31.64-29,11.82-4.29,24.48-4.22,36.87-3.51,26,1.51,52.78,4.67,75.56-10.82C490,210,498.88,196.94,508.16,184c10.06-14,21.81-24.35,37.57-31.52,25-11.4,53.25-15.43,80.6-14.3,56,2.31,115.33,27.76,144.6,77.66A129.78,129.78,0,0,1,780.15,235c2.05,5.35,10.76,3,8.68-2.39Z" class="cls-10"></path><path d="M786.76,237.67c28.44-14,66.25-13.21,89,11,6.68,7.09,12.32,16,14.8,25.48,2.75,10.53,2.5,21.59,3.34,32.36.81,10.31,2.5,20.41,7.31,29.68,4.44,8.56,9.89,16.6,15.37,24.53,11.15,16.14,23.76,31.54,33.64,48.52,6.57,11.28,10.65,24,14.11,36.46,9.36,33.89,13.8,69.28,15.74,104.32a484.75,484.75,0,0,1-.06,59.54c-1.06,15.55-2.94,31.34-7.84,46.2-1.82,5.52,6.87,7.88,8.68,2.4,10-30.36,9.85-64.65,8.75-96.23-1.29-37.21-5.56-74.83-14.59-111-3.54-14.13-7.83-28.33-14.4-41.39-8.25-16.38-20.41-30.94-31-45.84C923.49,355,917.37,346.24,912,337c-5.79-9.94-8.29-19.92-9.15-31.36-.81-10.83-.75-21.86-3.24-32.5-2.34-10-7.67-19.11-14.08-27-24.93-30.73-69.71-32.83-103.32-16.27-5.2,2.56-.65,10.32,4.54,7.77Z" class="cls-10"></path><path d="M577.42,1047.49c-18.1-8.78-37.76-13.54-57.94-12.38l4.34,5.7q4.93-27.39,9.57-54.82c1-5.67-7.71-8.1-8.67-2.4q-4.65,27.43-9.58,54.82c-.48,2.69,1.19,5.88,4.34,5.7,18.58-1.07,36.69,3.05,53.4,11.15,5.19,2.51,9.76-5.25,4.54-7.77Z" class="cls-10"></path><path d="M753.34,981.42q6.69,27,13.68,53.9l4.34-5.7c-21.19-.58-41.8,4.48-60.77,13.79-5.2,2.55-.65,10.32,4.54,7.77a119.72,119.72,0,0,1,56.23-12.56,4.55,4.55,0,0,0,4.34-5.7Q768.71,1006,762,979c-1.39-5.61-10.07-3.23-8.68,2.4Z" class="cls-10"></path><path d="M620.86,1193.35c-12.74-66.2-29.15-131.64-40.88-198-1-5.69-9.68-3.28-8.67,2.39,11.72,66.4,28.13,131.85,40.87,198,1.09,5.68,9.77,3.27,8.68-2.39Z" class="cls-10"></path><path d="M708.52,992.5A1455.7,1455.7,0,0,0,677.35,1195c-.48,5.78,8.52,5.74,9,0A1439.47,1439.47,0,0,1,717.2,994.9c1.28-5.64-7.4-8-8.68-2.4Z" class="cls-10"></path><path d="M577.2,1021.32c40.31,22,93.83,17.43,133.63-3.47,5.13-2.69.58-10.46-4.55-7.77-36.87,19.37-87.15,23.87-124.54,3.47-5.08-2.78-9.63,5-4.54,7.77Z" class="cls-10"></path><path d="M224,1074.1a127.42,127.42,0,0,0,57.19,17.66c5.79.38,5.76-8.62,0-9a117.42,117.42,0,0,1-52.65-16.43c-5-3-9.52,4.81-4.54,7.77Z" class="cls-4"></path><path d="M215.9,1087.52a95.06,95.06,0,0,0,62.64,18.54c5.75-.37,5.79-9.37,0-9a87.29,87.29,0,0,1-58.09-17.31c-4.65-3.47-9.14,4.34-4.55,7.77Z" class="cls-4"></path><path d="M1060.66,1039.74a101.51,101.51,0,0,1-72.38,39.57c-5.73.45-5.78,9.46,0,9a111.31,111.31,0,0,0,80.15-44c3.49-4.62-4.32-9.11-7.77-4.54Z" class="cls-4"></path><path d="M1052.8,1074.12a75.29,75.29,0,0,1-55.27,13.47c-5.66-.88-8.1,7.79-2.39,8.68a84.28,84.28,0,0,0,62.2-14.38c4.67-3.34.18-11.15-4.54-7.77Z" class="cls-4"></path><path d="M836.8,1107a231.74,231.74,0,0,0-5,87.57c.74,5.66,9.75,5.74,9,0a224.88,224.88,0,0,1,4.64-85.18c1.4-5.62-7.28-8-8.68-2.39Z" class="cls-10"></path><path d="M441.94,1109.36c4.5,28.28,2.26,57-1.48,85.18-.76,5.73,8.25,5.67,9,0,3.86-29.13,5.8-58.4,1.16-87.57-.91-5.7-9.59-3.28-8.68,2.39Z" class="cls-10"></path></g><g id="erding"><circle r="12.94" cy="783.15" cx="994.01" class="cls-16"></circle><path d="M1002.45,783.15c-.54,10.79-16.89,11-16.89,0s16.35-10.79,16.89,0c.29,5.77,9.3,5.8,9,0-.48-9.46-7.62-17.44-17.44-17.44a17.45,17.45,0,1,0,0,34.89c9.82,0,17-8,17.44-17.45C1011.74,777.36,1002.74,777.38,1002.45,783.15Z" class="cls-17"></path><circle r="12.94" cy="783.15" cx="292.73" class="cls-16"></circle><path d="M301.18,783.15c-.55,10.79-16.89,11-16.89,0s16.34-10.79,16.89,0c.29,5.77,9.29,5.8,9,0-.48-9.46-7.62-17.44-17.45-17.44a17.45,17.45,0,0,0,0,34.89c9.83,0,17-8,17.45-17.45C310.47,777.36,301.47,777.38,301.18,783.15Z" class="cls-17"></path></g></g></svg>