<svg viewBox="0 0 1200 1200" xmlns="http://www.w3.org/2000/svg"><defs><style>.cls-1{isolation:isolate;}.cls-2{fill:#fbe7d4;}.cls-3{opacity:0.57;}.cls-4{fill:#f4d0b8;}.cls-5{fill:#b27042;}.cls-6{fill:#71d3a6;}.cls-7{fill:#8de2c7;}.cls-8{fill:#ffdfca;}.cls-9{fill:#f4ada2;}.cls-10{fill:#331403;}.cls-11{mix-blend-mode:multiply;}.cls-12{fill:#eab394;}.cls-13{fill:#f9bca5;}.cls-14{opacity:0.67;}.cls-15{fill:#ffb9a4;}.cls-16{fill:#965326;}.cls-17{fill:#5ea520;}</style></defs><title>touxiang</title><g class="cls-1"><g id="bg"><rect height="1194.36" width="1194.32" y="2.82" x="2.84" class="cls-2"></rect><g class="cls-3"><rect height="124.53" width="124.54" y="387.74" x="387.73" class="cls-4"></rect><rect height="124.53" width="124.53" y="87.74" x="87.73" class="cls-4"></rect><path d="M300,0V300H600V0ZM512.27,212.27H387.74V87.74H512.27Z" class="cls-4"></path><path d="M0,600H300V300H0ZM87.73,387.74H212.28V512.27H87.73Z" class="cls-4"></path><rect height="124.53" width="124.54" y="387.74" x="987.73" class="cls-4"></rect><rect height="124.53" width="124.53" y="87.74" x="687.73" class="cls-4"></rect><path d="M900,0V300h300V0Zm212.26,212.27H987.74V87.74h124.53Z" class="cls-4"></path><path d="M600,600H900V300H600Zm87.73-212.26H812.28V512.27H687.73Z" class="cls-4"></path><rect height="124.53" width="124.54" y="987.74" x="387.73" class="cls-4"></rect><rect height="124.53" width="124.53" y="687.74" x="87.73" class="cls-4"></rect><path d="M300,900H600V600H300Zm87.73-212.26H512.27V812.27H387.74Z" class="cls-4"></path><path d="M0,1200H300V900H0ZM87.73,987.74H212.28v124.53H87.73Z" class="cls-4"></path><rect height="124.53" width="124.54" y="987.74" x="987.73" class="cls-4"></rect><rect height="124.53" width="124.53" y="687.74" x="687.73" class="cls-4"></rect><path d="M900,900h300V600H900Zm87.73-212.26h124.53V812.27H987.74Z" class="cls-4"></path><path d="M900,1200V900H600v300ZM687.73,987.74H812.28v124.53H687.73Z" class="cls-4"></path></g></g><g id="涂色"><path d="M617.72,737.11c23.65.28,46.17,1.32,66.61,2.79l14.92,1.29,7.15.63,6.91.76,13.1,1.47c4.2.5,8.22,1.1,12.06,1.62s7.49,1,10.94,1.56l9.73,1.63,8.45,1.46c2.59.47,4.95,1,7.07,1.42,8.48,1.78,13.14,2.9,13.08,3.21s-4.82-.24-13.38-1.48c-2.14-.3-4.51-.69-7.11-1l-8.49-1.08L749,750.06l-10.95-1.23c-3.84-.42-7.85-.92-12-1.33l-13.09-1.21-6.89-.64-7.13-.52L684.05,744c-20.38-1.24-42.81-2.15-66.37-2.43s-46,.34-66.4,1.19l-14.89.83-7.13.4-6.91.53-13.1,1-12.06,1.15c-3.84.38-7.51.68-11,1.07l-9.75,1.15-8.5,1-7.13,1c-8.57,1.13-13.34,1.62-13.4,1.31s4.62-1.37,13.12-3c2.13-.41,4.49-.89,7.09-1.34l8.48-1.34,9.74-1.49c3.46-.5,7.13-.91,11-1.39s7.88-1,12.08-1.45l13.13-1.24,6.92-.64,7.16-.52,14.94-1C571.53,737.58,594.07,736.92,617.72,737.11Z"></path><ellipse ry="161.41" rx="2.25" cy="776.58" cx="615.23"></ellipse><path d="M621.92,306.23a404.88,404.88,0,0,1,104.7,14c33,9,63.67,22.26,90.32,39.06a266,266,0,0,1,66.67,59,242.1,242.1,0,0,1,38.13,67.56,265.37,265.37,0,0,1,14.64,62.32A314.67,314.67,0,0,1,938,596.46c-.58,13.26-1.86,23.48-2.73,30.39-.52,3.45-1,6.08-1.25,7.84a11.92,11.92,0,0,1-.58,2.64,12.32,12.32,0,0,1,.12-2.71c.16-1.77.43-4.41.8-7.87.58-6.93,1.58-17.15,1.89-30.34a328.17,328.17,0,0,0-2.33-47.94A268,268,0,0,0,918.77,487a241.47,241.47,0,0,0-38.07-66.34,264,264,0,0,0-66-57.84c-26.34-16.47-56.63-29.48-89.28-38.31a403.13,403.13,0,0,0-103.57-13.74c-71.81-.38-140.16,17.51-194.2,48.23a287.82,287.82,0,0,0-69.16,54.15,248.34,248.34,0,0,0-24.7,31.35,235.62,235.62,0,0,0-18,32.15,247.32,247.32,0,0,0-18.77,60.44c-1.65,9.2-2.57,17.87-3.24,25.86-.27,4-.56,7.82-.64,11.48-.06,1.83-.16,3.61-.18,5.35s0,3.43,0,5.08c0,13.19.75,23.43,1.27,30.36.31,3.47.55,6.11.71,7.89a12.91,12.91,0,0,1,.1,2.71,11.6,11.6,0,0,1-.56-2.65c-.28-1.77-.71-4.39-1.15-7.85a297.73,297.73,0,0,1-2.12-30.45c0-1.65,0-3.36-.06-5.11s.05-3.54.08-5.39c0-3.68.24-7.54.45-11.57.55-8.06,1.36-16.82,2.9-26.13A246.28,246.28,0,0,1,313,475.29a236,236,0,0,1,18-32.74,249.47,249.47,0,0,1,24.85-32,289.34,289.34,0,0,1,69.86-55.23C480.26,324.05,549.34,305.85,621.92,306.23Z"></path><path d="M996.06,649c22.78-42.31-23.14-71.25-22.78-107.41.48-49.47,44.42-122.16,29.29-169.26C968.55,266.42,838.4,170,742.17,216.05h-3.25c-65.1-117.18-197.18-125.65-264-49.45-66.67,76-86.18,123.42-188.41,169.89-179,81.37-126.94,266.9-68.35,325.49l42.36,145.28c-5.91,22.65-7.32,10.09-22.56,24.11-22.45,20.67-29.79,59.8-16.84,89.85,9.48,22,28.1,38.5,34.94,61.72,3.41,11.59,3.61,24.06,6.81,35.72,7.84,28.51,32.46,47.59,57.6,56.3,26.29,9.12,55.75,9,79.62-5.48Z" class="cls-5"></path><path d="M734,997.6a83.24,83.24,0,0,1-4.5-13.56c-1.12-4.66-5.78-6.27-10-5.68l-26.38,3.7a8,8,0,0,0-2.59.85c-25.14-6.43-50.54.34-75.85.79-27.71.49-55.32-4.67-82.38,4.06-.16-.18-.28-.37-.46-.55a17.53,17.53,0,0,0-16.41-4.39c-.6.14-1.19.33-1.76.52-4.2-3.22-11.28-2.74-12.79,3.88-.67,2.93-1.33,5.85-2,8.78a8.12,8.12,0,0,0,.3,4.66c-72.12,32.92-138.81,96.16-191,189.6l629.3-1C880.44,1093.21,809.37,1029.4,734,997.6Z" class="cls-6"></path><path d="M685.3,979.6s-27.45,47-77.13,45c-46.76-1.84-66.95-41.91-66.95-41.91s19.26,76,24.65,101.51c5.42,25.7,18.54,103.42,18.54,103.42l29-.16v.16l.66-.08.66.08v-.16l35.41,2.31s4.66-81.77,9.5-108.58C664.14,1056.07,685.3,979.6,685.3,979.6Z" class="cls-7"></path><path d="M542.54,985.07c-.22.07-.45.1-.68.17-.36-1.4-.59-2.28-.62-2.48C541.37,983,541.8,983.84,542.54,985.07Z" class="cls-7"></path><path d="M650.09,1189.75v0l-.62,0Z" class="cls-7"></path><path d="M685.27,979.67c0,.2-.22.85-.52,2l-.65-.09C684.75,980.52,685.14,979.87,685.27,979.67Z" class="cls-7"></path><path d="M932.73,664.67c.22-4.64.54-9.13.91-13.56-29.47-59.61-87.08-50.38-119.86-88.88-29.29-34.41-19-59.42-23-70.92-18.45-52.09-104.92-40.29-126.52-4.54-43.5-28.41-68.47-28.62-95-15.67-35.41,17.31-22.39,57.43-39.1,116.47-37.51,132.49-141.5,127.35-242.23,64.07l5,8.55C262.48,628.54,175.07,649.58,190,735.06c14.54,83.18,74.72,82.17,108.93,60.39,0,0,.94-2.69,2.36-7C307.43,885.61,346,973.3,558.1,981.7c-5.2,1.16-10.39,2.32-15.56,3.37,5.21,8.6,25.78,38,65.62,39.55,43.65,1.73,70.15-34.34,75.94-43.09-4.44-.76-8.89-1.57-13.35-2.37C866.76,962,915.18,877.84,927.5,789.59c1.74,3.73,2.94,5.86,2.94,5.86,34.21,21.78,94.4,22.79,108.93-60.39C1055,645.79,958.91,626.76,932.73,664.67Z" class="cls-8"></path><path d="M937.47,624.32a203.62,203.62,0,0,0-3.83,26.79c.19.38.39.73.58,1.11Z" class="cls-8"></path><ellipse ry="107.17" rx="111.65" cy="849.73" cx="436.97" class="cls-9"></ellipse><ellipse ry="107.17" rx="111.65" cy="846.47" cx="776.83" class="cls-9"></ellipse></g><g id="五官"><path d="M513.13,666.91c-27.72-.06-28.36,60.66,3.15,60.66C540.22,727.57,542.37,667,513.13,666.91Z" class="cls-10"></path><path d="M513.13,662.41C484.56,663,482.35,706,496.74,723c7.82,9.24,22.73,12.7,32.17,3.88,9.17-8.57,11.25-23.59,9.85-35.46-1.67-14.25-9.71-28.67-25.63-29-5.79-.13-5.79,8.87,0,9,20.22.46,20.1,33.62,12.11,45.89-4.73,7.27-13.68,7.28-20,1.65-7.14-6.39-8.91-17.48-8.13-26.58s5.33-20.75,16-21C518.91,671.3,518.93,662.3,513.13,662.41Z" class="cls-10"></path><g class="cls-11"><path d="M514.1,633c11.36-1.42,21.09,1.19,30.51,7.68,4.79,3.29,9.29-4.51,4.55-7.77-10.56-7.27-22.31-10.5-35.06-8.91-5.67.71-5.75,9.72,0,9Z" class="cls-12"></path></g><g class="cls-11"><path d="M745.45,635.43c-12-4.82-24.17-10.11-37.15-11.56-12.24-1.36-23.72,2.12-33.78,9.07-4.73,3.27-.24,11.07,4.54,7.77,9.36-6.46,19.54-9.42,30.87-7.6,11.49,1.85,22.4,6.7,33.13,11,5.37,2.15,7.71-6.55,2.39-8.68Z" class="cls-12"></path></g><path d="M710.55,666.91c27.72-.06,28.36,60.66-3.15,60.66C683.46,727.57,681.31,667,710.55,666.91Z" class="cls-10"></path><path d="M710.55,671.41c9.24.18,13.75,9,15.41,17,1.89,9.12.65,20.29-5.11,27.88-4.64,6.11-14.47,9.79-20.46,3.51-6.36-6.67-7.45-17.86-6.66-26.59.87-9.68,5.53-21.55,16.82-21.81,5.78-.13,5.8-9.13,0-9-28.38.65-32.15,43.13-18.62,61.24,7.85,10.51,22.22,10.67,32,2.43,9.89-8.38,12.91-23.08,11.47-35.44-1.58-13.67-9.48-27.94-24.8-28.23C704.75,662.3,704.75,671.3,710.55,671.41Z" class="cls-10"></path><path d="M616,808c3.88-9.26,9.69-18,18.55-23.06,9.12-5.24,19.8-5.77,30.05-4.91,5.78.48,5.74-8.52,0-9-12.18-1-24.93.19-35.56,6.71s-17,16.73-21.71,27.86c-2.24,5.34,6.47,7.67,8.67,2.4Z" class="cls-10"></path></g><g id="细节"><path d="M237.92,725.93c9.26-7.57,22-5.72,29.59,3.07,3.81,4.38,10.15-2,6.37-6.36-11.11-12.78-29.46-13.59-42.33-3.07-4.49,3.67,1.91,10,6.37,6.36Z" class="cls-13"></path><path d="M249.89,717.41a22.12,22.12,0,0,0-8.25,16.05c-.44,5.78,8.56,5.75,9,0a13.55,13.55,0,0,1,5.61-9.69c1.92-1.49,1.57-4.8,0-6.36-1.89-1.9-4.44-1.5-6.36,0Z" class="cls-13"></path><path d="M1003.63,719.57c-12.86-10.52-31.22-9.71-42.32,3.07-3.79,4.35,2.55,10.74,6.36,6.36,7.64-8.79,20.33-10.64,29.6-3.07,4.45,3.64,10.85-2.69,6.36-6.36Z" class="cls-13"></path><path d="M978.93,723.77a13.55,13.55,0,0,1,5.61,9.69c.44,5.74,9.44,5.79,9,0a22.11,22.11,0,0,0-8.24-16.05c-1.92-1.49-4.5-1.87-6.37,0-1.55,1.55-1.93,4.86,0,6.36Z" class="cls-13"></path><g class="cls-14"><g class="cls-11"><path d="M404.17,846.21l-6,20c-1.67,5.56,7,7.93,8.68,2.39l6-20c1.67-5.56-7-7.94-8.68-2.39Z" class="cls-15"></path></g><g class="cls-11"><path d="M442.36,846.21l-6,20c-1.67,5.56,7,7.93,8.68,2.39l6-20c1.67-5.56-7-7.94-8.68-2.39Z" class="cls-15"></path></g><g class="cls-11"><path d="M476.35,846.21l-6,20c-1.67,5.56,7,7.93,8.68,2.39l6-20c1.67-5.56-7-7.94-8.68-2.39Z" class="cls-15"></path></g><g class="cls-11"><path d="M749,846.21l-6,20c-1.68,5.56,7,7.93,8.67,2.39l6-20c1.67-5.56-7-7.94-8.68-2.39Z" class="cls-15"></path></g><g class="cls-11"><path d="M787.2,846.21l-6,20c-1.67,5.56,7,7.93,8.68,2.39l6-20c1.67-5.56-7-7.94-8.68-2.39Z" class="cls-15"></path></g><g class="cls-11"><path d="M821.19,846.21l-6,20c-1.67,5.56,7,7.93,8.68,2.39l6-20c1.67-5.56-7-7.94-8.68-2.39Z" class="cls-15"></path></g></g><path d="M655.15,238.39c-14.82-16.16-35.91-25.57-57.74-26.66-22.67-1.14-43.83,7.93-60.74,22.66-39.09,34-48.7,87.6-78.2,128.34-15.14,20.92-37.39,39.29-64,41.61-5.72.5-5.78,9.5,0,9C443.88,409,471.86,363.44,491,323c19-40.16,41.28-93,90.8-101.4,24.45-4.18,50.31,5,67,23.18,3.92,4.28,10.27-2.1,6.36-6.36Z" class="cls-16"></path><path d="M467,517.91c2.28,30.16-21.65,59.14-44.51,76.15a130.27,130.27,0,0,1-138.11,11.08c-5.13-2.66-9.69,5.1-4.54,7.77,31.08,16.11,67.81,20.44,101.66,11.15a141.06,141.06,0,0,0,75.69-52.49c11.31-15.42,20.29-34.1,18.81-53.66-.43-5.74-9.43-5.79-9,0Z" class="cls-16"></path><path d="M289,454.58c-30.49-4.32-62.19,9.42-79,35.53-19.27,30-15.26,68-11,101.57.72,5.66,9.73,5.74,9,0-3.86-30.46-8.23-64.9,7.35-93,13.74-24.76,43.13-39.44,71.22-35.46,5.66.8,8.11-7.87,2.39-8.68Z" class="cls-16"></path><path d="M842.33,311c25.33-8,54.39-1.42,73.31,17.44,18.58,18.53,25,45.1,26.73,70.51,1,15,.58,30.11-.19,45.14-.29,5.79,8.71,5.77,9,0,1.44-28.36,2.07-58.09-7.12-85.35-9.12-27-28.88-48.79-56.71-56.84a82.39,82.39,0,0,0-47.41.42c-5.51,1.73-3.15,10.42,2.39,8.68Z" class="cls-16"></path><path d="M875.72,489.5a206.13,206.13,0,0,0,96.71,119.43c5.07,2.81,9.62-5,4.54-7.77A196.87,196.87,0,0,1,884.4,487.1c-1.69-5.52-10.38-3.17-8.68,2.4Z" class="cls-16"></path><path d="M726.74,347.93a97.71,97.71,0,0,1,64.4-16.24c5.76.56,5.72-8.44,0-9a105.57,105.57,0,0,0-68.94,17.47c-4.78,3.21-.28,11,4.54,7.77Z" class="cls-16"></path><path d="M670.14,373.07c-.8-31.06-30.75-45.84-55.63-56.18-5.34-2.23-7.67,6.48-2.39,8.67,20.83,8.67,48.34,21.16,49,47.51.15,5.78,9.15,5.8,9,0Z" class="cls-16"></path><path d="M410,472a106.32,106.32,0,0,1-63.05,38.88c-5.67,1.14-3.27,9.82,2.4,8.67a115.55,115.55,0,0,0,68.42-43c3.53-4.58-4.28-9.07-7.77-4.54Z" class="cls-16"></path><path d="M274.47,885.62c-15.63,41.56-4.53,90.92,27,122,4.13,4.07,10.5-2.29,6.37-6.36-29.48-29-39.27-74.6-24.73-113.27,2-5.43-6.66-7.78-8.68-2.4Z" class="cls-16"></path><path d="M351,982.66a115.2,115.2,0,0,1,39.11,58.94c1.56,5.57,10.25,3.21,8.68-2.39a123.35,123.35,0,0,0-41.42-62.91c-4.48-3.59-10.89,2.74-6.37,6.36Z" class="cls-16"></path><path d="M307.39,1037.51c19.22,24.59,53.19,35.36,83.13,26.87,5.57-1.58,3.2-10.26-2.39-8.68-27.16,7.7-57-2.38-74.37-24.55-3.57-4.56-9.89,1.85-6.37,6.36Z" class="cls-16"></path></g><g id="线"><path d="M732.12,997.31c65.13,27.47,119.66,76,162.25,131.71a605.92,605.92,0,0,1,39.21,58.26c3,5,10.75.45,7.78-4.54-39.51-66.35-91.16-127.21-157.16-168.4a353.38,353.38,0,0,0-49.68-25.71c-5.33-2.24-7.66,6.46-2.4,8.68Z" class="cls-10"></path><path d="M312.05,1188.25C346.94,1126,392.84,1068.43,452.26,1028A340.5,340.5,0,0,1,497.71,1002c5.23-2.48.67-10.25-4.54-7.77-61.69,29.3-112.55,77.26-152.38,132.16a583.26,583.26,0,0,0-36.51,57.35c-2.83,5.06,4.94,9.6,7.77,4.54Z" class="cls-10"></path><path d="M936.7,681.46c.41-18.5,1.18-37.13,5.11-55.27,1.22-5.64-7.45-8.06-8.68-2.39-4.09,18.92-5,38.36-5.43,57.66-.13,5.79,8.87,5.79,9,0Z" class="cls-10"></path><path d="M295.85,764.77c.8,44.16,5.71,90.48,29.82,128.67,30.24,47.9,84.4,71.31,137.94,82.59,44.37,9.35,90.07,11.77,135.31,11.5,45.58-.28,91.43-3.26,136.21-12.08,55.77-11,113.61-32.27,151.68-76.48,28.39-33,41.39-74.57,46.27-117.17.56-4.93,1-9.88,1.41-14.82.45-5.78-8.55-5.75-9,0-3.14,40.2-12.3,80.57-35.93,114-30.89,43.67-81.49,67.25-132,80.21-40,10.26-81.24,14.71-122.38,16.49-47.05,2-94.74,1.41-141.41-5.39C438.4,964.2,378.33,946.67,342,901.05c-26.95-33.87-34.74-77.74-36.68-119.88q-.37-8.2-.5-16.4c-.11-5.79-9.11-5.81-9,0Z" class="cls-10"></path><path d="M288.65,613.17c6,23.42,7.24,47.66,7.52,71.74.07,5.79,9.07,5.8,9,0-.29-24.86-1.65-49.95-7.85-74.13-1.43-5.61-10.12-3.23-8.67,2.39Z" class="cls-10"></path><path d="M303.38,665c-8.92-16.82-28.22-24.37-46.48-24.51-20.74-.15-41.77,8.73-55.3,24.61-18.16,21.3-19.79,49.85-14.16,76.22,5.74,26.88,19.34,54.45,46.16,65.34,22.28,9,48.27,4,68.16-8.54,4.89-3.07.38-10.86-4.54-7.77-15.37,9.68-34.62,14.68-52.59,10.41-23.86-5.68-38.19-26.62-45.15-48.92-7.57-24.25-10.11-52.67,4.42-74.91,10-15.36,27.41-25.17,45.55-27.08,17.34-1.83,37.44,3.24,46.16,19.69,2.72,5.12,10.49.58,7.77-4.54Z" class="cls-10"></path><path d="M934.88,669.57c7.59-14.31,24-20.11,39.49-20.05,18.28.08,36.26,8,48.15,22,16.3,19.12,16.74,45.62,11.53,69-5.27,23.57-17.09,49-41.18,58.18-19.76,7.5-42.12,2.73-59.6-8.27-4.91-3.09-9.44,4.69-4.54,7.77,17.65,11.11,39.87,16.3,60.36,11.11,26.52-6.72,42.81-30,50.6-55,8.34-26.71,10.51-58.34-5.82-82.59-12-17.77-31.67-28.63-52.83-30.79-20.42-2.09-43.78,5-53.93,24.15-2.71,5.11,5,9.66,7.77,4.54Z" class="cls-10"></path><path d="M669,489.34a100.52,100.52,0,0,0-35.21-54.25c-14.61-11.54-33.5-20.06-52.48-17.18-17.68,2.68-32.5,16.23-39.57,32.22-7.78,17.59-8.69,37.47-9.17,56.43-.55,21.92.14,44.14-3.78,65.82a186.76,186.76,0,0,1-25,64.57c-19.19,30.73-49.67,50.44-86.2,52-45.46,1.91-89.73-18.79-127.37-42.35-4.93-3.08-9.45,4.7-4.55,7.77,60,37.58,148.48,69.71,206.8,11.44,30-30,45.25-74.55,47.91-116.17,1.36-21.35.33-42.81,2.26-64.13,1.61-17.68,5.75-36.6,19.73-48.78,16.45-14.33,37.65-12,55.53-1.62a91.51,91.51,0,0,1,42.4,56.65c1.39,5.62,10.07,3.24,8.68-2.39Z" class="cls-10"></path><path d="M742.8,212.6c-18.34-32.77-44.33-61.51-77.37-79.88C637.43,117.15,605,109.41,573,112a151.86,151.86,0,0,0-84.22,33.75c-14.23,11.67-25.74,26.33-37.41,40.45s-23,28.5-34.63,42.61c-21.48,26-44.67,50.28-72.6,69.44a384.5,384.5,0,0,1-55.18,31c-18.22,8.51-35.86,17.7-52.05,29.72-26,19.32-47.81,44.25-61.31,73.88a194.29,194.29,0,0,0-17,82.16c.4,48.78,16.38,100.33,47.13,138.64A129.13,129.13,0,0,0,214.94,664c4.09,4.12,10.45-2.25,6.36-6.36-14.45-14.54-25.18-32.62-33.52-51.23a231.65,231.65,0,0,1-19.19-72.33c-2.57-26.84-.25-54.11,8.2-79.78,9.46-28.76,26.68-54.26,49-74.63A224.64,224.64,0,0,1,269,349.11c18.69-10.32,38.54-18.26,57.09-28.92A323.58,323.58,0,0,0,405.19,256c23.68-26.23,44.68-54.77,67.76-81.52,10.35-12,21.35-22.89,34.73-31.48a141.3,141.3,0,0,1,41-17.91c65.24-16.88,131.59,14.66,170.5,67.37A231.87,231.87,0,0,1,735,217.14c2.83,5.06,10.61.52,7.77-4.54Z" class="cls-10"></path><path d="M256.14,804.88c-1,3.68-1.75,9.4-4.79,12.12-1.1,1-5,2-7.11,3.07-10.54,5.4-18.78,16-24.12,26.38-12.38,23.93-13.31,53.58-2,78,6.36,13.69,16.11,25.33,24,38.12A85.64,85.64,0,0,1,251.68,983c2.41,8.17,3.19,16.69,4.57,25.06,4.73,28.72,23.2,51.3,49,64.23,30.07,15,67.48,17.48,97,0,5-3,.45-10.74-4.55-7.78-25.47,15.12-57.63,13.82-84.13,1.88-25.34-11.42-43.86-32-48.57-59.78-2.57-15.15-4.49-29.33-12-43-6.72-12.24-15.69-23-22.71-35.11-13.42-23.07-15-52-3.12-76.14,5-10.15,12.86-20.89,23.66-25.35,2.9-1.2,5.58-2.09,7.73-4.51,3.56-4,4.84-10.08,6.18-15.11,1.49-5.6-7.19-8-8.68-2.39Z" class="cls-10"></path><path d="M744.44,218.76c76.2-35.95,163,18.63,210.77,76.69A251,251,0,0,1,989.12,349c4.11,8.86,8.09,18.22,10.36,27.75,2.2,9.27,2.09,19,1.11,28.39-4.38,42.36-25.71,81-31,123.19-1.25,10-1.12,19.8,2,29.49s8.16,18.62,13,27.53,9.57,17.81,11.93,27.64c2.7,11.25.94,22.28-4.4,32.48-2.68,5.13,5.09,9.68,7.78,4.54,10-19.15,7.64-38.32-1.38-57.28-7.74-16.28-20.44-32.51-20.79-51.25-.39-20.8,6.79-41.8,12.87-61.42,6.7-21.65,14.2-43.31,17.73-65.76,1.59-10.08,2.48-20.37,1.35-30.55-1.08-9.65-4.21-18.7-7.82-27.68a249.8,249.8,0,0,0-32.21-56.68c-26.22-34.88-60.62-64.72-100.36-83.15-40.78-18.91-87.76-24.95-129.44-5.3-5.23,2.47-.67,10.24,4.54,7.78Z" class="cls-10"></path><path d="M669.64,480.42c12.81-23.26,34.09-49.13,62.57-51.82a39.17,39.17,0,0,1,28.23,7.93c10.81,8.56,16,22.18,20.08,34.88,8.22,25.42,6.1,54.1,19.41,77.78s35.73,36.31,60,46.71c13.2,5.67,26.53,11.27,38.43,19.44,14,9.63,24.53,22.76,32,38,2.55,5.2,10.31.64,7.77-4.54a104.53,104.53,0,0,0-28.92-36.55c-10.7-8.44-22.79-14.55-35.22-20-25-11-50.14-20.86-65-45.37-7-11.54-9.65-24.38-11.54-37.57-2.19-15.25-4.61-30.29-9.82-44.86-4.62-12.89-10.27-25.77-21.19-34.56a47.56,47.56,0,0,0-30.37-10.46c-33.5.38-59.29,29.4-74.2,56.48-2.8,5.07,5,9.62,7.77,4.54Z" class="cls-10"></path><path d="M540.13,1025.44a116.31,116.31,0,0,0-51.71-7.3l4.34,5.7q5.53-21.62,10.82-43.28c1.37-5.62-7.3-8-8.68-2.39q-5.28,21.68-10.82,43.27c-.67,2.62,1.34,6,4.34,5.7a110.32,110.32,0,0,1,49.32,7c5.42,2.06,7.76-6.63,2.39-8.67Z" class="cls-10"></path><path d="M544.73,1010.19l-37,53a4.47,4.47,0,0,0,0,4.54l63.85,108.1,8.91,15.09c2.94,5,10.72.46,7.77-4.54l-63.85-108.11-8.91-15.08v4.54l37-53c3.32-4.76-4.48-9.27-7.78-4.55Z" class="cls-10"></path><path d="M724.72,977.25q6.27,21.53,12.8,43l4.34-5.69a119.9,119.9,0,0,0-52.92,10.08c-5.3,2.29-.72,10.05,4.54,7.77a109.91,109.91,0,0,1,48.38-8.85,4.54,4.54,0,0,0,4.34-5.7q-6.53-21.45-12.81-43c-1.61-5.55-10.3-3.19-8.67,2.39Z" class="cls-10"></path><path d="M670.88,1005.12l45.74,59.79v-4.54L655,1170.57l-8.81,15.77c-2.83,5.06,4.94,9.6,7.77,4.54l61.59-110.2,8.81-15.77a4.43,4.43,0,0,0,0-4.54l-45.74-59.79c-3.47-4.54-11.3-.06-7.77,4.54Z" class="cls-10"></path><path d="M588.75,1185.26c-12.63-65.16-28.89-129.57-40.51-194.93-1-5.69-9.69-3.28-8.68,2.39,11.63,65.36,27.88,129.78,40.51,194.93,1.1,5.68,9.78,3.28,8.68-2.39Z" class="cls-10"></path><path d="M676.77,987.54a1438.85,1438.85,0,0,0-31.17,201.07c-.48,5.77,8.52,5.74,9,0a1420,1420,0,0,1,30.85-198.68c1.29-5.63-7.39-8-8.68-2.39Z" class="cls-10"></path><path d="M538.49,989c25,41.35,80.4,45.79,119.62,22.81a86.34,86.34,0,0,0,26.73-24.2c3.37-4.72-4.43-9.22-7.77-4.54-22.38,31.32-71.74,43.74-105.86,25.42a65,65,0,0,1-25-24c-3-5-10.77-.44-7.77,4.54Z" class="cls-10"></path><path d="M830.84,1061.64a319.42,319.42,0,0,0-14.47,127.83c.52,5.72,9.53,5.78,9,0A312.73,312.73,0,0,1,839.52,1064c1.8-5.52-6.89-7.89-8.68-2.4Z" class="cls-10"></path><path d="M397.25,1064a312.56,312.56,0,0,1,14.16,125.43c-.53,5.77,8.47,5.73,9,0a319.61,319.61,0,0,0-14.48-127.83c-1.79-5.48-10.48-3.13-8.68,2.4Z" class="cls-10"></path></g><g id="erding"><circle r="39.06" cy="807.28" cx="266.95" class="cls-17"></circle><path d="M301.5,807.28c-.25,14.22-8.86,27.38-22.4,32.37a34.59,34.59,0,1,1,22.4-32.37c.11,5.78,9.11,5.8,9,0a44.21,44.21,0,0,0-29-41.06c-16.84-6.13-36.58-.62-48,13.15-11.74,14.2-13.46,34.87-3.74,50.64A44.07,44.07,0,0,0,275,850.07c20.6-3.7,35.13-22.21,35.49-42.79C310.61,801.48,301.61,801.48,301.5,807.28Z" class="cls-10"></path><circle r="39.06" cy="807.28" cx="953.75" class="cls-17"></circle><path d="M988.31,807.28c-.26,14.22-8.87,27.38-22.41,32.37a34.58,34.58,0,1,1,22.41-32.37c.1,5.78,9.1,5.8,9,0a44.23,44.23,0,0,0-29-41.06c-16.84-6.13-36.58-.62-48,13.15-11.74,14.2-13.46,34.87-3.74,50.64a44.08,44.08,0,0,0,45.23,20.06c20.6-3.7,35.13-22.21,35.5-42.79C997.41,801.48,988.41,801.48,988.31,807.28Z" class="cls-10"></path></g></g></svg>