<svg viewBox="0 0 1200 1200" xmlns="http://www.w3.org/2000/svg"><defs><style>.cls-1{isolation:isolate;}.cls-2{fill:#fbe7d4;}.cls-3{opacity:0.61;}.cls-4{fill:#f4d0b8;}.cls-5{fill:#e57979;}.cls-6{fill:#fff;}.cls-7{fill:#d0d0d0;}.cls-8{fill:#40bbc1;}.cls-9{fill:#f7b48f;}.cls-10{fill:#ffede1;}.cls-11{fill:#e2d9d3;}.cls-12{fill:#d34e4d;}.cls-13{fill:#ffe1b0;}.cls-14{fill:#ffccc2;}.cls-15{fill:#eaa49d;}.cls-16{fill:#331403;}.cls-17{fill:#ffb9ab;}.cls-18{mix-blend-mode:multiply;}.cls-19{fill:#eab394;}.cls-20{fill:#040000;}.cls-21{fill:#ffcb92;}.cls-22{fill:#f99f62;}.cls-23{fill:#f9bca5;}</style></defs><title>touxiang</title><g class="cls-1"><g id="bg"><rect height="1194.36" width="1194.32" y="2.82" x="2.84" class="cls-2"></rect><g class="cls-3"><rect height="124.53" width="124.54" y="387.74" x="387.73" class="cls-4"></rect><rect height="124.53" width="124.53" y="87.74" x="87.73" class="cls-4"></rect><path d="M300,0V300H600V0ZM512.27,212.27H387.74V87.74H512.27Z" class="cls-4"></path><path d="M0,600H300V300H0ZM87.73,387.74H212.28V512.27H87.73Z" class="cls-4"></path><rect height="124.53" width="124.54" y="387.74" x="987.73" class="cls-4"></rect><rect height="124.53" width="124.53" y="87.74" x="687.73" class="cls-4"></rect><path d="M900,0V300h300V0Zm212.26,212.27H987.74V87.74h124.53Z" class="cls-4"></path><path d="M600,600H900V300H600Zm87.73-212.26H812.28V512.27H687.73Z" class="cls-4"></path><rect height="124.53" width="124.54" y="987.74" x="387.73" class="cls-4"></rect><rect height="124.53" width="124.53" y="687.74" x="87.73" class="cls-4"></rect><path d="M300,900H600V600H300Zm87.73-212.26H512.27V812.27H387.74Z" class="cls-4"></path><path d="M0,1200H300V900H0ZM87.73,987.74H212.28v124.53H87.73Z" class="cls-4"></path><rect height="124.53" width="124.54" y="987.74" x="987.73" class="cls-4"></rect><rect height="124.53" width="124.53" y="687.74" x="687.73" class="cls-4"></rect><path d="M900,900h300V600H900Zm87.73-212.26h124.53V812.27H987.74Z" class="cls-4"></path><path d="M900,1200V900H600v300ZM687.73,987.74H812.28v124.53H687.73Z" class="cls-4"></path></g></g><g id="涂色"><path d="M932.13,321.76c-29.45-21.58-64.65-35.61-99-47.11A716.74,716.74,0,0,0,691.84,243.2c-51.75-6.23-103.93-6.57-155.67,0a712.24,712.24,0,0,0-144.63,34.32,51.81,51.81,0,0,1-1.63,16.8c-5.07,19.39-19.79,37-37.39,46.4-8.11,4.34-17.48,6.87-26.64,4.89a29.76,29.76,0,0,1-9.15-3.69c-1.19,19.89-2.25,39.85-4.73,59.62,40.87-20.05,84.3-34.84,128.53-45.45C537.2,332.9,637.44,332.29,735.89,343c42.37,4.61,84.69,11.69,125.68,23.52,31.5,9.1,63,21,90.3,39.54a391.32,391.32,0,0,0,.72-39.79,280.6,280.6,0,0,0-3.37-29.15,7.28,7.28,0,0,0-.58-.93C944.51,330.55,937.68,325.83,932.13,321.76Z" class="cls-5"></path><path d="M763.82,957.34c-43.38,11.81-88.62,17-133.63,19.08a1.05,1.05,0,0,1-.3.8c-12.89,13.89-23.66,28.92-31.15,46.41-.42,1-1.75.5-2-.27-3.84-9.63-8.48-18.93-15.27-26.83-6.22-7.23-13.73-13.21-21.19-19.08-40.37-.57-81.3-3.52-120.77-12.08-7.68.78-17.55,2.5-22.77,8.66-4.81,5.68-.19,11.56,4.9,15,8.63,5.83,18.9,8.68,29.39,10.53l.84-.06a1,1,0,0,1,.84.35c6.86,1.14,13.78,1.9,20.36,2.82,17.13,2.39,34.23,5,51.14,8.66,17.34,3.72,35,8.22,50.94,16.07,9.34,4.59,20,11.29,23.78,21.5,4.51-12.44,19.1-19.74,30.45-24.51,32.32-13.57,68.26-17.92,102.72-22.74,5.41-.75,11.37-1.55,17.37-2.74a1.1,1.1,0,0,1,.71-.29l.88,0c12.53-2.63,25-7.1,32.76-16.58,3.73-4.58,5.15-10.63,1.25-15.56-4.65-5.89-13.19-7.69-20.23-8.37A1.13,1.13,0,0,1,763.82,957.34Z" class="cls-6"></path><path d="M1014.1,1094.13c-.07-.1-.12-.13,0,0Z" class="cls-7"></path><path d="M738.73,1003c-15.84,2.35-31.71,4.37-47.47,7.2-19.7,3.53-39.59,7.79-58.26,15.15-12.71,5-30.53,13.09-33,28.3a1.13,1.13,0,0,1-2.17,0c-2.82-17.14-24.68-25.47-38.86-30.47-33.17-11.69-68.21-15.11-102.71-20.62-1.51-.24-3-.49-4.54-.76-12.09.73-24.3,1.69-36.14,4.33a51.56,51.56,0,0,0-13.23,4.95c15.14,28.26,22.72,59.16,24.24,91.13,1.5,31.55-2,63-3.47,94.52-.07,1.45-2.32,1.45-2.25,0,1.38-30.36,4.71-60.71,3.61-91.13-1.19-32.78-8.57-64.44-24.1-93.42-3.33,1.91-6.57,4.11-10,6.51-66.06,46.7-118.33,110.52-158.81,180.09,2.9-.48,6.59.12,9.4.12l19.55,0,62.89-.1,87.49-.13,103.53-.15,110.52-.17,110-.16,100.39-.15,81.93-.12,55.68-.09,18.44,0a710.57,710.57,0,0,0-46.27-66.51c-26.54-33.69-56.47-64.81-89.9-91.72q-12.13-9.78-24.89-18.75c-5-3.53-10.1-7.35-15.49-10.5a1.09,1.09,0,0,1-.14.59c-16,29.33-23.58,61.45-24.78,94.72-1.11,30.42,2.23,60.77,3.61,91.13.07,1.45-2.18,1.45-2.25,0-1.43-31.48-5-63-3.47-94.52,1.54-32.48,9.32-63.84,24.94-92.46a1.08,1.08,0,0,1,.4-.42,53.61,53.61,0,0,0-8.29-3.75c-17.35-6-36.5-5.24-54.58-4.68C746.44,1001.7,742.58,1002.38,738.73,1003Z" class="cls-8"></path><path d="M170.44,618.51A90.47,90.47,0,0,1,184.49,611c2.18-.94,4.11-1.18,5.23-3.29q.38-7.44,1-14.89c.48-8.05.81-16.11,1.45-24.15a138.66,138.66,0,0,1,9.93-42.11l-6.09,1C163.83,532.8,131.67,539,100.31,548c-15.18,4.35-30.5,9.24-44.65,16.36A60,60,0,0,0,46,570c-23.35,20.81-36.27,52.43-19.92,81.84,9.16,16.47,24.7,28.51,41.11,37.18,23.15,12.23,49.05,18.56,74.84,22.21a95.58,95.58,0,0,1-3.57-18.64C135.46,663.53,145.33,635,170.44,618.51Z" class="cls-9"></path><path d="M1130.41,570.91a1.25,1.25,0,0,1-.4-.52c-.5-1.22-1-2.41-1.62-3.59a74.1,74.1,0,0,0-7.93-11.94c-8.28-7.68-19-13-29.15-17.37-22.33-9.65-46.26-15.66-70.14-20.38q.32,11.22.6,22.43,1.9,26.78,1.16,53.64.09,5.91.15,11.82c0,2.11-1,7.83.06,9.63a1.44,1.44,0,0,0,.37.42c1,.45,2,.92,3,1.41.77.26,1.49.5,1.94.71q3,1.47,6,3.19a71.41,71.41,0,0,1,9.23,6.51c13.27,11,23.21,29,23.44,46.65A200.8,200.8,0,0,0,1100.45,653c20.42-15.81,39.59-39.2,34.79-66.74A64,64,0,0,0,1130.41,570.91Z" class="cls-9"></path><path d="M584.5,996.73c5.72,7.08,9.84,15.13,13.31,23.48,7.35-16.32,17.57-30.51,29.65-43.67-12.34.53-24.67.82-36.94,1q-13.24.13-26.63,0C571.27,983.33,578.57,989.39,584.5,996.73Z" class="cls-10"></path><path d="M909.28,859.92c17.82-28.1,27.21-60.44,31.76-93.18,4.43-31.88,4.49-64.13,4.75-96.24l0-3.47a1,1,0,0,1-.23-.07c-8.41-3.42-13.4-11.62-17.55-19.25-6-11-10.87-22.66-17.81-33.17A72.32,72.32,0,0,0,896.83,599c-5.3-4.47-10-8.84-13.9-14.66-4.78-7.16-8.28-15-11.64-22.94,2.62,9.13,5,18.31,7.11,27.67,4.64,20.29,8.16,41.41,15.22,61,.37,1-.85,1.61-1.65,1.27-44.54-19-74.4-59.26-102.71-96.83.5,2.38,1.47,4.73,2.08,7.16,1.34,5.39,2.62,10.79,4.2,16.12,6.67,22.49,17.2,43.66,28.73,64A1.15,1.15,0,0,1,823,643.5c-11.79-1.87-23.33-6.42-34.34-10.84-30.06-12.07-59.45-27.64-84.89-47.81-18.64-14.78-39.38-35.54-42.06-60.36-13.74,49.61-68.77,78.8-114.46,93.29a1.13,1.13,0,0,1-1.27-1.65c7.75-15,15.3-30.19,22-45.73a266.1,266.1,0,0,0,10.44-27.69c1.74-5.73,3.41-11.76,3.73-17.8-4.83,7.24-11,13.69-17.12,19.77a349.9,349.9,0,0,1-59.61,46.82c-18.56,11.71-39.7,23.79-61.9,26.32a1.13,1.13,0,0,1-1.08-1.42c5.39-13.1,10.55-26.31,15.32-39.65,4-11.24,9.16-23.55,10.91-35.72-4.63,7.77-11.5,14.28-18.38,20-21.36,17.66-46.86,30.52-72.12,41.61-13.69,6-27.71,11.64-42,16.41a1,1,0,0,1-.11.89c-16.25,27.18-41.79,46.25-72.17,54.94a1.05,1.05,0,0,1-.85-.1c-.08,7.82-.21,15.64-.31,23.44-.46,35.68-.81,71.76,5.46,107,6.14,34.51,19.41,67.67,43.45,93.65,30.94,33.44,74.64,51.46,118.17,61.81q5.34,1.26,10.7,2.39a1,1,0,0,1,.31.06c28.81,6.06,58.21,9.24,87.58,10.86a968.75,968.75,0,0,0,119.76-1C707,969,767.6,959.61,821.36,934.23,856.65,917.57,888.2,893.12,909.28,859.92Z" class="cls-10"></path><path d="M261.21,770.63c.17-.12.34-.24.52-.35-2.33-31.67-1.24-63.51-1-95.23.11-13.3.17-26.73-.33-40.13a1,1,0,0,1-.78-.55c-10.06-19-33.21-25.28-53.31-23.23-21.11,2.15-41.14,13.45-52.78,31.37-13.33,20.5-13.94,45.73-9,69.17.06.2.12.4.19.59a.94.94,0,0,1,0,.49c1.07,4.89,2.37,9.69,3.84,14.36,8,25.33,24.64,48.94,51.79,55.24a68.53,68.53,0,0,0,19.82,1.55,1,1,0,0,1,.58,0,86.15,86.15,0,0,0,39.22-13.25A1,1,0,0,1,261.21,770.63Z" class="cls-10"></path><path d="M1047.81,635.62a70.51,70.51,0,0,0-26.61-19.12,1.07,1.07,0,0,1-1.47-.61,74.69,74.69,0,0,0-27.05-5.14c-16.68,0-34.37,6.08-43.83,20.28-1.13,21.67-.73,43.45-1.05,65.1-.37,24.7-1.37,49.55-5,74A11.22,11.22,0,0,0,945,771a1,1,0,0,1,1.49-.4c19.7,12.41,45.17,17.78,67.47,9.38,27.49-10.35,41.31-38.64,47.38-65.67C1067.33,687.46,1066.5,657.51,1047.81,635.62Z" class="cls-10"></path><path d="M262.93,783.72c-.44-4.1-.8-8.2-1.11-12.3l-.12.08a1,1,0,0,1-.51,1,88.82,88.82,0,0,1-39,13.44c16.39,36.85,40.16,70.27,72.37,94.75C275.29,851.93,266.57,817.82,262.93,783.72Z" class="cls-11"></path><path d="M1071.59,1017.46c-4-17.12-17.35-30.05-35.46-29.81a1.14,1.14,0,0,1-1.09-1.42,58.87,58.87,0,0,0-3.89-36.57c-8.33-18.24-26.22-26.6-45.49-28a1.16,1.16,0,0,1-1.13-1.12c-2.74-23.83-9.44-48.62-24.75-67.63a66.32,66.32,0,0,0-16.13-14.71c12.26-15.41,23.48-36.18,32.46-53.37a90.31,90.31,0,0,1-30.78-12.29,1.1,1.1,0,0,1-.46-.53,11.5,11.5,0,0,1-2.22-.84c-1.12,7.45-2.48,14.85-4.15,22.21a300.11,300.11,0,0,1-12.37,39.2h-.2a189.73,189.73,0,0,1-31.25,50.65c-18.74,21.54-42.13,38-67.53,50.64,4.94,16.32,19.29,27.2,34,34.55,17.77,8.9,37.48,13.72,57,16.67.52.08.77.64.83,1.09,2,17.65,6.54,38.94,21.66,50.3a32.08,32.08,0,0,0,28.68,4.85,1.14,1.14,0,0,1,1.38.78,64.22,64.22,0,0,0,22.37,35.77,67.56,67.56,0,0,0,23.8,11.87l51.76-40.14A51.67,51.67,0,0,0,1071.59,1017.46Z" class="cls-11"></path><path d="M1042,1110c-.25,6.28-.6,12.55-.92,18.83-.4,7.78-1.24,16.16.44,23.85,3.56,16.28,23,3.2,31.06-1.93,15.56-9.86,31.84-21.63,42.18-37.2,6.36-9.58,10-22.08.3-30.83-5.68-5.13-13.44-7.66-20.75-9.37-2.7-.64-5.42-1.14-8.16-1.57Z" class="cls-11"></path><path d="M1019.61,540.82q-.86-12.26-2.27-24.46c-2.49-.47-5-1-7.47-1.4-50.27-9.22-101.42-13.58-152.41-16.38l-3-.15c-53.06-2.35-106.2-3.08-159.32-3.08q-32.08,0-64.18.37-8.65.16-17.29.37c-84.15,2-168.3,5.52-252.2,12.3-52.19,4.22-104.36,9.61-156.1,17.69-7.19,23.33-11,47.6-12.81,71.94-.21,3.89-.43,7.77-.7,11.62,0,.21,0,.41,0,.61a1.05,1.05,0,0,1-.79,1l.06.74a76.58,76.58,0,0,1,23.12-3.5c17.73.09,36.49,6.91,46.07,22.46-.87-19.2-3-38.32-7.81-56.89a1.13,1.13,0,0,1,2.17-.6,216.51,216.51,0,0,1,4.53,22.42c3.81,25.41,4.15,51.17,3.9,76.87a.73.73,0,0,1,.22-.09c29.4-8.41,54.12-26.67,70.11-52.75-9.66,3.14-19.45,5.88-29.34,8.05-1,.21-2.05-1.14-1.09-1.88,30.28-23.66,48-63.69,45.55-102-.09-1.44,2.16-1.43,2.25,0,2.4,37.28-14.11,76.35-42.6,100.63a342,342,0,0,0,33.48-10.09c26.94-9.46,53.37-21.06,78-35.46,11-6.43,21.81-13.47,31.46-21.84,7.3-6.33,14.38-13.61,18.23-22.61.45-1.05,2.15-.49,2.1.57-.65,13.83-6.54,28-11.12,40.85-4.69,13.2-9.78,26.25-15.09,39.21,11.29-1.59,22.17-6,32.38-10.89,22.74-10.92,43.89-25.47,63.39-41.38,14.91-12.16,31.39-25.82,41.25-42.64a1.14,1.14,0,0,1,2.1.57c.41,7.34-1.55,14.78-3.64,21.75a257,257,0,0,1-9.8,26.34c-6.59,15.54-14.06,30.69-21.77,45.7,47.5-15.52,104.16-46.94,112.51-100.94.19-1.26,2.33-1,2.21.3-1.55,15.34,4.84,29.67,13.88,41.73,19.26,25.71,48.54,43.88,76.61,58.52A378.11,378.11,0,0,0,795.63,633c8.26,3.12,16.8,6.24,25.52,7.91-11.09-19.75-21.16-40.29-27.66-62-1.68-5.62-3-11.33-4.45-17-.95-3.78-2.67-7.11-2.32-11a1.13,1.13,0,0,1,2.09-.57c28.28,37.45,57.77,78.31,101.82,98.09-6.52-19-10-39.19-14.4-58.66-3.57-15.63-7.71-30.79-12.79-46a1.13,1.13,0,0,1,2-.87c6.42,12.92,10.77,27,18.59,39.16,7,11,18.29,17.64,25.87,28.19,7,9.7,11.93,20.62,17.33,31.23,4.29,8.44,9.31,19.24,18.56,23.22.07-9.9.15-19.85.54-29.79a1.17,1.17,0,0,1-1.47-1.61c.52-1,1.09-1.92,1.67-2.84a256.74,256.74,0,0,1,5.25-42.79c.31-1.42,2.48-.82,2.17.59-1.37,6.19-2.38,12.44-3.13,18.73-.8,6.63-1.37,13.29-1.78,20,11.71-14.66,32.36-19.8,50.68-18a77.51,77.51,0,0,1,20,4.68q.66-10.87.92-21.78C1020.49,574.77,1020.08,557.79,1019.61,540.82Z" class="cls-11"></path><path d="M257.81,331.5q.13,48.58.26,97.18c17.85-3.92,26.51-23.5,33.54-38.55a1.14,1.14,0,0,1,2.06.27,140.06,140.06,0,0,0,12.2,35.05c1.47-7.3,2.65-14.64,3.62-22a1,1,0,0,1,.05-.39c2.7-20.73,3.77-41.68,5-62.53-5.6-4-10.06-9.64-13.61-15.59a1.13,1.13,0,0,1,2-1.13c4.94,8.28,11.58,16,21.06,19,7.17,2.28,14.82,1.29,21.74-1.37,25.23-9.7,47.72-40,43.43-67.71-2.13-13.77-12-24.12-25-28.5-15.33-5.16-32.13-2.62-47,2.9a1.11,1.11,0,0,1-1.27-.51c-1.65-3.39-3.43-6.9-5.34-10.43a1,1,0,0,1-.23-.42c-10-18.42-23.78-37.5-43.83-43.77-29.1-9.09-52.89,19.09-59.21,44.63-3,12.25-3,26.58,4.76,37.18,9.59,13.18,27.21,14.68,42.14,12.9,1.19-.15,1.41,1.55.57,2.09-38.71,25.08-79.25,47.28-120.68,67.49,22.78,4.1,46.52,2.87,69.16-1.41.65-.12,1.51.3,1.43,1.08q-2.51,23.94-6.18,47.73c26.62-16.58,41.1-48.07,57.25-73.73A1.13,1.13,0,0,1,257.81,331.5Z" class="cls-12"></path><path d="M98.49,542.51c20.37-5.81,41.16-10.09,62-13.85q21.9-3.95,43.92-7.14c.09-.17.16-.35.25-.52a1,1,0,0,1,1.39-.44,1.07,1.07,0,0,1,.67.63c41.14-6,82.55-10.23,123.92-13.84,68.66-6,137.51-9.79,206.39-12q47.84-1.5,95.72-2,27.54-.48,55.07-.65c55.65-.32,111.39.39,167,3.42,25,1.1,49.94,2.59,74.86,4.61,42.07,3.43,84.63,7.86,125.65,18.18,13.64,3.43,27.26,7.56,40,13.67A75.74,75.74,0,0,1,1113,544.24c-2.64-3.11-5.34-6.12-8-9.06-23.85-26.22-51.21-49.34-78.82-71.48-23.86-19.14-48.32-37.76-73.85-54.62a1,1,0,0,1-.38-.26c-31.32-21.6-68.28-34.41-104.83-43.93-42.65-11.12-86.47-17.59-130.31-21.54-49.63-4.47-100-6.46-149.78-3.63-87.67,5-176.45,25.44-255.4,64.5-1.11,8.35-2.47,16.66-4.23,24.91a1.14,1.14,0,0,1-2.06.27,142.82,142.82,0,0,1-13.15-35.25c-7.27,15.46-16.67,33.91-35,37a1.15,1.15,0,0,1-1.43-1.09q0-4,0-7.93c-.4,5.22-.65,10.44-.69,15.68a1,1,0,0,1-.54.93,1.56,1.56,0,0,1-.28.16c-16.42,6.69-32.3,14.68-48,23Q156.79,488.08,110,519.22c-13.83,9.18-27.49,18.66-40.54,28.93-4.77,3.76-9.68,7.64-14.25,11.83,1.06-.68,2.13-1.34,3.22-2C70.78,550.84,84.81,546.41,98.49,542.51Z" class="cls-13"></path><path d="M316.25,243.26c1.12,2.23.95,2.1,3.08,1.66,6.25-1.27,12.08-3.53,18.5-4.27,10.5-1.2,21.46-.28,31.19,4,13.43,6,20.66,17.49,22.28,30.53,53.74-18.71,109.75-31.38,166.43-36.64,52.54-4.88,105.47-2.4,157.59,5.57,47.34,7.25,94.3,18.79,139.14,35.7,31.18,11.76,64.07,25.9,89.23,48.33,1.61,1.43,3.22,2.91,4.74,4.46a301,301,0,0,0-28.54-83c-11.08-21.44-24.33-41.2-43.94-55.59-37-27.13-84.12-40-128.49-48.56-55.86-10.78-113.31-14.1-170.11-11.65-54.43,2.35-109.66,9.82-161.32,27.68-21.31,7.37-42.2,16.67-60.91,29.35a134.74,134.74,0,0,0-42.44,45.63c.45.83.91,1.64,1.35,2.47C314.79,240.4,315.52,241.83,316.25,243.26Z" class="cls-13"></path><path d="M554.94,848.23A127.8,127.8,0,0,1,470.4,968.48q-14.52-2.21-28.88-5.27a.9.9,0,0,0-.57-.13q-4.12-.89-8.25-1.86c-39.83-9.47-79.79-25.37-110-53.62a1.29,1.29,0,0,0-.17-.16q-4.12-3.86-8-8-4.26-4.6-8.09-9.52a127.74,127.74,0,1,1,248.49-41.67Z" class="cls-14"></path><path d="M926.71,831.41h0c-4.89,11.55-9.88,21.69-14.55,29.05-21.07,33.2-52.62,57.65-87.92,74.31-26.27,12.4-54.19,21-82.72,27A127.74,127.74,0,1,1,926.71,831.41Z" class="cls-14"></path><path d="M374.43,810.53l-7.54,20.23c-2,5.44,6.67,7.78,8.68,2.39l7.54-20.23c2-5.43-6.67-7.78-8.68-2.39Z" class="cls-15"></path><path d="M420,818.8a55,55,0,0,1-3.75,13.84c-.93,2.26,1,4.92,3.14,5.53,2.57.74,4.62-.9,5.53-3.14A62.36,62.36,0,0,0,429,818.8c.3-2.42-2.28-4.5-4.5-4.5-2.68,0-4.2,2.07-4.5,4.5Z" class="cls-15"></path><path d="M467.33,816.13c-3,7.13-5.83,14.32-8.36,21.64-1.9,5.48,6.8,7.84,8.68,2.39q3.41-9.87,7.45-19.48c2.24-5.27-5.51-9.87-7.77-4.55Z" class="cls-15"></path><path d="M752.74,810.53l-7.54,20.23c-2,5.44,6.67,7.78,8.68,2.39l7.54-20.23c2-5.43-6.67-7.78-8.68-2.39Z" class="cls-15"></path><path d="M798.35,818.8a55,55,0,0,1-3.75,13.84c-.93,2.26,1,4.92,3.14,5.53,2.57.74,4.62-.9,5.53-3.14a62.76,62.76,0,0,0,4.08-16.23c.3-2.42-2.28-4.5-4.5-4.5-2.68,0-4.2,2.07-4.5,4.5Z" class="cls-15"></path><path d="M845.64,816.13c-3,7.13-5.83,14.32-8.36,21.64-1.9,5.48,6.79,7.84,8.68,2.39,2.27-6.58,4.73-13.08,7.45-19.48,2.24-5.27-5.51-9.87-7.77-4.55Z" class="cls-15"></path><polygon points="1075.24 1046.79 1014.06 1094.24 1032.18 1117.95 1088.94 1068.8 1075.24 1046.79" class="cls-5"></polygon></g><g id="五官"><path d="M507.17,704.94c-27.73-.06-28.37,60.66,3.15,60.65C534.25,765.59,536.4,705,507.17,704.94Z" class="cls-16"></path><path d="M507.17,700.44c-28.57.55-30.79,43.59-16.39,60.61,7.82,9.24,22.73,12.7,32.16,3.88,9.18-8.58,11.26-23.6,9.86-35.46-1.68-14.25-9.71-28.67-25.63-29-5.8-.13-5.8,8.87,0,9,20.21.46,20.1,33.61,12.11,45.89-4.73,7.27-13.68,7.27-20,1.65-7.15-6.4-8.91-17.49-8.13-26.58s5.33-20.76,16-21C513,709.33,513,700.33,507.17,700.44Z" class="cls-16"></path><path d="M704.58,704.94c27.73-.06,28.37,60.66-3.15,60.65C677.5,765.59,675.35,705,704.58,704.94Z" class="cls-16"></path><path d="M704.58,709.44c9.24.18,13.75,9,15.41,17,1.89,9.11.66,20.29-5.11,27.88-4.63,6.11-14.47,9.79-20.45,3.51-6.37-6.67-7.45-17.87-6.67-26.59.87-9.68,5.54-21.55,16.82-21.81,5.79-.13,5.81-9.13,0-9-28.38.65-32.15,43.13-18.61,61.24,7.84,10.5,22.22,10.67,31.95,2.43,9.89-8.38,12.91-23.09,11.47-35.45-1.59-13.66-9.48-27.93-24.81-28.22C698.79,700.33,698.79,709.33,704.58,709.44Z" class="cls-16"></path><path d="M647.2,824.76c-3.84-7-10.2-8.88-17.75-8.33a77.16,77.16,0,0,0-23.9,5.64c-6.14,2.54-13.22,5.45-14.52,12.44a4.73,4.73,0,0,0-.38,1.08c-3.29,14.95,9,26.39,23.1,27.73,13,1.24,34.24-4.49,37-19.34C651.88,837.64,650.28,830.36,647.2,824.76Z" class="cls-17"></path><path d="M594.05,836.91c5.19-10.08,13.9-17.79,25.41-19.36,8.46-1.15,18.12,1.21,23.94,7.75,6.31,7.09,5.41,17.18-.57,24.19-8.89,10.42-23.44,11.28-35.76,7.63-5.56-1.65-7.94,7-2.39,8.68,12.49,3.7,26.62,3.44,37.72-4.07,8.53-5.77,14.88-15.41,14.44-26-.87-20.73-23.76-30.29-41.79-26.49-12.76,2.69-22.9,11.72-28.77,23.13-2.64,5.14,5.12,9.7,7.77,4.54Z" class="cls-16"></path><g class="cls-18"><path d="M474.66,682.13c10.72-4.29,21.64-9.15,33.12-11s21.51,1.13,30.87,7.6c4.78,3.3,9.28-4.5,4.54-7.78-10.06-7-21.53-10.43-33.77-9.06-13,1.45-25.14,6.74-37.16,11.56-5.31,2.12-3,10.83,2.4,8.67Z" class="cls-19"></path></g><g class="cls-18"><path d="M739.49,673.46c-12-4.82-24.17-10.11-37.15-11.56-12.25-1.37-23.72,2.11-33.78,9.06-4.74,3.28-.24,11.08,4.54,7.78,9.35-6.47,19.53-9.42,30.87-7.6s22.4,6.7,33.12,11c5.38,2.16,7.71-6.54,2.4-8.67Z" class="cls-19"></path></g></g><g id="细节"><path d="M601.67,1094c11.58,0,11.6-18,0-18s-11.6,18,0,18Z" class="cls-20"></path><path d="M601.67,1127c11.58,0,11.6-18,0-18s-11.6,18,0,18Z" class="cls-20"></path><path d="M601.67,1160.05c11.58,0,11.6-18,0-18s-11.6,18,0,18Z" class="cls-20"></path><path d="M351.13,430.8a268.62,268.62,0,0,1,123.45-16.35c5.76.59,5.72-8.42,0-9a274.68,274.68,0,0,0-125.84,16.67c-5.36,2.05-3,10.76,2.39,8.68Z" class="cls-21"></path><path d="M536.76,423.74h26.83c5.79,0,5.8-9,0-9H536.76c-5.79,0-5.8,9,0,9Z" class="cls-21"></path><path d="M658.13,392.11a444.32,444.32,0,0,1,106.21,4.23c5.67.92,8.11-7.75,2.39-8.68a454.41,454.41,0,0,0-108.6-4.55c-5.74.45-5.78,9.46,0,9Z" class="cls-21"></path><path d="M778.11,421.79A145.38,145.38,0,0,1,806.4,421c5.78.41,5.76-8.59,0-9a145.38,145.38,0,0,0-28.29.75c-5.68.71-5.75,9.72,0,9Z" class="cls-21"></path><path d="M558,462.1a1019.6,1019.6,0,0,1,162.37,6.61c5.74.7,5.69-8.31,0-9A1019.6,1019.6,0,0,0,558,453.1c-5.77.22-5.8,9.23,0,9Z" class="cls-21"></path><path d="M806.41,464.65a353.25,353.25,0,0,1,73.41-1.37c5.77.5,5.74-8.5,0-9a353.25,353.25,0,0,0-73.41,1.37c-5.68.7-5.75,9.71,0,9Z" class="cls-21"></path><path d="M197.68,498.19l40.95-8.46c5.66-1.17,3.27-9.85-2.4-8.68l-40.94,8.46c-5.67,1.17-3.27,9.85,2.39,8.68Z" class="cls-21"></path><path d="M302.41,484.44h1.41a4.64,4.64,0,0,0,3.19-1.32,4.51,4.51,0,0,0,0-6.36,4.69,4.69,0,0,0-3.19-1.32h-1.41a4.64,4.64,0,0,0-3.18,1.32,4.49,4.49,0,0,0,0,6.36,4.66,4.66,0,0,0,3.18,1.32Z" class="cls-21"></path><path d="M350.23,477.47q21.4-3.12,42.44-8.2c5.63-1.37,3.25-10-2.39-8.68q-21,5.09-42.44,8.2c-5.71.83-3.28,9.5,2.39,8.68Z" class="cls-21"></path><path d="M445,447.74c5.79,0,5.8-9,0-9s-5.8,9,0,9Z" class="cls-21"></path><path d="M457.11,476a160.26,160.26,0,0,1,54.23-6.8c5.79.26,5.78-8.74,0-9a168.2,168.2,0,0,0-56.62,7.12c-5.53,1.68-3.17,10.37,2.39,8.68Z" class="cls-21"></path><path d="M512.71,388l65-8.36c5.66-.73,5.74-9.73,0-9l-65,8.36c-5.66.73-5.74,9.74,0,9Z" class="cls-21"></path><path d="M591.82,380h1.42a4.64,4.64,0,0,0,3.18-1.32,4.49,4.49,0,0,0,0-6.36,4.68,4.68,0,0,0-3.18-1.32h-1.42a4.64,4.64,0,0,0-3.18,1.32,4.49,4.49,0,0,0,0,6.36,4.66,4.66,0,0,0,3.18,1.32Z" class="cls-21"></path><path d="M679.35,435c5.79,0,5.8-9,0-9s-5.8,9,0,9Z" class="cls-21"></path><path d="M956,473.93a190.42,190.42,0,0,1,63.75,6.28c5.59,1.53,8-7.15,2.39-8.68a198.35,198.35,0,0,0-66.14-6.6c-5.74.4-5.79,9.4,0,9Z" class="cls-21"></path><path d="M902.41,428h14.12c5.79,0,5.8-9,0-9H902.41c-5.79,0-5.8,9,0,9Z" class="cls-21"></path><path d="M857.24,405.38c5.79,0,5.8-9,0-9s-5.81,9,0,9Z" class="cls-21"></path><path d="M379.11,221.5a150.4,150.4,0,0,1,36-12.1c5.67-1.15,3.27-9.83-2.39-8.68a159.5,159.5,0,0,0-38.19,13c-5.21,2.53-.65,10.29,4.54,7.77Z" class="cls-21"></path><path d="M434.06,197.85c5.79,0,5.8-9,0-9s-5.8,9,0,9Z" class="cls-21"></path><path d="M498.57,181.14a136.51,136.51,0,0,1,49.82-6.25c5.79.34,5.77-8.66,0-9a143.72,143.72,0,0,0-52.22,6.57c-5.49,1.76-3.14,10.45,2.4,8.68Z" class="cls-21"></path><path d="M461.63,215.37a382.35,382.35,0,0,1,62.43-13.28c5.67-.71,5.74-9.72,0-9a398.1,398.1,0,0,0-64.82,13.6c-5.54,1.66-3.18,10.35,2.39,8.68Z" class="cls-21"></path><path d="M601.32,200.73a317.42,317.42,0,0,1,83.59.86c5.67.82,8.11-7.85,2.4-8.68a325.77,325.77,0,0,0-86-1.18c-5.68.68-5.75,9.69,0,9Z" class="cls-21"></path><path d="M585.47,177.74c5.79,0,5.8-9,0-9s-5.8,9,0,9Z" class="cls-21"></path><path d="M682.88,176.66a128.59,128.59,0,0,1,39,5.31c5.57,1.65,8-7,2.4-8.68a137.34,137.34,0,0,0-41.39-5.63c-5.78.1-5.8,9.1,0,9Z" class="cls-21"></path><path d="M751.71,211.23a264.85,264.85,0,0,1,84.43,15.42c5.47,1.95,7.82-6.75,2.39-8.68a272.86,272.86,0,0,0-86.82-15.74c-5.79-.11-5.79,8.89,0,9Z" class="cls-21"></path><path d="M873.42,244.9a71.4,71.4,0,0,1,29.3,13.53c4.51,3.54,10.92-2.79,6.37-6.36a80.9,80.9,0,0,0-33.28-15.84c-5.64-1.22-8.06,7.46-2.39,8.67Z" class="cls-21"></path><path d="M762.29,190.44h5.3a4.5,4.5,0,0,0,0-9h-5.3a4.5,4.5,0,0,0,0,9Z" class="cls-21"></path><path d="M825.71,201.76a301.43,301.43,0,0,1,55.11,13.73c5.47,1.93,7.82-6.76,2.39-8.67a300.64,300.64,0,0,0-55.11-13.74c-5.66-.85-8.11,7.82-2.39,8.68Z" class="cls-21"></path><path d="M554.77,223.32a62.57,62.57,0,0,0,17.07-3.4c5.42-1.92,3.09-10.61-2.39-8.68a53.9,53.9,0,0,1-14.68,3.08c-5.76.36-5.8,9.36,0,9Z" class="cls-21"></path><path d="M426.76,252.68l7.39-2.19a4.5,4.5,0,1,0-2.39-8.68L424.37,244a4.5,4.5,0,0,0,2.39,8.68Z" class="cls-21"></path><path d="M723,231.42l12.69,2.22c2.39.41,4.84-.64,5.53-3.15.6-2.17-.73-5.11-3.14-5.53l-12.69-2.21a4.63,4.63,0,0,0-5.54,3.14c-.59,2.17.74,5.11,3.15,5.53Z" class="cls-21"></path><path d="M837.39,260.88l27.51,4.37c5.66.9,8.1-7.78,2.39-8.68l-27.51-4.37c-5.67-.9-8.11,7.77-2.39,8.68Z" class="cls-21"></path><path d="M1047.82,583.26h12.71c5.79,0,5.8-9,0-9h-12.71c-5.79,0-5.8,9,0,9Z" class="cls-22"></path><path d="M1088.92,591.78a71.4,71.4,0,0,1,34,23.51c3.64,4.51,10-1.89,6.36-6.36a79.6,79.6,0,0,0-38-25.83c-5.53-1.77-7.9,6.92-2.39,8.68Z" class="cls-22"></path><path d="M1077.73,622.43a42.3,42.3,0,0,1,19.08,9.71c4.31,3.84,10.7-2.5,6.36-6.36a51.67,51.67,0,0,0-23.05-12c-5.64-1.29-8,7.39-2.39,8.68Z" class="cls-22"></path><path d="M1047.12,610.79c5.79,0,5.8-9,0-9s-5.8,9,0,9Z" class="cls-22"></path><path d="M1039.37,550.54a161.63,161.63,0,0,1,36.81,7.43c5.53,1.79,7.89-6.9,2.4-8.68a171.78,171.78,0,0,0-39.21-7.75c-5.77-.46-5.74,8.54,0,9Z" class="cls-22"></path><path d="M1101.34,572.73l2.82,1.42a4.79,4.79,0,0,0,3.46.45,4.51,4.51,0,0,0,3.15-5.53,4.49,4.49,0,0,0-2.07-2.69l-2.82-1.42a4.77,4.77,0,0,0-3.47-.46,4.65,4.65,0,0,0-2.69,2.07,4.51,4.51,0,0,0,1.62,6.16Z" class="cls-22"></path><path d="M42.65,610.48c.45-3.73,12-7,14.64-8.08a157.44,157.44,0,0,1,16.93-5.46c5.6-1.48,3.22-10.16-2.39-8.68a160.25,160.25,0,0,0-24.91,8.82c-6.39,2.87-12.36,5.82-13.27,13.4-.69,5.74,8.32,5.69,9,0Z" class="cls-22"></path><path d="M88.88,588.56c5.79,0,5.8-9,0-9s-5.8,9,0,9Z" class="cls-22"></path><path d="M120.54,579.11a52.61,52.61,0,0,1,28.7-9.36c5.78-.15,5.8-9.15,0-9A61.27,61.27,0,0,0,116,571.34c-4.76,3.24-.26,11,4.54,7.77Z" class="cls-22"></path><path d="M61.49,671.24A61.13,61.13,0,0,1,87.78,634c4.86-3.13.35-10.92-4.54-7.77a70.38,70.38,0,0,0-30.43,42.6c-1.36,5.63,7.31,8,8.68,2.4Z" class="cls-22"></path><path d="M109.47,624.21c5.79,0,5.8-9,0-9s-5.8,9,0,9Z" class="cls-22"></path><path d="M141.88,611.86a186.39,186.39,0,0,1,43.62-14.59c5.67-1.15,3.27-9.83-2.39-8.68a195.63,195.63,0,0,0-45.77,15.5c-5.22,2.51-.66,10.28,4.54,7.77Z" class="cls-22"></path><path d="M122.72,630.6a145.8,145.8,0,0,0-21.37,24.95c-3.26,4.81,4.53,9.31,7.77,4.54a135,135,0,0,1,20-23.12c4.26-4-2.12-10.3-6.37-6.37Z" class="cls-22"></path><path d="M97.71,688.68c5.79,0,5.8-9,0-9s-5.8,9,0,9Z" class="cls-22"></path><path d="M173,558.79c5.79,0,5.8-9,0-9s-5.8,9,0,9Z" class="cls-22"></path><path d="M202.19,702.45c9.26-7.57,22-5.73,29.6,3.06,3.81,4.38,10.15-2,6.36-6.36-11.1-12.78-29.46-13.58-42.32-3.07-4.49,3.67,1.91,10,6.36,6.37Z" class="cls-23"></path><path d="M214.16,693.92A22.15,22.15,0,0,0,205.92,710c-.44,5.77,8.56,5.75,9,0a13.55,13.55,0,0,1,5.61-9.7c1.92-1.49,1.56-4.79,0-6.36-1.9-1.9-4.44-1.5-6.37,0Z" class="cls-23"></path><path d="M1022.91,696.08c-12.87-10.51-31.22-9.71-42.33,3.07-3.78,4.35,2.56,10.74,6.37,6.36,7.64-8.79,20.33-10.64,29.6-3.06,4.44,3.63,10.85-2.7,6.36-6.37Z" class="cls-23"></path><path d="M998.21,700.28a13.55,13.55,0,0,1,5.61,9.7c.44,5.74,9.44,5.78,9,0a22.16,22.16,0,0,0-8.25-16.06c-1.91-1.49-4.49-1.87-6.36,0-1.55,1.55-1.93,4.86,0,6.36Z" class="cls-23"></path></g><g id="线"><path d="M234.55,1202.27c40.32-69.75,92.51-133.94,158.66-180.7,7.93-5.61,14.78-10.09,24.35-12.23,11.59-2.58,23.54-3.5,35.37-4.21,5.75-.35,5.79-9.35,0-9a284.33,284.33,0,0,0-32.54,3.5c-8.33,1.48-16.24,3.61-23.32,8.37a471.76,471.76,0,0,0-44.56,34.09c-31.18,26.87-58.82,57.63-83.29,90.67a684.61,684.61,0,0,0-42.44,65c-2.91,5,4.87,9.56,7.77,4.54Z" class="cls-16"></path><path d="M751.24,1004.24c17.84-.55,36.7-1.37,53.82,4.55,9,3.12,16.94,9.44,24.66,14.88q12.4,8.72,24.21,18.21c33.44,26.91,63.36,58,89.9,91.73a702.66,702.66,0,0,1,46.79,67.52c3,4.93,10.82.41,7.77-4.54-25.15-41-54.07-79.76-87.39-114.48a539,539,0,0,0-48.34-44.68q-12.09-9.86-24.77-19c-7.93-5.69-16.11-12.18-25-16.21-19-8.57-41.25-7.65-61.61-7-5.78.18-5.8,9.18,0,9Z" class="cls-16"></path><path d="M302.73,881.79c-35-24.76-60.19-60.13-77.26-99.07-2.32-5.29-10.07-.72-7.77,4.54,17.72,40.44,44.24,76.64,80.49,102.3,4.73,3.35,9.23-4.45,4.54-7.77Z" class="cls-16"></path><path d="M1014.6,512.39a548.41,548.41,0,0,1,2.81,103.12c-.37,5.78,8.63,5.76,9,0a548.41,548.41,0,0,0-2.81-103.12c-.71-5.67-9.72-5.74-9,0Z" class="cls-16"></path><path d="M196.32,610.25c1.38-29.59,5.52-59.26,14.75-87.49,1.8-5.52-6.88-7.88-8.68-2.39-9.47,29-13.65,59.53-15.07,89.88-.27,5.79,8.73,5.78,9,0Z" class="cls-16"></path><path d="M265.62,631.53c-9.63-18.2-30.57-26.31-50.29-26.4-22.32-.11-44.91,9.44-59.49,26.51-19.91,23.31-21.44,54.63-15.11,83.42,6.37,29,21.25,58.35,50.25,69.88,23.88,9.5,51.78,3.91,73-9.48,4.89-3.08.38-10.87-4.54-7.77-16.66,10.5-37.53,15.94-57,11.41-26-6-41.75-28.63-49.43-52.88-8.39-26.5-11.25-57.64,4.58-82,11-16.85,30-27.64,49.87-29.7,18.94-2,40.87,3.58,50.39,21.56,2.71,5.12,10.49.58,7.77-4.54Z" class="cls-16"></path><path d="M950.88,636.07c8.24-15.56,26.13-22,42.91-22,20,0,39.71,8.63,52.74,23.89,17.85,20.9,18.37,49.84,12.63,75.41-5.78,25.74-18.71,53.38-45,63.32-21.5,8.12-45.87,2.92-64.87-9-4.91-3.09-9.43,4.69-4.54,7.77,19.06,12,43.08,17.63,65.21,12,28.44-7.21,46-32.13,54.46-58.87,9.21-29.09,11.68-63.67-6.24-90.07-13-19.16-34.39-30.86-57.28-33.07C979,603.36,954,611,943.11,631.53c-2.71,5.11,5.06,9.66,7.77,4.54Z" class="cls-16"></path><path d="M1019.37,1086.71c-22.25-6.41-38.84-22.85-44.27-45.49a4.54,4.54,0,0,0-5.53-3.15,28.74,28.74,0,0,1-26.08-4.51c-13.93-10.76-18.11-31-20-47.38-.21-1.79-1.24-4-3.3-4.34-19.26-2.91-38.74-7.57-56.24-16.33-14.15-7.08-28.25-17.44-32.7-33.38-1.55-5.57-10.24-3.21-8.68,2.39,4.81,17.23,19,29.32,34.28,37.44,18.83,10,40,15.39,60.94,18.56l-3.3-4.34c2.24,19.52,7.25,42.06,23.81,54.67a37.61,37.61,0,0,0,33.65,5.9l-5.53-3.14c6.14,25.65,25.39,44.53,50.55,51.78,5.58,1.6,8-7.08,2.39-8.68Z" class="cls-16"></path><path d="M1085.66,1074.93c10.8,1.7,30.48,5,33,18.36,2.18,11.54-8.56,23.24-15.94,30.62-12.2,12.21-27.39,23.61-43.12,30.85-3.14,1.45-7.93,3.49-10.95,2.36a3.27,3.27,0,0,1-1.42-1.33,14.11,14.11,0,0,1-1.55-4.68c-1-5.47-.65-11.28-.44-16.81.32-8.29.9-16.57,1.23-24.85.24-5.8-8.76-5.79-9,0-.58,14.34-3.2,29.81-.47,44.06,2.09,10.85,10.66,14.9,20.9,11.56,7.93-2.58,15.22-7.21,22.12-11.78a195.13,195.13,0,0,0,26.64-20.65c10.08-9.56,22.21-23.25,21.17-38.25-1.35-19.35-24-25.66-39.79-28.13-5.67-.89-8.11,7.78-2.4,8.67Z" class="cls-16"></path><path d="M975.05,781.73c-7.8,14.8-20.93,26.08-28.18,41.18-4.34,9-7.43,20.75-2.86,30.34,6,12.6,22.32,15.78,30.37,26.86,8.35,11.5,8.72,26.83,7.88,40.44-.15,2.55,2.2,4.33,4.5,4.5,18.11,1.3,34.85,9.15,42.58,26.31a55.52,55.52,0,0,1,3.56,34,4.56,4.56,0,0,0,4.34,5.7c30.11-.34,38.92,34.55,29.31,57.94-2.2,5.35,6.5,7.69,8.68,2.39,11.94-29.06-2.29-69.73-38-69.33l4.33,5.7a64.92,64.92,0,0,0-4.83-41.71c-9.38-19.57-29.18-28.48-50-30l4.5,4.5c1.36-22-2.56-43.5-21.39-57-5.1-3.65-11.18-6.35-15.42-10.87-5-5.29-4.07-13.42-1.77-20.39,5.79-17.57,21.63-29.9,30.14-46.05,2.7-5.12-5.07-9.68-7.77-4.55Z" class="cls-16"></path><path d="M1072.06,1043.61l-61.18,47.45a4.49,4.49,0,0,0-.71,5.46l18.12,23.7c1.84,2.4,4.67,3,7.07.91l56.76-49.15a4.52,4.52,0,0,0,.7-5.45l-13.7-22c-3-4.91-10.84-.4-7.77,4.54l13.7,22,.71-5.45L1029,1114.77l7.07.91L1017.94,1092l-.7,5.46,61.18-47.46C1083,1046.43,1076.58,1040.1,1072.06,1043.61Z" class="cls-16"></path><path d="M765.9,961.46c9.6.93,25.42,6.86,16.59,18.16-5.31,6.8-14.46,10.52-22.4,13.08-9.06,2.92-18.43,4.39-27.83,5.7-34.77,4.86-71,9.29-103.53,23.08-13.36,5.66-30.46,14.73-33.07,30.64h8.68c-2.2-13.41-15.14-22.09-26.42-27.63-16.26-8-34.11-12.63-51.75-16.42-16.91-3.62-34-6.26-51.14-8.66-16.83-2.35-36.26-3.45-50.63-13.29-2.07-1.42-4.46-3.49-5.17-5.69a3.84,3.84,0,0,1,1-4c4.73-5.72,14.36-7.11,21.22-7.76,5.71-.54,5.77-9.55,0-9-11.08,1.05-32.34,5.3-31.33,20.5.46,6.91,6.51,12,12.08,15.15,10.35,6,22.63,8.61,34.29,10.47,34.5,5.5,69.55,8.92,102.71,20.61,13.08,4.61,33.9,12.26,36.5,28.12.71,4.29,8,4.3,8.68,0,2.29-14,19-21.36,30.67-25.94,18.67-7.37,38.55-11.62,58.25-15.16,15.77-2.82,31.64-4.84,47.48-7.2,17.08-2.54,43.18-7.81,51.58-25.46a16.71,16.71,0,0,0-2.6-18.74c-6-6.6-15.36-8.73-23.82-9.55-5.76-.56-5.73,8.44,0,9Z" class="cls-16"></path><path d="M627,973.24c-13.2,14.23-24.35,29.63-32,47.55l8.22,1.07c-3.92-9.85-8.53-19.23-15.22-27.51s-14.81-14.68-23-21.11c-4.5-3.54-10.92,2.79-6.36,6.37,7.56,5.94,15.19,12,21.48,19.3s10.8,16.3,14.4,25.35c1.23,3.08,6.52,5,8.23,1.07,7.38-17.23,17.91-32,30.62-45.72,3.93-4.24-2.42-10.62-6.37-6.37Z" class="cls-16"></path><path d="M267,678.41c1.4-17,.89-34.28-.23-51.32-1.21-18.26-3.16-36.76-7.78-54.52-1.46-5.6-10.14-3.23-8.68,2.39,4.55,17.49,6.42,35.65,7.55,53.64,1,16.54,1.5,33.28.14,49.81-.47,5.77,8.53,5.74,9,0Z" class="cls-16"></path><path d="M702.38,964.14c-57.09,8.15-115.61,9.65-173.15,6.45-44.78-2.49-90.11-8.45-132.58-23.44C368,937.05,340.57,922.23,319,900.53c-17.76-17.88-30.54-39.91-38.42-63.79-8.9-27-12-55.41-13.09-83.68-.23-5.77-9.23-5.8-9,0,1,26.19,3.69,52.59,10.89,77.87,7.16,25.1,19,48.68,36.23,68.42,20.24,23.22,46.84,39.71,75.14,51.35,40.41,16.62,84.37,23.82,127.7,27.45a894.63,894.63,0,0,0,176.75-2.79q9.78-1.14,19.53-2.54c5.71-.81,3.28-9.48-2.39-8.68Z" class="cls-16"></path><path d="M941.31,743.25c-2.85,35.15-9.76,70.58-26.34,102-19.28,36.54-50.5,64-87.08,82.55-28.48,14.45-59.35,23.67-90.52,30.21-5.66,1.19-3.27,9.86,2.39,8.68,51.12-10.73,102.72-29.2,142.15-64.61,28.93-26,48.28-60.16,58.39-97.5,5.42-20,8.33-40.69,10-61.36.46-5.78-8.54-5.74-9,0Z" class="cls-16"></path><path d="M949.68,586.7c-8,25.52-8.51,52.73-6.11,79.18.52,5.72,9.52,5.77,9,0-2.33-25.7-2-52,5.79-76.79,1.75-5.53-6.94-7.9-8.68-2.39Z" class="cls-16"></path><path d="M316.39,238.75a130.82,130.82,0,0,1,41.54-45c18.48-12.52,39.06-21.74,60.11-29,51.39-17.77,106.28-25.23,160.42-27.56,56.49-2.44,113.64.8,169.21,11.53C791.79,157.26,838.6,170,875.35,197c19.12,14,31.95,33.51,42.74,54.39,19.39,37.53,31.1,79.81,32.58,122.07a250.56,250.56,0,0,1-1.2,34.65c-.6,5.75,8.41,5.71,9,0,4.71-45.42-3.36-91.82-20.25-134.07-10.61-26.54-24.43-54.78-45.73-74.51-14.76-13.67-32.58-23.81-50.88-31.94-22.74-10.11-46.63-17.44-70.85-23.08-55.72-13-113.53-17.76-170.67-16.89-56.67.87-114.21,7.16-168.66,23.44C390,163.4,345.49,182.46,318.81,218.08a148.29,148.29,0,0,0-10.19,16.12c-2.86,5.05,4.91,9.59,7.77,4.55Z" class="cls-16"></path><path d="M259.6,437.8A263.15,263.15,0,0,1,262,405.71c.75-5.72-8.26-5.67-9,0a263.15,263.15,0,0,0-2.42,32.09c0,5.8,9,5.8,9,0Z" class="cls-16"></path><path d="M392.9,281a709.32,709.32,0,0,1,144.38-34.42,633,633,0,0,1,155.67,0,711.52,711.52,0,0,1,140.36,31.33c34.12,11.41,69,25.35,98.22,46.76,5.18,3.8,12.24,8.45,15.84,13.89a30,30,0,0,1,1,4.74c.41,2.46.72,4.93,1,7.41.52,5.06.81,10.14,1,15.23a389.66,389.66,0,0,1-.84,42.13l6.77-3.89c-27.84-19.28-60.31-31.58-92.66-40.92-41.28-11.92-83.91-19-126.58-23.64-98.76-10.74-199.29-10-296.26,13.23-45.21,10.84-89.59,26.06-131.28,46.73-5.19,2.58-.63,10.34,4.55,7.77,78.51-38.92,166.93-59.29,254.15-64.25,49.78-2.84,100.15-.85,149.77,3.63,43.56,3.92,87.06,10.37,129.42,21.41,36.42,9.49,73.18,22.22,104.35,43.81,3,2.1,6.54-.77,6.77-3.88.92-12.44,1.21-25,1-37.44a217.43,217.43,0,0,0-2-27.35c-.59-4-.87-8-3.68-11.08a85.87,85.87,0,0,0-6.54-6.4c-25.62-22.83-59-37.23-90.72-49.19-44.85-16.91-91.8-28.46-139.15-35.7-52.42-8-105.62-10.61-158.48-5.7a710.18,710.18,0,0,0-168.33,37.11c-5.43,1.9-3.09,10.6,2.39,8.68Z" class="cls-16"></path><path d="M397.88,1012.55c15.71,28.79,23.13,60.35,24.32,93,1.1,30.43-2.24,60.77-3.62,91.13-.26,5.79,8.74,5.78,9,0,1.43-31.48,5-63,3.47-94.53-1.57-33.07-9.49-65-25.4-94.16-2.78-5.08-10.55-.54-7.77,4.55Z" class="cls-16"></path><path d="M810.94,1008c-15.92,29.16-23.84,61.09-25.41,94.16-1.5,31.56,2,63,3.47,94.53.27,5.77,9.27,5.8,9,0-1.38-30.36-4.71-60.7-3.61-91.13,1.18-32.66,8.6-64.22,24.32-93,2.78-5.09-5-9.64-7.77-4.55Z" class="cls-16"></path><path d="M951.7,412c25.31,16.72,49.57,35.16,73.23,54.13,27.6,22.14,55,45.27,78.81,71.49,9.1,10,18.93,21,24.12,33.71,1.89,4.61,8.49,4.13,8.84-1.19.24-3.55-1.76-7.51-3.59-10.38-5.87-9.22-15.62-15.74-25-20.87-20.86-11.39-44.32-18.07-67.34-23.45-43.23-10.11-87.63-15.29-131.82-19-73.14-6.11-146.65-7.48-220-7.05q-135.6.79-271.1,9.41c-62.65,4-125.26,9.52-187.46,18.15-37.83,5.26-75.64,11.59-112.7,20.9C98.42,542.65,79.2,548.23,61,556.2c-5.69,2.49-14.06,5.43-18.37,10.27-.15.16-.35.28-.51.44l7.06,5.45c6.48-8.4,15.46-15.3,23.75-21.82,12.82-10.09,26.27-19.39,39.85-28.41,31.13-20.67,63.34-39.87,96.37-57.36,15.39-8.15,31-16,47.14-22.63,5.3-2.15,3-10.86-2.39-8.67-31.91,13-62.3,30-92,47.41-31.44,18.47-62.56,38-91.47,60.26-10.36,8-21,16.26-29.06,26.68-3.2,4.15,3.51,8.86,7.07,5.45a3.87,3.87,0,0,1,.54-.46c.77-.51-1.22.86-.13.1.37-.26.73-.53,1.11-.78a81.57,81.57,0,0,1,8.48-4.86c2.4-1.2,4.84-2.32,7.3-3.4,2-.88,1.22-.55,3.73-1.57q2.59-1,5.2-2c9.06-3.42,18.31-6.35,27.61-9,31.36-9,63.52-15.19,95.7-20.43,54.51-8.86,109.53-14.6,164.57-19.05,83.9-6.79,168.05-10.35,252.2-12.31,81.23-1.89,162.62-1.95,243.78,2.5,50.69,2.78,101.54,7.09,151.51,16.25,27.06,5,56.26,11.63,80.63,22.19a132.43,132.43,0,0,1,21,11.16c1.27.84,2.51,1.73,3.73,2.64s-.45-.4.79.61c.52.43,1,.85,1.56,1.29a51.47,51.47,0,0,1,4.86,4.71c.51.57,2.21,2.75,1.18,1.36.48.65.95,1.3,1.39,2a28.74,28.74,0,0,1,1.83,3.36c-.8-1.69.17.72.46,1.56.57,1.6-.26.36.13.48a1.89,1.89,0,0,1,0,.54l8.84-1.2c-4.69-11.46-12.39-21.43-20.37-30.8-11-13-23.27-24.92-35.79-36.45-27.3-25.14-56.37-48.4-86.13-70.54-12.46-9.27-25.06-18.36-38-26.92-4.85-3.2-9.36,4.59-4.54,7.77Z" class="cls-16"></path><path d="M202.84,519.29c-13.88,28.33-13.35,59.81-15.5,90.48l3.31-4.34c-23.14,8.57-42.41,24.25-50.58,48.08-5.45,15.88-5.44,33.34-2.28,49.7a77,77,0,0,0,2.66,10.56l5.53-5.54c-26.11-3.57-52.5-9.76-75.95-22.15-15.92-8.41-31-20-39.89-36-16.32-29.36-1.6-60.64,22.4-80.35,9.94-8.16,21.65-13.11,33.73-17.23,17.42-5.93,35.41-10.19,53.41-13.93,51.36-10.68,103.65-17,155.81-22.25,64.68-6.48,129.58-10.74,194.51-13.54,68.71-3,137.49-4.09,206.26-4.09,61.43,0,122.89,1,184.24,4.29,46.52,2.52,93.24,6.08,139.2,14,27.77,4.8,58.48,10.27,82.86,25.31,15.17,9.35,27.45,26.93,30.53,44.77,4.5,26.06-14.37,48.32-33.58,63.2a200.74,200.74,0,0,1-34.73,21.15l6.77,3.88c.75-29.31-21.44-53.75-47.23-64.1l3.3,4.34c0-33.81-1.06-67.64-2-101.44-.17-5.78-9.17-5.81-9,0,1,33.8,2,67.63,2,101.44a4.66,4.66,0,0,0,3.31,4.34c22.23,8.92,41.26,30.59,40.62,55.42-.09,3.62,3.84,5.33,6.77,3.89,24.14-11.84,48.8-27.92,63.32-51.18,14.8-23.72,11.92-50.86-4.35-73.08a77.75,77.75,0,0,0-30.21-25.29c-13-6.23-26.84-10.5-40.76-14-41.31-10.39-84.18-14.86-126.55-18.3-59.29-4.82-118.82-6.61-178.29-7.33q-107.16-1.31-214.35,2c-68.88,2.16-137.73,6-206.39,12-57.22,5-114.5,11.24-171,21.44-20.83,3.75-41.62,8-62,13.85-14,4-28.28,8.52-40.91,15.83-27.26,15.8-48.63,47.35-42.72,79.71,7.34,40.18,50,62.52,85.41,73.09a286.48,286.48,0,0,0,43.1,9c3.08.42,6.79-1.91,5.54-5.54-8.22-23.81-6.27-54.12,9.84-74.13,8.81-10.93,21-18.3,34.07-23.13a4.72,4.72,0,0,0,3.3-4.34c2-28.86,1.2-59.26,14.28-85.93,2.54-5.18-5.22-9.75-7.78-4.55Z" class="cls-16"></path><path d="M312.33,340c-1.77,29.31-3.09,58.82-9.22,87.63l8.22-1.08A137.31,137.31,0,0,1,298,389.5c-.74-3.64-6.6-4.55-8.22-1.07C283,403,274.7,422.71,256.86,425.71l5.7,4.34-.26-98.55c0-4.56-6-6-8.39-2.28C237.7,355,223.21,387.09,195.85,403l6.61,5.08q4-25.47,6.67-51.13c.33-3.14-3.12-4.82-5.69-4.34-23.1,4.37-47.48,5.51-70.61.81l1.07,8.23c42.47-20.61,84-43.27,123.65-68.94,3.38-2.19,2.49-9-2.27-8.39-13.75,1.65-30.45.62-39.22-11.22-7.22-9.74-7.3-23-4.43-34.58,5.9-23.83,27.84-50.78,55.06-42.27,23.11,7.22,37.51,32.84,47.39,53.06a4.5,4.5,0,0,0,5.08,2.07c14.32-5.33,30.38-7.89,45.19-2.91,11.89,4,20.83,13.55,22.65,26.15,3.74,25.94-17.59,54.38-41.08,63.56-6.37,2.49-13.32,3.46-19.95,1.37-8.6-2.72-14.57-9.95-19-17.44-3-5-10.75-.45-7.77,4.55,9,15.14,23.31,25.61,41.56,22.35,15.18-2.71,28.68-13.63,38.31-25.18,10.46-12.53,17.69-28.17,17.3-44.79-.35-15.1-8.25-28.69-21.66-35.85-17.82-9.51-39.59-7.31-57.91-.49l5.09,2.07c-10.35-21.19-24.75-45.14-47.3-55.1a44.15,44.15,0,0,0-43.94,4.51c-23,16.27-39,53.56-24.46,80.07,9.66,17.66,30.75,21.27,49.13,19.07L253,284.92c-39.63,25.67-81.18,48.33-123.65,68.94-3.41,1.65-2.62,7.47,1.08,8.22,24.8,5,50.62,3.87,75.39-.81l-5.7-4.34q-2.55,24.45-6.35,48.74c-.58,3.7,2.94,7.22,6.61,5.08,28.86-16.76,44.19-49.81,61.29-77l-8.38-2.27.26,98.55c0,3.16,2.85,4.82,5.7,4.34,20.38-3.43,30.47-24.63,38.32-41.42l-8.22-1.08a145.27,145.27,0,0,0,14.2,39.21c1.77,3.32,7.42,2.7,8.22-1.07,6.31-29.59,7.73-59.91,9.55-90,.35-5.79-8.65-5.77-9,0Z" class="cls-16"></path><path d="M948.19,661.54c-8.4-3.43-13.08-14.34-16.89-21.84C925.9,629.09,921,618.18,914,608.47c-7.58-10.53-18.89-17.27-25.88-28.18-7.81-12.21-12.16-26.24-18.58-39.16-2.26-4.54-9.85-1.37-8.23,3.47,5.08,15.19,9.22,30.34,12.8,46,4.63,20.28,8.15,41.4,15.22,61l6.61-5.08c-44.91-19.11-74.61-60.26-103.08-98-2.71-3.59-8-2.38-8.39,2.28-.43,4.82,1.21,7,2.45,11.89,1.44,5.69,2.77,11.4,4.45,17,6.8,22.8,17.48,44.32,29.18,64.95l5.08-6.61c-9.58-1.51-18.94-4.94-28-8.35a373.86,373.86,0,0,1-40.42-18.23c-27.55-14.37-56.43-32.13-75.41-57.31-8.74-11.61-14.91-25.24-13.42-40,.5-5-8.06-6.22-8.84-1.2-8.31,53.79-65.74,84.52-112.69,99.41l5.08,6.61c8.17-15.82,16.09-31.78,23-48.18,6.4-15.08,14.83-33,13.89-49.79-.24-4.34-6-6.27-8.38-2.27-9.72,16.56-26,30-40.72,41.95-19.29,15.73-40.24,30.07-62.71,40.85-10.16,4.88-21.16,9.38-32.44,10.67l4.34,5.69c5.56-13.5,10.87-27.1,15.76-40.86,4.7-13.2,10.58-27.58,11.25-41.75.19-4.24-6.6-6.45-8.39-2.28-3.76,8.78-10.59,15.77-17.71,21.94-9.43,8.18-20,15-30.77,21.31-24.43,14.26-50.57,25.75-77.24,35.11a327.17,327.17,0,0,1-38.18,11.18l4.37,7.52c31.33-24.47,49.75-66.37,47.2-106-.37-5.75-9.37-5.79-9,0,2.42,37.54-14.9,76.45-44.56,99.62-3.82,3,.43,8.39,4.38,7.52,25.76-5.65,50.81-15.13,74.91-25.71,25.55-11.22,51.19-24.27,72.8-42.13,8.55-7.07,17.13-15.47,21.57-25.83L467,535.28c-.28,5.78-2,11.55-3.63,17.07-2.28,7.93-5,15.74-7.73,23.51-4.78,13.34-9.93,26.54-15.33,39.64-1,2.54,1.64,6,4.34,5.7,22.87-2.61,44.46-14.71,63.6-26.78a353.78,353.78,0,0,0,60.29-47.35c7.27-7.2,14.54-14.93,19.75-23.8L579.88,521c.4,7.06-1.57,14.12-3.61,20.81a255.9,255.9,0,0,1-10.1,26.89c-6.7,15.54-14.24,30.69-22,45.73-1.7,3.3,1.15,7.86,5.09,6.61,49.74-15.78,110.17-48.77,119-105.7l-8.84-1.19c-3,30.28,21.25,55.76,43.11,73.09,25.93,20.56,55.73,36.37,86.37,48.67,11,4.42,22.56,9,34.35,10.84,3.73.59,7.16-2.93,5.08-6.61-11.4-20.11-21.81-41-28.4-63.21-1.58-5.33-2.85-10.73-4.2-16.12-.47-1.89-.94-3.79-1.58-5.63a16.79,16.79,0,0,0-1.11-2.83c-.86-1.57.45.72.21,1,.33-.41.18-2,.23-2.55l-8.38,2.27c29.35,38.88,60,81.5,106.31,101.21,3.19,1.36,8.09-1,6.61-5.08-7.07-19.63-10.59-40.75-15.23-61-3.57-15.63-7.71-30.79-12.79-46l-8.23,3.46c6.63,13.35,11.06,27.92,19.39,40.38,7.68,11.51,19.64,18.6,27.3,30.2,6.93,10.5,11.8,22.13,17.8,33.16,4.66,8.56,10.23,17,19.57,20.81,5.36,2.18,7.69-6.52,2.39-8.68Z" class="cls-16"></path><path d="M263.72,682.75c32.25-9.29,59.31-32.6,76.37-61.15,3-5-4.8-9.51-7.77-4.54-15.87,26.56-41,48.36-71,57-5.55,1.6-3.19,10.29,2.4,8.68Z" class="cls-16"></path><path d="M718.18,971.16a18.42,18.42,0,0,0,6.66-1.07c2.2-.81,3.93-3.09,3.14-5.54-.7-2.16-3.17-4-5.54-3.14-.82.3-1.64.47-2.49.69-.33.06-.26,0,.21,0l-.59,0c-.47,0-.93,0-1.39,0a4.53,4.53,0,0,0-4.5,4.5,4.59,4.59,0,0,0,4.5,4.5Z" class="cls-16"></path></g></g></svg>