<svg viewBox="0 0 1200 1200" xmlns="http://www.w3.org/2000/svg"><defs><style>.cls-1{isolation:isolate;}.cls-2{fill:#d6ecf4;}.cls-3{fill:#e6faff;}.cls-4{fill:#fff;}.cls-5{fill:#c1d376;}.cls-6{fill:#dd5d4b;}.cls-7{fill:#ffede1;}.cls-8{fill:#ffccc2;}.cls-9{fill:#eaa49d;}.cls-10{fill:#331403;}.cls-11{mix-blend-mode:multiply;}.cls-12{fill:#eab394;}.cls-13{fill:#f4867a;}.cls-14{fill:#f9bca5;}.cls-15{fill:#040000;}</style></defs><title>touxiang</title><g class="cls-1"><g id="bg"><rect height="1200" width="1200" class="cls-2"></rect><path d="M301.11,151.67A149.45,149.45,0,1,0,151.66,301.11,149.45,149.45,0,0,0,301.11,151.67ZM151.66,258.93A107.27,107.27,0,1,1,258.93,151.67,107.39,107.39,0,0,1,151.66,258.93Z" class="cls-3"></path><path d="M450.56,301.11A149.45,149.45,0,1,0,301.11,151.67,149.44,149.44,0,0,0,450.56,301.11Zm0-256.72A107.27,107.27,0,1,1,343.29,151.67,107.4,107.4,0,0,1,450.56,44.39Z" class="cls-3"></path><path d="M749.45,301.11A149.45,149.45,0,1,0,600,151.67,149.45,149.45,0,0,0,749.45,301.11Zm0-256.72A107.27,107.27,0,1,1,642.18,151.67,107.41,107.41,0,0,1,749.45,44.39Z" class="cls-3"></path><path d="M1048.33,301.11A149.45,149.45,0,1,0,898.9,151.67,149.44,149.44,0,0,0,1048.33,301.11Zm0-256.72A107.27,107.27,0,1,1,941.07,151.67,107.4,107.4,0,0,1,1048.33,44.39Z" class="cls-3"></path><path d="M301.11,450.56A149.45,149.45,0,1,0,151.66,600,149.45,149.45,0,0,0,301.11,450.56ZM151.66,557.82A107.27,107.27,0,1,1,258.93,450.56,107.39,107.39,0,0,1,151.66,557.82Z" class="cls-3"></path><path d="M600,450.56A149.45,149.45,0,1,0,450.56,600,149.45,149.45,0,0,0,600,450.56ZM450.56,557.82A107.27,107.27,0,1,1,557.82,450.56,107.39,107.39,0,0,1,450.56,557.82Z" class="cls-3"></path><path d="M749.45,301.11A149.45,149.45,0,1,0,898.9,450.56,149.45,149.45,0,0,0,749.45,301.11Zm0,256.71A107.27,107.27,0,1,1,856.72,450.56,107.39,107.39,0,0,1,749.45,557.82Z" class="cls-3"></path><path d="M1197.78,450.56A149.44,149.44,0,1,0,1048.33,600,149.44,149.44,0,0,0,1197.78,450.56ZM1048.33,557.82a107.27,107.27,0,1,1,107.28-107.26A107.39,107.39,0,0,1,1048.33,557.82Z" class="cls-3"></path><path d="M301.11,749.45A149.45,149.45,0,1,0,151.66,898.9,149.45,149.45,0,0,0,301.11,749.45ZM151.66,856.72A107.27,107.27,0,1,1,258.93,749.45,107.4,107.4,0,0,1,151.66,856.72Z" class="cls-3"></path><path d="M450.56,600A149.45,149.45,0,1,0,600,749.45,149.45,149.45,0,0,0,450.56,600Zm0,256.72A107.27,107.27,0,1,1,557.82,749.45,107.4,107.4,0,0,1,450.56,856.72Z" class="cls-3"></path><path d="M600,749.45A149.45,149.45,0,1,0,749.45,600,149.46,149.46,0,0,0,600,749.45ZM749.45,642.18A107.27,107.27,0,1,1,642.18,749.45,107.4,107.4,0,0,1,749.45,642.18Z" class="cls-3"></path><path d="M898.9,749.45A149.44,149.44,0,1,0,1048.33,600,149.44,149.44,0,0,0,898.9,749.45Zm149.43-107.27A107.27,107.27,0,1,1,941.07,749.45,107.39,107.39,0,0,1,1048.33,642.18Z" class="cls-3"></path><path d="M151.66,898.9a149.44,149.44,0,1,0,149.45,149.43A149.44,149.44,0,0,0,151.66,898.9Zm0,256.71a107.27,107.27,0,1,1,107.27-107.28A107.4,107.4,0,0,1,151.66,1155.61Z" class="cls-3"></path><path d="M450.56,898.9A149.44,149.44,0,1,0,600,1048.33,149.44,149.44,0,0,0,450.56,898.9Zm0,256.71a107.27,107.27,0,1,1,107.26-107.28A107.39,107.39,0,0,1,450.56,1155.61Z" class="cls-3"></path><path d="M749.45,898.9A149.44,149.44,0,1,0,898.9,1048.33,149.44,149.44,0,0,0,749.45,898.9Zm0,256.71a107.27,107.27,0,1,1,107.27-107.28A107.39,107.39,0,0,1,749.45,1155.61Z" class="cls-3"></path><path d="M898.9,1048.33A149.44,149.44,0,1,0,1048.33,898.9,149.43,149.43,0,0,0,898.9,1048.33Zm149.43-107.26a107.27,107.27,0,1,1-107.26,107.26A107.39,107.39,0,0,1,1048.33,941.07Z" class="cls-3"></path></g><g id="涂色"><path d="M848.18,939.54c-8.72,3.84-17.62,7.26-26.6,10.31-46.56,15.79-95.82,22.93-145.05,25.88a540.34,540.34,0,0,0-31.64,47.12,25.44,25.44,0,0,1,2,2.15,32.9,32.9,0,0,1,5.37,9.46,5.4,5.4,0,0,0,.51-.74,1,1,0,0,1-.27-1c4.83-19.3,21.47-36,39.65-43.25,16.34-6.55,33.94-3.41,43.87,12a58.5,58.5,0,0,1,7.23,17l12.25-8.38L776.09,996c4.09-2.8,7.84-6.12,12.65-7.39,32-8.49,65-11.48,97.68-16.3C872.2,962.93,859.25,952.56,848.18,939.54Z" class="cls-4"></path><path d="M815.53,1193.31a1,1,0,0,1-.27-.66q-1-18.56-.43-37.15c.64-23.38,2.65-47,8.2-69.81,3.78-15.53,9.41-33.53,22.29-44.06a396.14,396.14,0,0,0-70.75-43.58.94.94,0,0,1-.57-.8c-1.23.92-2.45,1.83-3.67,2.66l-30.51,20.86a117.3,117.3,0,0,1,2.55,18c1.17,16.33.85,34.15-4.42,49.84-16.16,48.05-69.82,9.58-94.39-9.91-4.59,6.69-11.62,11.09-20.51,8.13a26.23,26.23,0,0,1-11.7-8.13c-17.37,13.87-37.84,30-60.41,33.11-7.93,1.1-11.85-1.46-18.25-6.54-8.6-6.83-12.62-17.71-14.53-28.1a150.39,150.39,0,0,1-.34-51.1c.27-1.62.58-3.25.94-4.88-4.27-2.92-12.41-5-16.68-8l-13.24-9.05a376.65,376.65,0,0,0-43.5,27q-6.58,4.72-12.95,9.72c6.87,5.29,11.57,12.77,15.13,20.59,8.91,19.58,12.24,41.68,14.35,62.92a456,456,0,0,1,1.49,68.24,1.1,1.1,0,0,1-.91,1c-.35,1.63-.57,3.28-.8,4.93l91.9-.14,99.57-.15,98.13-.15,64.79-.1A45.13,45.13,0,0,1,815.53,1193.31Z" class="cls-5"></path><path d="M461.37,1193.4a1,1,0,0,1-.26-.75c1.44-28.07.66-56.54-3.47-84.36-1.92-12.94-4.57-25.9-9-38.22-3.69-10.17-8.84-20.88-17.7-27.53a1.1,1.1,0,0,1-.26-.27c-53.49,42.25-96,97.26-129.41,156.42,2.53-.4,5.88.17,8.26.17l17.48,0,56.15-.08,77.41-.12C460.78,1196.88,461,1195.13,461.37,1193.4Z" class="cls-4"></path><path d="M941.06,1139.6c-27-35.91-58.4-69-93.95-96.57-8.48,6.68-13.49,17.11-17.09,27-4.47,12.32-7.13,25.28-9,38.22-4.13,27.82-4.91,56.29-3.46,84.36a1,1,0,0,1-.84,1,43.17,43.17,0,0,0,.5,4.38l23.65,0,73.4-.11,49.62-.08,16.24,0A664.54,664.54,0,0,0,941.06,1139.6Z" class="cls-4"></path><path d="M494.61,1000.69c1.28-.67,2.42,1.27,1.13,1.94l-.66.36,24.34,16.64c2.15-8.76,5.7-17.36,11.9-23.91,12.32-13,30.92-11.26,45.58-3.42,13.67,7.33,26,19.84,31.68,34.61a22.64,22.64,0,0,1,5.81-6.76c-9-14.69-18.46-29.07-28.79-42.84-54.35-1.19-109.51-7-160.5-25.48-5.76-2.08-11.46-4.36-17.06-6.84-9.76,10.72-21.43,19.39-33.52,27.31,18.51,2.73,37.11,4.87,55.59,7.75,8.64,1.35,17.25,2.86,25.81,4.68,6.11,1.3,13.91,2,19.54,4.84,4.42,2.21,8.55,5.85,12.62,8.63l4.9,3.35C493.52,1001.27,494.06,1001,494.61,1000.69Z" class="cls-4"></path><path d="M570.21,992.05c-15.89-6.82-33.24-4.25-42.81,11.18a60.11,60.11,0,0,0-7.18,18.29,1.37,1.37,0,0,1-.09.4,116.78,116.78,0,0,0-2.42,18.25c-1,15.6-.63,32.37,4.28,47.36,15.21,46.48,67.7,7.92,91-10.58-5.13-6.88-8-15.86-9.23-23.77,0,0,0-.07,0-.11a1.05,1.05,0,0,1,0-.19c-1-7.53-.57-16.12,2.5-23.21C600.61,1013,586.06,998.85,570.21,992.05Z" class="cls-6"></path><path d="M615.8,1077c3.44,4.2,7.82,7.32,13.32,8.28,7.4,1.3,12.56-2.72,16-8.39a1.24,1.24,0,0,1,.33-.56,46.85,46.85,0,0,0,5.23-15.53c2-12.37,1-27.14-8.39-36.39a1.19,1.19,0,0,1-1.16-1.11c-6.89-6-17-7.48-24.88-2.45a21.28,21.28,0,0,0-7.7,8.84c.31,1,.6,2,.85,3a1.13,1.13,0,0,1-2.17.6,1.17,1.17,0,0,0,0-.2c-2,6.21-2.08,13.31-1.28,19.62,1.15,7.48,4,16.64,9.14,23.4A1.21,1.21,0,0,1,615.8,1077Z" class="cls-6"></path><path d="M740.66,1021.6a1.23,1.23,0,0,1-.4-1.7c-2-8.18-5.31-16.16-11-22.32-11.89-12.85-30-10.64-44.06-2.81-14.51,8.09-27.43,22.13-31.53,38.52a1,1,0,0,1-1,.79,5.42,5.42,0,0,1-1,1.39s-.05,0-.07.06c3.62,10.68,2.64,23.26-.53,33.61a36.61,36.61,0,0,1-3.34,7.66C664.24,1089.94,683,1104.53,704,1109c7.81,1.67,16.27,1.38,23-3.37,8.64-6.09,12.27-17.22,14.22-27.12a147,147,0,0,0,.76-49.86C741.64,1026.33,741.2,1024,740.66,1021.6Z" class="cls-6"></path><path d="M236.91,387.7a.88.88,0,0,1,1,.76,3.08,3.08,0,0,1,1.94.74.59.59,0,0,1,.17.26,1.15,1.15,0,0,1,1.31,1.39,315.63,315.63,0,0,0-8.8,53c-1.86,26.48,2.39,52.91,7,78.9,5.08,28.49,10.49,56.91,12.94,85.78,16.12,1.27,32.27,8.19,40.92,22.24-.87-19.2-3-38.31-7.81-56.89a1.13,1.13,0,0,1,2.17-.6,216.69,216.69,0,0,1,4.53,22.43c4.6,30.62,4.15,61.77,3.7,92.68,15.65-16.65,27.05-36.58,36.8-57.16,4.45-9.41,8.39-19,12.78-28.48,4.56-9.82,9.8-19.33,13.68-29.46,8.09-21.14,3.25-43.8,9-65.43,4.15-15.55,10.36-32.41,21.12-44.65,4.41-5,9-9.86,13.46-14.86,2.2-2.47,4.41-4.95,6.4-7.59.89-1.18,2.59-3,2.67-4.53a1.13,1.13,0,0,1,2.25,0,130.56,130.56,0,0,0,19,61.37c4.65,7.46,10.52,14.66,18.35,18.94,2.23,1.23,5.76,3.62,7.48-.61a8.33,8.33,0,0,0,.18-2.6c0-1.94-.1-3.89-.09-5.84q0-5.64.62-11.25a128.21,128.21,0,0,1,12-42.33,130.63,130.63,0,0,1,26.8-37.33,122.81,122.81,0,0,1,17.13-13.89c2.76-1.84,6.26-3.21,8.16-5.84,1-1.45,1.82-3.19,2.71-4.74a1.14,1.14,0,0,1,2.1.56c3.83,54.94,54.44,87.09,97.27,112.35,1.4-5-3.73-10.53-6.05-14.43q-3.09-5.19-5.71-10.64a143.09,143.09,0,0,1-14.12-68.31,1.14,1.14,0,0,1,1.42-1.08c2.66.36,5.71.36,8.25,1.21,3.11,1,6.42,3.72,9.23,5.38s5.74,3.4,8.59,5.13a370.35,370.35,0,0,1,34.54,23.25c19.83,15.29,37.19,33.77,47.37,56.8a252.79,252.79,0,0,0,4.7-114c-.19-1,1.08-2,1.88-1.09,17.14,19.68,32.09,40.38,43,64.25a238.57,238.57,0,0,1,20.9,82.62A240.49,240.49,0,0,0,843,413.81a1.14,1.14,0,0,1,1.39-.78c15.15,4.71,12,28.15,12.22,40l1.17,76c15.73-9.44,25.75-29.36,26.37-47.32a1.14,1.14,0,0,1,1.92-.79c12.82,10.95,25.7,22,36.76,34.78A139.14,139.14,0,0,1,947.1,556c6.14,15.64,10,32.07,13.47,48.46,3.92,18.33,7.73,36.68,11.6,55a1.22,1.22,0,0,1,0,.54c1.38,3.06,4.19,5.09,6.81,7.17.08-10.78.14-21.63.57-32.47a1.17,1.17,0,0,1-1.47-1.61c.52-1,1.08-1.92,1.67-2.84A256.86,256.86,0,0,1,985,587.46c.31-1.42,2.48-.81,2.17.6-1.36,6.18-2.37,12.44-3.13,18.72-.8,6.64-1.36,13.29-1.78,20,9.85-12.33,26-17.92,41.8-18.33a415.25,415.25,0,0,1,7.32-48.74c5.4-25.83,13-51.23,16.93-77.36,4.51-30.11,1.7-59.78-4.44-89.48a1.17,1.17,0,0,1,2-1,5.87,5.87,0,0,1,1,.39.91.91,0,0,1,1.29-.13c11.12,8,21.06,17.13,28.95,28.39,7.5,10.71,13.71,22.3,20.65,33.39-1.67-27-10.78-52.33-25.44-75.13-15.88-24.69-36.55-45.92-57.1-66.72a1.07,1.07,0,0,1,.06-1.59C989.49,259.83,949.79,217.13,899,191.2c-1.3-.66-.16-2.6,1.13-1.94q2.21,1.13,4.39,2.3a1.16,1.16,0,0,1,0-.95c13.43-31.71,52.17-33.7,82.32-32.47-20.06-12.12-42.65-21.5-66.45-20.67-25.71.88-47.91,14.27-65.84,31.9,0,1,0,2.06-.08,3.1-.06,1.44-2.31,1.44-2.25,0,0-1.06.06-2.11.08-3.16a1,1,0,0,1,0-.81c.23-22.48-5.69-44.09-18.8-62.65C822.24,90,807.08,77.41,791.22,66.3A255.89,255.89,0,0,1,809.78,107c5.2,15.22,8.6,31,12.14,46.63.32,1.41-1.85,2-2.17.6l0-.09a1,1,0,0,1-1-.08,315.26,315.26,0,0,0-69.53-31.58c-88.88-28.09-187.12-19.34-273.17,14.47l-.36.56c2.42-.64,4.82-1.32,7.22-2a1.13,1.13,0,0,1,.6,2.17c-38.46,11.56-79.79,13.16-119.16,5.45,6.54,6.5,13.57,12.53,21.76,16.88,10.42,5.54,21.92,7.62,33.64,7.72a1.13,1.13,0,0,1,0,2.25,94.49,94.49,0,0,1-9.54-.56,1.14,1.14,0,0,1-.39.4c-57.7,35.16-106.72,84-138.74,143.67,1.32-.65,2.65-1.3,4-1.92s2.45,1.34,1.14,1.95a195,195,0,0,0-38.68,23.73c-39.68,31.3-67.27,77.44-75.13,127.4A241.7,241.7,0,0,1,193,416.5C204.34,402.71,218.45,389.72,236.91,387.7Z" class="cls-6"></path><path d="M619.75,1017.09c8.08-3.23,17-1.09,23.44,4.23,9.45-15.59,19.45-30.85,30.41-45.42-16.68,1-33.36,1.42-49.92,1.59-11.68.12-23.44.1-35.25-.12,10,13.36,19.12,27.28,27.81,41.49A22.6,22.6,0,0,1,619.75,1017.09Z" class="cls-7"></path><path d="M976.38,769l2.8,1.4a1,1,0,0,1,.43.17c19.71,12.41,45.18,17.78,67.47,9.38,27.5-10.35,41.31-38.64,47.38-65.67,6-26.86,5.19-56.81-13.5-78.7-13.58-15.9-34.31-24.86-55.12-24.87-16.68,0-34.37,6.08-43.84,20.28-1.13,21.67-.73,43.45-1,65.1-.36,24.31-1.33,48.77-4.81,72.86A.42.42,0,0,1,976.38,769Z" class="cls-7"></path><path d="M239.51,611c-21.12,2.15-41.14,13.46-52.79,31.37-16.31,25.1-13.57,57.29-4.92,84.61,8,25.34,24.63,48.94,51.78,55.24,20.37,4.73,42.2-.77,59.63-11.75a1,1,0,0,1,1.11,0,3.81,3.81,0,0,1,.57-.29c-1.9-25.86-1.53-51.84-1.18-77.78a1.08,1.08,0,0,1,0-1.53h0q.12-8,.19-15.94c.12-13.3.17-26.73-.32-40.13a1,1,0,0,1-.79-.55C282.75,615.23,259.6,609,239.51,611Z" class="cls-7"></path><path d="M344.81,898.73c30.94,33.44,74.63,51.45,118.16,61.8,32.32,7.68,65.47,11.48,98.6,13.31a964.67,964.67,0,0,0,119.75-1C737.81,969,796,960.19,848.11,937l.11,0c2.1-.94,4.21-1.89,6.29-2.88,35.3-16.66,66.85-41.11,87.92-74.31,17.83-28.1,27.22-60.43,31.77-93.18,4.42-31.87,4.49-64.12,4.75-96.23,0-.65,0-1.3,0-1.94-2.8-2.3-5.88-4.4-7.53-7.65a1,1,0,0,1-1.43-.72c-3.75-17.77-7.46-35.56-11.24-53.32-3.37-15.85-7-31.72-12.6-46.94a138.7,138.7,0,0,0-26-43.85c-10.27-11.66-22-21.86-33.82-31.94-1.43,18.71-12.33,38.88-29,47.88a1.14,1.14,0,0,1-1.7-1l-1.05-68.07c-.15-9.88.26-19.94-.56-29.79-.54-6.6-2.46-14.62-9-17.43a242.65,242.65,0,0,1-65.17,121.86,1.14,1.14,0,0,1-1.92-.79,236,236,0,0,0-21.46-85.58c-10.15-21.89-23.76-41.06-39.32-59.28a255.31,255.31,0,0,1-6.26,114.22,1.14,1.14,0,0,1-2.17,0c-10.1-24.86-28.93-44.45-50.1-60.39a387.16,387.16,0,0,0-32.76-21.8c-5.18-3.13-10.39-6.74-15.85-9.35-2.31-1.1-5-1.29-7.64-1.58a142.38,142.38,0,0,0,8,51.87,138.68,138.68,0,0,0,12,25.43c3.11,5.15,8.26,10.8,5.21,17a1.11,1.11,0,0,1-1.53.4c-42.81-25.21-93.13-57.07-99.16-111a11.83,11.83,0,0,1-1.77,2.69c-2.37,2.51-6.53,4.14-9.42,6.13A122.07,122.07,0,0,0,493,425.85a129.36,129.36,0,0,0-26.19,47.2,122.78,122.78,0,0,0-5.1,27.73c-.28,4.4,0,8.78-.14,13.18-.08,2-.34,4.47-2,5.87-4.54,3.77-12.91-3.54-16.15-6.36-6.66-5.81-11.6-13.39-15.74-21.12A134.34,134.34,0,0,1,412.32,441a74.15,74.15,0,0,1-6.06,7c-5,5.71-10.23,11.18-15.24,16.87-5.17,5.88-8.68,12.66-11.95,19.77a136.6,136.6,0,0,0-10.63,32.78c-2.21,12.4-.82,25.06-2.19,37.53-1.05,9.58-4.33,18.54-8.26,27.28-4.43,9.83-9.47,19.35-13.78,29.24s-8.7,19.75-13.54,29.39c-9.26,18.45-20.26,36.06-34.69,50.91l-.09,6.29c-.45,35.69-.8,71.77,5.47,107C307.49,839.58,320.76,872.74,344.81,898.73Z" class="cls-7"></path><path d="M586.73,847.86a127.8,127.8,0,0,1-84.54,120.25q-14.52-2.21-28.88-5.27a.9.9,0,0,0-.57-.13q-4.12-.88-8.25-1.86c-39.83-9.47-79.79-25.37-110-53.62a1.29,1.29,0,0,0-.17-.16q-4.12-3.86-8-8-4.26-4.6-8.09-9.52a127.74,127.74,0,1,1,248.49-41.67Z" class="cls-8"></path><path d="M958.5,831h0c-4.89,11.55-9.88,21.69-14.55,29.05-21.07,33.2-52.62,57.65-87.92,74.31-26.27,12.4-54.19,21-82.72,27A127.74,127.74,0,1,1,958.5,831Z" class="cls-8"></path><path d="M406.22,810.16l-7.54,20.23c-2,5.44,6.67,7.78,8.68,2.39l7.54-20.23c2-5.43-6.67-7.78-8.68-2.39Z" class="cls-9"></path><path d="M451.83,818.43a54.6,54.6,0,0,1-3.76,13.84c-.92,2.26,1,4.92,3.15,5.53,2.56.74,4.62-.9,5.53-3.14a63.17,63.17,0,0,0,4.08-16.23c.29-2.42-2.28-4.5-4.5-4.5-2.68,0-4.2,2.07-4.5,4.5Z" class="cls-9"></path><path d="M499.12,815.76c-3,7.13-5.83,14.32-8.36,21.64-1.9,5.48,6.79,7.84,8.68,2.39,2.27-6.58,4.73-13.08,7.45-19.48,2.24-5.27-5.51-9.87-7.77-4.55Z" class="cls-9"></path><path d="M784.53,810.16,777,830.39c-2,5.44,6.67,7.78,8.68,2.39l7.54-20.23c2-5.43-6.67-7.78-8.68-2.39Z" class="cls-9"></path><path d="M830.14,818.43a54.6,54.6,0,0,1-3.76,13.84c-.92,2.26,1,4.92,3.15,5.53,2.56.74,4.62-.9,5.53-3.14a63.17,63.17,0,0,0,4.08-16.23c.29-2.42-2.28-4.5-4.5-4.5-2.68,0-4.2,2.07-4.5,4.5Z" class="cls-9"></path><path d="M877.43,815.76c-3,7.13-5.83,14.32-8.36,21.64-1.9,5.48,6.79,7.84,8.68,2.39,2.27-6.58,4.73-13.08,7.45-19.48,2.24-5.27-5.51-9.87-7.77-4.55Z" class="cls-9"></path></g><g id="五官"><path d="M538.61,666.91c-27.72-.06-28.36,60.66,3.15,60.66C565.69,727.57,567.85,667,538.61,666.91Z" class="cls-10"></path><path d="M538.61,662.41C510,663,507.82,706,522.22,723c7.82,9.24,22.73,12.7,32.17,3.88,9.17-8.57,11.25-23.59,9.85-35.46-1.68-14.25-9.71-28.67-25.63-29-5.8-.13-5.79,8.87,0,9,20.21.46,20.1,33.62,12.11,45.89-4.73,7.27-13.68,7.28-20,1.65-7.15-6.39-8.91-17.48-8.13-26.58s5.33-20.75,16-21C544.39,671.3,544.41,662.3,538.61,662.41Z" class="cls-10"></path><path d="M736,666.91c27.72-.06,28.36,60.66-3.15,60.66C708.94,727.57,706.79,667,736,666.91Z" class="cls-10"></path><path d="M736,671.41c9.23.18,13.74,9,15.4,17,1.89,9.12.66,20.29-5.1,27.88-4.64,6.11-14.47,9.79-20.46,3.51-6.37-6.67-7.45-17.86-6.67-26.59.88-9.68,5.54-21.55,16.83-21.81,5.78-.13,5.8-9.13,0-9-28.38.65-32.16,43.13-18.62,61.24,7.85,10.51,22.22,10.67,32,2.43,9.89-8.38,12.91-23.08,11.47-35.44-1.58-13.67-9.48-27.94-24.8-28.23C730.23,662.3,730.23,671.3,736,671.41Z" class="cls-10"></path><path d="M634.47,764.53a16.27,16.27,0,0,0,9,14.32,4.63,4.63,0,0,0,6.16-1.61c1.14-2,.59-5.12-1.62-6.16a7.42,7.42,0,0,1-4.57-6.55c-.15-5.78-9.15-5.81-9,0Z" class="cls-10"></path><g class="cls-11"><path d="M506.1,644.11c10.72-4.3,21.64-9.15,33.12-11s21.52,1.13,30.87,7.6c4.78,3.3,9.28-4.5,4.55-7.77-10.07-7-21.54-10.43-33.78-9.07-13,1.45-25.14,6.74-37.15,11.56-5.31,2.13-3,10.83,2.39,8.68Z" class="cls-12"></path></g><g class="cls-11"><path d="M770.93,635.43c-12-4.82-24.17-10.11-37.15-11.56-12.25-1.36-23.72,2.12-33.78,9.07-4.73,3.27-.24,11.07,4.54,7.77,9.36-6.46,19.54-9.42,30.87-7.6,11.49,1.85,22.4,6.7,33.13,11,5.37,2.15,7.71-6.55,2.39-8.68Z" class="cls-12"></path></g></g><g id="细节"><path d="M832.5,192.79c-64.3-53.16-155.57-53-232.51-32.43a380.21,380.21,0,0,0-59.23,21.22c-5.27,2.39-.7,10.15,4.54,7.77A369.93,369.93,0,0,1,652,159.21c38.52-4.84,78.46-3.65,115.63,8.3a176.36,176.36,0,0,1,58.55,31.65c4.43,3.66,10.84-2.67,6.37-6.37Z" class="cls-13"></path><path d="M864.42,216c30.48-12.16,54.47,14.11,70.14,37,3.26,4.75,11.06.25,7.78-4.54-17.85-26-45.79-54.9-80.31-41.11-5.32,2.12-3,10.82,2.39,8.67Z" class="cls-13"></path><path d="M963.89,384.37c17,23.12,25,52,29.43,80,4.57,28.65,5.44,58.6,1.22,87.36-.83,5.66,7.84,8.11,8.68,2.39a297.12,297.12,0,0,0,1.61-69.38c-2.18-24.47-6.77-49.08-15.71-72a142.18,142.18,0,0,0-17.46-32.84c-3.39-4.62-11.2-.13-7.77,4.55Z" class="cls-13"></path><path d="M308.53,395.92a216,216,0,0,0-12.74,141.72c1.42,5.61,10.11,3.24,8.68-2.39A206,206,0,0,1,316.3,400.46c2.37-5.23-5.38-9.81-7.77-4.54Z" class="cls-13"></path><path d="M581.55,328.47C558.89,352,561,385.84,564.05,415.93c.59,5.7,9.6,5.76,9,0-2.81-27.38-5.9-59.55,14.86-81.1,4-4.17-2.33-10.54-6.36-6.36Z" class="cls-13"></path><path d="M496.24,236.11a169.94,169.94,0,0,0-103.63,47.56c-4.15,4.05,2.22,10.42,6.36,6.36a160.13,160.13,0,0,1,97.27-44.92c5.73-.51,5.78-9.51,0-9Z" class="cls-13"></path><path d="M809,222.26c-28-1-54.73,13.09-76.88,28.85-25.25,18-47.64,40.18-66.78,64.51-9.06,11.51-17.56,23.55-24.47,36.49-2.72,5.11,5,9.66,7.77,4.54C661.21,333.11,678.58,312,697.21,293c20.55-20.93,43.95-40.33,70.81-52.56,12.84-5.84,26.79-9.72,41-9.2,5.79.22,5.78-8.78,0-9Z" class="cls-13"></path><path d="M856.64,245.7c15.11,18.51,21,44.82,24.87,67.79a321.93,321.93,0,0,1,2.69,88.92,190,190,0,0,1-9.77,44c-2,5.46,6.71,7.81,8.67,2.4,10-27.54,12.4-57.92,11.83-87-.57-29.54-4.32-59.89-13.94-87.93-4.23-12.33-9.69-24.4-18-34.56-3.67-4.49-10,1.91-6.37,6.36Z" class="cls-13"></path><path d="M237.21,702.45c9.26-7.57,22-5.73,29.6,3.06,3.81,4.38,10.15-2,6.37-6.36-11.11-12.78-29.46-13.58-42.33-3.07-4.49,3.67,1.91,10,6.36,6.37Z" class="cls-14"></path><path d="M249.19,693.92A22.16,22.16,0,0,0,240.94,710c-.44,5.77,8.56,5.75,9,0a13.55,13.55,0,0,1,5.61-9.7c1.92-1.49,1.57-4.79,0-6.36-1.9-1.9-4.44-1.5-6.36,0Z" class="cls-14"></path><path d="M1057.93,696.08c-12.86-10.51-31.22-9.71-42.33,3.07-3.78,4.35,2.56,10.74,6.37,6.36,7.64-8.79,20.33-10.64,29.6-3.06,4.45,3.63,10.85-2.7,6.36-6.37Z" class="cls-14"></path><path d="M1033.23,700.28a13.55,13.55,0,0,1,5.61,9.7c.44,5.74,9.44,5.78,9,0a22.15,22.15,0,0,0-8.24-16.06c-1.92-1.49-4.5-1.87-6.37,0-1.55,1.55-1.93,4.86,0,6.36Z" class="cls-14"></path><circle r="13.06" cy="1122.65" cx="633.91" class="cls-4"></circle><path d="M642.47,1122.65c-.56,10.93-17.12,11.11-17.12,0s16.56-10.94,17.12,0c.29,5.76,9.29,5.79,9,0-.48-9.53-7.67-17.56-17.56-17.56a17.56,17.56,0,1,0,0,35.11c9.89,0,17.08-8,17.56-17.55C651.76,1116.86,642.76,1116.87,642.47,1122.65Z" class="cls-15"></path><path d="M659.65,1043.76a73.11,73.11,0,0,1,28.62-4c5.79.34,5.77-8.66,0-9a79.9,79.9,0,0,0-31,4.31c-5.43,1.89-3.1,10.59,2.39,8.68Z" class="cls-13"></path><path d="M657.24,1064.71c6.41.52,12.28,4.26,18.23,6.45a100.59,100.59,0,0,0,19.39,4.91c5.66.89,8.1-7.78,2.39-8.67a101.18,101.18,0,0,1-21.09-5.56c-6.35-2.47-12-5.57-18.92-6.13-5.78-.47-5.74,8.53,0,9Z" class="cls-13"></path><path d="M576.06,1033.85a80.66,80.66,0,0,1,23.87,7.1c5.21,2.46,9.78-5.3,4.54-7.77a94.61,94.61,0,0,0-28.41-8.33c-5.72-.77-5.67,8.24,0,9Z" class="cls-13"></path><path d="M602.24,1054.77a105.4,105.4,0,0,0-24.11,9.71c-5.07,2.8-.54,10.58,4.54,7.77a95.51,95.51,0,0,1,22-8.8c5.6-1.48,3.22-10.16-2.39-8.68Z" class="cls-13"></path></g><g id="线"><path d="M298.78,631.53c-9.64-18.2-30.57-26.31-50.29-26.4-22.32-.11-44.92,9.44-59.49,26.51-19.91,23.31-21.45,54.63-15.12,83.42,6.37,29,21.26,58.35,50.25,69.88,23.89,9.5,51.78,3.91,73-9.48,4.89-3.08.37-10.87-4.55-7.77-16.65,10.5-37.53,15.94-57,11.41-26-6-41.75-28.63-49.43-52.88-8.39-26.5-11.25-57.64,4.59-82,10.95-16.85,30-27.64,49.87-29.7,18.93-2,40.87,3.58,50.39,21.56,2.71,5.12,10.48.58,7.77-4.54Z" class="cls-10"></path><path d="M984,636.07c8.23-15.56,26.12-22,42.91-22,20,0,39.7,8.63,52.73,23.89,17.86,20.9,18.37,49.84,12.63,75.41-5.77,25.74-18.71,53.38-45,63.32-21.5,8.12-45.86,2.92-64.86-9-4.92-3.09-9.44,4.69-4.55,7.77,19.06,12,43.08,17.63,65.21,12,28.44-7.21,46-32.13,54.47-58.87,9.21-29.09,11.67-63.67-6.24-90.07-13-19.16-34.4-30.86-57.29-33.07-21.9-2.11-46.89,5.53-57.77,26.06-2.7,5.11,5.06,9.66,7.78,4.54Z" class="cls-10"></path><path d="M304.19,1202.27c36.24-64.67,83.38-124.64,144-168.18a379.86,379.86,0,0,1,46.41-28.55c5.14-2.67.59-10.44-4.54-7.77-63,32.74-115,83.3-156.14,140.72a633.86,633.86,0,0,0-37.46,59.24c-2.84,5.06,4.93,9.6,7.77,4.54Z" class="cls-10"></path><path d="M774,1001c66.16,31.48,121.45,82.16,165.27,140.34a660.32,660.32,0,0,1,40,59.92c3,5,10.75.45,7.77-4.55-40.36-67.79-92.26-130.06-158-174.53a387.3,387.3,0,0,0-50.55-28.95c-5.2-2.47-9.77,5.28-4.54,7.77Z" class="cls-10"></path><path d="M620.89,1018.18c-9.27-15.22-19.08-30.12-29.8-44.36-3.45-4.57-11.26-.09-7.77,4.55,10.72,14.23,20.53,29.13,29.8,44.35,3,4.94,10.8.42,7.77-4.54Z" class="cls-10"></path><path d="M405.65,940.49c-10.22,11.37-22.58,20.35-35.39,28.59-2.91,1.88-3,7.61,1.07,8.23,16.89,2.55,33.86,4.55,50.76,7,8.3,1.2,16.59,2.53,24.84,4.1,8.44,1.6,17.77,2.83,25.83,5.85,4.15,1.55,8.05,5,11.77,7.53l21,14.33,13.51,9.23c4.79,3.28,9.3-4.51,4.54-7.77l-32.64-22.31c-4.11-2.81-8.21-6.31-12.62-8.63-5.8-3-14-3.83-20.35-5.19-8.55-1.81-17.16-3.33-25.8-4.67-19.42-3-39-5.23-58.39-8.17l1.07,8.23c13.41-8.64,26.5-18.09,37.22-30,3.86-4.29-2.48-10.68-6.37-6.36Z" class="cls-10"></path><path d="M648.28,1025.61a537.54,537.54,0,0,1,32.77-48.84c3.51-4.61-4.31-9.09-7.78-4.54a543,543,0,0,0-32.77,48.83c-3,5,4.78,9.51,7.78,4.55Z" class="cls-10"></path><path d="M846.43,941.38c12,14.25,26.27,25.4,41.92,35.48l1.07-8.23c-33.56,5.08-67.56,8-100.47,16.71-5.16,1.37-9.08,4.74-13.46,7.73l-20.58,14.08L741,1016.67c-4.76,3.25-.26,11.06,4.54,7.77l31.62-21.62c3.91-2.67,8-6.38,12.27-8.39,2.43-1.13,6-1.46,8.64-2.11,4.13-1,8.27-1.91,12.44-2.76,8.23-1.69,16.53-3.11,24.84-4.38,18.79-2.88,37.69-5,56.48-7.87,4.11-.62,4-6.34,1.08-8.23-15-9.68-28.57-20.37-40.09-34.06-3.74-4.44-10.08,2-6.37,6.36Z" class="cls-10"></path><path d="M612.82,1028.42c-10.33-30.53-58.89-66-85.75-32.8-8,9.89-11.34,22.67-13,35.06-2.2,16.89-2,35,1.73,51.62,2.38,10.59,6.92,21.54,16.07,28,7.44,5.27,16.68,6,25.45,4.53,23.08-3.92,43.76-20.41,61.55-34.61,4.53-3.62-1.87-10-6.36-6.37-19.48,15.56-70.11,55.49-85.39,15.09-10.64-28.15-10.63-112.65,39.92-95,16.37,5.73,31.48,20.31,37.06,36.81,1.85,5.46,10.54,3.12,8.68-2.39Z" class="cls-10"></path><path d="M658,1034.18c3.9-15.57,16.21-28.81,30-36.49,12.77-7.12,29.14-9.44,40,2.27,7.31,7.91,10.28,19.24,11.87,29.6a142.36,142.36,0,0,1-.75,48.07c-1.78,9-4.87,19.44-12.68,25.11-5.91,4.3-13.49,4.5-20.4,3-20.72-4.43-39.23-19-55.43-31.89-4.48-3.58-10.89,2.75-6.36,6.37,16.66,13.3,34.92,27.37,55.75,33.29,8.82,2.5,18.51,3.17,27-.77,9.49-4.39,15.1-13.67,18.32-23.26,5.36-15.94,5.73-34.12,4.54-50.73-1-13.36-3.4-27.61-10.8-39.07-10.73-16.6-29.88-20.6-47.68-13.51-19.28,7.67-36.89,25.13-42,45.6-1.4,5.62,7.28,8,8.68,2.39Z" class="cls-10"></path><path d="M610.43,1052.88c-1.32-10-.78-22.92,8.65-29.09,6.61-4.31,15.16-3,21,2.08,9.47,8.23,10.35,22.5,8.51,34.06-1.38,8.66-5.8,23.84-17.43,22.13-13.29-2-19.17-19.2-20.86-30.38-.87-5.7-9.54-3.28-8.68,2.4,2.17,14.37,9.78,31.08,24.67,36,14.58,4.82,25.29-7.27,29.21-20.06,4.68-15.24,4.58-34.6-6.08-47.41-7.29-8.77-19.55-13-30.43-8.78-15.66,6-19.5,24-17.53,39C602.17,1058.54,611.18,1058.62,610.43,1052.88Z" class="cls-10"></path><path d="M300.5,688.44c.5-38.6,1.35-78.18-8.34-115.87-1.44-5.6-10.12-3.23-8.67,2.39,9.48,36.9,8.5,75.69,8,113.48-.07,5.8,8.93,5.8,9,0Z" class="cls-10"></path><path d="M317.34,846.65c-10.91-28.27-15-58.35-16.44-88.46-.28-5.77-9.28-5.8-9,0,1.52,30.86,5.58,61.87,16.76,90.85,2.06,5.35,10.77,3,8.68-2.39Z" class="cls-10"></path><path d="M973.79,750.81c-3.32,34.06-11,68.21-27.76,98.32-19.49,35-50.2,61.16-85.69,79-54.63,27.54-117.41,37.29-177.82,41.47a956.48,956.48,0,0,1-126.24.58c-34.49-2.2-69-6.63-102.43-15.64C410,942.78,366.41,922,338.55,884.85q-4.2-5.61-7.89-11.58c-3.06-4.91-10.85-.39-7.78,4.54,24.35,39.11,63.77,64,106.65,78.76,30.69,10.58,62.88,16.39,95.08,19.93,42.35,4.66,85.18,5.27,127.74,3.73,66.41-2.42,135-10.42,196.56-36.85,39.12-16.78,74.48-42.44,98-78.36,19.92-30.39,29.81-65.75,34.43-101.48q.82-6.36,1.43-12.73c.56-5.76-8.44-5.72-9,0Z" class="cls-10"></path><path d="M982.84,586.7c-6,27.48-5.93,56-6.16,83.95,0,5.79,9,5.79,9,0,.22-27.17.05-54.88,5.84-81.56,1.22-5.64-7.45-8.06-8.68-2.39Z" class="cls-10"></path><path d="M298.81,695c15-15.2,26.35-33.32,35.88-52.3,4.84-9.64,9.24-19.5,13.55-29.39s9.35-19.41,13.77-29.24c4.2-9.33,7.61-18.76,8.73-29,1.33-12.17-.07-24.55,2.06-36.64a132.22,132.22,0,0,1,10.3-32c3.13-6.82,6.45-13.44,11.42-19.09s10.26-11.15,15.24-16.87c3.29-3.78,8.64-8.72,8.94-14.08h-9a138.77,138.77,0,0,0,16.09,57.77c4.27,8,9.42,15.82,16.27,21.8,4.83,4.21,14.62,12,20.93,6.36,5.2-4.66,2.76-15.28,3.16-21.43a117.87,117.87,0,0,1,5-26.84,125.34,125.34,0,0,1,25.31-45.71,118.92,118.92,0,0,1,22-19.79c3.32-2.29,8.19-4.15,10.63-7.34a54.89,54.89,0,0,0,3.5-6.11l-8.39-2.27c4,57.73,56.14,91.34,101.2,117.88,2,1.16,5.09.57,6.16-1.62,3.76-7.72-1.3-13.95-5.21-20.44a135.35,135.35,0,0,1-11.67-24.63,139.71,139.71,0,0,1-7.84-52.22l-5.69,4.34c2.69.37,5.76.44,8.21,1.4,5.47,2.13,10.83,6.31,15.85,9.35A387.32,387.32,0,0,1,658,448.72c20.38,15.35,38.81,34.42,48.55,58.37,1.58,3.91,7.34,4.61,8.67,0A259.22,259.22,0,0,0,720.73,387l-7.53,4.38C729.66,410.26,744,430.12,754.6,453a231.82,231.82,0,0,1,21,83.87c.22,3.79,4.82,6.08,7.68,3.19a246,246,0,0,0,66.29-124.57L844,418.59c5.82,1.81,7.24,9.29,7.69,14.61.82,9.84.41,19.91.56,29.78l1.05,68.08a4.54,4.54,0,0,0,6.77,3.88c18.42-9.93,30.11-32.62,30.82-53.12L883.23,485c12.39,10.58,24.83,21.22,35.62,33.47A134.35,134.35,0,0,1,944,560.84c5.64,15.21,9.24,31.09,12.61,46.93q5.67,26.65,11.23,53.32c1.2,5.67,9.87,3.27,8.68-2.39-3.86-18.34-7.67-36.69-11.6-55-3.51-16.39-7.32-32.82-13.47-48.46a143.77,143.77,0,0,0-25.11-41.8c-11.05-12.8-23.93-23.83-36.75-34.78a4.55,4.55,0,0,0-7.68,3.18c-.6,17.43-10.73,36.92-26.36,45.35l6.77,3.89-1.2-77.94c-.22-13.91,2.59-37.83-14.71-43.21a4.53,4.53,0,0,0-5.53,3.14,237.5,237.5,0,0,1-64,120.6l7.68,3.18a243.4,243.4,0,0,0-21.54-86.91c-11-24.12-26.17-45-43.49-64.93-3.2-3.68-8.29.35-7.52,4.38a249.18,249.18,0,0,1-5.54,115.33h8.67c-10.31-25.38-28.76-45.36-50.24-61.9a377,377,0,0,0-34.54-23.25c-5.67-3.44-11.67-8.06-17.83-10.51-2.79-1.11-6.08-1.14-9.05-1.55s-5.57,1.12-5.7,4.34a147.59,147.59,0,0,0,6,48.05,150.18,150.18,0,0,0,8.56,22q2.63,5.45,5.72,10.64c1.53,2.58,7.21,8.89,5.65,12.1l6.15-1.62c-41.85-24.65-93-56.09-96.74-110.1-.3-4.27-6-6.36-8.39-2.27-.9,1.57-1.73,3.22-2.71,4.74-1.32,2.05,0,.32-1.21,1q-2.91,1.72-5.73,3.6a129.24,129.24,0,0,0-17.82,14.41,134,134,0,0,0-39.8,82.05c-.38,3.74-.59,7.5-.61,11.26a47.4,47.4,0,0,0,.09,5.84,4.81,4.81,0,0,1-.06,1.7c.75.1.63,0-.35-.33a16.3,16.3,0,0,1-2.18-1.07c-7.33-4-12.78-10.75-17.14-17.73a127,127,0,0,1-18.57-59.67c-.34-5.78-8.69-5.8-9,0,.07-1.4.26-.64-.41.24s-1.17,1.75-1.8,2.58c-1.83,2.4-3.87,4.66-5.87,6.91-4.44,5-9.05,9.84-13.46,14.86-11.17,12.69-17.68,30-22,46.14-5.78,21.63-.94,44.33-9,65.43-3.77,9.85-8.9,19.11-13.34,28.65S335.47,620.3,331,629.71c-10.09,21.33-21.92,42-38.58,58.9-4.07,4.13,2.29,10.5,6.37,6.37Z" class="cls-10"></path><path d="M1041.71,393.86c6,29.05,8.85,58.22,4.43,87.69-3.92,26.13-11.52,51.53-16.92,77.36a419.26,419.26,0,0,0-7.54,50.71c-.49,5.78,8.52,5.74,9,0,2.48-29.65,9.37-58.37,16.27-87.24,6-25.35,11.23-51.05,10.5-77.25-.5-18-3.42-36.05-7.06-53.66-1.17-5.67-9.85-3.27-8.68,2.39Z" class="cls-10"></path><path d="M898.38,194.25c50.68,25.86,90.07,68.44,115.61,119,2.61,5.17,10.38.62,7.77-4.54-26.17-51.77-66.91-95.7-118.84-122.2-5.14-2.63-9.7,5.14-4.54,7.77Z" class="cls-10"></path><path d="M476.3,141c85.95-34.19,184.17-43.28,273.15-15.16a311.63,311.63,0,0,1,68.72,31.24c5,3,9.48-4.75,4.54-7.77-80.12-49-178.93-58.59-269.84-40.45a455.48,455.48,0,0,0-79,23.46c-5.31,2.12-3,10.82,2.4,8.68Z" class="cls-10"></path><path d="M273.45,318.38c31.71-60.65,81-110.08,139.19-145.57,4.94-3,.42-10.8-4.54-7.77-46,28-86.78,64.57-117.93,108.65a352.18,352.18,0,0,0-24.49,40.15c-2.68,5.13,5.08,9.68,7.77,4.54Z" class="cls-10"></path><path d="M257.1,609.77c-2.43-29.53-8-58.59-13.16-87.73-4.58-25.7-8.73-51.81-6.9-78,1.23-17.57,4.49-35.08,8.68-52.16,1.38-5.62-7.29-8-8.68-2.39-6.85,27.92-10.93,56.6-8.72,85.36,2.1,27.3,8,54.17,12.61,81.1,3.09,17.85,5.68,35.76,7.17,53.82.47,5.73,9.48,5.78,9,0Z" class="cls-10"></path><path d="M483.13,132.33A243.6,243.6,0,0,1,363.27,137c-4.31-.91-7.63,4.18-4.38,7.53,7.89,8.11,16.48,15.84,26.66,21,11,5.58,23,7.78,35.32,7.89,5.79,0,5.8-9,0-9-11.11-.1-22.05-2-31.94-7.26-9-4.81-16.58-11.68-23.67-19l-4.38,7.52c41.05,8.68,84.4,7.4,124.64-4.7,5.53-1.66,3.18-10.35-2.39-8.68Z" class="cls-10"></path><path d="M274.48,308.74C224.77,331.82,185.94,375.62,167.36,427A201,201,0,0,0,156.88,472c-.52,4.36,6.6,6.24,8.38,2.27a240.06,240.06,0,0,1,30.62-50.83C206.51,410,220,395.43,238,393.46c5.69-.63,5.76-9.63,0-9-19.44,2.13-34.29,15.2-46.26,29.78a246.28,246.28,0,0,0-34.27,55.44l8.39,2.27C172,420.15,200.17,371.87,241,339.71a192.61,192.61,0,0,1,38-23.2c5.25-2.44.68-10.2-4.54-7.77Z" class="cls-10"></path><path d="M858.93,172.6c1-24.78-5.07-49.08-19.48-69.45-12.75-18-30.08-31.91-48.18-44.27-3.86-2.64-8.26,2.44-6.16,6.16,8.15,14.39,15.53,29.16,20.79,44.86,5,14.82,8.27,30.12,11.7,45.34,1.28,5.65,10,3.26,8.68-2.39-3.53-15.66-6.94-31.41-12.14-46.63-5.45-16-13-31.07-21.25-45.73l-6.16,6.16c16.75,11.43,33.14,24.34,44.95,41,13.57,19.2,19.23,41.54,18.25,64.91-.25,5.79,8.75,5.78,9,0Z" class="cls-10"></path><path d="M857.61,172.28c17.35-17.17,38.87-30.44,63.86-31.3,24.71-.86,48,9.6,68.46,22.5l2.27-8.39c-31.82-1.6-74.94-.45-89.51,33.95-2.23,5.27,5.52,9.86,7.77,4.54,13.24-31.27,53-30.94,81.74-29.49,4.65.24,5.86-6.12,2.27-8.38-22.13-13.94-47.7-25-74.39-23.68-26.88,1.38-50.08,15.33-68.83,33.89-4.13,4.08,2.24,10.44,6.36,6.36Z" class="cls-10"></path><path d="M1014,314.51c20.34,20.58,40.84,41.58,56.57,66,15.1,23.48,24.27,49.62,25.19,77.64l8.38-2.27c-7.91-12.18-14.63-25.15-23-37s-18.53-21.24-30.16-29.6c-4.71-3.39-9.21,4.42-4.54,7.77,11,7.9,20.64,17,28.23,28.26,7.7,11.4,14.16,23.61,21.66,35.15,2.32,3.57,8.54,2.4,8.39-2.27-1-29.05-10.13-56.46-25.63-80.95-16.23-25.62-37.55-47.61-58.77-69.09-4.08-4.12-10.44,2.24-6.36,6.37Z" class="cls-10"></path><path d="M846,1037.68c-14.6,11-21,30-25.11,47.11-5.61,23-7.67,47-8.31,70.71q-.51,18.57.42,37.15c.3,5.77,9.3,5.8,9,0-1.43-27.75-.74-56,3.35-83.46,1.92-12.94,4.57-25.9,9-38.22,3.35-9.24,8.08-19.45,16.15-25.52,4.58-3.43.1-11.25-4.54-7.77Z" class="cls-10"></path><path d="M430.3,1045.45c8.08,6.07,12.8,16.28,16.15,25.52,4.47,12.32,7.13,25.28,9.05,38.22,4.08,27.51,4.77,55.71,3.34,83.46-.3,5.79,8.7,5.78,9,0a456,456,0,0,0-1.49-68.24c-2.17-21.88-5.63-44.46-14.81-64.63-3.89-8.55-9.13-16.41-16.7-22.1-4.63-3.48-9.12,4.33-4.54,7.77Z" class="cls-10"></path><path d="M320.67,867.1l1.66-.92a4.49,4.49,0,0,0,1.61-6.16,4.58,4.58,0,0,0-6.15-1.61l-1.66.92a4.5,4.5,0,1,0,4.54,7.77Z" class="cls-10"></path></g></g></svg>