<svg viewBox="0 0 1200 1200" xmlns="http://www.w3.org/2000/svg"><defs><style>.cls-1{isolation:isolate;}.cls-2{fill:#e1f9e6;}.cls-3{opacity:0.66;}.cls-4{fill:#c4f2ce;}.cls-5{fill:#773e18;}.cls-6{fill:#eaa745;}.cls-7{fill:#d19f7d;}.cls-8{fill:#ce8172;}.cls-9{fill:#f9bd6e;}.cls-10{fill:#331403;}.cls-11{fill:#060001;}.cls-12{fill:#f9bca5;}.cls-13{opacity:0.67;}.cls-14{mix-blend-mode:multiply;}.cls-15{fill:#ffb9a4;}.cls-16{opacity:0.48;}.cls-17{fill:#d19369;}</style></defs><title>touxiang</title><g class="cls-1"><g id="bg"><rect height="1200" width="1200" class="cls-2"></rect><g class="cls-3"><path d="M1200,0h-55.2L1050,94.91,955.16,0H844.85L750,94.91,655.12,0H544.88L450,94.91,355.16,0H244.84L150,94.91,55.2,0H0V55.2L94.91,150,0,244.84V355.16L94.91,450,0,544.88V655.12L94.91,750,0,844.85V955.16L94.91,1050,0,1144.8V1200H55.2L150,1105.09,244.84,1200H355.16L450,1105.09l94.9,94.91H655.12L750,1105.09,844.85,1200H955.16l94.82-94.91L1144.8,1200H1200v-55.2L1105.09,1050,1200,955.16V844.85L1105.09,750,1200,655.12V544.88L1105.09,450,1200,355.16V244.84L1105.09,150,1200,55.2ZM900,55.2,994.79,150,900,244.84,805.14,150Zm0,599.92L994.79,750,900,844.85,805.14,750ZM750,694.82,655.12,600,750,505.18,844.85,600ZM394.87,750,300,844.85,205.22,750,300,655.12ZM205.22,450,300,355.16,394.87,450,300,544.88ZM355.16,600,450,505.18,544.88,600,450,694.82Zm150-150L600,355.16,694.82,450,600,544.88ZM600,655.12,694.82,750,600,844.85,505.18,750ZM805.14,450,900,355.16,994.79,450,900,544.88ZM844.85,300,750,394.87,655.12,300,750,205.22ZM600,55.2,694.82,150,600,244.84,505.18,150ZM544.88,300,450,394.87,355.16,300,450,205.22ZM300,55.2,394.87,150,300,244.84,205.22,150ZM55.2,300,150,205.22,244.84,300,150,394.87Zm0,300L150,505.18,244.84,600,150,694.82Zm0,300L150,805.14,244.84,900,150,994.79ZM300,1144.8,205.22,1050,300,955.16,394.87,1050ZM355.16,900,450,805.14,544.88,900,450,994.79ZM600,1144.8,505.18,1050,600,955.16,694.82,1050ZM655.12,900,750,805.14,844.85,900,750,994.79ZM900,1144.8,805.14,1050,900,955.16,994.79,1050ZM1144.8,900,1050,994.79,955.16,900,1050,805.14Zm0-300L1050,694.82,955.16,600,1050,505.18Zm0-300L1050,394.87,955.16,300,1050,205.22Z" class="cls-4"></path></g></g><g id="涂色"><path d="M1189.11,1195.18c-140-97.65-31.37-111.68-58.58-250.63-14.1-72-57.75-89.14-78.12-162.75-17.73-64,23-86.55-25-154.44l-1.05,1.46c-16.28-65.1,19.84-111.49,3.25-175.77-26-100.9-27.7-149.29-112.3-227.85-91.14-84.63-182.27-71.61-257.14-48.82l-1.63-1.4c-92.76-63.7-226.22-40.92-327.12,56.73C248.47,312,237,352.15,211,453.05c-16.59,64.28,19.53,110.67,3.26,175.77l-1.05-1.46c-48,67.89-7.27,90.41-25,154.44-20.37,73.61-64,90.79-78.12,162.75-27.22,139,81.37,153-58.59,250.63Z" class="cls-5"></path><path d="M733.21,1002.05c.39-.89.77-1.79,1.2-2.67,2.49-2.68,2.39-6.89,5-9.5,3.59-3.56,6.7-8.56,1.68-8.08-3.93-.8-18.94-1-20.17,3.26-.18,0-.35,0-.53,0l-16.9.73a8.64,8.64,0,0,0-6.89,3.92,282.58,282.58,0,0,0-164,4.76c-.81-3.58-4.11-6.69-7.94-6.47-3.42.18-7.25.06-10.68.87a7.67,7.67,0,0,0-6.62-3.66,7.89,7.89,0,0,0-2.76.55l0-.07c-1.78-4-7.64-5-11.13-2.91-4.15,2.42-4.71,7.09-2.92,11.13a74.31,74.31,0,0,1,4.8,15.8c-69.64,33.7-133.94,95.83-184.59,186.49l629.3-1C882.21,1097.64,809.84,1033.35,733.21,1002.05Z" class="cls-6"></path><path d="M935.42,671.41c.7-14.14,2-27.38,4.69-39.34,0,0-61.42-24.49-147.12-70-53.26-28.27-128.57-16.6-89.3-95.25-22.43-59-87.63-38.17-115-22.67-37-22.41-127.44-32.44-106.89,55.42,3.32,11.86-54.68,57.42-87.94,72.71-79.28,36.43-98.29,46.75-98.29,46.75,4.68,17.87,6.63,37.41,7.36,57.88l-.84-2.56c-22.21-42.86-125-25.54-108.94,66.58,14.53,83.19,74.72,82.17,108.93,60.39,0,0,.7-2,1.79-5.25,6,95.86,43.53,182.57,248.21,193-8,1.46,6.5,13.48,20,31,8.54,9.64,23.12,49.73,42.52,87.66,12.51-35.48,42.31-79,52.65-101,12.55-15.21,21.19-19.28,24.34-21.65C874.09,964.16,919,881.27,930.46,795c1.87,4,3.18,6.38,3.18,6.38,34.21,21.78,94.39,22.8,108.93-60.39C1058.28,651.05,960.76,632.42,935.42,671.41ZM617,993.51c-10.36.29-21-1.77-31.8-3.45,3.26,0,6.55.06,9.89.06q18.92,0,36.43-.64A31,31,0,0,1,617,993.51Z" class="cls-7"></path><ellipse ry="104.84" rx="111.65" cy="844.19" cx="427.78" class="cls-8"></ellipse><ellipse ry="104.84" rx="111.65" cy="844.19" cx="792.99" class="cls-8"></ellipse><path d="M602,1080.65c-12.81-29.37-26.82-58.8-50.63-79.76,1.84-3.82,1.3-9-2.94-10.83-6.85-2.94-12.18-4.25-19.62-3.51-.16,0-.31.06-.48.08q-9-1.47-17.94-3.33a8,8,0,0,0-5.74.86c-5.52-5-16.59-.78-13.46,7.65a325.66,325.66,0,0,1,20.38,100.86c.24,6.06,6.75,10.27,12.24,7,21.82-12.9,47.1-9.89,71.16-6.8C601.8,1093.78,604.09,1085.51,602,1080.65Zm-74.9-.53A339.18,339.18,0,0,0,511.22,1000c5,1,10,1.86,15,2.66,27.51,16.44,42.75,44.08,55.61,72.46C563.12,1073.32,544.48,1073.4,527.07,1080.12Z" class="cls-6"></path><path d="M602.42,1077.84A182.35,182.35,0,0,1,577,1040.28c-5.42-10.77-9.29-22.4-16-32.45-13.51-20.13-31.71-20.35-54.22-22.22a6.67,6.67,0,0,0-3.67.77c-5.52-3.49-14.84.8-12.38,8.75,10.06,32.61,18.21,64.3,20.17,98.51a8.25,8.25,0,0,0,12.25,7c22.8-12.27,48.55-10.69,73.56-8.93C604.25,1092.27,606.67,1082.74,602.42,1077.84Z" class="cls-9"></path><path d="M729.82,982.21c-.17.38-.31.78-.46,1.16a133.19,133.19,0,0,1-33.3,5,8.31,8.31,0,0,0-4.82,1.54,6.6,6.6,0,0,0-8.65,1.82,340.61,340.61,0,0,0-30.09,41.54c-9.13,15-15.25,31.64-24.37,46.55-2.91,4.77.76,13.08,7,12.24a143.49,143.49,0,0,1,67.46,6.8c5.22,1.81,10.09-2.9,10.3-7.85.3-7.19.16-14.21.37-21.13,5.47-11.15,10.85-22.34,15.55-33.83,5.23-12.83,8-26.55,12.65-39.5a30.14,30.14,0,0,0,3.2-8C746.79,980,733.57,973.41,729.82,982.21Z" class="cls-9"></path></g><g id="五官"><path d="M513.13,666.91c-27.72-.06-28.36,60.66,3.15,60.66C540.22,727.57,542.37,667,513.13,666.91Z" class="cls-10"></path><path d="M513.13,662.41C484.56,663,482.35,706,496.74,723c7.82,9.24,22.73,12.7,32.17,3.88,9.17-8.57,11.25-23.59,9.85-35.46-1.67-14.25-9.71-28.67-25.63-29-5.79-.13-5.79,8.87,0,9,20.22.46,20.1,33.62,12.11,45.89-4.73,7.27-13.68,7.28-20,1.65-7.14-6.39-8.91-17.48-8.13-26.58s5.33-20.75,16-21C518.91,671.3,518.93,662.3,513.13,662.41Z" class="cls-10"></path><path d="M710.55,666.91c27.72-.06,28.36,60.66-3.15,60.66C683.46,727.57,681.31,667,710.55,666.91Z" class="cls-11"></path><path d="M710.55,671.41c9.24.18,13.75,9,15.41,17,1.89,9.12.65,20.29-5.11,27.88-4.64,6.11-14.47,9.79-20.46,3.51-6.36-6.67-7.45-17.86-6.66-26.59.87-9.68,5.53-21.55,16.82-21.81,5.78-.13,5.8-9.13,0-9-28.38.65-32.15,43.13-18.62,61.24,7.85,10.51,22.22,10.67,32,2.43,9.89-8.38,12.91-23.08,11.47-35.44-1.58-13.67-9.48-27.94-24.8-28.23C704.75,662.3,704.75,671.3,710.55,671.41Z" class="cls-10"></path><path d="M579.73,786.75c18.77,20.06,48.84,20.42,67.84.48,4-4.19-2.35-10.57-6.36-6.36-15.73,16.51-39.61,16.09-55.12-.48-4-4.24-10.32,2.14-6.36,6.36Z" class="cls-10"></path></g><g id="细节"><path d="M237.19,740.26c9.26-7.57,22-5.72,29.6,3.07,3.81,4.38,10.15-2,6.36-6.36-11.1-12.78-29.46-13.58-42.32-3.07-4.49,3.67,1.91,10,6.36,6.36Z" class="cls-12"></path><path d="M249.16,731.74a22.11,22.11,0,0,0-8.24,16.06c-.44,5.77,8.56,5.74,9,0a13.55,13.55,0,0,1,5.61-9.7c1.92-1.49,1.56-4.8,0-6.36-1.9-1.9-4.44-1.5-6.37,0Z" class="cls-12"></path><path d="M1002.91,733.9c-12.87-10.51-31.22-9.71-42.33,3.07-3.78,4.35,2.56,10.74,6.37,6.36,7.64-8.79,20.33-10.64,29.6-3.07,4.44,3.64,10.85-2.69,6.36-6.36Z" class="cls-12"></path><path d="M978.21,738.1a13.55,13.55,0,0,1,5.61,9.7c.44,5.73,9.44,5.78,9,0a22.12,22.12,0,0,0-8.25-16.06c-1.91-1.49-4.49-1.87-6.36,0-1.55,1.55-1.93,4.86,0,6.36Z" class="cls-12"></path><g class="cls-13"><g class="cls-14"><path d="M392.58,827.75l-6,20c-1.67,5.55,7,7.93,8.68,2.39l6-20c1.67-5.55-7-7.93-8.68-2.39Z" class="cls-15"></path></g><g class="cls-14"><path d="M430.77,827.75l-6,20c-1.68,5.55,7,7.93,8.67,2.39l6-20c1.67-5.55-7-7.93-8.68-2.39Z" class="cls-15"></path></g><g class="cls-14"><path d="M464.76,827.75l-6,20c-1.67,5.55,7,7.93,8.68,2.39l6-20c1.67-5.55-7-7.93-8.68-2.39Z" class="cls-15"></path></g><g class="cls-14"><path d="M737.42,827.75l-6,20c-1.67,5.55,7,7.93,8.68,2.39l6-20c1.68-5.55-7-7.93-8.68-2.39Z" class="cls-15"></path></g><g class="cls-14"><path d="M775.62,827.75l-6,20c-1.67,5.55,7,7.93,8.68,2.39l6-20c1.67-5.55-7-7.93-8.68-2.39Z" class="cls-15"></path></g><g class="cls-14"><path d="M809.61,827.75l-6,20c-1.67,5.55,7,7.93,8.68,2.39l6-20c1.68-5.55-7-7.93-8.67-2.39Z" class="cls-15"></path></g></g><g class="cls-16"><path d="M493,413.84a31.84,31.84,0,0,1,9.51,10.8c2.8,5.08,10.57.54,7.77-4.54a41.88,41.88,0,0,0-12.74-14c-2-1.41-5-.36-6.15,1.61a4.6,4.6,0,0,0,1.61,6.16Z" class="cls-17"></path><path d="M521.89,408.56a35.11,35.11,0,0,1,7.2,13.4c1.6,5.56,10.28,3.19,8.68-2.39a45.37,45.37,0,0,0-9.52-17.37c-3.8-4.39-10.14,2-6.36,6.36Z" class="cls-17"></path><path d="M620.48,401.11a42.13,42.13,0,0,0-17.79,33.77c-.09,5.8,8.91,5.8,9,0a32.66,32.66,0,0,1,13.33-26c4.64-3.37.15-11.19-4.54-7.77Z" class="cls-17"></path><path d="M647.45,402.89A31.69,31.69,0,0,0,631.3,422.8c-1.53,5.59,7.15,8,8.68,2.39a22.86,22.86,0,0,1,12-14.53c5.16-2.63.61-10.4-4.55-7.77Z" class="cls-17"></path><path d="M448.53,226.53c-12.87-7-27.51-12.69-42.4-10.72-13.81,1.82-24.61,10.78-32.08,22.15-14.87,22.65-16.91,50.94-20.58,77-3.78,26.85-9.92,52.88-31.47,71.16-11.17,9.47-24,16.72-35,26.47a83.27,83.27,0,0,0-22,31.66c-10.51,26.4-7.76,57.92,8.51,81.39,3.28,4.73,11.08.24,7.77-4.54-13.8-19.92-17-45.48-9.72-68.5a73.69,73.69,0,0,1,18.3-30.33c9.78-9.67,21.72-16.7,32.58-25,10-7.69,18.81-16.51,25-27.64,5.85-10.57,9.36-22.26,11.74-34.06,4.88-24.17,5.39-49.27,13.18-72.81,4.44-13.41,11.73-27.91,24.7-34.82,15.12-8.05,33.14-1.14,47,6.37,5.09,2.77,9.64-5,4.55-7.77Z" class="cls-17"></path><path d="M800.14,261.85c23.17-7.72,52.8-4,69.77,14.9,22.71,25.26,2.85,61.38,3.91,90.66,1,27.16,18.28,48.17,37.18,66,20.13,19,42.75,36.11,55.53,61.3,16.84,33.23,16.6,72.32,15.67,108.65-.14,5.8,8.86,5.79,9,0,.86-33.49.9-68.58-11.24-100.33A126.18,126.18,0,0,0,956,463.84c-9.42-10.59-20.15-19.9-30.63-29.41-20-18.12-41.92-38.93-42.61-67.86-.75-31.59,18-65.73-4.58-93.89-18.48-23-53.56-28.47-80.46-19.51-5.47,1.82-3.13,10.52,2.39,8.68Z" class="cls-17"></path><path d="M754.75,368.63c17.57,1.52,40.4,3.72,51.32,19.66,6.55,9.56,7.08,21.74,7.07,32.93,0,12.24-1.14,24.47-.7,36.71.78,21.59,8,40.26,22.83,56.06,14,14.93,31.53,25.61,47.52,38.14,17.55,13.74,35.73,31.52,38,54.92.57,5.71,9.57,5.77,9,0-4.52-45.84-51.81-65.38-81.7-93-7.64-7.07-14.53-15-19.33-24.26-5.68-11-7.29-23.27-7.45-35.5-.28-22.69,6.12-51.15-7.9-71.12-13.06-18.6-37.79-21.73-58.7-23.54-5.77-.5-5.74,8.5,0,9Z" class="cls-17"></path><path d="M562.85,296.15c-25.78-32.85-77.83-35-106.89-5.66-37.06,37.43-28.67,94.37-47.27,139.9-9.32,22.81-27.63,43.85-53,47.69-5.71.86-3.29,9.53,2.39,8.68,21-3.18,38-17.48,49.42-34.83,13.38-20.37,18.09-44.64,22.13-68.27,7-40.87,18-98.67,68.56-104.54,21.93-2.55,44.61,5.91,58.32,23.39,3.58,4.55,9.91-1.86,6.37-6.36Z" class="cls-17"></path><path d="M619.46,207.26A176.16,176.16,0,0,0,599.73,176c-6.81-8.64-14.21-17.14-26.27-15.71-11.45,1.35-20.43,9.56-30.53,14.3s-25.07,6.9-32.57-3.66c-3.32-4.68-11.13-.19-7.77,4.55,5.83,8.2,15.33,12.38,25.34,12.12,12.09-.31,22.25-6.57,32.34-12.5,4.82-2.84,10.51-6.24,16.32-6,6.29.23,10.25,5.35,13.95,9.81a166.64,166.64,0,0,1,21.15,32.92c2.57,5.19,10.33.63,7.77-4.55Z" class="cls-17"></path><path d="M703.07,213.23a75.71,75.71,0,0,1,67-4.47c5.36,2.2,7.69-6.5,2.4-8.68a84.26,84.26,0,0,0-74,5.38c-5,2.93-.47,10.71,4.54,7.77Z" class="cls-17"></path><path d="M655,305.11c13.36-1.67,26.72-3.41,40.09-5,12.62-1.52,23.33-1.11,33.42,7.41,8.46,7.14,16,14.86,25.62,20.46a95,95,0,0,0,32.51,11.51c5.67.92,8.1-7.75,2.39-8.67a88.28,88.28,0,0,1-33.22-12.34c-9.86-6.21-17.2-15.34-26.8-21.82-10-6.76-21.44-7-33-5.66-13.67,1.61-27.31,3.41-41,5.12-5.68.71-5.75,9.72,0,9Z" class="cls-17"></path><path d="M202.59,896.53c-12.47-.93-24.52,5.12-32.37,14.68-8.85,10.78-11.61,24.74-9.8,38.38a74.49,74.49,0,0,0,5.78,20.13c3.19,7.25,7.77,14.18,9.32,22,2.61,13.24-8.69,20.2-18,26.91-9.83,7.11-18,15.18-19.29,27.89-1.49,14.79,6,28.26,13.11,40.6,7.33,12.73,13,25.38,11.07,40.41-1.74,13.48-8.47,26.25-17.33,36.41-22.33,25.6-57.28,34.46-88.84,42.72-5.6,1.47-3.22,10.15,2.39,8.68,28.17-7.37,57.34-15.21,80.64-33.5,19.95-15.66,35.19-41.4,32.18-67.46-1.67-14.37-9.34-26.15-16.18-38.54-6.74-12.22-13.13-29.05-2.73-41.19,7.07-8.26,17.67-12.52,24.94-20.6,9.22-10.24,8.51-22.65,3.23-34.71-3.44-7.86-7.74-15.16-10-23.53-2.15-8.12-2.76-16.8-.67-25,3.72-14.65,16.89-26.48,32.47-25.32,5.78.43,5.76-8.57,0-9Z" class="cls-17"></path><path d="M302.84,910.64c-16.77,3.94-30.81,16.11-38.17,31.58-7.84,16.48-7.4,33.78.34,50.16,7.33,15.52,24.67,35.72,13.17,53.2-5.06,7.71-13.26,12.77-19.23,19.69-6.48,7.52-9.69,16.44-8.69,26.43,1.2,12,7.19,22.78,8.63,34.64,1,8.41.07,20.46-9,24.23-5.27,2.2-3,10.91,2.39,8.68,16.33-6.79,18.08-26.38,14-41.58-2.9-10.9-8.91-22.49-6.95-34.07,1.66-9.82,10-16.1,16.83-22.48,6.4-5.95,12.38-12.75,14.16-21.56s-.51-17.63-4.12-25.81c-7.7-17.45-21.11-32.93-18-53.2,3-19.52,17.63-36.68,37-41.23,5.63-1.33,3.25-10-2.4-8.68Z" class="cls-17"></path><path d="M868.16,978.21c33.53-2.63,66.29,27,65.33,61.14-.57,19.82-13.15,39.16-5.91,59.09,6,16.66,22.62,24.78,35.27,35.7a101.59,101.59,0,0,1,32.37,53.49c1.34,5.64,10,3.25,8.68-2.39a110.31,110.31,0,0,0-27.29-50.41c-6.46-6.8-13.94-12.28-21.42-17.89-7.25-5.44-15-11.52-18.6-20.1-4.4-10.39-1.42-21.88,1.24-32.31,2.51-9.84,5.21-19.8,4.58-30-1.06-17.07-9.29-33.11-21.43-45-14-13.64-33.19-21.83-52.82-20.29-5.74.45-5.79,9.45,0,9Z" class="cls-17"></path><path d="M1026.77,928c27.67,24.64,15,65.54,8,96.16-6.77,29.34-9.59,66.72,17,87.57,4.51,3.53,10.92-2.79,6.37-6.36-28.87-22.61-18.43-63.29-11.23-93.38s12-67.4-13.78-90.36c-4.31-3.84-10.7,2.5-6.37,6.37Z" class="cls-17"></path><path d="M1088.2,1136.46l25.57,59.34c2.29,5.3,10,.73,7.77-4.54L1096,1131.91c-2.29-5.3-10-.72-7.77,4.55Z" class="cls-17"></path><path d="M301.37,511.94c-1.89,17.59-18.84,29.74-28.42,43.32a98.34,98.34,0,0,0-17.58,53.45c-.18,5.8,8.82,5.79,9,0a89.81,89.81,0,0,1,20.51-54.32c10.72-13,23.59-24.82,25.49-42.45.62-5.75-8.38-5.7-9,0Z" class="cls-17"></path></g></g><g id="线"><path d="M939.39,685.16c.44-17.78,1.29-35.65,5.06-53.07,1.22-5.65-7.45-8.06-8.68-2.4-3.94,18.21-4.92,36.89-5.38,55.47-.15,5.79,8.85,5.79,9,0Z" class="cls-10"></path><path d="M298.59,775.58c1.11,43.36,6.74,88.67,31,125.77,30.53,46.66,83.94,69.48,136.71,80.59,43.45,9.14,88.18,11.64,132.48,11.49,44.84-.15,89.91-2.91,134-11.15C789,971.82,847.43,951.4,886.72,908c28.68-31.71,42.71-72.19,48.23-114,.65-4.94,1.19-9.89,1.65-14.86.54-5.76-8.46-5.72-9,0-3.68,39.68-13.88,79.26-38.17,111.56-32.06,42.64-83.16,65.15-133.65,77.53-39.65,9.71-80.52,13.9-121.25,15.51-45.94,1.82-92.46,1.11-138-5.52-54.93-8-114.27-25.22-150.78-69.91-26.77-32.77-35.22-75.48-37.5-116.7-.3-5.32-.49-10.64-.63-16-.15-5.78-9.15-5.8-9,0Z" class="cls-10"></path><path d="M291.28,619.07c5.54,21.59,7,43.87,7.45,66.08.12,5.78,9.12,5.8,9,0-.46-23-2-46.13-7.77-68.48-1.44-5.6-10.12-3.23-8.68,2.4Z" class="cls-10"></path><path d="M735.27,1008.05c64.94,27.79,119.21,75.83,161.81,131.57a607.21,607.21,0,0,1,39.14,58.18c3,5,10.75.45,7.77-4.54-39-65.47-89.74-125.56-154.5-166.73a347,347,0,0,0-49.67-26.25c-5.27-2.26-9.86,5.49-4.55,7.77Z" class="cls-10"></path><path d="M314.69,1198.77c34.64-61.77,80.11-119,138.91-159.33A343.59,343.59,0,0,1,499,1013.15c5.22-2.51.66-10.27-4.54-7.77-61.35,29.5-111.9,77.43-151.51,132.22a584.06,584.06,0,0,0-36,56.63c-2.83,5.06,4.94,9.6,7.77,4.54Z" class="cls-10"></path><path d="M306,670.92c-8.92-16.82-28.23-24.37-46.48-24.5-20.74-.15-41.77,8.72-55.3,24.6-18.16,21.31-19.8,49.86-14.16,76.22,5.74,26.88,19.34,54.45,46.16,65.34,22.28,9,48.27,4,68.16-8.53,4.89-3.08.38-10.87-4.54-7.77-15.37,9.67-34.63,14.68-52.59,10.4-23.87-5.68-38.19-26.62-45.15-48.92-7.57-24.24-10.11-52.67,4.42-74.9,10-15.37,27.41-25.18,45.55-27.09,17.34-1.82,37.43,3.25,46.16,19.69,2.72,5.12,10.49.58,7.77-4.54Z" class="cls-10"></path><path d="M937.52,675.46c7.59-14.3,24.05-20.11,39.49-20,18.28.08,36.25,8,48.15,22,16.3,19.12,16.74,45.62,11.52,69-5.26,23.58-17.08,49-41.17,58.18-19.76,7.5-42.13,2.74-59.6-8.26-4.92-3.1-9.44,4.69-4.54,7.77,17.65,11.11,39.87,16.3,60.36,11.11,26.52-6.72,42.81-30.06,50.6-55,8.34-26.72,10.51-58.35-5.82-82.6-12-17.77-31.68-28.63-52.83-30.79-20.42-2.08-43.78,5-53.93,24.15-2.72,5.11,5,9.67,7.77,4.54Z" class="cls-10"></path><path d="M594.52,450.79C593.14,434.32,584.28,419,573,407.25c-10.52-11-25.72-21.25-41.68-19.94-17.16,1.42-32.45,14.66-41.88,28.22-11.15,16.05-16.21,35.73-15.84,55.14.53,26.68,10.1,52.08,21.38,75.9,2.48,5.24,10.24.67,7.78-4.54-16.26-34.31-29.6-75.85-11.38-112.12,7.2-14.35,19.15-27.33,34.75-32.43,12.92-4.23,26.3,3.14,35.77,11.56,11.77,10.45,22.24,25.66,23.59,41.75.48,5.73,9.48,5.78,9,0Z" class="cls-10"></path><path d="M357.26,509.08a150.54,150.54,0,0,0,11.09,100.09c2.53,5.21,10.29.65,7.77-4.55a140.55,140.55,0,0,1-10.18-93.15c1.33-5.63-7.35-8-8.68-2.39Z" class="cls-10"></path><path d="M419.14,531.08l3.53,31c.65,5.69,9.66,5.75,9,0l-3.53-31c-.65-5.69-9.66-5.75-9,0Z" class="cls-10"></path><path d="M660.82,169.91c-41-27.92-90.76-39.56-140-35.64-54.23,4.32-106.06,26-150,57.52-24.46,17.53-46.28,38.24-66.88,60.1-16.53,17.55-32.1,36.17-45,56.55-24.09,38-36.32,81.25-47.61,124.36-3.81,14.54-7.79,29-8.88,44-1,13.86.12,27.71,2.06,41.44,4,28.29,11.31,56.15,9.19,85a142.53,142.53,0,0,1-3.75,23.23c-1.37,5.63,7.31,8,8.68,2.39,6.81-28,4.32-55.82-.57-83.88s-10.06-56-4.44-84.22c2.65-13.29,6.57-26.42,10.09-39.49,3.07-11.4,6.26-22.77,9.8-34,6.15-19.59,13.44-38.81,23.13-56.94,10.39-19.48,23.31-37.42,37.64-54.17a522.41,522.41,0,0,1,60.21-60.27c41.77-35.08,92.1-61,146.18-70.06,47.67-8,97.79-1.46,140.22,22.32,5.29,3,10.42,6.19,15.43,9.6,4.8,3.27,9.31-4.52,4.54-7.77Z" class="cls-10"></path><path d="M593.24,450.79c1.19-14.18,9.6-27.65,19.31-37.65,9-9.24,22.18-18.69,35.81-16.72,15.39,2.23,28.68,15.73,36.24,28.45,8.87,14.95,12.28,32.15,11.39,49.4-1.21,23.75-9.94,46.49-20,67.76-2.47,5.21,5.29,9.78,7.77,4.54,18.31-38.64,32.12-85.11,9.35-125-8.61-15.07-22.91-29.09-40.21-33.39-15.55-3.86-31.09,4.44-42.42,14.49-13.68,12.15-24.67,29.59-26.22,48.12-.48,5.77,8.52,5.74,9,0Z" class="cls-10"></path><path d="M812.82,511.47a140.49,140.49,0,0,1-10.19,93.15c-2.51,5.19,5.25,9.76,7.77,4.55a150.42,150.42,0,0,0,11.09-100.09c-1.32-5.64-10-3.25-8.67,2.39Z" class="cls-10"></path><path d="M750.62,531.08l-3.54,31c-.65,5.74,8.35,5.7,9,0l3.54-31c.66-5.74-8.35-5.7-9,0Z" class="cls-10"></path><path d="M209.31,623.9c-14.45,20.64-25.12,43.56-25.05,69.16.05,20,5.12,39.58,4.07,59.66-1.4,26.64-11.88,52.95-25,75.89-11.42,19.94-25.8,38-37,58-22.33,39.75-29.45,87.72-23,132.64,2.18,15.2,6.16,30,10.24,44.75,3.23,11.73,6.64,23.69,6.8,35.94.42,33.67-29,58.57-53.44,77.29-5.77,4.43-11.67,8.68-17.63,12.86-4.71,3.29-.22,11.1,4.54,7.77,19.41-13.58,39-28.17,54.4-46.31,9.33-11,17.28-23.67,19.94-38,4.85-26.14-6.83-52.15-12.54-77.2-9.49-41.7-7.3-87.57,9.55-127.18,9.15-21.5,23.15-40.19,35.87-59.63,14.56-22.25,26.48-46.29,32.74-72.25,5.26-21.85,3.46-43,.9-65-1.13-9.68-1.88-19.43-.91-29.17,1.2-12,5.24-23.51,10.73-34.14a180.31,180.31,0,0,1,12.63-20.51c3.33-4.76-4.47-9.26-7.77-4.55Z" class="cls-10"></path><path d="M661.38,179.53c40.81-12.37,83.44-20.59,126.17-15.14,53.92,6.87,99.49,35.85,137.62,73.34,29.69,29.2,54.53,62.25,69.24,101.46,6.54,17.43,11.41,35.44,16,53.48,5.6,22.3,11.87,44.69,16.5,67.21,5.81,28.28.74,56.36-4.14,84.32-4.94,28.32-7.58,56.37-.69,84.63,1.37,5.63,10,3.24,8.68-2.39-6.42-26.37-4-52.67.56-79.1,4.33-24.91,9.22-50,6.5-75.38-1.38-12.83-4.84-25.15-7.94-37.63-2.81-11.32-5.52-22.66-8.3-34-4.71-19.21-9.57-38.44-16.12-57.13-13.71-39.15-36.2-72.93-64.88-102.75C903,201.38,858.26,169,804.24,158.08,755.43,148.23,706,156.59,659,170.85c-5.52,1.68-3.17,10.37,2.4,8.68Z" class="cls-10"></path><path d="M1023.53,628.45c14.67,20.94,24.84,43.5,23.71,69.46-.9,20.58-5.63,40.59-3.44,61.3,2.79,26.45,13.15,52.24,26.41,75.13,11.61,20,26.15,38.24,37.31,58.55,21.62,39.34,27.78,87.49,20,131.51-2.61,14.7-6.87,29-10.71,43.4-3.17,11.92-6,24.3-5.35,36.72,1.94,35.11,31.93,60.69,57.8,80.51q8.67,6.63,17.63,12.86c4.76,3.33,9.26-4.47,4.55-7.77-19.19-13.43-38.46-27.91-53.52-46-8.51-10.23-15.43-22.27-17.12-35.65-1.51-11.82.93-23.65,3.86-35.06,3.6-14,7.88-27.84,10.69-42.06,8.45-42.73,4.76-89.29-13.14-129.22-9.45-21.07-23.33-39.46-35.83-58.74-14.48-22.33-26.33-46.65-31.75-72.87-4.38-21.22-1.21-41.76.93-63,2.26-22.26-1.25-43.1-11.58-63.08a178.48,178.48,0,0,0-12.63-20.52c-3.29-4.71-11.1-.21-7.77,4.55Z" class="cls-10"></path><path d="M599,695.05c-.27,34.91-22.32,67.1-55.48,78.81a84.61,84.61,0,0,1-92.61-25.41c-22.56-26.93-25.32-66.55-7.24-96.56s54-45.88,88.25-38.86c38.8,7.94,66.78,42.57,67.08,82,0,5.79,9,5.81,9,0a93.75,93.75,0,0,0-60.84-87c-36.39-13.48-79-1.81-103.44,28.28s-27.91,73.69-7.49,107c20.2,33,59.52,50,97.41,42.57,43-8.45,74-47.37,74.36-90.84C608,689.26,599,689.26,599,695.05Z" class="cls-10"></path><path d="M795.32,695.05c-.27,34.91-22.32,67.1-55.48,78.81a84.61,84.61,0,0,1-92.61-25.41c-22.56-26.93-25.32-66.55-7.24-96.56S694,606,728.24,613c38.8,7.94,66.78,42.57,67.08,82,0,5.79,9,5.81,9,0a93.75,93.75,0,0,0-60.84-87c-36.39-13.48-79-1.81-103.44,28.28s-27.91,73.69-7.49,107c20.21,33,59.52,50,97.41,42.57,43-8.45,74-47.37,74.36-90.84C804.37,689.26,795.37,689.26,795.32,695.05Z" class="cls-10"></path><path d="M619,1111.2c-15.27-44.85-76-26.22-105-8l6.77,3.88c-.36-21.72-5.37-43.65-10.62-64.63-5.36-21.46-11.56-43.2-21-63.25-2.48-5.23-10.24-.67-7.77,4.54,9.12,19.32,15,40.43,20.13,61.1,5.05,20.23,9.94,41.3,10.29,62.24,0,3.31,3.81,5.74,6.77,3.89,15.84-9.94,34.42-17.39,53.25-18.43,16.39-.9,32.8,4.25,38.52,21.07,1.86,5.45,10.55,3.11,8.68-2.39Z" class="cls-10"></path><path d="M619,1111.2a341.48,341.48,0,0,0-32.2-77.28c-9.08-15.91-19.68-33.63-34.72-44.66-4.68-3.43-9.17,4.37-4.55,7.77,5.72,4.19,10.45,10,14.71,15.63a236.63,236.63,0,0,1,17.54,27.14,331.39,331.39,0,0,1,30.54,73.79c1.55,5.57,10.24,3.2,8.68-2.39Z" class="cls-10"></path><path d="M619,1113.59c5.77-16.86,22.32-22,38.74-21.07,18.93,1,37.61,8.47,53.56,18.43,3,1.84,6.72-.57,6.77-3.89.35-20.94,5.27-42,10.35-62.24,5.2-20.67,11.07-41.78,20.24-61.1,2.47-5.2-5.28-9.77-7.77-4.54-9.52,20-15.76,41.79-21.15,63.25-5.27,21-10.31,42.9-10.67,64.63l6.77-3.88c-29.09-18.17-90.15-36.9-105.52,8-1.88,5.49,6.81,7.85,8.68,2.39Z" class="cls-10"></path><path d="M619,1113.59a331.07,331.07,0,0,1,30.71-73.79,236.65,236.65,0,0,1,17.27-26.66c4.39-5.77,9.25-11.8,15.16-16.11,4.63-3.38.14-11.2-4.55-7.77-15.09,11-25.77,28.74-34.89,44.66a340.31,340.31,0,0,0-32.38,77.28c-1.56,5.58,7.12,8,8.68,2.39Z" class="cls-10"></path></g><g id="erding"><path d="M270.27,786.65c-11.67-3.37-23.13-.38-28.12,11.43-5.1,12-3.32,26.65-.56,39,2.38,10.7,5.8,25.11,15.88,31.29,8.42,5.17,18.13,1.84,23.63-5.8,9.8-13.59,6.74-33.42,2.62-48.39-1.54-5.57-10.22-3.2-8.68,2.4,3.18,11.54,5.82,25.58.83,37.07-2.09,4.82-6.64,9.93-12.18,7.85-7.92-3-10.43-15.24-12.32-22.3-2.69-10.1-4.59-21.39-2.64-31.81.76-4.07,2.15-8.78,5.65-11.37,3.92-2.91,9.17-2,13.5-.73,5.58,1.61,8-7.07,2.39-8.67Z" class="cls-10"></path><path d="M967.92,795.32c8.62-2.48,15.57-.54,18.3,8.54,2.95,9.83,1.51,21-.68,30.85-1.8,8-4,20.35-11.21,25.56-4.85,3.54-10,1-12.93-3.8-7.14-11.51-4-27.73-.64-39.86,1.54-5.59-7.14-8-8.67-2.4-4,14.34-6.52,31.62.75,45.4,4.24,8.06,13,13.67,22.18,10.39,11-4,15-17.12,17.78-27.25,3.57-12.83,6-27.79,2.22-40.86-4-14-15.92-19.16-29.49-15.24-5.56,1.6-3.19,10.28,2.39,8.67Z" class="cls-10"></path></g></g></svg>