<svg viewBox="0 0 1200 1200" xmlns="http://www.w3.org/2000/svg"><defs><style>.cls-1{isolation:isolate;}.cls-2{fill:#e9e8f0;}.cls-3{opacity:0.52;}.cls-4{fill:#d5d3ea;}.cls-5{fill:#d84173;}.cls-6{fill:#fff;}.cls-7{fill:#ffd599;}.cls-8{fill:#ffe8dc;}.cls-9{fill:#ffccc2;}.cls-10{fill:#eaa49d;}.cls-11{fill:#331403;}.cls-12{mix-blend-mode:multiply;}.cls-13{fill:#eab394;}.cls-14{fill:#f9bca5;}.cls-15{fill:#f99f62;}.cls-16{fill:#ffd4a9;}.cls-17{fill:#040000;}.cls-18{fill:#d8d14e;}</style></defs><title>touxiang</title><g class="cls-1"><g id="bg"><rect height="1200" width="1200" class="cls-2"></rect><g class="cls-3"><polygon points="0 0 0 59.87 59.87 0 0 0" class="cls-4"></polygon><polygon points="180.13 0 0 180.14 0 299.87 299.86 0 180.13 0" class="cls-4"></polygon><polygon points="420.14 0 0 420.14 0 539.87 539.87 0 420.14 0" class="cls-4"></polygon><polygon points="660.13 0 0 660.13 0 779.87 779.87 0 660.13 0" class="cls-4"></polygon><polygon points="900.13 0 0 900.13 0 1019.86 1019.86 0 900.13 0" class="cls-4"></polygon><polygon points="1200 0 1140.14 0 0 1140.14 0 1200 59.87 1200 1200 59.87 1200 0" class="cls-4"></polygon><polygon points="299.87 1200 1200 299.87 1200 180.14 180.14 1200 299.87 1200" class="cls-4"></polygon><polygon points="539.87 1200 1200 539.87 1200 420.14 420.14 1200 539.87 1200" class="cls-4"></polygon><polygon points="779.87 1200 1200 779.87 1200 660.13 660.13 1200 779.87 1200" class="cls-4"></polygon><polygon points="1019.86 1200 1200 1019.86 1200 900.13 900.13 1200 1019.86 1200" class="cls-4"></polygon><polygon points="1200 1200 1200 1140.14 1140.14 1200 1200 1200" class="cls-4"></polygon></g></g><g id="涂色"><path d="M550.39,1095.56c3.55-7.9,7.15-15.79,11.15-23.48,1.71-3.3,4-5.75,3.11-9.49a68.47,68.47,0,0,0-2.21-7.67c-3.24-9.09-8.9-17-17.27-22-8.53-5.07-18.6-7-28.34-8.06-12.55-1.35-25.22-1.34-37.83-1.41-26.71-.15-53.34-.78-79.81-3.91a40.7,40.7,0,0,0-3.32,3.11,1,1,0,0,1,0,1.52,406.14,406.14,0,0,0-69.93,91.45l.18.2a1.14,1.14,0,0,1-1.31,1.81,454.07,454.07,0,0,0-35.2,81.09c2.39-.53,5.94.13,8.23.13H495.5c11.51-12.05,19.61-27.81,27-42.37C532.56,1136.56,541.23,1115.94,550.39,1095.56Z" class="cls-5"></path><path d="M659.15,1095.54c-3.49-8-7.06-15.94-11.1-23.66-1.37-2.62-3.49-4.92-3.07-7.9a50.69,50.69,0,0,1,2-7.93c2.77-8.82,7.42-17,14.82-22.78a43.78,43.78,0,0,1,7.7-4.76c-.95-1.33-1.94-2.63-2.95-3.92-5.6,2.77-11.11,5.7-16.49,8.85-10.88,6.36-21.42,13.55-30.62,22.18-5.87,5.51-11.93,11.93-14.77,19.63a.91.91,0,0,1-.44.74l-.13.07h0a1.17,1.17,0,0,1-1.52-.32.88.88,0,0,1-.19-.5c-3.26-8.9-10.56-16.26-17.48-22.45-12.16-10.86-26.15-19.73-40.89-27.12v4a41.54,41.54,0,0,1,10.31,7.56,42.24,42.24,0,0,1,7.9,11.37c2.21,4.57,4.9,10.63,5.1,15.76.11,2.75-1.86,5-3.16,7.49-1.83,3.47-3.57,7-5.27,10.54-4.13,8.66-8,17.44-11.89,26.21-8.36,18.92-16.62,37.93-26.33,56.21-6.22,11.7-13.08,24-22.14,34H711.91c-10.45-11.6-17.91-26.35-24.66-40C677,1138.15,668.42,1116.69,659.15,1095.54Z" class="cls-6"></path><path d="M924.24,938.05c-3.88-5-7.68-10-12.45-14.27-7.76-6.85-17.27-11.26-26.9-14.82a1.14,1.14,0,0,1-.76-1.16,11.52,11.52,0,0,1-2.24-1.7,26.61,26.61,0,0,0-4.25-2.79.44.44,0,0,1-.21-.24c-25,21.26-55.07,36.25-86.12,46.78-9.76,3.31-19.65,6.22-29.63,8.81,1.5,1,2.16,3.34,3.72,4.16a.88.88,0,0,1,1.05-.22c20.18,8,39.89,17.15,60,25.32a1.13,1.13,0,0,1-.3,2.21,395.87,395.87,0,0,0-76.34,7.11c-28.26,5.51-56.27,14.17-82.23,26.85,1,1.29,2,2.6,3,3.93,15.23-7,34.31-6.54,50.34-6.72,33.84-.4,67.49-.59,101-6.26,48.75-8.27,95-26.44,137.68-51.17C945.38,958.12,933.73,950.31,924.24,938.05Z" class="cls-5"></path><path d="M542.91,1025.14a304.38,304.38,0,0,0-34.47-14.32c-40.88-14.31-84.27-20.53-127.49-20.69a1.13,1.13,0,0,1-.3-2.21c18.85-7.65,37.34-16.15,56.2-23.78a366.93,366.93,0,0,1-42-12.31c-26.78-9.68-52.24-23.55-73-42.71-9.72,3.61-19.21,8.07-27.29,14.66-5.11,4.16-9.41,9.1-13.75,14-10.58,12-22.78,20.12-37.48,26.07,47.85,27.69,100.12,46.55,155.08,53.43,32.95,4.13,65.93,3.28,99,4.17,14.66.4,31.81.9,45.51,7.67Z" class="cls-5"></path><path d="M824.4,1020.2a1,1,0,0,1,0-1.57c-.34-.53-.67-1.06-1-1.61q-4.38.76-8.79,1.43c-31.73,4.72-63.55,4.68-95.53,5.12-19,.26-43.09-.42-58.11,13.29-7.37,6.73-11.26,16.17-13.45,25.73-.87,3.81,1.61,6.58,3.34,10s3.21,6.5,4.74,9.78c3.87,8.32,7.48,16.75,11.09,25.17,8,18.71,15.85,37.51,25.15,55.62,6.36,12.38,13.4,25.46,23.11,35.77H936.56A491.67,491.67,0,0,0,918,1151.4C895.51,1102.11,864.18,1057.07,824.4,1020.2Z" class="cls-5"></path><path d="M1111.57,863q-2.1-39.45-7.77-78.62c-3.77-26-9-51.7-13-77.63-7.92-51.4-12-102.75-13.55-154.7-1.46-50.57-8.41-101.59-18.94-151A381.27,381.27,0,0,0,1013,285a360,360,0,0,0-79.89-93.09c-34-28-73.3-49.8-114.17-66-82.11-32.6-172.42-43-260.14-35-81.65,7.42-162.66,31.08-233,73.64C253.26,208.3,195.43,272.41,165.08,352c-16.78,44-24.67,90.63-28.67,137.41-4.12,48.29-5.48,96.83-8.31,145.21-4.58,78.28-13.18,156.25-17.38,234.55-2.12,39.42-3.22,78.94-2.09,118.41,1,34.47,3.35,69.37,10.94,103.1,3.56-18.41,6.46-37,10.73-55.26,2.56-10.92,7.41-20.9,12.18-31,.47-1,1.74-.52,2.06.27,6,14.64,8.36,30.37,16.14,44.35,12.26,22,34.14,34.69,57.48,42.32,1.51-22.51,9.42-43,28.11-56.64,7-5.13,14.82-9,22.42-13.1,6.47-3.53,13.24-7.38,17.43-13.64a1.14,1.14,0,0,1,2.06.27c6.9,24.37,33.7,59.07,50.58,77.92,13.16-11.06,42.1-45.17,57.11-63.5-17.45-4.54-65.38-20-81.86-27.11-14.75-6.4-30-12.21-44.32-19.65a84.67,84.67,0,0,1-28.8-10.37,1.15,1.15,0,0,1,.27-2.06c9.83-3.77,19.43-8.41,27.57-15.17,5.08-4.22,9.37-9.19,13.73-14.12,10.72-12.13,23.24-20.12,38.25-25.89-8.14-7.73-20.22-30.29-26.65-39.78-19.65-29-23.82-49.47-27.5-83.92-.44-4.08-.8-8.16-1.11-12.24l-.11.07a1.07,1.07,0,0,1-.52,1c-20.56,12.95-47.32,18.34-70.42,9.14-27.82-11.08-37.55-38.15-43.64-65.82-6-27.5-8.38-58.14,10.69-80.47,14-16.43,35.61-25.63,57.11-25.52,17.73.08,36.49,6.91,46.06,22.45,5.62-18.34-4.43-80.58-9.26-99.15a1.13,1.13,0,0,1,2.17-.6,216.51,216.51,0,0,1,4.53,22.42c.81,5.39,1.45,10.8,2,16.21a.47.47,0,0,1,.35.24,3.61,3.61,0,0,0,.92,1c.49-.69,2.65,43.69,2.91,44.74,10.39,41.68,24.5,53.17,41.32,76.73a476.58,476.58,0,0,1,2.57-48.22,518.25,518.25,0,0,1,21-103.59c9.31-29.47,21.64-58.91,40.75-83.45a1.17,1.17,0,0,1,.28-.37.91.91,0,0,1,1.38-.05,1,1,0,0,1,.51.89c.45,20.43,2.7,40.63,10,59.84,6.87,18,16.35,35.06,24.6,52.51,4.39-48.13-4-97.16,7.59-144.6v-1.47a1.13,1.13,0,0,1,2.25,0c0,56.77,2.06,115,33.14,164.39a274.68,274.68,0,0,1,4.5-42.53c5.5-30.88,14.81-61.45,28.64-89.64,11.63-23.71,27.5-48.46,51.31-61.46a1.05,1.05,0,0,1,1.16.06,1.21,1.21,0,0,1,.38.34c9,12.67,18.37,25.11,27.47,37.73,32.9,45.68,64.25,96.78,64,154.78a324.57,324.57,0,0,0,17.59-39,575.66,575.66,0,0,0,26.4-90.23,327.58,327.58,0,0,0,6.14-40.73c.73-9.31,1.24-19.17-1.09-28.3a1,1,0,0,1,.34-1.22,1.12,1.12,0,0,1,1.73.3c15.16,22.62,30.09,45.48,42.61,69.69,11.28,21.8,21,45.07,24.34,69.53,20-39.92,4.27-87.64,22.51-128.36.49-1.1,1.92-.48,2,.51a8.49,8.49,0,0,1,2.9,3.27,1,1,0,0,1,.74.55A284.91,284.91,0,0,1,804,601.31C841.83,548,864.69,480.11,841.57,416c-.5-1.37,1.68-1.95,2.17-.6A157.52,157.52,0,0,1,852,450.68a395.57,395.57,0,0,1,27.81,58A486.41,486.41,0,0,1,908,620.35c4.2,32.1,5.45,64.86,1.65,97.06,20-38.64,28.51-81.78,38.06-123.91a1,1,0,0,1,.22-.46c.49-.92,1-1.79,1.56-2.65a256.73,256.73,0,0,1,5.24-42.79c.31-1.42,2.48-.82,2.17.59-1.36,6.19-2.37,12.44-3.13,18.73-.8,6.63-5.07,62.47-5.48,69.14,11.71-14.66,36-27.87,54.3-26.1,21.63,2.08,42.09,13.3,54.37,31.4,17.43,25.69,11.6,60.65,2.65,88.93-8.12,25.63-22.41,46.34-49.68,53.26-21.28,5.39-41.73-1.09-60-12.62-.42-.26,0-21.2,0-21.58-.61-.43-.9-.93-1.61-1.2-.12.79-.24,1.51-.36,2.19a14.87,14.87,0,0,1,.43,5.48,249.18,249.18,0,0,1-7.78,39.66,103,103,0,0,1-5.76,15.12,24.46,24.46,0,0,1,.37,3.11,19.18,19.18,0,0,1-5.32,13.8c-4,18.17-37,61-49.46,74.13,6.64,4.37,14.09,5.57,19.32,12.3,3.89,5,12.95,12,17.7,16.24,7.71,6.93,15.08,13.11,15.45,14.12a7.86,7.86,0,0,1,.8.73,10.67,10.67,0,0,1,3.16,1.92c.61-.11,10.55,3.45,11.36,7.61.31.07,12.44,16.14,3.75,19.51-.85,1.41-8.6,5.26-11.14,4.47a52.2,52.2,0,0,1-9.72,2.91,10.81,10.81,0,0,1-1.22.22,59.05,59.05,0,0,1-12.4,7.25,12.51,12.51,0,0,1-6.9,1.05,95.91,95.91,0,0,1-28.76,13.1c-8.85,2.38-44.31,14-53.36,15.23.64.73,1.29,1.47,1.92,2.21,10.8,12.58,19.14,16.31,28.24,30.08,32.72,16.47,88.77,36.11,106.51,66.6a511.5,511.5,0,0,0,28.52-124.74,1.14,1.14,0,0,1,1.69-1c16.41,8.75,24.62,25.94,33.26,41.51,9.67,17.42,28.08,41.36,51.16,33.22,18.64-6.58,24-30.31,26.26-47.58C1112.88,967.21,1114.33,914.81,1111.57,863Z" class="cls-7"></path><path d="M650,977.4c-14.76,10.4-23.57,27.78-30.08,44.14a295.23,295.23,0,0,0-13.51,45.52c3.68-5.63,8.67-10.55,13.54-14.92,22-19.69,49.86-33,77.45-42.91,39.46-14.14,81.36-20.83,123.22-21.31-18.31-7.59-36.34-15.84-54.76-23.15a1.17,1.17,0,0,1-.75-1c-1.85-1-2.32-3.45-4.29-4.42a.4.4,0,0,1-.24-.36c-36,9.26-73.26,14.15-110.51,16.55A1.22,1.22,0,0,1,650,977.4Z" class="cls-6"></path><path d="M956.91,730.64c-3.36,24.17-16.42,67.87-30.2,100.4h0c-4.89,11.55-9.88,21.69-14.55,29.05-21.07,33.2-52.62,57.65-87.92,74.31-26.27,12.4-54.19,21-82.72,27-29.86,6.28-60.4,9.74-90.47,11.81a964.67,964.67,0,0,1-119.75.95c-20.35-1.12-40.72-3-60.9-6q-14.52-2.21-28.88-5.27a.9.9,0,0,0-.57-.13q-4.12-.88-8.25-1.86c-39.83-9.47-79.79-25.37-110-53.62a1.29,1.29,0,0,0-.17-.16q-4.12-3.86-8-8-4.26-4.6-8.09-9.52c-19-24.34-30-53.71-35.36-84.14-6.27-35.26-5.92-111.53-5.47-147.22.36-28.08,1.15-56.42-1.43-84.45a3.58,3.58,0,0,0,1,.76c3,43.64,14.44,82.34,44.42,128.35.68,1,2.24,1,2.21-.3-.6-33.16,2.68-66.42,8.66-99,6.2-33.8,15.29-67.48,29.45-98.87,6.54-14.52,14.27-28.61,23.87-41.36.62,19.52,3,38.83,10,57.2,7.42,19.47,17.81,37.76,26.52,56.66.52,1.13,2,.41,2.09-.57,4.93-45.92-2.79-92.77,5.79-138.29.41,54.56,4.45,109.85,35.44,156.76a1.14,1.14,0,0,0,2.1-.57c.08-28.34,5.53-56.78,13.46-83.91,8.44-28.9,20.15-57.88,38.16-82.23,8.42-11.37,18.49-21.79,30.89-28.79,32.42,45.34,69.5,89.94,84.44,144.76a170.31,170.31,0,0,1,6,50.17,1.13,1.13,0,0,0,2.09.57c14.75-25.84,24.85-54.48,33.42-82.87,8.64-28.62,15.92-58.15,18.82-88,.87-9,1.6-18.46.28-27.51,13.44,20.15,26.58,40.54,37.9,62,12.35,23.38,23.21,48.57,26.07,75.09a1.14,1.14,0,0,0,2.1.57c22.44-40.53,5.54-89.4,24-131.08a7.57,7.57,0,0,1,2.19,2.57,1.09,1.09,0,0,0-.23,1.36,282.47,282.47,0,0,1,25.2,199,1.13,1.13,0,0,0,2.06.87c32-43.42,54.34-97.19,49.92-150.92,36.25,63.56,55.06,138.6,56.93,211.48a340.22,340.22,0,0,1-2.83,55.44c-.16,1.16,1.39,2.09,2.06.87,21.65-39.28,30.69-83.52,40.47-126.88-.39,11.18-.42,22.37-.51,33.46C948.42,662.61,961.34,698.77,956.91,730.64Z" class="cls-8"></path><path d="M1016.81,780c27.5-10.35,41.31-38.64,47.38-65.67,6-26.86,5.19-56.81-13.5-78.7-13.58-15.9-34.31-24.86-55.12-24.87-16.68,0-41.93,13.22-51.39,27.43-1.14,21.66,6.82,36.3,6.5,58-.36,24.52-1.35,49.17-4.9,73.45a24.48,24.48,0,0,1,2.39,1.07,1,1,0,0,1,1.17,0C969.05,783,994.51,788.39,1016.81,780Z" class="cls-8"></path><path d="M266.79,769.44c-2.34-31.71,4.07-60,4.35-91.73.12-13.31.47-26.13,0-39.53-.31,0-8.39-3.45-8.58-3.81-10.06-19-33.21-25.28-53.3-23.23-21.12,2.15-41.14,13.45-52.79,31.37-16.31,25.1-13.57,57.29-4.92,84.61,8,25.33,24.63,48.94,51.78,55.24,20.37,4.72,38.55,3,56-8C259.75,774.13,266.72,769.45,266.79,769.44Z" class="cls-8"></path><path d="M593.41,977.49c-16.08.16-32.34.07-48.64-.48a7.83,7.83,0,0,0,1.39,1.88,1.16,1.16,0,0,1,.5.08c16.05,6.71,27.46,23,36.05,37.45,9.59,16.1,17.41,34.09,21,52.64,3.75-17.6,8.55-35.06,15.52-51.66,6.58-15.68,15.33-31.76,29.49-41.82C630.21,976.74,611.74,977.3,593.41,977.49Z" class="cls-8"></path><path d="M546.06,981.14a1.24,1.24,0,0,1-.66-1.6,9.68,9.68,0,0,1-1.79-2.57c-34.55-1.21-69.28-4.53-102.91-12-18.24,7.26-36.1,15.41-54.23,22.93a416.45,416.45,0,0,1,73.71,7.54c35.19,6.93,70.15,18.64,100.94,37.29,10.56,6.4,20.78,13.68,29.58,22.38a70.33,70.33,0,0,1,10.4,12.51c-3.48-16.72-10.42-32.87-18.87-47.59S562.32,987.94,546.06,981.14Z" class="cls-6"></path><path d="M554.94,847.86A127.8,127.8,0,0,1,470.4,968.11q-14.52-2.21-28.88-5.27a.9.9,0,0,0-.57-.13q-4.12-.88-8.25-1.86c-39.83-9.47-79.79-25.37-110-53.62a1.29,1.29,0,0,0-.17-.16q-4.12-3.86-8-8-4.26-4.6-8.09-9.52a127.74,127.74,0,1,1,248.49-41.67Z" class="cls-9"></path><path d="M926.71,831h0c-4.89,11.55-9.88,21.69-14.55,29.05-21.07,33.2-52.62,57.65-87.92,74.31-26.27,12.4-54.19,21-82.72,27A127.74,127.74,0,1,1,926.71,831Z" class="cls-9"></path><path d="M374.43,810.16l-7.54,20.23c-2,5.44,6.67,7.78,8.68,2.39l7.54-20.23c2-5.43-6.67-7.78-8.68-2.39Z" class="cls-10"></path><path d="M420,818.43a55,55,0,0,1-3.75,13.84c-.93,2.26,1,4.92,3.14,5.53,2.57.74,4.62-.9,5.53-3.14A62.36,62.36,0,0,0,429,818.43c.3-2.42-2.28-4.5-4.5-4.5-2.68,0-4.2,2.07-4.5,4.5Z" class="cls-10"></path><path d="M467.33,815.76c-3,7.13-5.83,14.32-8.36,21.64-1.9,5.48,6.8,7.84,8.68,2.39q3.41-9.87,7.45-19.48c2.24-5.27-5.51-9.87-7.77-4.55Z" class="cls-10"></path><path d="M752.74,810.16l-7.54,20.23c-2,5.44,6.67,7.78,8.68,2.39l7.54-20.23c2-5.43-6.67-7.78-8.68-2.39Z" class="cls-10"></path><path d="M798.35,818.43a55,55,0,0,1-3.75,13.84c-.93,2.26,1,4.92,3.14,5.53,2.57.74,4.62-.9,5.53-3.14a62.76,62.76,0,0,0,4.08-16.23c.3-2.42-2.28-4.5-4.5-4.5-2.68,0-4.2,2.07-4.5,4.5Z" class="cls-10"></path><path d="M845.64,815.76c-3,7.13-5.83,14.32-8.36,21.64-1.9,5.48,6.79,7.84,8.68,2.39,2.27-6.58,4.73-13.08,7.45-19.48,2.24-5.27-5.51-9.87-7.77-4.55Z" class="cls-10"></path></g><g id="五官"><path d="M513.13,666.91c-27.72-.06-28.36,60.66,3.15,60.66C540.22,727.57,542.37,667,513.13,666.91Z" class="cls-11"></path><path d="M513.13,662.41C484.56,663,482.35,706,496.74,723c7.82,9.24,22.73,12.7,32.17,3.88,9.17-8.57,11.25-23.59,9.85-35.46-1.67-14.25-9.71-28.67-25.63-29-5.79-.13-5.79,8.87,0,9,20.22.46,20.1,33.62,12.11,45.89-4.73,7.27-13.68,7.28-20,1.65-7.14-6.39-8.91-17.48-8.13-26.58s5.33-20.75,16-21C518.91,671.3,518.93,662.3,513.13,662.41Z" class="cls-11"></path><path d="M710.55,666.91c27.72-.06,28.36,60.66-3.15,60.66C683.46,727.57,681.31,667,710.55,666.91Z" class="cls-11"></path><path d="M710.55,671.41c9.24.18,13.75,9,15.41,17,1.89,9.12.65,20.29-5.11,27.88-4.64,6.11-14.47,9.79-20.46,3.51-6.36-6.67-7.45-17.86-6.66-26.59.87-9.68,5.53-21.55,16.82-21.81,5.78-.13,5.8-9.13,0-9-28.38.65-32.15,43.13-18.62,61.24,7.85,10.51,22.22,10.67,32,2.43,9.89-8.38,12.91-23.08,11.47-35.44-1.58-13.67-9.48-27.94-24.8-28.23C704.75,662.3,704.75,671.3,710.55,671.41Z" class="cls-11"></path><path d="M579.73,786.75c18.77,20.06,48.84,20.42,67.84.48,4-4.19-2.35-10.57-6.36-6.36-15.73,16.51-39.61,16.09-55.12-.48-4-4.24-10.32,2.14-6.36,6.36Z" class="cls-11"></path><g class="cls-12"><path d="M480.62,644.11c10.72-4.3,21.64-9.15,33.12-11s21.52,1.13,30.87,7.6c4.78,3.3,9.29-4.5,4.55-7.77-10.07-7-21.54-10.43-33.78-9.07-13,1.45-25.14,6.74-37.15,11.56-5.31,2.13-3,10.83,2.39,8.68Z" class="cls-13"></path></g><g class="cls-12"><path d="M745.45,635.43c-12-4.82-24.17-10.11-37.15-11.56-12.24-1.36-23.72,2.12-33.78,9.07-4.73,3.27-.24,11.07,4.54,7.77,9.36-6.46,19.54-9.42,30.87-7.6,11.49,1.85,22.4,6.7,33.13,11,5.37,2.15,7.71-6.55,2.39-8.68Z" class="cls-13"></path></g></g><g id="细节"><path d="M202.19,702.45c9.26-7.57,22-5.73,29.6,3.06,3.81,4.38,10.15-2,6.36-6.36-11.1-12.78-29.46-13.58-42.32-3.07-4.49,3.67,1.91,10,6.36,6.37Z" class="cls-14"></path><path d="M214.16,693.92A22.15,22.15,0,0,0,205.92,710c-.44,5.77,8.56,5.75,9,0a13.55,13.55,0,0,1,5.61-9.7c1.92-1.49,1.56-4.79,0-6.36-1.9-1.9-4.44-1.5-6.37,0Z" class="cls-14"></path><path d="M1022.91,696.08c-12.87-10.51-31.22-9.71-42.33,3.07-3.78,4.35,2.56,10.74,6.37,6.36,7.64-8.79,20.33-10.64,29.6-3.06,4.44,3.63,10.85-2.7,6.36-6.37Z" class="cls-14"></path><path d="M998.21,700.28a13.55,13.55,0,0,1,5.61,9.7c.44,5.74,9.44,5.78,9,0a22.16,22.16,0,0,0-8.25-16.06c-1.91-1.49-4.49-1.87-6.36,0-1.55,1.55-1.93,4.86,0,6.36Z" class="cls-14"></path><path d="M539.18,149.33c-67.09-17.42-134,9.43-186,51.69C298,246,255.29,308.48,231.49,375.48c-12,33.78-19.42,70.15-16.76,106.12.43,5.74,9.43,5.79,9,0-4.77-64.52,21.6-129.82,55.76-183.26,36.25-56.72,88.09-109.41,152.18-133.41,33.71-12.62,70.1-16,105.12-6.92,5.61,1.46,8-7.22,2.39-8.68Z" class="cls-15"></path><path d="M529.07,182.09c-24.34,7.83-42.05,28.86-54.92,50A248.11,248.11,0,0,0,443.46,312c-2.63,13.22-4.32,26.83-3.54,40.32.34,5.75,9.34,5.79,9,0-1.39-24,4.47-48.52,12.29-71.08,8.64-24.92,21-49.92,39.19-69.29,8.65-9.21,18.91-17.22,31.06-21.13,5.49-1.77,3.14-10.46-2.39-8.68Z" class="cls-15"></path><path d="M622.67,152.56C692.27,133.23,763.55,154,822,193.5c60.53,40.93,109.4,100.07,142.08,165.15,16.56,33,29.14,68.41,34.15,105.09.78,5.71,9.45,3.28,8.68-2.4-9.54-69.84-45-135.94-88.75-190.27C872.25,214,811,164.36,739.44,144.52c-39-10.8-80.12-11.48-119.17-.64-5.57,1.55-3.2,10.23,2.4,8.68Z" class="cls-15"></path><path d="M1024.77,840.38q23.79,87.26,41.38,176c1.12,5.67,9.8,3.27,8.67-2.4q-17.57-88.71-41.37-176c-1.52-5.59-10.2-3.22-8.68,2.39Z" class="cls-15"></path><path d="M191.27,833.11a980.49,980.49,0,0,0-4.62,167.33c.33,5.76,9.33,5.79,9,0a980.49,980.49,0,0,1,4.62-167.33c.65-5.74-8.36-5.7-9,0Z" class="cls-15"></path><path d="M595.43,388.51a175,175,0,0,1,28.85,83.56c.44,5.74,9.44,5.78,9,0A184.38,184.38,0,0,0,603.2,384c-3.19-4.8-11-.3-7.77,4.54Z" class="cls-15"></path><path d="M575.25,130.91a139.82,139.82,0,0,0-16.56-37c-3.1-4.87-10.89-.37-7.77,4.54a131.37,131.37,0,0,1,15.65,34.88c1.58,5.56,10.26,3.2,8.68-2.39Z" class="cls-15"></path><path d="M703.28,232.36c41.36,25.84,69.14,71.37,73,120,.45,5.73,9.46,5.78,9,0-4.09-51.92-33.23-100.17-77.42-127.79-4.93-3.08-9.45,4.71-4.55,7.77Z" class="cls-15"></path><path d="M931,874.48A231.23,231.23,0,0,1,941,931.93c.27,5.77,9.27,5.8,9,0a240.86,240.86,0,0,0-10.41-59.84c-1.7-5.52-10.39-3.16-8.67,2.39Z" class="cls-15"></path><path d="M934,1027a193.7,193.7,0,0,0,12.24,64.68c2,5.38,10.72,3,8.68-2.39A186,186,0,0,1,943,1027c-.1-5.78-9.1-5.8-9,0Z" class="cls-15"></path><path d="M170.85,547.94v42.35c0,5.8,9,5.8,9,0V547.94c0-5.79-9-5.8-9,0Z" class="cls-15"></path><path d="M347.91,311.15a475.78,475.78,0,0,0-28.57,104.31c-.88,5.67,7.79,8.11,8.68,2.4a475.86,475.86,0,0,1,28.57-104.32c2.15-5.37-6.55-7.71-8.68-2.39Z" class="cls-15"></path><path d="M904.11,447A524.29,524.29,0,0,1,920,581.13c-.06,5.8,8.94,5.8,9,0a534,534,0,0,0-16.18-136.48c-1.42-5.61-10.1-3.23-8.68,2.39Z" class="cls-15"></path><path d="M678,1033.75c68.52,18.25,139.25,42.85,196.18,86.31,15.52,11.85,30,25.58,41.56,41.39,5.26,7.21,17.41.23,12.09-7.06-22.22-30.44-53-53.43-85.53-71.89-33.72-19.14-69.93-33.88-106.66-46.15-17.8-5.95-35.79-11.27-53.92-16.1-8.72-2.32-12.44,11.18-3.72,13.5Z" class="cls-16"></path><path d="M676.36,1033.05c26.31,16.14,51.9,33.54,74.94,54.15,21.91,19.6,41.22,41.83,58.69,65.43,12,16.19,23.25,32.9,34.24,49.78,4.9,7.52,17,.51,12.09-7.07-18.76-28.8-38.33-57.26-60.91-83.24a407.07,407.07,0,0,0-65.17-59.88c-15.08-11.18-30.82-21.44-46.81-31.26-7.7-4.73-14.74,7.38-7.07,12.09Z" class="cls-16"></path><path d="M544.91,1020.25a798.9,798.9,0,0,0-100,33.91c-36.07,15.15-71.07,33.42-101.82,57.79a220.17,220.17,0,0,0-42.71,44.22c-5.25,7.34,6.88,14.34,12.09,7.07,21.07-29.46,51.29-51.48,82.44-69.24,32.12-18.3,66.45-32.51,101.41-44.36q25.91-8.78,52.32-15.89c8.69-2.36,5-15.87-3.72-13.5Z" class="cls-16"></path><path d="M543.24,1021c-27.13,16.65-53.51,34.71-77.31,55.93-22.64,20.19-42.39,43.21-60.48,67.51-12.31,16.55-23.85,33.66-35.1,50.94-4.93,7.57,7.18,14.6,12.09,7.07,18.22-28,37.17-55.68,59.15-80.9a391.76,391.76,0,0,1,63-58c14.75-10.87,30.12-20.88,45.73-30.46,7.67-4.71.65-16.82-7.06-12.09Z" class="cls-16"></path><path d="M344.14,919.63c-16,1.85-30.34,6.45-41.83,18.08-3.75,3.8-7.13,8-11.22,11.44-5.2,4.4-11.37,6.92-17.91,8.61-8.71,2.25-5,15.76,3.73,13.5,13.43-3.47,23.14-10.64,32.42-20.61,9.72-10.45,20.51-15.36,34.81-17,3.78-.43,6.95-2.9,7-7,0-3.44-3.25-7.43-7-7Z" class="cls-16"></path><path d="M504.83,1006c-60.54-6.66-121.88-11.88-180.12-30.77-15.72-5.09-31.17-11-46.49-17.15-3.53-1.42-7.65,1.56-8.61,4.89-1.14,4,1.4,7.21,4.89,8.61,26.06,10.53,52.56,20,79.9,26.65C382.21,1005,410.61,1009,439,1012.5c21.92,2.71,43.88,5.09,65.84,7.51,3.79.41,7-3.52,7-7,0-4.13-3.26-6.59-7-7Z" class="cls-16"></path><path d="M862.69,933.63c14.29,1.66,25.08,6.57,34.8,17,9.29,10,19,17.14,32.43,20.61,8.73,2.26,12.45-11.24,3.72-13.5-6.38-1.65-12.45-4.08-17.57-8.32-4.24-3.51-7.71-7.83-11.56-11.73-11.48-11.63-25.86-16.23-41.82-18.08-3.79-.43-7,3.54-7,7-.05,4.15,3.26,6.57,7,7Z" class="cls-16"></path><path d="M702,1020c61.53-6.77,124.06-12,183.29-31.09,15.9-5.14,31.54-11.07,47-17.33,3.53-1.42,5.93-4.65,4.89-8.61-.88-3.33-5.11-6.3-8.62-4.89-25.72,10.39-51.86,19.76-78.83,26.39-27.17,6.68-54.91,10.69-82.65,14.11-21.69,2.67-43.41,5-65.12,7.42-3.79.41-7,2.92-7,7,0,3.46,3.24,7.41,7,7Z" class="cls-16"></path><path d="M613.22,1106.41c-.55,10.93-17.12,11.12-17.12,0s16.57-10.93,17.12,0c.29,5.77,9.29,5.8,9,0-.48-9.52-7.67-17.56-17.56-17.56a17.56,17.56,0,1,0,0,35.12c9.89,0,17.08-8,17.56-17.56C622.51,1100.62,613.51,1100.64,613.22,1106.41Z" class="cls-17"></path></g><g id="线"><path d="M231.24,245.72c36.82-42.6,82.86-76.14,133.25-101,50.84-25.06,105.92-41.25,161.93-49.56a599.64,599.64,0,0,1,171.32-.87c56.79,8,112.62,24.58,163.61,51.05,48.89,25.39,92.58,59.66,126.23,103.49,32.54,42.39,55.3,91.86,67.26,143.89,7.31,31.8,12.15,64.51,15.84,96.91,3.81,33.45,3.89,66.88,5.68,100.44,1.8,33.72,5.45,67.32,10.27,100.74,4.85,33.66,11.82,67,16.31,100.69a873.16,873.16,0,0,1,3.17,203.21c-1.39,13.67-2.49,27.66-6.78,40.8-3.38,10.35-9.48,21.48-20.62,24.82-13.8,4.12-26.48-5.38-35-15.3-8.7-10.12-13.87-22.66-20.78-33.95-6.3-10.29-14-19.78-24.81-25.54-3.21-1.71-6.43.49-6.77,3.88a508,508,0,0,1-29.24,126.2l7.52-2c-28.22-28.09-64.6-46.83-101.32-61.27-5.39-2.12-7.73,6.58-2.39,8.68,35.24,13.85,70.28,32,97.34,59,2.56,2.55,6.38,1.12,7.53-2a517.21,517.21,0,0,0,29.56-128.6l-6.77,3.89c24.53,13.08,29.38,45,48.8,63.39,9.22,8.73,21.39,15.24,34.42,13.24,11.56-1.78,20.49-9.71,26-19.73,5.81-10.57,8.37-22.62,9.92-34.47,2.24-17.15,3.82-34.41,5-51.67A874.91,874.91,0,0,0,1118.3,860a881.7,881.7,0,0,0-11.71-103.62c-6-34.74-12-69.41-16-104.46-4-35.24-5.48-70.41-6.66-105.83-1.14-34-5.1-67.73-10.44-101.26-4.81-30.22-10.12-60.33-19.75-89.44a383.79,383.79,0,0,0-33.6-74.3A367.44,367.44,0,0,0,907.59,162.21c-48.8-32.57-104.09-55-161.19-68C689,81,629.45,77,570.71,81.33,512.8,85.57,455.36,97.7,401.22,118.84c-53.71,21-104.31,50.58-146.73,89.84a381.29,381.29,0,0,0-29.62,30.68c-3.77,4.36,2.57,10.75,6.37,6.36Z" class="cls-11"></path><path d="M344.73,1086.38a299.4,299.4,0,0,1-30.07-38.79c-8.85-13.38-17.66-27.7-22.12-43.23-1.11-3.87-6.11-4.24-8.23-1.07-3.85,5.77-10.39,9.26-16.33,12.49-7.56,4.11-15.28,7.92-22.25,13-20.17,14.69-28.61,36.69-29.94,61.11l5.7-4.34c-23-7.3-44.7-19.51-56.77-41.17-7.64-13.71-9.93-29.19-15.82-43.57-1.29-3.16-6.38-5-8.22-1.07-4.89,10.33-9.9,20.6-12.52,31.79-4.67,19.92-7.69,40.29-11.73,60.34h8.67c-10.77-44.6-12.35-91.41-12.42-137.1-.08-48.37,2.53-96.72,6.23-144.94,3.66-47.56,8.37-95,11.48-142.61,4-61,5.35-122.36,10.72-183.29,5.23-59.27,17.5-117.86,44.9-171.1q5.42-10.51,11.53-20.64c3-5-4.79-9.51-7.77-4.54C158.65,339.4,142.3,397.5,134.93,457.11c-3.67,29.71-5.24,59.6-6.77,89.48-1.59,31.21-3.21,62.41-5.08,93.6-3.08,51.25-7.69,102.32-11.88,153.47-3.91,47.62-6.84,95.35-7.42,143.13-.58,47.44.47,95.67,9.39,142.4q1.44,7.57,3.26,15.07c1,4.18,7.79,4.39,8.67,0,4-19.88,7.07-40,11.61-59.78,2.45-10.71,7.06-20.33,11.74-30.21l-8.22-1.07c6.43,15.7,8.94,32.52,17.66,47.35,13.39,22.78,36.64,35.87,61.21,43.67,2.93.93,5.54-1.54,5.69-4.34,1.27-23.27,9.79-43.4,29.75-56.25,12.49-8,29-12.92,37.55-25.8l-8.23-1.08c4.67,16.28,13.75,31.35,23,45.38a313.14,313.14,0,0,0,31.47,40.61c3.95,4.25,10.31-2.12,6.37-6.36Z" class="cls-11"></path><path d="M268.51,631.53c-9.64-18.2-30.57-26.31-50.29-26.4-22.32-.11-44.92,9.44-59.49,26.51-19.91,23.31-21.45,54.63-15.12,83.42,6.37,29,21.26,58.35,50.25,69.88,23.89,9.5,51.78,3.91,73-9.48,4.89-3.08.37-10.87-4.55-7.77-16.65,10.5-37.53,15.94-57,11.41-26-6-41.75-28.63-49.43-52.88-8.39-26.5-11.25-57.64,4.59-82,11-16.85,30-27.64,49.87-29.7,18.93-2,40.87,3.58,50.39,21.56,2.71,5.12,10.48.58,7.77-4.54Z" class="cls-11"></path><path d="M953.77,636.07c8.23-15.56,26.12-22,42.91-22,20,0,39.7,8.63,52.73,23.89,17.86,20.9,18.37,49.84,12.63,75.41-5.77,25.74-18.71,53.38-45,63.32-21.5,8.12-45.86,2.92-64.86-9-4.92-3.09-9.44,4.69-4.55,7.77,19.06,12,43.08,17.63,65.21,12,28.44-7.21,46-32.13,54.47-58.87,9.21-29.09,11.67-63.67-6.24-90.07-13-19.16-34.4-30.86-57.29-33.07-21.9-2.11-46.89,5.53-57.77,26.06-2.71,5.11,5.06,9.66,7.78,4.54Z" class="cls-11"></path><path d="M293.46,1201.2c21-65.6,56.45-126.4,105.9-174.61,4.15-4-2.22-10.42-6.37-6.37-38.32,37.37-68.77,82.42-90.33,131.35a480.09,480.09,0,0,0-17.88,47.23c-1.77,5.53,6.92,7.9,8.68,2.4Z" class="cls-11"></path><path d="M823.12,1022.58c39.59,36.7,70.69,81.47,93,130.53a486.29,486.29,0,0,1,18.74,48.09c1.81,5.47,10.51,3.12,8.67-2.4C925.35,1144,898,1092.21,860.33,1048.23a391.6,391.6,0,0,0-30.84-32c-4.25-3.93-10.63,2.42-6.37,6.36Z" class="cls-11"></path><path d="M270,595.82c-.82-21.27-2.81-42.59-8.12-63.25-1.44-5.6-10.12-3.23-8.67,2.39,5.11,19.91,7,40.37,7.79,60.86.22,5.77,9.23,5.8,9,0Z" class="cls-11"></path><path d="M943.77,748.15c-3.91,42.74-14.71,85.36-40.49,120.41-33.75,45.88-87.81,70.73-141.61,84.52-42.24,10.83-85.86,15.68-129.34,17.72-50,2.34-100.47,1.76-150.1-4.75-60.24-7.91-126-25.59-167.45-73.2-30.18-34.7-40.64-80.51-43.62-125.32-.38-5.7-.65-11.41-.84-17.12s-9.2-5.8-9,0c1.6,46.68,8.68,95.28,35.95,134.49,34.79,50,94.05,73.52,151.86,84.82,47.48,9.29,96.18,11.61,144.46,11.15s96.89-3.79,144.35-13.2c59.31-11.76,120.64-34.25,161.81-80.57,30.49-34.29,45.34-77.8,51.23-122.69.71-5.41,1.29-10.83,1.79-16.26.53-5.77-8.47-5.73-9,0Z" class="cls-11"></path><path d="M952.57,546.7c-3,13.93-4.4,28.13-5.18,42.35-.32,5.78,8.68,5.77,9,0,.74-13.43,2-26.8,4.86-40,1.22-5.64-7.45-8.06-8.68-2.39Z" class="cls-11"></path><path d="M371.46,457.06c.47,20.89,2.74,41.69,10.22,61.33s18,38.3,26.86,57.47c2.08,4.5,8,1.63,8.39-2.27,5.26-49-4.05-99.12,7.83-147.45,1.39-5.62-7.29-8-8.68-2.39-12.09,49.18-2.8,100-8.15,149.84l8.38-2.27C407.81,552.87,397.6,535,390.36,516s-9.45-38.78-9.9-58.94c-.13-5.78-9.13-5.8-9,0Z" class="cls-11"></path><path d="M415.92,423.34c0,59,2.37,119.59,35.95,170.42,2.39,3.63,8.37,2.36,8.38-2.27.09-28.06,5.5-56.17,13.34-83,8.37-28.65,20-57.29,37.83-81.42,8.27-11.18,18.27-21.38,30.56-28.09,5.08-2.78.54-10.55-4.55-7.77-24.3,13.27-40.63,38.44-52.52,62.67-14,28.45-23.42,59.27-29,90.44a273.76,273.76,0,0,0-4.68,47.19l8.39-2.27c-32.72-49.53-34.72-108.47-34.72-165.88,0-5.79-9-5.8-9,0Z" class="cls-11"></path><path d="M535.82,397.34c32.39,45.4,69.8,90,84.76,144.87a167,167,0,0,1,5.92,49.28c-.14,4.49,6.21,6.08,8.39,2.27,14.88-26.08,25.11-55,33.75-83.68,8.73-28.92,16-58.74,19-88.87,1.08-11.15,1.86-23-1-34-1.44-5.6-10.12-3.23-8.68,2.39,2.28,8.87,1.7,18.48,1,27.51a322.81,322.81,0,0,1-6,39.83,575.69,575.69,0,0,1-26.41,90.23,305.2,305.2,0,0,1-19.41,42.08l8.39,2.27c1.92-60.46-30.34-113.62-64.44-161-9.09-12.63-18.43-25.07-27.47-37.73-3.33-4.67-11.14-.18-7.77,4.54Z" class="cls-11"></path><path d="M773.57,405.89a278.78,278.78,0,0,1,24.87,196.39c-1.27,5.2,5.29,7.46,8.22,3.47,40.59-55.1,65.7-127,41.44-194.26-2-5.4-10.65-3.07-8.68,2.4,23.52,65.2-1.25,134-40.53,187.32l8.23,3.47a288.54,288.54,0,0,0-25.77-203.34c-2.74-5.1-10.51-.56-7.78,4.55Z" class="cls-11"></path><path d="M848.17,450.35c37.65,64,57.16,140.25,59.05,214.26a333.81,333.81,0,0,1-2.7,54.55c-.65,4.65,5.54,8.34,8.22,3.46,22.29-40.44,31.37-86,41.48-130.63,1.28-5.64-7.4-8-8.68-2.39-9.93,43.8-18.68,88.76-40.57,128.48l8.23,3.47c4.8-34.54,3.78-69.68-.74-104.2A489.17,489.17,0,0,0,884.19,504.8a399.69,399.69,0,0,0-28.25-59c-2.93-5-10.72-.47-7.77,4.54Z" class="cls-11"></path><path d="M372.78,453.88C353.14,479,340.46,509,330.91,539.15c-10.72,33.91-17.47,69.12-21.08,104.48a468.06,468.06,0,0,0-2.5,55.9l8.38-2.27c-9.2-14.32-20.58-27.18-29.25-41.83-10.77-18.19-14.91-38.73-16.45-59.61-.42-5.74-9.42-5.79-9,0,1.6,21.71,5.74,43.2,16.61,62.32,8.77,15.42,20.74,28.76,30.32,43.66,2.34,3.63,8.47,2.36,8.39-2.27-.6-32.86,2.61-65.81,8.53-98.11,6.15-33.49,15.09-67,29.11-98.06,6.83-15.16,14.9-30,25.17-43.12,3.53-4.51-2.79-10.92-6.36-6.36Z" class="cls-11"></path><path d="M678.41,390.65c14.54,21.7,28.86,43.61,41.07,66.73,12,22.81,22.82,47.49,25.61,73.39.44,4.12,6,6.52,8.38,2.27,22.62-40.85,5.44-89.72,24.14-131.48,2.35-5.24-5.4-9.82-7.77-4.54-9.27,20.7-10.5,43-11.25,65.38-.76,22.64-1.65,45.8-12.89,66.1l8.39,2.27c-2.85-26.45-13.13-51.46-25.26-74.92-12.54-24.23-27.48-47.1-42.65-69.74-3.21-4.79-11-.29-7.77,4.54Z" class="cls-11"></path><path d="M440.87,959.35c-20.18,8-39.89,17.15-60,25.31-4.43,1.8-4.25,8.82,1.2,8.84,42.94.17,86,6.36,126.6,20.58,26.67,9.33,53.73,22.12,75,41.11,6.49,5.8,13.92,13.48,16.67,21.12,1.95,5.41,10.65,3.08,8.68-2.39-7.06-19.6-28.12-33.81-45.07-44.07-31-18.8-66.28-30.66-101.74-37.63a423.39,423.39,0,0,0-80.13-7.72l1.2,8.84c20.11-8.16,39.82-17.31,60-25.31,5.32-2.11,3-10.82-2.39-8.68Z" class="cls-11"></path><path d="M766.06,968c20.19,8,39.89,17.15,60,25.31l1.2-8.84c-44-.07-88.21,6.62-129.67,21.48-28.15,10.08-56.46,23.68-78.93,43.78-7.48,6.69-14.88,14.56-18.35,24.16-2,5.46,6.73,7.81,8.68,2.39,2.33-6.45,8.53-13.19,14-18.3,9-8.45,19.3-15.44,29.93-21.65,30.41-17.77,64.46-29.14,98.93-35.86a390.49,390.49,0,0,1,75.44-7c5.42,0,5.65-7,1.19-8.84-20.12-8.16-39.82-17.3-60-25.31-5.39-2.14-7.73,6.56-2.4,8.68Z" class="cls-11"></path><path d="M546.27,984.4c15.32,6.4,26.27,23.63,34.16,37.37,9.61,16.75,17.19,35.32,19.89,54.54.62,4.42,7.84,4.17,8.68,0,3.68-18.29,8.37-36.5,15.27-53.87,6.15-15.46,14.57-32.29,28.53-42.13,4.7-3.31.21-11.12-4.54-7.77-14.93,10.52-24.12,27.06-31,43.56-7.79,18.55-12.92,38.13-16.89,57.82H609c-2.93-20.84-11.55-41.21-22.27-59.2-9.12-15.31-21.09-31.9-38.06-39-5.34-2.23-7.67,6.47-2.4,8.68Z" class="cls-11"></path><path d="M321.83,903.54c-16.28,6-29.89,14.37-41.4,27.39-4.35,4.93-8.64,9.9-13.72,14.11-7.67,6.37-16.83,10.76-26.08,14.31-3.48,1.33-4.65,6.13-1.08,8.22,57,33.38,119.66,53.33,185.59,57.81,22.21,1.51,44.45,1.25,66.7,1.58,15.46.23,32.17.17,46.78,6s21.65,18.85,24.57,33.78l.45-3.46c-10,17.33-17.49,36.13-25.6,54.39-9.23,20.77-18.56,41.77-30.67,61.06-5.45,8.68-11.53,17.16-19.47,23.73-4.47,3.7,1.93,10,6.36,6.37,13.34-11,22.45-27.17,30.45-42.25,9.71-18.28,18-37.29,26.34-56.21,3.88-8.77,7.75-17.55,11.89-26.2,1.69-3.55,3.43-7.08,5.27-10.55,1.75-3.32,4.21-6.2,3.49-10.09-1.92-10.44-6.32-21-13.87-28.61-15.09-15.29-39.22-16.24-59.32-16.78-33.11-.89-66.09-.05-99-4.18-55.11-6.9-107.54-26.12-155.38-54.12L243,968c16.25-6.23,29.72-14.79,41.23-27.84,4.34-4.92,8.64-9.88,13.76-14,7.73-6.27,16.93-10.52,26.21-13.95,5.39-2,3.06-10.69-2.39-8.67Z" class="cls-11"></path><path d="M885.1,912.21c9,3.35,18.11,7.51,25.41,13.95,4.67,4.13,8.4,9,12.19,13.94C933.14,953.62,946.13,961.92,962,968L961,959.8c-43,25.18-89.62,43.63-138.87,52-33.18,5.63-66.55,5.75-100.08,6.14-20,.23-44-.31-60.78,12.44-8.16,6.21-13.32,15.11-16.36,24.79a72.17,72.17,0,0,0-2,7.94c-.8,4.15,1.54,6.94,3.4,10.49,4,7.72,7.61,15.68,11.11,23.66,9.27,21.15,17.86,42.61,28.09,63.32,8.44,17.09,18,35.85,33,48.23,4.42,3.67,10.83-2.67,6.36-6.37-14.89-12.33-24.15-31.17-32.47-48.22-10-20.53-18.51-41.75-27.7-62.65a290.16,290.16,0,0,0-13.8-28.31l.46,3.46c2.52-12.93,7.72-25.39,19.68-32,12.27-6.77,27.56-7.2,41.22-7.6,20.54-.6,41.09-.11,61.62-1.17a415.14,415.14,0,0,0,80.72-11.83c39.07-9.92,76.25-26.2,111-46.54,3.59-2.1,2.4-6.89-1.07-8.22-9-3.47-18-7.79-25.28-14.31-4.64-4.17-8.36-9.11-12.16-14-10.43-13.48-23.56-21.59-39.5-27.48-5.44-2-7.78,6.68-2.39,8.67Z" class="cls-11"></path><path d="M207.27,265.75a43.93,43.93,0,0,0-7.47,10.32,4.61,4.61,0,0,0,1.62,6.16,4.55,4.55,0,0,0,6.15-1.61,35.28,35.28,0,0,1,6.07-8.51c4-4.16-2.33-10.53-6.37-6.36Z" class="cls-11"></path><path d="M215.12,258.53a5.82,5.82,0,0,0,1.17.36c-.24,0-.78-.39-.24-.08l.66.37c.17.11.34.24.51.34.49.29-.59-.55-.19-.14s.67.62,1,1a4.52,4.52,0,0,0,6.36,0,4.6,4.6,0,0,0,0-6.36,14,14,0,0,0-6.85-4.13,4.5,4.5,0,0,0-2.4,8.68Z" class="cls-11"></path></g><g id="erding"><path d="M257.33,815.74c5.21,35.61-11.6,39.87-25.9,39.87s-31-4.24-25.9-39.87c5.28-37,25.9-65.31,25.9-65.31S252.2,780.67,257.33,815.74Z" class="cls-18"></path><path d="M253,816.94c1.4,10.16,2.67,26.08-8.3,31.73-6.3,3.24-15.4,3.23-22.16,1.56-10.38-2.56-13.31-12.05-13.43-21.84-.22-17.41,5.39-35.39,12.49-51.11a140.17,140.17,0,0,1,13.72-24.58h-7.77A158.75,158.75,0,0,1,253,816.94c.88,5.71,9.55,3.28,8.68-2.39a164.87,164.87,0,0,0-26.36-66.39c-2-2.95-5.73-2.81-7.77,0-6,8.29-10.77,17.71-14.83,27.08C205,793,198.31,814,200.4,833.57c1.26,11.89,7.31,22.1,19.39,25.25,9,2.34,20.39,2.11,28.8-2.05,15.57-7.71,15.11-27.52,13.08-42.22C260.88,808.84,252.21,811.27,253,816.94Z"></path><path d="M1014.58,815.74c5.2,35.61-11.6,39.87-25.9,39.87s-31-4.24-25.91-39.87c5.29-37,25.91-65.31,25.91-65.31S1009.45,780.67,1014.58,815.74Z" class="cls-18"></path><path d="M1010.24,816.94c1.4,10.16,2.67,26.08-8.3,31.73-6.3,3.24-15.4,3.23-22.16,1.56-10.38-2.56-13.32-12.05-13.44-21.84-.21-17.41,5.4-35.39,12.5-51.11a139.53,139.53,0,0,1,13.72-24.58h-7.77a158.89,158.89,0,0,1,25.45,64.24c.87,5.71,9.55,3.28,8.68-2.39a165,165,0,0,0-26.36-66.39c-2-2.95-5.73-2.81-7.77,0-6,8.29-10.77,17.71-14.83,27.08-7.7,17.75-14.4,38.74-12.32,58.33,1.27,11.89,7.32,22.1,19.39,25.25,9,2.34,20.4,2.11,28.8-2.05,15.57-7.71,15.11-27.52,13.09-42.22C1018.13,808.84,1009.45,811.27,1010.24,816.94Z"></path></g></g></svg>